<svg id="Layer_1" xmlns="http://www.w3.org/2000/svg" xmlns:xlink="http://www.w3.org/1999/xlink" viewBox="0 0 400 121.9"><style>.st0{fill:#fff}.st1{fill:#1c8abb}.st1,.st2{fill-rule:evenodd;clip-rule:evenodd}</style><path class="st0" d="M114.6 42h170.7v37.9H114.6z"/><path class="st1" d="M126.6 80.9c-11.4 0-19.7-8.3-19.7-19.8s8.3-19.8 19.7-19.8c8.3 0 12.8 4.3 13.7 5.4l-3.6 5.9c-1.1-1-4.7-3.9-9.6-3.9-6.8 0-11.7 5.2-11.7 12.4 0 3.4 1.2 6.5 3.2 8.8 2.2 2.4 5.3 3.7 8.7 3.7 5.1 0 9.1-3.1 10.7-4.6.4 2.4 1.3 4.7 2.5 6.7-1.7 1.7-6.6 5.2-13.9 5.2zm121.8-.6c-5.9.8-11.7-.9-11.7-9.6v-31h7.5v29.9c0 3.3 1.5 4.6 4.2 4.4v6.3zm5.9-11.4c0 10.4 6.9 12.3 11.5 11.4V78c-3.5.5-8.9-.9-8.9-9.2V52.3h8.2v-2.4h-8.2v-8.6h-2.6v27.6zm30-16.7v-2.6 2.6zm0 0c-6.4-1.2-11.7 6.1-11.7 14.4v13.5H270V50h2.6v7.6c1.6-4.6 5.7-9.1 11.7-7.9v2.5zm104.3 28.2c-2.7.5-7.2-.6-7.2-6.4V39.7h2.6v33.6c0 4.4 2.4 5 4.6 4.7v2.4zM158.2 49.3c-9.2 0-16.6 6.6-16.6 15.8 0 9.3 7.4 15.8 16.7 15.8 9.2 0 16.6-6.5 16.6-15.8-.1-9.3-7.5-15.8-16.7-15.8zm0 25.2c-4.9 0-9-3.8-9-9.4 0-5.6 4.1-9.4 9-9.4s9 3.9 9 9.4c0 5.6-4.1 9.4-9 9.4zm38.7-24.8v7.4c-8.4-1.6-10.7 6.8-10.7 11.2v12h-7.5V50h7.2v7.1c1.4-4.3 6.4-8.4 11-7.4zm26.4.3v2.6c-2.6-2.1-6-3.3-9.5-3.3-9.3 0-16 6.7-16 15.9 0 4.2 1.5 8 4.3 11 2.9 3.1 7.1 4.8 11.7 4.8 3.8 0 7-1.1 9.6-3.2v2.5h7.2V50h-7.3zm-8.9 24.4c-4.9 0-9-3.8-9-9.4 0-5.6 4.1-9.4 9-9.4s9 3.9 9 9.4c-.1 5.6-4.2 9.4-9 9.4zM312.7 50v6.7c-2.6-4.4-7.4-7.3-13-7.3-8.9 0-15.8 6.9-15.8 15.8 0 4.3 1.6 8.3 4.5 11.2 2.9 2.9 7 4.6 11.3 4.6 4.3 0 8.4-1.6 11.3-4.6.7-.7 1.3-1.4 1.8-2.2v6h2.6V50h-2.7zm-13.1 28.6c-7.5 0-13.1-5.8-13.1-13.4 0-7.5 5.8-13.4 13.1-13.4 7.2 0 12.8 5.6 13 12.9v1.1c-.2 7.3-5.7 12.8-13 12.8zM361.9 49c-8.9 0-15 7-15 16 0 4.4 1.6 8.4 4.5 11.3 2.9 3 7 4.6 11.3 4.6 4.2 0 8.1-1.5 11-4.3l-1.4-2.2c-2.4 2.6-5.7 4.2-9.6 4.2-7.5 0-13.1-5.8-13.1-13.6h25.8c.9-9.4-4.8-16-13.5-16zm0 2.4c6.5 0 10.9 4.9 10.8 11.2h-22.9c.9-6.5 5.5-11.2 12.1-11.2zM343.1 50l-9.2 23.5c-.6 1.5-1.1 3.4-1.1 3.4h-.1s-.5-1.9-1.1-3.4L322.4 50h-2.8l11.9 30.2h2.5L345.8 50h-2.7z"/><path class="st2" d="M24.3 34.1c-.3.3-.6.7-.9 1 .2-.3.5-.7.9-1zm.2-.3l-.3.3c.2-.1.3-.2.3-.3zm.4-.4c-.1.1-.1.2-.2.2l.2-.2zm.3-.3l-.2.2.2-.2zm.3-.4l-.2.2c.1 0 .2-.1.2-.2zm.4-.3l-.1.1.1-.1zm53.7-1.6c1.5 1.3 3 2.8 4.3 4.3-1.3-1.5-2.7-3-4.3-4.3zm-.3-.3c.1.1.2.2.3.2-.1 0-.2-.1-.3-.2zm-.4-.3c.1.1.2.2.3.2-.1-.1-.2-.1-.3-.2zm-.3-.3c.1.1.2.1.2.2-.1-.1-.1-.2-.2-.2zm-.4-.3l.2.2c-.1-.1-.1-.2-.2-.2zm-.4-.3c.1 0 .1.1.2.1-.1 0-.1-.1-.2-.1zm-.4-.3s.1 0 .1.1c0-.1-.1-.1-.1-.1zm-.8-.6zm-.5-.4c0 .1 0 .1 0 0 0 .1 0 .1 0 0zm-.4-.3c0 .1 0 .1 0 0 0 .1 0 .1 0 0zm-.5-.2c.1 0 .1 0 0 0 .1 0 .1 0 0 0zm-.4-.3zm-18.3-6zm-.6-.1zm-.6 0c.1 0 .1 0 0 0 .1 0 .1 0 0 0zm-.5 0zm-.6 0zm-.5 0zM19.6 40.4zm66.7-2.2c1.1 1.5 2 3.2 2.9 4.9-.9-1.7-1.8-3.4-2.9-4.9zm-.3-.4c.1.1.2.2.3.4-.1-.2-.2-.3-.3-.4zm-63.7-1.3s-.1 0 0 0c-.1 0 0 0 0 0zm.3-.5l-.1.1c.1 0 .1-.1.1-.1zm.4-.5c0 .1-.1.1-.1.2 0-.1.1-.1.1-.2zm.4-.4c-.1.1-.2.2-.2.3 0-.1.1-.2.2-.3zm60.5 0c.7.9 1.4 1.7 2.1 2.6-.7-.8-1.3-1.7-2.1-2.6zM14.4 54.8s0 .1 0 0c0 .1 0 0 0 0zm.1-.5zm.1-.5v.3c-.1-.1 0-.2 0-.3zm.1-.5c0 .1 0 .2-.1.3 0-.1 0-.2.1-.3zm77.9-.3zm-77.8-.2c0 .1-.1.3-.1.4 0-.1 0-.3.1-.4zm77.6-.5c0 .1.1.2.1.4 0-.1 0-.3-.1-.4zm-76.8-2.9c-.3 1.1-.6 2.2-.8 3.3.2-1.1.5-2.2.8-3.3zm.1-.4c0 .1-.1.3-.1.4.1-.1.1-.3.1-.4zm.2-.5c0 .1-.1.3-.1.4 0-.1 0-.2.1-.4zm.1-.4c0 .1-.1.3-.1.4.1-.2.1-.3.1-.4zm.2-.4c0 .1-.1.2-.1.4 0-.2 0-.3.1-.4zm.1-.5c0 .1-.1.2-.1.3.1-.1.1-.2.1-.3zm.2-.3c0 .1-.1.2-.1.2 0-.1 0-.2.1-.2zM89.2 43zM14 61.5zm79.3 0zm0-.8zm-.1-3.2zM14.1 57c-.1.7-.1 1.5-.1 2.2 0-.7.1-1.5.1-2.2zm.4 10c.2 1.3.5 2.6.8 3.9-.4-1.3-.6-2.6-.8-3.9zm78.6-2.1zM14 61.7c0 .5 0 1.2.1 1.9-.1-.6-.1-1.2-.1-1.9zm79.3 0c0 1-.1 2-.2 3.1.2-1.8.2-3 .2-3.1z"/><path class="st2" d="M53.7 21.1c-10.8 0-20.6 4.3-27.8 11.3 7.1-7 17-11.3 27.8-11.3zM14.4 54.9c-.1.7-.2 1.4-.3 2.2v-.4c.1-.7.2-1.2.3-1.8zm.1-.4v.3c-.1-.1-.1-.2 0-.3zm0-.4zm.1-.4zm.1-.5zm77.9-.1c.2 1.2.4 2.4.5 3.5 0 .3.1.6.1.9-.1-1.5-.3-2.9-.6-4.4zm-77.8-.4c0 .1 0 .1 0 0 0 .1 0 .1 0 0zm77.7 0c0 .1 0 .2.1.3-.1-.1-.1-.2-.1-.3zm-.1-.4zm-76.8-2.9zm.2-.5c0 .1 0 .1 0 0 0 .1 0 .1 0 0zm.1-.4zm.2-.5s-.1.1 0 0c-.1.1 0 0 0 0zm.1-.5zm.2-.4s0 .1-.1.1c.1 0 .1-.1.1-.1zm3.2-6.7c-1.2 2-2.2 4.2-3.1 6.4.5-1.3 1-2.6 1.7-3.8.4-.8.9-1.7 1.4-2.6zm66.7-2.2zm-.3-.4zm-63.8-1.3c-1 1.2-1.8 2.6-2.7 3.9l2.7-3.9zm.4-.4c-.1.1-.2.3-.3.4.1-.1.2-.3.3-.4zm.3-.4c-.1.1-.2.2-.2.3 0-.1.1-.2.2-.3zm.2-.3l-.1.1c.1 0 .1 0 .1-.1zm1.2-1.3zm.3-.4l-.1.1c.1 0 .1-.1.1-.1zm.4-.4l-.1.1s.1 0 .1-.1zm.4-.4l-.2.2.2-.2zm.4-.4l-.2.2.2-.2zm53.8-1.8s0 .1 0 0c0 .1 0 0 0 0zm-.4-.3l.1.1-.1-.1zm-.4-.3l.1.1c0-.1 0-.1-.1-.1zm-.4-.4c.1 0 .1.1.2.1-.1 0-.1 0-.2-.1zm-.4-.3l.2.2c-.1-.1-.2-.1-.2-.2zm-.5-.3c.1.1.2.1.3.2-.1-.1-.2-.2-.3-.2zm-.9-.7c.3.2.6.4.8.6-.3-.2-.5-.4-.8-.6zm-.5-.3c.1.1.3.2.4.3-.1-.1-.2-.2-.4-.3zm-.4-.3c.1.1.3.2.4.3-.1-.1-.2-.2-.4-.3zm-.4-.3c.1.1.3.2.4.3-.2-.1-.3-.2-.4-.3zm-.5-.3c.1.1.3.2.4.3-.1-.1-.2-.2-.4-.3zm-18.3-6c6.7.5 12.9 2.6 18.3 6-5.4-3.4-11.6-5.5-18.3-6zm-.5-.1h.5c-.2.1-.4 0-.5 0zm-.6 0h.5-.5zm-.5 0h.5-.5zm-.6 0h.5-.5zm-.6 0h.5-.5z"/><defs><path id="SVGID_1_" d="M53.7 21.1c-10.8 0-20.6 4.3-27.8 11.3l-.1.1-.2.2-.2.2-.2.2-.2.2-.1.1c-.1.1-.1.2-.2.2l-.1.1-.3.3v.1c-.3.3-.6.7-.9 1H84c-1.3-1.6-2.8-3-4.3-4.3h-.1c-.1-.1-.2-.2-.3-.2l-.1-.1c-.1-.1-.2-.1-.3-.2l-.1-.1c-.1-.1-.2-.1-.2-.2-.1 0-.1-.1-.2-.1l-.2-.2-.2-.2s-.1-.1-.2-.1c-.1-.1-.2-.2-.3-.2l-.1-.1c-.3-.2-.6-.4-.8-.6-.1-.1-.3-.2-.4-.3-.1-.1-.3-.2-.4-.3h-.1c-.1-.1-.3-.2-.4-.3-.1-.1-.3-.2-.4-.3-5.4-3.4-11.6-5.5-18.3-6h-2.3c-.2-.2-.4-.2-.6-.2z"/></defs><use xlink:href="#SVGID_1_" overflow="visible" fill-rule="evenodd" clip-rule="evenodd"/><clipPath id="SVGID_2_"><use xlink:href="#SVGID_1_" overflow="visible"/></clipPath><g clip-path="url(#SVGID_2_)"><image width="124" height="31" xlink:href="C10DAD82.jpg" transform="matrix(.4982 0 0 -.4982 22.714 35.76)" overflow="visible"/></g><defs><path id="SVGID_3_" d="M83.9 35.1H23.3c-.1.1-.2.2-.2.3l-.1.1c0 .1-.1.1-.1.2-.1.1-.2.2-.2.3l-.1.1c-.1.1-.2.3-.3.4-1 1.2-1.8 2.6-2.7 3.9-.5.9-1 1.7-1.4 2.6h71c-.8-1.7-1.8-3.3-2.9-4.9-.1-.1-.2-.2-.3-.4-.7-.8-1.3-1.7-2.1-2.6z"/></defs><use xlink:href="#SVGID_3_" overflow="visible" fill-rule="evenodd" clip-rule="evenodd"/><clipPath id="SVGID_4_"><use xlink:href="#SVGID_3_" overflow="visible"/></clipPath><g clip-path="url(#SVGID_4_)"><image width="146" height="19" xlink:href="C10DAD86.jpg" transform="matrix(.4982 0 0 -.4982 17.236 43.733)" overflow="visible"/></g><defs><path id="SVGID_5_" d="M89.2 43h-71c-.6 1.2-1.2 2.5-1.7 3.8 0 .1-.1.2-.1.2s0 .1-.1.1c0 .1-.1.2-.1.3v.1c0 .1-.1.2-.1.4v.1c0 .1-.1.3-.1.4v.1c0 .1-.1.3-.1.4v.1c0 .1-.1.3-.1.4-.3 1.1-.6 2.2-.8 3.3v.1c0 .1-.1.3-.1.4v.1c0 .1 0 .2-.1.3v1.2c-.1.6-.2 1.2-.2 1.8h78.9c-.1-1.2-.3-2.4-.5-3.5V53c0-.1 0-.2-.1-.3 0-.1 0-.2-.1-.4-1.1-3.3-2.2-6.4-3.6-9.3z"/></defs><use xlink:href="#SVGID_5_" overflow="visible" fill-rule="evenodd" clip-rule="evenodd"/><clipPath id="SVGID_6_"><use xlink:href="#SVGID_5_" overflow="visible"/></clipPath><g clip-path="url(#SVGID_6_)"><image width="162" height="30" xlink:href="C10DAD81.jpg" transform="matrix(.4982 0 0 -.4982 13.25 57.185)" overflow="visible"/></g><path class="st2" d="M15.3 70.9c4.5 17 20 29.5 38.4 29.5-10.2 0-19.4-3.8-26.5-10.1h52.9-52.9c-5.7-5.1-9.9-11.7-11.9-19.2v-.2zM93.1 65c-.2 1.7-.5 3.8-1.1 6.1-1.9 7-5.6 13.3-10.7 18.2C87.8 83 92.1 74.5 93.1 65zm0-.2zm-79-1.2c.1 1.1.2 2.3.4 3.4-.2-1.2-.4-2.4-.4-3.4zM93.3 61zM14 59.2zm79.2-1.5c.1 1 .1 2 .1 3.1 0-1.1 0-2.1-.1-3.1z"/><defs><path id="SVGID_7_" d="M93.1 56.6H14.2v.4c-.1.7-.1 1.5-.1 2.2v2.5h79.3v-1c0-1 0-2-.1-3.1v-.1c-.1-.3-.2-.6-.2-.9z"/></defs><use xlink:href="#SVGID_7_" overflow="visible" fill-rule="evenodd" clip-rule="evenodd"/><clipPath id="SVGID_8_"><use xlink:href="#SVGID_7_" overflow="visible"/></clipPath><g clip-path="url(#SVGID_8_)"><image width="162" height="14" xlink:href="C10DAD83.jpg" transform="matrix(.4982 0 0 -.4982 13.25 62.663)" overflow="visible"/></g><defs><path id="SVGID_9_" d="M93.3 61.7H14c0 .6 0 1.3.1 1.9.1 1 .2 2.2.4 3.4.2 1.3.5 2.6.8 3.9v.2h76.6c.6-2.3 1-4.4 1.1-6.1v-.2c.2-1 .3-2 .3-3.1z"/></defs><use xlink:href="#SVGID_9_" overflow="visible" fill-rule="evenodd" clip-rule="evenodd"/><clipPath id="SVGID_10_"><use xlink:href="#SVGID_9_" overflow="visible"/></clipPath><g clip-path="url(#SVGID_10_)"><image width="162" height="21" xlink:href="C10DAD80.jpg" transform="matrix(.4982 0 0 -.4982 13.25 71.631)" overflow="visible"/></g><defs><path id="SVGID_11_" d="M92 71.1H15.4c2 7.5 6.2 14.2 11.9 19.2h52.9c.3-.3.6-.5.9-.8l.1-.1.2-.2c4.9-4.9 8.7-11.1 10.6-18.1z"/></defs><use xlink:href="#SVGID_11_" overflow="visible" fill-rule="evenodd" clip-rule="evenodd"/><clipPath id="SVGID_12_"><use xlink:href="#SVGID_11_" overflow="visible"/></clipPath><g clip-path="url(#SVGID_12_)"><image width="157" height="42" xlink:href="C10DAD8E.jpg" transform="matrix(.4982 0 0 -.4982 14.745 91.064)" overflow="visible"/></g><path class="st2" d="M80.1 90.3c-7 6.3-16.3 10.1-26.4 10.1 10.2 0 19.4-3.8 26.4-10.1zm.9-.8c-.3.3-.6.6-.9.8.3-.2.6-.5.9-.8zm.3-.3l-.2.2.2-.2z"/><defs><path id="SVGID_13_" d="M80.1 90.3H27.2c7 6.3 16.3 10.1 26.5 10.1 10.1 0 19.4-3.8 26.4-10.1z"/></defs><use xlink:href="#SVGID_13_" overflow="visible" fill-rule="evenodd" clip-rule="evenodd"/><clipPath id="SVGID_14_"><use xlink:href="#SVGID_13_" overflow="visible"/></clipPath><g clip-path="url(#SVGID_14_)"><image width="109" height="23" xlink:href="C10DAD85.jpg" transform="matrix(.4982 0 0 -.4982 26.701 101.026)" overflow="visible"/></g><path class="st2" d="M81.1 89.4c-.1.1-.1.1 0 0-.1.1-.1.1 0 0z"/></svg>