<svg id="Слой_1" xmlns="http://www.w3.org/2000/svg" viewBox="0 0 184.3 53"><style>.st0{fill:none;stroke:#000;stroke-width:.764}</style><path d="M63.9 10c2.2-.8 4.4-1.2 6.9-1.2 6.3 0 11.9 2.9 15.6 7.4.5.6.8 1.4.8 2.2 0 1.1-.5 2.1-1.3 2.7v.1c-.6.4-1.3.7-2.1.7-1.1 0-2.1-.5-2.7-1.3-.7-.9-1.6-1.7-2.6-2.4-2.2-1.5-4.8-2.5-7.7-2.5-1.6 0-3.1.3-4.5.8-2.7 1-5.1 3-6.6 5.4-1.2 2-2 4.4-2 6.9 0 1.9.4 3.6 1.1 5.2.9 2.1 2.4 4 4.2 5.4 2.2 1.6 4.9 2.6 7.9 2.6 4.1 0 7.8-2 10.2-4.9.6-.8 1.6-1.3 2.7-1.3 1.9 0 3.5 1.5 3.5 3.5 0 .8-.3 1.6-.8 2.2-3.7 4.6-9.3 7.5-15.6 7.5-11.1 0-20.1-9-20.1-20.1 0-3.9 1.1-7.6 3.1-10.7 2.3-3.7 5.9-6.6 10-8.2zm41.5.1c2.2-.8 4.4-1.2 6.9-1.2 6.3 0 11.9 2.9 15.6 7.4.5.6.8 1.4.8 2.2 0 1.1-.5 2.1-1.3 2.7v.1c-.6.4-1.3.7-2.1.7-1.1 0-2.1-.5-2.7-1.3-.7-.9-1.6-1.7-2.6-2.4-2.2-1.6-4.8-2.5-7.7-2.5-1.6 0-3.1.3-4.5.8-2.7 1-5.1 3-6.6 5.4-1.2 2-2 4.4-2 6.9 0 1.8.4 3.6 1.1 5.2.9 2.1 2.4 4 4.2 5.4 2.2 1.6 4.9 2.6 7.8 2.6 4.1 0 7.8-2 10.2-4.9.6-.8 1.6-1.3 2.7-1.3 1.9 0 3.5 1.5 3.5 3.5 0 .8-.3 1.6-.8 2.2-3.7 4.6-9.3 7.5-15.6 7.5-11.1 0-20.1-9-20.1-20 0-3.9 1.1-7.6 3.1-10.7 2.4-3.9 6-6.8 10.1-8.3zm32.9 31.3c3.7 4.6 9.3 7.5 15.6 7.5 11.1 0 20-9 20-20.1 0-3.9-1.1-7.6-3.1-10.7-.6-1-1.7-1.6-2.9-1.6-1.9 0-3.4 1.5-3.4 3.5 0 .7.2 1.4.6 1.9 1.2 2 2 4.4 2 6.9 0 1.9-.4 3.6-1.1 5.2-.9 2.1-2.4 4-4.2 5.4-2.2 1.6-4.9 2.6-7.9 2.6-4.1 0-7.8-2-10.2-4.9-1.9-2.3-2.9-5.1-2.9-8.3 0-4.4 2.2-8.3 5.5-10.7 2.1-1.5 4.8-2.5 7.7-2.5 1.6 0 3.1.3 4.6.8.4.1.8.2 1.2.2 1.9 0 3.5-1.5 3.5-3.5 0-1.5-.9-2.8-2.3-3.2-2.2-.8-4.4-1.2-6.9-1.2-6.3 0-11.9 2.9-15.6 7.4-2.8 3.4-4.5 7.8-4.5 12.6-.1 4.9 1.6 9.3 4.3 12.7zM22.5 10c-1.3.5-2.3 1.8-2.3 3.3 0 1.9 1.5 3.5 3.5 3.5.4 0 .8-.1 1.2-.2 1.4-.5 2.9-.8 4.6-.8 2.8 0 5.5 1 7.7 2.5L17.4 34c-.7-1.6-1.1-3.3-1.1-5.2 0-2.5.7-4.9 2-6.9.3-.5.6-1.3.6-2 0-1.9-1.5-3.4-3.5-3.4-1.2 0-2.3.7-2.9 1.6-1.9 3.1-3.1 6.7-3.1 10.7 0 11.1 9 20 20.1 20 6.3 0 12-2.9 15.6-7.5.5-.6.8-1.3.8-2.2 0-1.9-1.5-3.5-3.5-3.5-1.1 0-2.1.5-2.7 1.3-2.4 3-6.1 4.9-10.2 4.9-2.9 0-5.7-1-7.8-2.6l22.8-18.3c.9-.6 1.4-1.6 1.4-2.7 0-.8-.3-1.6-.8-2.2-3.7-4.5-9.3-7.4-15.6-7.4-2.6.2-4.8.6-7 1.4zm143.9-1.6c0 2.4 1.9 4.3 4.3 4.3s4.3-1.9 4.3-4.3-1.9-4.3-4.3-4.3-4.3 1.9-4.3 4.3zm.8 0c0-1.9 1.6-3.5 3.5-3.5s3.5 1.6 3.5 3.5-1.6 3.5-3.5 3.5c-1.9-.1-3.5-1.6-3.5-3.5z"/><path d="M170.1 8.1h.3c.4 0 .9-.1.9-.6s-.5-.6-.9-.6h-.3v1.2zm-.8-1.9h.9c.9 0 2 0 2 1.1 0 .5-.3.9-.9 1 .2 0 .4.2.5.4l.7 1.7h-.9l-.6-1.2c-.1-.3-.2-.4-.6-.4h-.3v1.8h-.8V6.2z"/></svg>