<svg id="Слой_1" xmlns="http://www.w3.org/2000/svg" viewBox="0 0 400 217"><style>.st0{fill-rule:evenodd;clip-rule:evenodd;fill:#f9000a}</style><path class="st0" d="M259.4 17.1c10.7-5.3 16.2-4.5 16.3.8.1 7-1 16.3-1.6 23-4.1 36.4-10.7 66.1-11.2 103.6 17.7-45.7 32.3-77.2 51.3-116.2 6-12.5 10-10.1 14.9-12.5 19.3-8.6 20-3.3 17.4 7.4-9.3 38.7-33.1 161.2-36.8 180-1.1 5.5-7.1 3.3-8.5 1.1-7.1-9.4-14.8-9.6-14-16 4.4-31.2 20-110.2 24-128.8-20.7 42.2-42 95.1-53 125-2.3 6.3-6.6 5.9-9.2 1.2-3.8-6.7-11-10-12-17.7-3.8-24.5 4.2-71.3 5.3-101-11.1 32.3-30 95.3-38.2 123.6-3.4 11.8-14.8 9.7-11.8-1.5 12.6-47.8 39.6-131.9 51.2-162.2 2.8-7.2 10-6.8 15.9-9.8zm-68.1-5.9c-3.7-.8-14.4 4.9-20.9 5.9-2.1.5-4 2.6-4.7 4.2C155.3 45.3 146 68 138 88.5c-10.4 1.9-22.4 4.2-35.9 7.1 9.7-24.6 19.4-49.1 28.9-72.5 4.7-11.8-7.7-12.9-12.5-1.1-6.2 15.2-17.8 43.8-30.7 77.1-9.4 2.3-19.7 4.9-30.1 8.1-7.7 2.1-7.9 4.1-4.7 8.8 1.9 2.5 5.5 2.2 7.3 4.1 4.5 4.7 7.3 10.3 15.3 11.1-7.4 19.2-14.5 38.7-20.8 57.5-4.1 11.9 7.5 14.4 11.9 1.8 7.1-20.1 14.6-40.5 22.4-61.2 6.4-1.4 21.9-4.7 36.3-7.9-11.4 31.5-18.8 55.2-21.8 66.8-.5 2.2.5 3.3 1 4.4 3.7 5.5 7.5 5.7 12.5 12.7 1.2 1.9 5.7 2.9 7.4-1.8 10.5-32 21.2-61.9 31.3-88.7 4.2-1.1 11.9-2.9 16.6-9.7 8.2-12.3 10.5-9.9 12.7-13.6 2.5-4.8.7-9-8.1-8.1 0 0-3.3.3-9.6 1 9.9-25 18.6-46.3 24.6-62.6 2.3-5.7 2.6-9.8-.7-10.6z"/><path class="st0" d="M181.6 166.7c1.4-1.8 2.7-3.7 3.9-5.4 5.2-7.7.1-12.2-5.2-7.7-.8.7-1.6 1.5-2.3 2.3-.9-2.7-1.8-5.6-2.6-8.2 2.4-3 4.8-6.1 6.9-9.2 8.6-13.3-8.2-20.9-15.5-12.3-3.8 4.5-2.9 9-1.8 13 .3 1.2.8 2.9 1.4 5-2.1 2.1-4.5 4.8-7.7 8.6-8.3 9.6-6 21.9 2.7 24.6 5.3 1.6 10.3-.7 14.6-4.6.2.5.4 1.1.6 1.6 2.3 5.7 9.6 4 6.7-3-.4-1.3-1-2.8-1.7-4.7zm-11.8-12c.7 2.2 1.5 4.6 2.2 6.8-1 .8-1.9 1.6-2.9 2.2-3.4 2-5.9-.1-1.5-6 .7-1.1 1.4-2.1 2.2-3zm2.7-16.8c-.3-.6-.4-1.3-.5-1.8-2.5-9.2 8.1-6.7 2.7-.7-.7.9-1.4 1.8-2.2 2.5z"/></svg>