<svg id="Layer_1" xmlns="http://www.w3.org/2000/svg" viewBox="0 0 400 249"><style>.st0{fill:#cd352a}.st1{fill:#fff}</style><title>hoff_logo</title><g id="Main"><g id="hoff_logo"><path id="Rectangle-31" class="st0" d="M41 12h318c18.2 0 33 14.8 33 33v159c0 18.2-14.8 33-33 33H41c-18.2 0-33-14.8-33-33V45c0-18.2 14.8-33 33-33z"/><path id="Combined-Shape" class="st1" d="M329.4 93h13.1c8.5 0 15.4 6.9 15.4 15.4s-6.9 15.4-15.4 15.4h-13.1v22.9c0 9.3-7.6 16.9-16.9 16.9s-16.9-7.6-16.9-16.9V90c0-22.8 18.5-41.3 41.3-41.3h11.6c8.5 0 15.4 6.9 15.4 15.4s-6.9 15.4-15.4 15.4h-10.9c-4.6 0-8.3 3.7-8.3 8.3V93zm-68.6 0h13.1c8.5 0 15.4 6.9 15.4 15.4s-6.9 15.4-15.4 15.4h-13.1v64.1c0 9.3-7.6 16.9-16.9 16.9s-16.9-7.6-16.9-16.9V90c0-22.8 18.5-41.3 41.3-41.3h11.6c8.5 0 15.4 6.9 15.4 15.4s-6.9 15.4-15.4 15.4H269c-4.6 0-8.3 3.7-8.3 8.3V93zM72.9 165.6V188c0 9.3-7.6 16.9-16.9 16.9s-16.9-7.6-16.9-16.9V60.5c0-9.4 7.6-17 16.9-17s16.9 7.6 16.9 16.9v33h21.8v-33c0-9.3 7.6-16.9 16.9-16.9s16.9 7.6 16.9 16.9v127.5c0 9.3-7.6 16.9-16.9 16.9s-16.9-7.6-16.9-16.9v-56.3c0-4.6-3.7-8.3-8.3-8.3H72.9v42.3zm103.9-81.2h1.5c22.8 0 41.3 18.4 41.3 41.3v37.9c0 22.8-18.5 41.3-41.3 41.3h-1.5c-22.8 0-41.3-18.5-41.3-41.3v-37.9c0-22.9 18.5-41.3 41.3-41.3zm.7 30c-4.8 0-8.6 3.8-8.6 8.6v43.1c0 4.8 3.8 8.6 8.6 8.6s8.6-3.8 8.6-8.6V123c0-4.8-3.8-8.6-8.6-8.6zm135 53.6c10.3 0 18.8 8.4 18.8 18.8s-8.4 18.8-18.8 18.8-18.8-8.4-18.8-18.8 8.5-18.8 18.8-18.8z"/></g></g></svg>