<svg id="Слой_1" xmlns="http://www.w3.org/2000/svg" viewBox="0 0 400 63"><style>.st0{fill:#cc2229}.st1{fill:#2566af}</style><path class="st0" d="M35.9 21.5c0 5.5-4.5 10-10 10s-10-4.5-10-10 4.5-10 10-10c5.6.1 10 4.5 10 10z"/><path class="st1" d="M26.3 31.5s7.3 1.7 17.9-10.9c8.4-10 22.3-9.5 22.3-9.5v20.4s-9.4-1.3-17.4 9.9c-8 11.2-22.9 10.3-22.9 10.3l.1-20.2z"/><path class="st0" d="M76.4 15.4c0-2.6 1.5-4.3 3.9-4.3s3.9 1.7 3.9 4.3v30.8c0 2.6-1.5 4.3-3.9 4.3s-3.9-1.7-3.9-4.3V15.4zm15.3.8c0-3.6 1.6-5.1 4.9-5.1 1.6 0 3 .7 3.9 2.3l13.6 24.5h.1V15.3c0-2.8 1.4-4.2 3.8-4.2 2.3 0 3.8 1.4 3.8 4.2v29.9c0 3.4-1.3 5.4-4.6 5.4-2.5 0-3.3-.6-4.3-2.3L99.3 24.4h-.1v21.9c0 2.8-1.4 4.2-3.8 4.2-2.3 0-3.8-1.4-3.8-4.2l.1-30.1zm44.5 2.9h-7.4c-2.2 0-4-1.3-4-3.6s1.8-3.6 4-3.6h22.5c2.2 0 4 1.3 4 3.6s-1.8 3.6-4 3.6H144v27.1c0 2.6-1.5 4.3-3.9 4.3s-3.9-1.7-3.9-4.3V19.1zm22.1-2.3c0-3.9 1.8-5.1 4.6-5.1h18.3c2.3 0 3.9.7 3.9 3.5 0 2.7-1.7 3.5-3.9 3.5h-15.1V27h13.2c2 0 3.7.6 3.7 3.3s-1.6 3.3-3.7 3.3h-13.2v9.2h15.4c2.3 0 3.9.7 3.9 3.5 0 2.7-1.7 3.5-3.9 3.5h-18.7c-2.8 0-4.6-1.2-4.6-5.1V16.8zm41.1 1.6h8c3.4 0 5.6 1.1 5.6 5.1 0 4.3-2.9 5.1-5.9 5.1h-7.8l.1-10.2zm-7.8 27.8c0 2.6 1.5 4.3 3.9 4.3s3.9-1.7 3.9-4.3V35h7.7c4.3 0 5.4 2.7 5.4 9.4 0 1.5.3 6.1 4.6 6.1 1.8 0 3.7-1.4 3.7-3.4 0-1.8-1.1-3.4-1.1-7.8 0-3.9-.7-7.1-4.7-7.7v-.1c3.7-1 5.9-5 5.9-9.1 0-4.9-2.5-10.6-11.7-10.6h-13c-2.8 0-4.6 1.2-4.6 5.1v29.3z"/><path class="st1" d="M253.4 21.7c-3.2-1.2-6.6-1.9-10-1.9-2 0-5.6.1-5.6 2.5 0 4.9 17.8.3 17.8 14.8 0 10.1-9 12.6-16.5 12.6-5 0-9.1-.5-13.9-1.8v-9.8c3.5 1.6 7.7 2.5 11.6 2.5 3 0 5.8-.7 5.8-2.6 0-5.1-17.8-.5-17.8-15.1 0-10.3 9.7-12.2 17.4-12.2 3.6 0 7.6.5 11.2 1.3v9.7z"/><path class="st1" d="M266.9 21.3h1.2c2 0 4.5.1 4.5 3.1 0 3.1-2.3 3.5-4.5 3.5h-1.2v-6.6zM255 48.7h11.9V37.3h6.3c6.9 0 11.2-4.8 11.2-12.5 0-9.4-5.8-13.9-13.8-13.9H255v37.8z"/><path class="st1" d="M302.1 22.8c3.9 0 6.3 3.4 6.3 7.4 0 4.3-2.6 7.3-6.3 7.3-3.7 0-6.3-3-6.3-7.3-.1-4.1 2.4-7.4 6.3-7.4zm0-12.5c-10.3 0-18.8 7.7-18.8 19.6 0 12.1 8.4 19.4 18.8 19.4 10.3 0 18.8-7.3 18.8-19.4-.1-11.8-8.5-19.6-18.8-19.6z"/><path class="st1" d="M332.5 21.3h.9c2.1 0 4 .3 4 3.3 0 2.8-2 3.2-4 3.2h-.9v-6.5zm-12.1 27.4h12V36.6h.2l5.4 12.1h14.2l-7.4-12.3c-.7-1.1-1.4-1.7-2.1-2.3v-.3c4.6-1.7 6.6-4.1 6.6-9.8 0-9.5-6.5-13.1-14.1-13.1h-14.9l.1 37.8z"/><path class="st1" d="M348 10.9h25.9v12.3l-6.8-.3v25.8h-12.3V22.9l-6.8.3V10.9zm32.3 6.4c-1.6 0-2.8-1.3-2.8-3.1 0-1.9 1.2-3.2 2.8-3.2 1.6 0 2.8 1.3 2.8 3.2 0 1.8-1.2 3.1-2.8 3.1zm0 1c2.1 0 3.7-1.8 3.7-4.1s-1.6-4.1-3.7-4.1-3.7 1.8-3.7 4.1c0 2.2 1.6 4.1 3.7 4.1zm.8-3.9c.7-.1 1-.4 1-1.2 0-1.1-.6-1.3-1.5-1.3h-1.9v4.3h.9v-1.8h.6l.9 1.8h.9l-.9-1.8zm-1.4-.6v-1.1h.8c.4 0 .9 0 .9.4 0 .5-.2.6-.7.6l-1 .1z"/></svg>