<svg id="Слой_1" xmlns="http://www.w3.org/2000/svg" viewBox="0 0 400 163"><style>.st0{fill:#fff}.st0,.st1,.st2{fill-rule:evenodd;clip-rule:evenodd}.st1{fill:#0c2979}.st2{fill:#ffb520}</style><path class="st0" d="M373.5 49.2l-.2 61c-26.5 14.1-52.5 14.8-81.1 2.7-28.6-12.1-73-11.2-103.9 3.5-30.9 14.7-36.8 8.9-65-1.8-28.4-10.6-66.9-22-97.6-2.6l-.5-58.8c28.4-15.2 53-16.8 85.2-3.3s72.3 5.4 97.3-3.8c25-9.3 33.1-13.5 63.6-2.5 30.6 11 73.1 21.3 102.2 5.6z"/><path class="st1" d="M373.5 27.9l-.2 28c-26.5 5.6-52.4 12-81.1 1.3-28.7-10.7-60.9-15.3-90.5-1.9-29.6 13.3-61.4 8.9-91.8.1-30.5-8.8-53.5-12.4-84.2 1.4l-.5-27.6c28.8-8.9 54.5-14.9 85.2-1.6 30.7 13.4 70.9 7 97.3-1.8 26.4-8.8 34.7-10.6 63.6-1.2 29 9.6 71.3 15.5 102.2 3.3z"/><path class="st2" d="M373.5 107.5l-.2 28.9c-24.2 11.6-53.3 11.5-82 2.2-28.7-9.3-60.5-15.7-90-2.4-29.6 13.3-61 7.5-91.4-1.3-30.4-8.8-53.9-11-84.5 2.8V107c28.8-8.9 54.5-13.2 85.2.2 30.7 13.4 68.2 5.3 97.3-1.8 29.1-7.1 38-8.7 63.6-1.2 25.5 7.6 71.1 15.5 102 3.3z"/><path class="st1" d="M52.3 78.6l-18.4 30.6-4.9-.1 22.9-35.7 4.4.2 22.4 36.1h-7.6L52.3 78.6zm52.9-.2l-2.6-1.5c2.2-1.5 4.7-2.8 7.7-3.8 3.8-1.2 8.2-1.8 13.1-1.8 7.6 0 13.9 2.1 19 6.2 2.4 2 4.3 4.2 5.5 6.6 1.2 2.4 1.9 5 1.9 7.9 0 5.5-2.4 10-7.3 13.5s-11.2 5.2-19.1 5.2c-2.7 0-5.2-.1-7.4-.3-2.2-.2-4.2-.6-6-1.1-2.6-.7-5.2-1.9-7.6-3.6l2.6-1.7c1.8 1.4 4 2.5 6.7 3.4 2.6.8 6.1 1.2 10.3 1.2 6 0 10.7-1.5 14.1-4.5 3.3-3 5-6.6 5-10.9l-2.9.7c-1 .2-2 .3-2.9.3-1.2 0-2.3-.1-3.3-.4l-2.9-1c-.6-.3-1.4-.5-2.4-.7-1-.2-2-.4-3.1-.4-1.3 0-2.6.1-3.8.4-.8.1-1.5.3-2 .4-.5.1-1.1.4-2 .7v-2.9c2.8-1.2 5.3-1.8 7.5-1.8 1.2 0 2.3.1 3.4.4 1.1.2 2.2.6 3.2 1.1l2.8.9c.9.2 1.8.3 2.7.3 1.8 0 3.6-.3 5.4-.9 0-4.5-1.5-8.4-4.6-11.7-3.4-3.5-8.2-5.3-14.4-5.3-3.7 0-7 .5-10.1 1.5-2.2.9-4.4 2.1-6.5 3.6zm53.1 5.4h26.5v1.6h-9.6v25.5h-7V85.4h-9.9v-1.6zm32.2-.3h7.7l15.8 20.9 14.9-20.9h2.4l-26.1 37.1h-2.4l7.7-11-20-26.1zm72.4 5.8c0-1.8-.6-3.1-1.9-3.8-1.3-.8-3.7-1.2-7.3-1.2-3.7 0-6.2.4-7.6 1.2-1.3.8-2 2.2-2 4.1h-6.4c0-2.3 1.4-4.1 4.3-5.2 2.9-1.2 6.8-1.7 11.7-1.7 6.1 0 10.4.5 12.7 1.6 2.3 1.1 3.5 3 3.5 5.8v20.4h-21.1c-4.2 0-7.3-.7-9.5-2.1-2.2-1.4-3.3-3.2-3.3-5.5 0-2.5 1.3-4.6 4-6.3 2.7-1.6 6.5-2.4 11.6-2.4h11.3v-4.9zm0 19.5v-13h-11.7c-2.7 0-4.8.6-6.3 1.9-1.5 1.3-2.2 2.9-2.2 4.8s.7 3.4 2 4.6c1.3 1.1 3.3 1.7 5.9 1.7h12.3zm83.4-25.5v10.8h9.7c5.2 0 9.2.8 11.9 2.3 2.7 1.5 4.1 3.5 4.1 5.9 0 2.3-1.4 4.3-4.2 5.8-2.8 1.5-6.7 2.3-11.8 2.3h-16.9V83.3h7.2zm10.1 25.4c2.8 0 5-.6 6.5-1.8 1.5-1.2 2.3-2.8 2.3-4.6 0-1.9-.7-3.4-2.2-4.6-1.4-1.2-3.5-1.8-6.2-1.8h-10.5v12.9h10.1v-.1zm-82.9 4.2c20.8-14.9 41.6-16.9 62.4 0-19.4-25.1-40.4-22.1-62.4 0z"/><path class="st2" d="M305.9 53.8c1.5 23.8-2.8 37.5-28.4 50.4 29.2-9.3 33.8-23.6 28.4-50.4z"/><path class="st1" d="M89.6 76.6l1.4 4.2 2-4.1c1-.6 1.6-1.6 1.6-2.8 0-1.8-1.5-3.2-3.2-3.2-1.8 0-3.2 1.5-3.2 3.2-.2 1.1.5 2.1 1.4 2.7z"/></svg>