<svg xmlns="http://www.w3.org/2000/svg" viewBox="-145.625 -39 400 98.75"><path d="M-134.935-21.302h19.464v47.647h30.38v15.569h-49.844v-63.216zm97.415 0h19.42v37.661c0 3.736-.577 7.257-1.742 10.582A22.889 22.889 0 0 1-25.3 35.65c-2.477 2.477-5.078 4.224-7.801 5.224-3.78 1.411-8.323 2.118-13.62 2.118-3.066 0-6.411-.218-10.032-.652-3.625-.426-6.654-1.285-9.088-2.558-2.438-1.277-4.662-3.099-6.683-5.454-2.02-2.354-3.403-4.78-4.147-7.279-1.201-4.025-1.805-7.587-1.805-10.689v-37.661h19.422v38.56c0 3.443.954 6.135 2.858 8.075 1.907 1.936 4.549 2.91 7.931 2.91 3.351 0 5.979-.959 7.885-2.866 1.907-1.907 2.86-4.617 2.86-8.12v-38.56zm95.952 0h19.461V.817h21.275v-22.119h19.55v63.216h-19.55V16.34H77.893v25.574H58.432v-63.216zM-8.607 19.836h18.52c.402 3.021 1.218 5.321 2.451 6.898 2.007 2.558 4.873 3.84 8.596 3.84 2.779 0 4.919-.655 6.424-1.962 1.501-1.311 2.253-2.825 2.253-4.554 0-1.633-.717-3.099-2.151-4.395-1.429-1.296-4.752-2.518-9.967-3.666C8.98 14.067 2.897 11.509-.744 8.319c-3.667-3.192-5.5-7.262-5.5-12.206 0-3.247.935-6.317 2.814-9.204 1.879-2.892 4.695-5.163 8.466-6.815 3.771-1.653 8.933-2.479 15.491-2.479 8.051 0 14.188 1.501 18.413 4.506 4.224 3.005 6.939 8.86 7.744 15.416h-18.55c-.487-2.844-1.512-4.915-3.071-6.209-1.559-1.296-3.717-1.942-6.466-1.942-2.264 0-3.967.48-5.117 1.446-1.142.961-1.716 2.135-1.716 3.515 0 1.005.474 1.911 1.42 2.716.916.833 3.095 1.607 6.532 2.327 8.51 1.84 14.605 3.703 18.285 5.584s6.361 4.217 8.033 7.007c1.679 2.786 2.516 5.904 2.516 9.358 0 4.054-1.12 7.79-3.353 11.207-2.235 3.421-5.358 6.017-9.367 7.786-4.01 1.763-9.068 2.651-15.168 2.651-10.713 0-18.135-2.07-22.26-6.213-4.125-4.131-6.461-10.555-7.009-16.934zm147.81 1.799V8.424h2.655v5.202h5.209V8.424h2.662v13.211h-2.662v-5.78h-5.209v5.78h-2.655zm25.141 0h-2.892l-1.151-3.003h-5.258l-1.085 3.003h-2.821l5.124-13.211h2.81l5.273 13.211zm-4.895-5.228l-1.811-4.902-1.781 4.902h3.592zm6.328 5.228V8.424h2.584l5.387 8.827V8.424h2.474v13.211h-2.67l-5.302-8.616v8.616h-2.473zm13.248-13.211h4.854c1.1 0 1.933.087 2.507.256a4.38 4.38 0 0 1 1.985 1.216c.552.583.97 1.294 1.259 2.138.289.844.43 1.888.43 3.125 0 1.085-.133 2.025-.404 2.806-.329.963-.796 1.748-1.407 2.34-.467.448-1.089.8-1.87 1.055-.585.182-1.37.278-2.348.278h-5.002V8.424h-.004zm2.651 2.237v8.753h1.988c.74 0 1.277-.048 1.607-.133.43-.107.785-.289 1.074-.544.281-.263.514-.689.692-1.281.182-.585.27-1.396.27-2.418 0-1.018-.089-1.8-.27-2.351-.178-.544-.43-.972-.748-1.277-.322-.305-.733-.513-1.23-.622-.374-.083-1.103-.126-2.188-.126h-1.195zm10.604 10.974V8.424h3.977l2.388 9.012 2.362-9.012h3.984v13.211h-2.466V11.236l-2.614 10.399h-2.562l-2.599-10.399v10.399h-2.47zm27.225 0h-2.896l-1.148-3.003H210.2l-1.085 3.003h-2.822l5.128-13.211h2.81l5.274 13.211zm-4.895-5.228l-1.811-4.902-1.781 4.902h3.592zm6.298-7.983h4.858c1.096 0 1.929.087 2.507.256.77.229 1.429.633 1.977 1.216.552.583.97 1.294 1.263 2.138.281.844.43 1.888.43 3.125 0 1.085-.137 2.025-.408 2.806-.326.963-.8 1.748-1.407 2.34-.456.448-1.085.8-1.87 1.055-.578.182-1.366.278-2.348.278h-4.998V8.424h-.004zm2.659 2.237v8.753h1.981c.741 0 1.281-.048 1.607-.133a2.502 2.502 0 0 0 1.074-.544c.285-.263.515-.689.696-1.281.181-.585.27-1.396.27-2.418 0-1.018-.093-1.8-.27-2.351-.182-.544-.43-.972-.755-1.277-.322-.305-.733-.513-1.23-.622-.37-.083-1.1-.126-2.181-.126h-1.192zm10.626 10.974V8.424h9.764v2.237h-7.105v2.932h6.609v2.221h-6.609v3.599h7.357v2.221h-10.016zm-86.692 14.984l2.514.796c-.389 1.411-1.026 2.451-1.925 3.136-.896.685-2.033 1.026-3.418 1.026-1.703 0-3.11-.585-4.213-1.752-1.096-1.173-1.648-2.769-1.648-4.802 0-2.147.555-3.817 1.655-5.006 1.111-1.188 2.566-1.781 4.362-1.781 1.573 0 2.847.466 3.832 1.399.585.548 1.026 1.341 1.314 2.373l-2.569.615c-.148-.667-.47-1.196-.952-1.581-.481-.389-1.07-.577-1.759-.577-.955 0-1.729.34-2.321 1.026-.592.689-.892 1.796-.892 3.336 0 1.629.292 2.792.881 3.481.581.696 1.344 1.044 2.277 1.044.688 0 1.285-.218 1.781-.663.503-.433.863-1.129 1.081-2.07zm4.213-1.629c0-1.318.2-2.418.593-3.31a6.069 6.069 0 0 1 1.196-1.77 5.047 5.047 0 0 1 1.663-1.162c.796-.337 1.718-.503 2.773-.503 1.892 0 3.41.585 4.543 1.766 1.137 1.181 1.71 2.814 1.71 4.917 0 2.088-.566 3.717-1.695 4.891-1.126 1.177-2.637 1.766-4.521 1.766-1.914 0-3.44-.585-4.565-1.751-1.13-1.175-1.697-2.789-1.697-4.844zm2.678-.089c0 1.463.337 2.569 1.011 3.325.67.755 1.525 1.125 2.558 1.125s1.884-.37 2.547-1.118c.667-.748.993-1.87.993-3.369 0-1.477-.318-2.58-.966-3.306-.644-.729-1.503-1.092-2.573-1.092s-1.937.367-2.588 1.103c-.653.74-.982 1.851-.982 3.332zm23.77 6.461V28.455h3.888l2.336 8.801 2.307-8.801h3.892v12.907h-2.411V31.206l-2.551 10.156h-2.499l-2.544-10.156v10.156h-2.418zm15.003 0V28.455h9.538v2.188h-6.942v2.855h6.453v2.177h-6.453v3.51h7.19v2.177h-9.786zm14.877 0V30.643h-3.814v-2.188h10.212v2.188h-3.803v10.719h-2.595zm7.997 0V28.455h2.599v12.907h-2.599zm13.303-4.743l2.514.796c-.385 1.411-1.026 2.451-1.929 3.136-.9.685-2.036 1.026-3.414 1.026-1.71 0-3.117-.585-4.213-1.752-1.1-1.173-1.648-2.769-1.648-4.802 0-2.147.555-3.817 1.663-5.006 1.103-1.188 2.555-1.781 4.351-1.781 1.577 0 2.851.466 3.836 1.399.589.548 1.026 1.341 1.318 2.373l-2.569.615c-.152-.667-.466-1.196-.948-1.581-.481-.389-1.07-.577-1.762-.577-.955 0-1.729.34-2.321 1.026-.593.689-.889 1.796-.889 3.336 0 1.629.292 2.792.877 3.481.585.696 1.344 1.044 2.277 1.044.692 0 1.285-.218 1.781-.663.503-.433.854-1.129 1.076-2.07zm-63.78.304h2.529c.144.848.452 1.478.922 1.874.467.4 1.092.603 1.885.603.837 0 1.462-.181 1.888-.533.43-.355.641-.77.641-1.248a1.18 1.18 0 0 0-.267-.778c-.182-.211-.489-.396-.933-.559-.307-.104-1-.293-2.085-.566-1.388-.341-2.366-.767-2.925-1.274-.789-.707-1.189-1.573-1.189-2.595 0-.656.189-1.27.559-1.844.374-.574.907-1.007 1.607-1.307.7-.3 1.544-.452 2.533-.452 1.614 0 2.829.359 3.643 1.066.818.707 1.255 1.77 1.3 2.955h-2.61c-.111-.659-.352-1.137-.715-1.429-.363-.292-.918-.433-1.644-.433-.755 0-1.348.152-1.773.463a.938.938 0 0 0-.411.8c0 .307.126.566.381.785.33.278 1.126.563 2.388.863 1.259.3 2.196.607 2.799.929a3.595 3.595 0 0 1 1.422 1.307c.344.559.518 1.244.518 2.063 0 .74-.211 1.429-.615 2.073-.411.648-.988 1.126-1.74 1.44-.748.315-1.685.47-2.799.47-1.622 0-2.877-.374-3.747-1.129-.877-.753-1.395-2.104-1.562-3.544zm67.868 0h2.529c.152.848.459 1.478.926 1.874.463.4 1.092.603 1.881.603.841 0 1.466-.181 1.888-.533.426-.355.633-.77.633-1.248 0-.304-.085-.563-.259-.778-.182-.211-.492-.396-.933-.559-.307-.104-1-.293-2.084-.566-1.389-.341-2.366-.767-2.929-1.274-.792-.707-1.185-1.573-1.185-2.595 0-.656.189-1.27.559-1.844.37-.574.903-1.007 1.607-1.307.7-.3 1.54-.452 2.529-.452 1.614 0 2.829.359 3.643 1.066.815.707 1.263 1.77 1.3 2.955h-2.614c-.107-.659-.348-1.137-.714-1.429-.363-.292-.907-.433-1.644-.433-.752 0-1.348.152-1.774.463a.944.944 0 0 0-.407.8c0 .307.129.566.389.785.326.278 1.118.563 2.381.863 1.263.3 2.196.607 2.807.929a3.61 3.61 0 0 1 1.418 1.307c.344.559.514 1.244.514 2.063 0 .74-.204 1.429-.615 2.073-.407.648-.988 1.126-1.736 1.44-.748.315-1.681.47-2.799.47-1.622 0-2.873-.374-3.747-1.129-.875-.753-1.397-2.104-1.564-3.544zM177.647-1.884c0-.28-.008-.55-.008-.826-.037-.604-.055-1.17-.085-1.614-.141-2.077-.726-4.226-2.618-5.119a5.715 5.715 0 0 0 1.429-1.14c1.022-1.137 1.533-2.573 1.533-4.321 0-1.376-.337-2.594-1.007-3.662-.678-1.068-1.577-1.809-2.695-2.225-1.122-.417-2.921-.628-5.395-.628h-9.845V1.826h4.676v-9.705h5.224l-.015.008c2.544 0 3.473 1.062 3.829 3.484.078.537.122 1.105.17 1.677 0 .276.007.55.007.826.108 1.349.207 2.716.626 3.71h5.05c-.613-.866-.791-2.367-.876-3.71zm-10.556-9.698h-3.466v-5.902h3.655c1.892 0 3.032.028 3.414.082.755.124 1.344.43 1.762.913.419.478.626 1.113.626 1.892 0 .698-.163 1.281-.478 1.746-.315.465-.752.789-1.311.983-.562.185-1.962.286-4.202.286zM139.203 1.819v-23.234h15.873v3.93h-11.2v5.502h9.664v3.925h-9.664v9.877h-4.673zm43.087 0v-23.234h17.161v3.93h-12.492v5.15h11.622v3.912h-11.622v6.324h12.933v3.917H182.29zm20.387-8.005h4.543c.278 1.531.829 2.659 1.666 3.377.841.715 1.97 1.078 3.391 1.078 1.507 0 2.644-.322 3.403-.959.767-.641 1.152-1.386 1.152-2.244 0-.55-.163-1.016-.485-1.401-.326-.383-.885-.718-1.685-1.005-.548-.191-1.792-.526-3.744-1.013-2.507-.618-4.262-1.39-5.272-2.299-1.422-1.277-2.133-2.836-2.133-4.674 0-1.181.337-2.29 1.004-3.319.666-1.031 1.636-1.812 2.888-2.355 1.259-.539 2.781-.811 4.561-.811 2.899 0 5.091.641 6.557 1.92 1.474 1.277 2.266 3.192 2.344 5.328h-4.703c-.196-1.192-.626-2.051-1.285-2.577-.659-.522-1.64-.783-2.962-.783-1.355 0-2.422.279-3.192.841-.489.359-.733.841-.733 1.44 0 .554.229 1.02.692 1.414.589.498 2.018 1.013 4.295 1.551 2.273.541 3.954 1.1 5.043 1.675a6.54 6.54 0 0 1 2.566 2.357c.615.998.922 2.234.922 3.702 0 1.333-.37 2.577-1.103 3.74-.74 1.168-1.781 2.025-3.132 2.593-1.348.565-3.025.848-5.032.848-2.933 0-5.176-.679-6.746-2.038-1.576-1.364-2.52-3.785-2.82-6.386zm22.774 8.005v-23.234h4.676v9.145h9.164v-9.145h4.673V1.819h-4.673V-8.339h-9.164V1.819h-4.676z"/></svg>