<svg id="Слой_1" xmlns="http://www.w3.org/2000/svg" viewBox="0 0 400 135"><style>.st0{fill-rule:evenodd;clip-rule:evenodd;fill:red}</style><path class="st0" d="M151.4 25.2c3.8 0 7.4-3.2 7.4-7.4 0-4.5-3.8-7.6-7.4-7.6-4 0-7.4 3.2-7.4 7.4 0 4.4 3.4 7.6 7.4 7.6zm-5.9-7.6c0-3.4 2.8-5.9 5.9-5.9 3.2 0 5.9 2.5 5.9 5.9 0 3.6-2.8 6.1-5.9 6.1-3.1 0-5.9-2.5-5.9-6.1zm4.7.6h1.3l2.1 3.8h1.3l-2.3-3.8c1.3-.2 2.1-.8 2.1-2.3 0-1.7-1.1-2.5-3-2.5h-2.8l-.2 8.7h1.5v-3.9zm0-1.1v-2.8h1.3c1.1 0 1.9.4 1.9 1.5 0 1.3-.8 1.3-1.9 1.3h-1.3zm-96.9 84.2c-7-8.1-1.7-22.5-.4-34.8-1.3 1.3-17.4 39.2-32 37.7C8 100.6 9.7 85.6 13.7 74.6H34c-5.9 18 2.8 10.6 8.9-1.1C54.8 48.3 55.2 46.2 68.8 8.2h23.1C85.1 29.8 78.5 50.8 75.6 73c0 1.1.2 1.9 1.1 1.5 5.1-1.1 31.6-62.1 33.9-66.3h22.3c-.2 2.1-24.4 71.2-20.6 77.6 1.9 3.6 4.7-3.2 7.2-6.1l3.6 4c-7.4 8.1-15.9 22.7-27.8 20.6-1.7-.6-3.2-1.7-4.7-2.8-12.1-10.8 10.8-50.9 7.8-54-.4-.2-2.5 4.5-2.8 5.1-7 14.4-22.7 52.1-35.4 52.1-2 0-5.8-2.2-6.9-3.4zm170.8 1.4c-2.3-.6-3.6-1.9-4.5-4.7-.2-.4-.2-.6-.2-1.3 0-1.3.2-2.5.4-4 .2-1.1.8-2.3.8-3.6.2 0 .2-.2.2-.4l-.4.4c-.6 0-1.9 1.7-2.8 2.3-1.3 1.1-2.5 2.1-3.4 2.8-2.1 1.7-4.2 3.4-7 4.9 0 0-.6.6-1.7 1.5-1.3.6-2.3 1.3-3.4 1.5-1.5.6-3 .6-4 .4-2.5-.6-4.5-2.5-5.5-4.9-.2-1.7 0-3.8.8-5.9.8-3.6 2.3-6.1 3.4-9.3.4-1.7 1.1-3.2 1.9-5.3.6-2.1 1.5-4.5 2.3-6.6.2-1.7 1.1-3.6 1.3-4.9.2-.2 0-.4.2-.6-.2-.4-.2-.4-.8-.4-1.3.6-2.5 1.5-3.4 2.1-1.5.8-2.8 1.7-4.2 2.1-.4.2-.2-.6-.2-1.3 0-1.3.2-2.3 0-4.2 0 0 .2 0 .2-.2 0-.4.4-.6.6-.6 5.5-3.4 11-7.6 16.5-10.8.4 0 1.1-.4 2.1-1.1 1.3-.6 4-.4 5.3 0 1.3.4 2.1 1.5 2.3 2.5.4 2.5-2.3 7-3.2 10 .2.2-.4 1.5-.4 1.5-.8 2.5-1.3 4.2-2.3 7.2-1.1 3.4-2.3 7-3.6 10.6-.4 1.3-1.5 4.7-1.7 5.9-.4.6 0 .8.4 1.1.2.4 1.3-.2 1.9-.4 1.3-.8 3.4-3 4.7-4.2.4-.2 1.1-.8 1.5-1.3 1.7-2.3 3.4-4.2 5.5-7.2.2-1.3.4-1.5 1.5-3.6.2-.8 1.7-3.4 2.3-4.9.4-.6.8-2.3.8-2.3.6-1.1 1.1-2.5 1.7-4.5.2-1.3.2-1.7 1.3-4.5.2-1.3.4-1.9.8-3 0-.2.4-.4.4-.8l.4-.2c4.5.2 8.9.2 13.4.6l.4.2v.4c-.2.4-.2.8-.4 1.5-.6 1.5-1.3 3.6-1.9 5.7-1.3 5.3-6.4 20.8-8.7 28.4-.2.4 0 .8-.2 1.1-.2.8-.6 1.1-.4 1.7h.8l.4-.4c.6-.2 1.5-.8 2.3-1.5.4-.2.6-.4 1.1-1.1h1c.2 0 .8 2.3 1.1 3 0 .8 0 .8.2 1.3 0 .6 0 .8-.2 1.1l-.4.2c-1.7 1.1-3.4 2.3-4.9 3.4-1.7.8-1.7 1.1-3.6 2.1-1.3.8-2.5 1.7-3.8 2.1-1.1.4-1.7.4-2.3.4-1.4.3-1.8 0-2.7 0zm38 24.2l-.2-.2c.2-1.5.4-2.8 1.1-4.5 2.3-8.1 4.7-15.9 7.6-23.5.6-1.5.6-1.5.8-2.5h-.6c-.6.6-2.1 1.7-3.2 2.8-3.2 2.5-7.8 4.9-12.9 2.3-1.1-.4-1.5-.6-2.8-1.7-1.1-1.1-1.9-2.3-2.8-3.8-.8-1.5-1.5-4.7-1.9-6.8.2-3.8.4-8.5 1.7-13.1.8-3.2 3.2-8.5 5.5-12.3 2.1-3.4 4.5-5.7 8.1-7.8.6-.8 4.7-3 5.9-3.4 1.5-.2 2.8-.8 4.2-1.1 2.3-.2 5.1-.6 7.8 1.1 1.9 1.9 1.7 3.2 2.8 3.4.4-.2.4-.4.4-.8.6-1.1.8-2.8 1.5-3.4.8-.4 8.5-.2 12.5 0 .8 0 1.5.6 1.1 1.5L292.6 72l-.8 3c-2.3 7.4-4.5 15-7.2 22.5l-4.5 15.3c-.8 2.1-3.8 13.1-4.9 14.8.4-.1-9.8.2-13.1-.7zm3.3-53.2c.6-1.7 1.7-3.4 2.5-4.9.8-1.5 1.7-3 2.8-4.5 1.9-1.3 3.6-2.5 5.7-2.1 2.5 1.1 1.7 5.3.8 9.3-1.3 4.5-2.8 10.2-6.1 14.6-2.3 3-3.8 3.6-5.3 4-3.4-.4-3.2-5.1-3-7.4 0 0 .2-.4.2-1.1.5-2.2 1.6-5.3 2.4-7.9zm34.2 24.6c-.6 0-3.4 1.7-4.7 2.8-.4 0-.6.4-1.1.4-1.7-.4-2.1-3-2.8-4.2 0-.6-.2-1.1-.2-2.1 1.1-1.7 6.6-.6 4.7-5.1-.4-6.1.6-12.9 3.2-18.4 1.7-3.2 5.1-8.3 5.3-8.3 1.1-1.7 2.8-3 4.2-4.5.6-.8 1.5-1.3 2.5-1.7 2.3-1.9 7.8-5.1 11.2-5.9 4.5-.6 8.3-1.5 12.3-.4 2.5.6 5.9 3.4 6.4 5.7.4 1.9 0 3.6-.6 6.4-1.9 5.5-1.7 5.3-3.2 7.6-1.7 2.3-2.3 3.4-5.9 6.8-1.3 1.1-2.1 1.9-3.6 3.2-4 3.8-6.4 4.5-10.4 7.4-.2 0-2.5 1.3-3 1.3-2.8 1.5-.4 2.5 1.1 3 4.7 1.3 11.2-3.2 14.4-6.1.2-.2 2.1-2.1 2.5-2.1 1.1 1.5 2.8 3.6 3.2 5.1l-.4.8c-4 4.5-10.8 9.3-13.8 10.6-4 2.1-10.4 2.5-14.2 2.1-2.7-1-5-2.9-7.1-4.4zm12.5-14.6c-.4 0-.4-.2-.4-.4.4-5.9 2.8-11.4 6.1-16.1 1.5-2.3 4.5-6.6 7.6-7.6 1.5-.6 2.8-.6 4-.2 1.3.4.8 4-.8 6.6-3.4 5.3-7.8 10-9.5 11.9-2.2 2.2-4.9 4.5-7 5.8zm-151.3 18.4c-1.9-.6-3.6-1.9-5.5-3.2-1.9-1.5-3-3.2-4.2-5.3-.2-.4-.4-1.3-1.1-2.1-.4-1.3-.8-3-1.1-4.5-.2-2.1-.2-2.8-.4-4.2v-1.3l-.4-.2c-1.1 0-1.7.4-2.8.8-1.7.6-3.8 1.5-5.3 1.7-.4.2-2.1.4-2.5.6l-.2-.4c0-1.3.4-1.5.6-2.1l1.3-3.6c.8-1.3.6-1.7 1.5-3 .8-.4 1.1-.4 3.6-.8 1.5-.2 3.6-.4 5.3-.8.2-.2.4-1.5.4-1.7v-.2c0-.6.2-1.1.2-1.5.4-1.3 1.1-2.8 1.1-3.8.6-.8 1.1-2.1 1.5-3 .4-.8.6-1.7 1.3-2.5 1.1-2.1 2.1-4.5 3.4-6.6.6-1.1 1.3-2.1 2.5-3.8 1.3-1.5 2.5-3.4 3.2-4.2.6-.2.6-.4.8-.6.8-.8 1.5-1.9 2.5-2.8 1.9-2.1 3.6-4.2 6.1-6.6.8-1.1 1.1-1.1 1.5-1.1.6-1.1 1.5-1.5 3-2.5 1.1-.8 2.5-1.9 3.8-2.8 4-3.2 10.4-6.6 15-7.8.4-.2 3.6-1.1 5.3-1.1 1.1 0 5.7-.4 7.4-.2.6.2 1.5.2 2.5.6.4.4.4.8 1.1 1.1.2.8 0 1.7 0 2.5-.2 1.1-.8 2.3-1.1 3.4-.4 1.3-2.5 5.3-3.4 6.6-.2.4-.8 1.5-1.3 2.1-1.9 2.5-3.2 4.7-5.1 6.8-1.1 1.3-3 3.6-3.2 3.8-1.9 2.1-4.2 4.2-5.7 5.9-1.3 1.7-2.5 2.8-4.2 4.2-2.1 1.7-3 2.3-4.9 4-1.7 1.5-2.1 1.5-3.2 2.5-.2 0-1.5 1.5-2.1 1.7-1.9 1.3-3.6 2.5-5.9 3.8-1.1.8-2.5 1.1-3.2 1.9-.8.6-1.3.8-2.8 1.1 0 .2-.2.8-.4 1.1-.2.6-.2.6-.8 1.9-.8 2.1-.4 2.1-.8 3.4.2 1.9 0 3.2.4 5.1 0 .2.2 2.1.4 2.1v.2c.2 1.5.4 2.8 2.1 3.4h1c2.8-1.9 3-3.6 3.8-6.6.2-3.2.6-7.4-.2-10.4 0-.2-.2-1.1-.2-1.3v-.2c0-.2.8-.6 1.7-1.1.6-.2 1.5-.8 2.3-1.1 2.3-1.1 5.7-3.2 7.6-4 .2 0 .2-.2.8-.2l.2.2c.2.6.4 1.1.8 1.9.2 1.1.2 1.9.4 2.5.4 2.5.2 5.3.2 7.6-.2 2.8-1.1 5.9-1.7 8.5-1.1 3.2-2.8 6.6-4.9 9.3-1.5 2.3-2.8 3.6-4.5 4.7-.8.6-1.7 1.1-2.1 1.3-1.1.8-1.9.8-2.5 1.1-1.3 0-2.8.4-4 .4-1.6-.2-3-.2-4.9-.6zm9.5-39v-.6c.4-1.7 1.5-3.4 2.3-4.9 3-4 6.1-8.5 9.1-12.1 2.5-3.2 5.7-7 7.8-8.3 1.9-1.3 4-2.8 6.1-3.8.4-.4 1.3-.4 1.7-.6.4-.4.6-.4 1.1-.6 0 0 .2.4.6.4v.2c0 .6 0 .6-.4 1.3-.4 1.7-1.7 3.6-2.5 5.3-1.1 1.1-2.3 3.2-3 3.6-.6 1.5-2.3 3-3.6 4.2-.6.8-2.1 2.8-2.5 3.2-1.7 1.1-3.6 3-5.3 4.2-2.3 1.9-4.7 3.6-7.2 5.5-1.1 1.1-2.1 1.9-3.6 2.5 0 .1-.4.5-.6.5zm175.5 1.1c.2-.4.8-1.3 1.7-2.1 1.9-3.2 4.7-5.7 7.8-8.3.2-.2.4-.4 1.1-.4 0 0 .2-.2.8-.2h.4c3-.4 11.7-1.1 14-.8.2.8-.8 1.9-1.5 2.5-2.8 1.9-5.1 4.5-7.4 7-5.5 5.7-11.2 20.1-8.5 26.7.6 2.3 3 4.2 5.7 3.6 1.3-.2 2.1-.4 3.4-1.3 1.9-1.3 5.7-7.2 5.9-8.3 2.1-3.8 5.9-14 5.3-18 0-.4-.6-.8-.6-1.3 0-.2-.4-.2-.6-.4-2.5.2-6.1 4.7-7 6.8-.2.4-.2.6-.4.8h-.4c-1.3-.8-2.5-2.3-3.4-3.6v-1.1c3-4 6.1-8.3 10.4-11.4 1.1-1.3 5.9-3.8 7.6-4.2 1.9-.2 4.2.4 5.7 1.9 3.6 4 1.9 12.1.8 17-.6 3.4-1.3 4.9-2.3 7.4-1.9 4.5-2.1 4.9-3 6.6-4.2 7.4-12.3 16.5-20.8 18.9-4 .8-7.4 1.3-11.2.6-3.6-1.5-7.2-5.1-8.9-8.3-.4-1.1-1.1-3.2-1.3-5.1-.6-1.3-.2-7.8.2-8.7 0-1.1 1.3-6.4 1.9-7.2 1-2.1 3.3-7.4 4.6-9.1zM129.4 91.7c3.2 0 5.9 2.8 6.1 6.1 0 3.2-3 6.1-6.1 6.1-3.2 0-6.1-3-6.1-6.1-.1-3.3 2.9-6.1 6.1-6.1zm96.4-56.1l-.2 1.1h-1.5v-1.1c-1.5 0-2.5-.4-3-1.1-.6-.6-.8-1.3-.8-2.3 0-1.1.2-1.7.8-2.3.6-.6 1.5-.8 2.8-1.1V28h1.7l.2.8c1.3.2 2.3.4 2.8 1.1.6.6.8 1.5.8 2.3 0 1.1-.2 1.7-.8 2.3-.5.6-1.5 1.1-2.8 1.1zm0-1.5c.4 0 .8 0 1.1-.2.4-.2.6-.2.6-.6.2-.2.2-.6.2-1.1 0-1.3-.6-1.9-1.9-1.9v3.8zm-1.9 0v-3.8c-.6 0-1.1.2-1.5.6-.2.2-.4.6-.4 1.5 0 1.1.6 1.7 1.9 1.7zm7.4-6.2h1.5v5.7l3.6-5.7h1.7v8.7h-1.7v-5.7l-3.4 5.7h-1.7v-8.7zm8.9 8.7v-8.7h2.8c1.1 0 1.9.2 2.1.2.6.2.8.4 1.3.8.2.4.4 1.1.4 1.7 0 .4 0 .8-.2 1.3-.2.4-.4.6-.8.8-.2.2-.4.4-.8.4s-1.1.2-1.7.2H242v3.2h-1.8v.1zm1.7-7.2V32h1.1c.6 0 1.1-.2 1.3-.2s.4-.2.6-.4c0-.2.2-.4.2-.6 0-.4-.2-.6-.4-.8 0-.2-.2-.2-.6-.4h-2.2v-.2zm6.6 7.2v-8.7h2.5l1.5 5.9 1.7-5.9h2.5v8.7h-1.5l-.2-6.8-1.5 6.8h-1.7l-1.7-6.8v6.8h-1.6zm10.4 0v-8.7h6.4v1.5h-4.7v1.9h4.5v1.5h-4.5v2.3h4.9v1.5h-6.6zm8.5 0v-8.7l1.7.2v3.2h3.4v-3.4l1.7.2v8.5h-1.7v-3.8H269v3.8h-1.6zm9.1 0l-.2-8.5 1.9-.2v3.4h3.4l-.2-3.2 1.9-.2v8.7h-1.7v-3.8h-3.4v3.8h-1.7zm8.9-8.7h1.9v3.6h2.1c.6 0 1.3 0 1.7.2.4.2.8.4 1.1.8.4.4.4.8.4 1.5 0 .6 0 1.1-.4 1.5-.4.4-.6.6-1.1.8-.4.2-.8.2-1.7.2h-4v-8.6zm1.7 7.2h3c.2 0 .4-.2.6-.4 0-.2.2-.4.2-.6 0-.4-.2-.6-.4-.8-.2-.2-.8-.2-1.5-.4h-1.7l-.2 2.2zm6.5-6.9l1.7-.2v8.7h-1.7v-8.5zm3.8 8.4v-8.7l6.4.2.2 1.3h-4.7v1.9h4.2v1.5h-4.2v2.3h4.7v1.5h-6.6zm11.9 0v-8.5h2.5l1.5 5.7 1.7-5.7h2.5v8.5h-1.7v-6.8l-1.7 6.8h-1.7l-1.7-6.8v6.8h-1.4zm18 0h-1.9l-.6-1.9h-3.4l-.8 1.9h-1.7l3.4-8.5h1.7l3.3 8.5zm-3.2-3.4L323 30l-1.3 3.2h2.4zm4.7-5h5.9l-.2 1.3h-4v7.2h-1.7v-8.5zm14 8.4h-1.7l-.8-1.9h-3.4l-.8 1.9h-1.7l3.4-8.5h1.7l3.3 8.5zm-3.2-3.4l-1.1-3.2-1.3 3.2h2.4zm5.7-2.7l-1.7-.4c.4-1.5 1.5-2.1 3.2-2.1 1.1 0 1.9.2 2.3.6.4.4.8 1.1.8 1.5 0 .4-.2.8-.4 1.3-.2.2-.6.6-1.1.8.6.2 1.1.4 1.3.8.2.2.4.8.4 1.3 0 .8-.2 1.3-.8 1.9-.6.4-1.5.6-2.5.6-.8 0-1.5-.2-2.1-.4-.4-.4-.8-.8-1.1-1.7l1.5-.6c.2.6.4.8.6 1.1.2.2.6.2 1.1.2.4 0 .8 0 1.3-.2.2-.4.4-.6.4-.8 0-.4-.2-.6-.6-.8-.2-.2-.6-.4-1.3-.4h-.2v-1.3c.6 0 1.1 0 1.3-.4.2-.2.4-.4.4-.8s0-.6-.2-.8c-.2-.2-.6-.2-1.1-.2-.6-.3-1.3-.1-1.5.8zm6.8-2.3h1.7v5.7l3.4-5.7h1.7v8.5h-1.5v-5.5l-3.6 5.5h-1.7v-8.5zm9.1 8.4v-8.5h1.7v3.4h3.4v-3.4h1.7v8.5h-1.7v-3.8h-3.4v3.8h-1.7zm8.9-8.4h1.9v3.4h2.1c.6 0 1.3 0 1.7.2.4.2.8.4 1.1.8.4.4.4 1.1.4 1.5 0 .6 0 1.1-.4 1.5-.2.6-.6.8-1.1.8-.2.2-.8.2-1.5.2h-4.2v-8.4zm1.9 6.9l1.7.2c.4-.2.8-.2 1.1-.2.2 0 .4-.2.6-.4 0 0 .2-.4.2-.6 0-.4-.2-.6-.4-.8-.4-.2-.8-.2-1.5-.2H372v2zm6.4-6.9h1.7v8.5h-1.7v-8.5z"/></svg>