<svg xmlns="http://www.w3.org/2000/svg" viewBox="0 0 400 227.9"><path d="M69.3 85.2s-9.2 17.4-9.2 32.5c0 0-.8 35.5 35.8 35.5h5s7.4 2.3 134.2-35.5H203l-1.7-39.8-15.1 39.8h-23.1L199.6 21h22.1l-10 27.8L235.5 21h69.6L299 37h-23.8l-7.4 20.4H290l-7 18.1h-21.7l-8.7 23.8h26.1l-2 7s94.7-24.4 104.7-27.1c0 0-269.9 127.9-314 127.9 0 0-42.6.3-42.6-34.5-.1-.1-5-32.5 44.5-87.4zm156.1 25.7l32.3-87.4-34.4 36.6 2.1 50.8zm-52.8-90l-35.9 96.7H159l36.1-96.7h-22.5zm-100 96.7h22.3L111 75.5l-1.8 42.2h23.6L169 20.9h-22.1l-16.5 42.7 2.7-42.7h-23.9l-36.6 96.7zm16.8 22.3c0 .9-.2 1.6-.6 2.4-.4.7-1 1.3-1.7 1.7-.7.4-1.5.6-2.4.6-.8 0-1.6-.2-2.4-.6-.7-.4-1.3-1-1.7-1.7-.4-.7-.6-1.5-.6-2.4 0-.9.2-1.7.6-2.4.4-.7 1-1.3 1.7-1.7.7-.4 1.5-.6 2.4-.6.9 0 1.7.2 2.4.6.7.4 1.3 1 1.7 1.7.4.8.6 1.6.6 2.4zm-.9 0c0-1.1-.4-2-1.1-2.7-.8-.8-1.7-1.1-2.7-1.1-1.1 0-2 .4-2.7 1.1-.8.8-1.1 1.7-1.1 2.7 0 1.1.4 2 1.1 2.7.8.8 1.7 1.1 2.7 1.1 1.1 0 2-.4 2.7-1.1.7-.7 1.1-1.6 1.1-2.7zm-6-2.5h2.3c.6 0 1.1.1 1.4.4.3.3.4.6.4 1.1 0 .3-.1.6-.3.9-.2.3-.6.4-1 .5.2.1.3.2.4.2.1.1.3.3.4.5 0 0 .3.5.8 1.5h-1.5c-.5-1-.8-1.6-1-1.7-.2-.2-.3-.3-.5-.3h-.2v2h-1.3v-5.1zm1.2 2.1h.6c.4 0 .6-.1.8-.2.1-.1.2-.3.2-.5s-.1-.3-.2-.5c-.1-.1-.4-.2-.7-.2h-.6v1.4zM319.3 25.7c0 .9-.2 1.7-.6 2.4-.4.7-1 1.3-1.7 1.7-.7.4-1.5.6-2.4.6-.8 0-1.6-.2-2.4-.6-.7-.4-1.3-1-1.7-1.7-.4-.7-.6-1.5-.6-2.4 0-.9.2-1.6.6-2.4.4-.7 1-1.3 1.7-1.7.7-.4 1.5-.6 2.4-.6.9 0 1.7.2 2.4.6.7.4 1.3 1 1.7 1.7.4.7.6 1.5.6 2.4zm-.9 0c0-1.1-.4-2-1.1-2.7-.8-.8-1.7-1.1-2.7-1.1-1.1 0-2 .4-2.7 1.1-.8.8-1.1 1.7-1.1 2.7 0 1.1.4 2 1.1 2.7.8.8 1.7 1.1 2.7 1.1 1.1 0 2-.4 2.7-1.1.7-.7 1.1-1.7 1.1-2.7zm-6-2.6h2.3c.6 0 1.1.1 1.4.4.3.3.4.6.4 1.1 0 .3-.1.6-.3.9-.2.3-.6.4-1 .5.2.1.3.2.4.2.1.1.3.3.4.5 0 0 .3.5.8 1.5h-1.5c-.5-1-.8-1.6-1-1.7-.2-.2-.3-.3-.5-.3h-.2v2h-1.3v-5.1zm1.3 2.2h.6c.4 0 .6-.1.8-.2.2-.1.2-.3.2-.5s-.1-.3-.2-.5c-.1-.1-.4-.2-.7-.2h-.6v1.4z"/></svg>