<svg id="svg2" xmlns="http://www.w3.org/2000/svg" viewBox="0 0 400 111"><style>.st0{fill:#ff7313}.st1{fill:#fff}</style><path id="polygon8_1_" class="st0" d="M316.5 76.5l2.3-45-20-10.1.5-10.1h88.3l-.4 9.5-23.5 10.7-2.3 45.6 21.8 11.3-.7 12.4h-91l.5-11.3z"/><path d="M384.2 102.5h-94.6l.7-14.1 24.5-13 2.2-42.8-20-10.1.7-12.9h91.9l-.7 12.4-23.5 10.7-2.2 43.3L385 87.3l-.8 15.2zM293.3 99h87.5l.5-9.6-21.8-11.3 2.4-47.8 23.4-10.7.3-6.6H301l-.4 7.3 20 10.1-2.4 47.2-24.5 13-.4 8.4z"/><path class="st0" d="M260.8 11.1s17-1.8 20.3 19.8c0 0 1.4 14.9-13.8 23.7 16.5 4.8 13.5 24.8 13.5 24.8-5 22.7-28.2 21.4-28.2 21.4H140.2l.7-11.3 21-12.9 2-45.6-19.7-9.6.7-10.1 115.9-.2z"/><path d="M253.4 102.5H138.3l.9-14.1 21-12.9L162 32l-19.7-9.6.9-13 117.5-.1c1.7-.1 18.8-.7 22.2 21.3v.1c.1.6 1.1 14.1-11.6 23.4 14 6.7 11.4 25.2 11.4 25.4v.1c-2.7 12.5-10.8 18-17.1 20.5-5.4 2.2-10.3 2.4-12.2 2.4zm-111.3-3.6h110.6c.9 0 21.8.9 26.4-19.9.2-1.3 2.3-18.5-12.3-22.7l-4-1.2 3.6-2.1c13.6-7.9 13-21.1 12.9-21.9-3-19.6-17.8-18.3-18.4-18.2h-.2l-114.3.1-.5 7.3 19.6 9.6-2.1 47.7-21 12.9-.3 8.4z"/><path class="st0" d="M53.2 11.2h48.4c21.1 0 37.3 17.7 36.2 39.4l-.5 10.7c-1.1 21.8-19.1 39.4-40.2 39.4H48.7c-21.1 0-37.3-17.6-36.2-39.4l.5-10.8c1.1-21.7 19.1-39.3 40.2-39.3z"/><path d="M97 102.4H48.7c-10.5 0-20.1-4.1-27.3-11.6-7.5-7.8-11.2-18.4-10.7-29.6l.5-10.7c1.1-22.6 20-41.1 41.9-41.1h48.4c10.4 0 20.1 4.1 27.3 11.6 7.5 7.8 11.3 18.4 10.7 29.6l-.5 10.7c-1.2 22.7-20 41.1-42 41.1zM53.2 12.9c-20.1 0-37.3 16.9-38.4 37.7l-.5 10.7c-.5 10.3 2.9 19.9 9.7 27 6.5 6.8 15.2 10.5 24.7 10.5H97c20.1 0 37.3-16.9 38.4-37.7l.5-10.7c.5-10.3-2.9-19.8-9.7-27-6.5-6.8-15.2-10.5-24.7-10.5H53.2z"/><path id="path14" d="M367.7 67.8c0-2.3.9-4.3 2.3-5.8s3.4-2.4 5.6-2.4 4.2.9 5.6 2.4 2.3 3.5 2.3 5.8-.9 4.3-2.3 5.8-3.4 2.4-5.6 2.4-4.2-.9-5.6-2.4c-1.4-1.4-2.3-3.5-2.3-5.8zm8 1h-1.8v3.1h-1.5v-8.3h4.1c1.2.1 2.1.7 2.5 1.5.2.4.3.7.3 1.1 0 .4-.1.8-.3 1.1-.3.5-.8.9-1.5 1.2l2.1 3.5h-1.9l-2-3.2zm-1.8-1.5c.9 0 1.6-.1 2.6-.1h.2c.6-.1.9-.3 1.1-.6.1-.1.1-.3.1-.4 0-.2-.1-.3-.1-.4-.2-.4-.6-.6-1.2-.6H374l-.1 2.1zm-2.7-4.2c-1.2 1.2-1.9 2.8-1.9 4.7 0 1.8.7 3.5 1.9 4.7 1.2 1.2 2.8 1.9 4.5 1.9 1.8 0 3.4-.7 4.5-1.9 1.2-1.2 1.9-2.8 1.9-4.7 0-1.8-.7-3.5-1.9-4.7-1.2-1.2-2.8-1.9-4.5-1.9-1.8 0-3.4.8-4.5 1.9z"/><path class="st1" d="M75.3 23.4H78c6 0 10.7 5 10.4 11.3l-2.1 40.7c-.3 6.2-5.5 11.3-11.5 11.3h-2.6c-6 0-10.7-5-10.4-11.3l2.1-40.7c.3-6.2 5.4-11.3 11.4-11.3z"/><path d="M74.8 88.4h-2.6c-3.3 0-6.5-1.3-8.7-3.7-2.4-2.5-3.6-5.8-3.4-9.4l2.1-40.7c.4-7.1 6.3-12.9 13.2-12.9H78c3.3 0 6.5 1.3 8.7 3.7 2.4 2.5 3.6 5.8 3.4 9.4L88 75.5c-.3 7.1-6.3 12.9-13.2 12.9zm.5-63.2c-5.1 0-9.4 4.3-9.7 9.6l-2.1 40.7c-.1 2.6.7 5 2.4 6.8 1.6 1.7 3.8 2.6 6.2 2.6h2.6c5.1 0 9.4-4.3 9.7-9.6l2.1-40.7c.1-2.6-.7-5-2.4-6.8-1.6-1.7-3.8-2.6-6.2-2.6h-2.6z"/><path class="st1" d="M220.9 77.7h-13.4l.8-16.6h13.4c7.1-.3 10.3 6 8.5 10.1 0 .1-.7 6.3-9.3 6.5z"/><path d="M220.9 79.5h-15.2l1-20.2h15.1c3.8-.1 7.2 1.4 9.1 4.3 1.7 2.5 2.1 5.6 1.1 8.2-.5 1.9-2.6 7.4-11.1 7.7zM209.4 76h11.5c5.9-.2 7.3-3.5 7.6-5 0-.2.1-.3.1-.4.6-1.5.4-3.4-.7-4.9-.7-1.1-2.5-2.9-6.1-2.8H210l-.6 13.1z"/><path class="st1" d="M222.5 45.5h-13.4l.8-15.6h14c5.3-.2 9.1 3.8 8 8.8.1 0-.2 6.8-9.4 6.8z"/><path d="M222.5 47.3h-15.2l1-19.2H224c3.3-.1 6.2 1.2 8.1 3.4 1.7 2 2.3 4.7 1.7 7.4-.3 3-2.8 8.4-11.3 8.4zm-11.4-3.6h11.5c7.4 0 7.7-4.9 7.7-5.1v-.4c.4-1.7.1-3.2-.9-4.5-1.2-1.4-3.1-2.2-5.3-2.1h-12.4l-.6 12.1z"/></svg>