<svg id="Слой_1" xmlns="http://www.w3.org/2000/svg" viewBox="0 0 400 106"><style>.st0{stroke-width:4.46e-2}.st0,.st1,.st2,.st3,.st4{fill:#fff;stroke:#fff}.st1{stroke-width:4.93e-2}.st2{stroke-width:.1565}.st3{stroke-width:4.53e-2}.st4{stroke-width:.1279}.st5{fill:red}.st6,.st7{fill:#fff}.st7{stroke:#fff;stroke-width:.1483}.st8{fill:red;stroke:red}.st10,.st11,.st8,.st9{stroke-width:.5}.st9{fill:#b3db11;stroke:#b3db11}.st10{fill:#f60;stroke:#f60}.st11{fill:#1aaacc;stroke:#1aaacc}.st12{stroke-width:.174}.st12,.st13,.st14{fill:#fff;stroke:#fff}.st13{stroke-width:.161}.st14{stroke-width:5.38e-2}.st15{fill:red}.st15,.st16{fill-rule:evenodd;clip-rule:evenodd}.st17{fill:none;stroke:#000;stroke-width:1.1967;stroke-linecap:round;stroke-linejoin:round}</style><path d="M0-.7h400v107.2H0z"/><path class="st0" d="M329.6 66.6c0 .2-.3.5-.8.9s-.9.5-1.2.5c-.1 0-.2-.1-.3-.2-.1-.1-.1-.4 0-.7 0-.4.1-.7.1-.9.1-.3.3-.5.6-.4.2 0 .5.1.9.3.5.2.7.4.7.5zm.8 0c0-.4-.1-.7-.4-.9-.2-.2-.6-.3-1-.4-.3-.1-.6-.1-1-.2-.3 0-.5-.3-.6-.8 0-.5-.1-.7-.3-.8-.1 0-.2.1-.4.2-.1.1-.2.3-.2.4 0 .4-.1.8-.1 1.3 0 .4-.1.8-.1 1.2 0 .4 0 .8.1 1.2 0 .3.1.5.3.6.2.2.4.3.6.3.5 0 1.1-.2 1.8-.7.9-.4 1.3-.9 1.3-1.4z"/><path class="st1" d="M310.3 66.1c-.1.4-.3.6-.7.7-.4.1-.6.4-.6.8v.4c.1.3.1.5.1.6v.3c0 .1-.1.2-.2.2-.4 0-.6-.2-.7-.7 0 0-.1-.4-.1-1.1-.3 0-.5.1-.8.1-.3.1-.5.3-.6.5-.1.2-.1.4-.1.4-.1.2-.2.2-.3.2-.1 0-.3 0-.4-.1-.1-.1-.2-.2-.2-.3v-.6c0-.1 0-.2-.1-.4 0-.1-.1-.2-.1-.2 0-.1.1-.2.3-.3.2-.1.2-.2.3-.3.1-.5.2-.9.3-1.1.2-.5.4-.8.7-.8.1 0 .2.1.3.2 0 .1.1.2.1.4s0 .5-.1.7c-.1.3-.2.6-.2.7h.6c.3 0 .5-.2.7-.5 0 0 .1-.4.4-1 .2-.4.3-.8.6-.9h.1c.1 0 .2.1.2.3.1.2.1.3.1.4 0 .1 0 .3-.1.6s-.1.4-.1.6c0 .1 0 .2.1.3h.6c-.2-.1-.2-.1-.1-.1z"/><path class="st2" d="M235.3 65.6c0 .3-.2.6-.5.8-.5.3-1 .5-1.6.5-1.2 0-2.4-.3-3.6-.9-.3-.2-1.4-.8-3.2-2-1.3-.8-2.4-1.4-3.3-1.6l-.1.9c0 .3.1.9.2 1.8.1.5.1.9.1 1.1 0 .4-.1.7-.2.9-.1.2-.4.3-.7.3-1 0-1.7-.7-2.1-2-.3-.9-.4-2.1-.4-3.8v-1.5c0-.4-.3-.9-1-1.7-.7-.7-1-1.3-1-1.6 0-.3.1-.5.4-.8.2-.2.4-.4.7-.6.5-.3.9-1.2 1.2-2.8.3-1.6.9-2.4 1.8-2.4.6 0 1 .8 1.1 2.4 0 .6.1 1.1.1 1.7.8-.1 2.7-.7 5.8-1.8 1.4-.5 2.3-.8 2.9-.8.7 0 1 .3 1 1 0 .9-1.4 1.8-4.2 2.9-1.9.7-3.8 1.3-5.7 2 .5 1.3 1.9 2.5 4 3.7.8.4 2.6 1.2 5.5 2.4 1.8.9 2.8 1.5 2.8 1.9zm14.5-11.3c-.3.7-.8 1.6-1.1 2.1-.3.4-1 1.5-1.9 2.5-1.1 1.2-1.7 2-2 2.4-.7 1.1-1.3 2-1.6 2.5-.7 1.1-1.3 1.9-1.8 2.4-.3.3-.6.5-.9.7-.3.2-.9.4-1.1.2-.2-.2-.1-.8.2-1.6.4-1.9 2.2-4.5 2.2-4.5s.4-.7 1.4-1.9c-.7-.6-1.5-1.7-2.5-3.2-1.1-1.6-1.7-2.8-1.8-3.5-.1-.4 0-.8.1-1.2.2-.4.4-.6.9-.7.5-.1 1 .4 1.7 1.4.1.1.7 1.2 1.7 3.1.7 1.3 1.1 2.4 1.4 2 1.2-1.8 1.9-2.7 1.9-2.8 1.3-1.7 3.3-3.5 3.9-3 .5.5-.3 2.4-.7 3.1zm14.5 8c-.1.7-1 1.5-3 2.5-1.9 1-3.3 1.4-4.1 1.2-.4-.1-.8-.3-1-.8-.2-.4-.3-1.1-.2-2 .1-1.3.2-2.2.4-2.6.4-.9 1.1-1.3 2.2-1.1.8.1 1.9.5 3.2 1.1 1.7.6 2.5 1.2 2.5 1.7zm2.9.2c.1-1.1-.4-2.1-1.4-3-.8-.7-2-1.2-3.5-1.7-1-.3-2.3-.6-3.7-.8-1.2-.2-1.9-1.1-2-2.6-.1-1.5-.5-2.3-1-2.4-.4-.1-.9.1-1.2.5s-.6.8-.6 1.2c-.1 1.3-.2 2.5-.3 3.9-.1 1.3-.1 2.6-.1 3.9 0 1.3.1 2.5.3 3.8.1.8.5 1.5 1.1 2.1.6.6 1.4.9 2.3 1.1 1.9.3 4-.2 6.4-1.5 2.3-1.5 3.6-3 3.7-4.5z"/><path class="st2" d="M253.8 52.4c.2-1.7 2.9-1.8 2.9-1.8 1.3-.2 3.4.1 4.8 0s2.8-.2 4.1-.2c.3.2.4.5.4.9 0 .5-.1 1.3-1.5 1.6-1.3.2-3.3 0-4.7.2-1.4.2-3 .2-3.2.6 0 0-.1.1-.1.3v.4l-1.8-.2h-1.2l.3-1.8z"/><path class="st1" d="M336.2 63.5c0 .3-.4.6-.9.8-.5.2-1.1.4-1.6.6-.6.2-.9.4-1 .6-.1.2-.1.4-.1.7v.2c.4-.3.8-.5 1.1-.7.5-.3.9-.4 1.1-.4.1 0 .2 0 .3.1.1.1.1.1.1.2s-.2.3-.6.6c-.3.2-.7.4-1.2.7-.3.1-.6.3-.9.4.1.2.3.3.6.4h1.3c.6 0 .9-.1 1.1-.1 0 0 .1 0 .1.1l.1.1c-.2.3-.5.5-.8.6-.2.1-.6.1-1 .1h-.6c-.5 0-.9-.1-1.3-.3-.5-.2-.8-.6-.8-1 0-.2 0-.3.1-.5.2-.5.2-.8.2-.9v-.4c0-.1.2-.5.6-1 .2-.3.4-.4.4-.4.1 0 .2.1.3.2.1.1.2.2.3.2.1 0 .2 0 .3-.1l.6-.3c.3-.1.8-.2 1.3-.3.3-.1.6-.2.9-.2z"/><path class="st3" d="M316.9 63.7c0 .2-.2.3-.7.4-.4.1-.9.1-1.4.2-.5.1-.8.2-.8.3-.1.2-.2.6-.2 1.4-.1.8-.1 1.4-.1 1.7 0 .1 0 .3.1.4l.3.6c-.1.1-.1.1-.1.2 0 0-.1.1-.2.1-.3 0-.5-.2-.7-.5-.1-.2-.2-.5-.2-.9 0-.3 0-.7.1-1.3.1-.6.1-1 .1-1.3 0-.2-.1-.3-.3-.3-.2 0-.4 0-.6.1-.6.1-.9.2-1.1.2-.2 0-.4 0-.5-.1-.2-.1-.2-.2-.2-.4 0-.1.3-.2 1-.3.4-.1.8-.1 1.2-.2.5-.1 1-.2 1.4-.2.4-.1.9-.1 1.4-.2.5 0 .9-.1 1.4-.1 0 0 .1.1.1.2zm4 .8c0 .3-.3.5-.8.7-.5.2-1 .3-1.5.5-.6.2-.9.4-1 .6-.1.2-.1.4-.1.6v.2c.4-.2.7-.4 1-.6.5-.3.8-.4 1-.4.1 0 .2 0 .3.1.1.1.1.1.1.2s-.2.3-.5.5-.6.4-1.1.6c-.3.1-.5.3-.8.4.1.2.2.3.5.3h1.3c.5 0 .8-.1 1-.1 0 0 .1 0 .1.1l.1.1c-.2.3-.5.5-.8.5-.2.1-.5.1-.9.1h-.4c-.5 0-.9-.1-1.2-.2-.5-.2-.7-.5-.7-.9 0-.1 0-.3.1-.5.1-.4.2-.7.2-.8v-.4c0-.1.2-.4.6-1 .2-.3.3-.4.4-.4.1 0 .2.1.3.2.1.1.2.2.3.2.1 0 .2 0 .3-.1.2-.1.4-.2.5-.3.3-.1.7-.2 1.2-.2.1.1.3 0 .5 0zm4.8 1.6c0 .4-.2.7-.5.9-.2.2-.6.3-1 .4-.3 0-.6.1-1.1.1-.4 0-.6.2-.6.7-.1.5-.2.7-.3.7-.1 0-.2-.1-.3-.2-.1-.1-.2-.3-.2-.4V67c0-.4 0-.9.1-1.3 0-.4.1-.8.2-1.2 0-.3.2-.5.4-.6.2-.2.4-.2.7-.2.5 0 1.1.3 1.8.8.4.6.8 1.1.8 1.6zm-.9-.1c0-.2-.3-.6-.8-1s-.9-.6-1.1-.6c-.1 0-.2.1-.3.2-.1.1-.1.4-.1.7 0 .4 0 .7.1.9.1.3.3.5.6.5.2 0 .5-.1.9-.2.5-.2.7-.3.7-.5zm16.2.1c0 .4-.2.7-.5.9-.2.2-.6.3-1 .4-.3 0-.6.1-1.1.1-.4 0-.6.2-.6.7-.1.5-.2.7-.3.7-.1 0-.2-.1-.3-.2-.1-.1-.2-.3-.2-.4V67c0-.4 0-.9.1-1.3 0-.4.1-.8.2-1.2.1-.3.2-.5.4-.6.2-.2.4-.2.7-.2.5 0 1.1.3 1.8.8.5.6.8 1.1.8 1.6zm-.8-.1c0-.2-.3-.6-.8-1s-.9-.6-1.1-.6c-.1 0-.2.1-.3.2-.1.1-.1.4-.1.7 0 .4 0 .7.1.9.1.3.3.5.6.5.2 0 .5-.1.9-.2.4-.2.7-.3.7-.5z"/><path class="st4" d="M281.7 57.5c0 .5-.7.9-2.1 1.2-1 .2-2 .3-2.8.3-.7 0-1.2-.1-1.4-.3-.3-.2-.4-.5-.4-.8 0-.5.7-.9 2.2-1 1-.1 1.9-.1 2.9-.2.2 0 .3-.1.5-.1h.3c.3 0 .5.1.6.3.2.1.2.3.2.6zm-.9 4.9c0 .4-.6.7-1.7.9-.9.2-1.6.3-2.2.3-.4 0-.8-.1-1.2-.3-.4-.2-.6-.6-.6-1 0-.3.4-.6 1.1-.8.7-.2 1.3-.3 1.7-.3.6 0 1.2.1 1.7.2.8.2 1.2.5 1.2 1z"/><path class="st1" d="M321.3 57.9c0 .4-.3.7-.8.9-.4.2-.9.3-1.4.5-.5.2-.7.4-.7.6v1.2c0 .2 0 .5-.1.7-.3-.2-.5-.4-.7-.8 0 0-.1-.4-.2-1.1h-.5c-.4 0-.7-.2-.9-.7l1.2-.3c.2-.1.3-.3.3-.7 0-.2 0-.4.1-.6.1-.2.2-.3.4-.3.1 0 .2.1.3.2 0 .1.1.3.1.5v.2c0 .1 0 .2.1.2s.1.1.3.1l2.5-.6z"/><path class="st5" d="M358.3 49.1c0 .8-.5 1.3-1.5 1.7-.7.3-1.6.4-2.5.4-.5 0-.9 0-1.2-.1-.6-.1-.9-.4-.9-.7 0-.1 0-.2.1-.2 0-.1.1-.2.2-.2.1-.1.2-.1.3-.2h.4c.5 0 1.1-.1 1.6-.2s1.1-.3 1.7-.6c-.7-.4-1.3-.7-1.7-.9-.7-.4-1.1-.9-1.1-1.4 0-.4.3-.8.9-1.2.9-.6 1.9-1.5 1.9-1.5h-.1c-.2 0-.6.1-1.1.3-.5.2-.9.3-1.1.3-.5 0-.7-.2-.7-.7 0-.5.5-.9 1.4-1.2.7-.2 1.3-.3 2-.3.5 0 .9.1 1.2.3.3.2.4.6.4 1 0 .6-.9 1.7-1.7 2.2-.5.3-.9.6-1.1.7 1 .6 1.6.9 1.6 1 .7.4 1 .9 1 1.5z"/><path class="st6" d="M296.6 68.5c-.3.1-.6.2-1 .3-.4.1-.7.1-1.1.1-1.8 0-3.4-.7-4.8-2.2-1.4-1.4-2.1-3.1-2.1-4.9 0-1.2.3-2.7.9-4.5.7-2 1.5-3.6 2.5-4.9 1.2-1.5 2.4-2.3 3.6-2.3.3 0 .5.1.7.3.2.2-1.6 2.2-1.9 2.4-.1.1-2 2.4-2.9 4.3-.9 2-1.1 3.7-1.1 4.8 0 1.4.4 2.8 1.5 3.6.4.3 1.2.9 2.7 1.6 1.2.6 2.8.8 3 1.4z"/><path class="st2" d="M58.2 65.6c0 .3-.2.6-.5.8-.5.3-1 .5-1.6.5-1.2 0-2.4-.3-3.6-.9-.3-.2-1.4-.8-3.2-2-1.3-.8-2.4-1.4-3.3-1.6v.8c0 .3.1.9.2 1.8.1.5.1.9.1 1.1 0 .4-.1.7-.2.9-.1.2-.4.3-.7.3-1 0-1.7-.7-2.1-2-.3-.9-.4-2.1-.4-3.8V60c0-.4-.3-.9-1-1.7-.7-.7-1-1.3-1-1.6 0-.3.1-.5.4-.8.2-.2.4-.4.7-.6.5-.3.9-1.2 1.2-2.8.3-1.6.9-2.4 1.8-2.4.6 0 1 .8 1.1 2.4 0 .6.1 1.1.1 1.7.8-.1 2.7-.7 5.8-1.8 1.4-.5 2.3-.8 2.9-.8.7 0 1 .3 1 1 0 .9-1.4 1.8-4.2 2.9-1.9.7-3.8 1.3-5.7 2 .5 1.3 1.9 2.5 4 3.7.8.4 2.6 1.2 5.5 2.4 1.8 1 2.7 1.6 2.7 2zm12-6.9c-1.4.4-2.5.6-3.2.6-1.1 0-1.7-.6-2-1.7-.1-.5-.2-1.5-.2-3 0-1 .1-1.8.3-2.3.2-.5.6-.7 1-.7.8 0 2.1.7 3.9 2.2 1.8 1.4 2.7 2.6 2.7 3.4-.1.5-.9 1-2.5 1.5zm2-6.8C70 50 67.9 49 66.1 49c-.9 0-1.7.3-2.4.8-.6.5-1.1 1.3-1.2 2.2-.3 1.4-.5 2.8-.6 4.2-.1 1.4-.2 2.9-.2 4.4V65c0 .5.2 1 .5 1.5s.7.8 1.2.8.9-.9 1.2-2.6c.2-1.7 1-2.6 2.2-2.6 1.4 0 2.7-.1 3.7-.2 1.5-.2 2.7-.6 3.5-1.3 1-.8 1.6-1.8 1.6-3.1-.1-1.8-1.2-3.7-3.4-5.6zm12 7.7c-.7 0-1.4-.1-2.1-.2.4-1.4.7-2.3.8-2.6.5-1.3 1-2 1.5-2s1 .6 1.4 1.9c.2.9.4 1.8.5 2.6-.7.3-1.4.3-2.1.3zm7.1.3c-.2-.1-.5-.2-.9-.2-1.5 0-2.5-.9-3-2.7-.2-1.6-.5-3.3-.7-5-.3-1.8-.9-2.7-1.9-2.7-.3 0-.6.1-.9.3-.3.2-.5.5-.9 1-.6.9-1.2 1.9-1.7 3-.5 1-.9 2.1-1.3 3-.9 1.7-1.8 3.3-2.7 4.9-.3.6-.5 1.2-.6 1.5-.1.4-.1.7-.1 1.1 0 .6.1 1.1.4 1.7.3.6.7.8 1.2.8.2-.1.5-.2.7-.3.3-1 .7-2 1-2.9.2-.5 1.3-.8 3.4-.8.2 0 .7-.1 1.5-.3.3-.1.6-.1.9-.1.9 0 1.6.7 2.2 2.2.6 1.5 1.3 2.2 2.2 2.2.3 0 .6-.2.8-.5.2-.3.3-.7.3-1 0-.3-.2-.8-.6-1.5-.2-.3-.5-.8-.9-1.4.6-.2 1-.4 1.2-.5.4-.3.7-.6.7-1s-.1-.7-.3-.8zm22.3 6.3c-1.6.4-3.3.8-5 1.1-1.7.4-3.3.6-4.8.6-3.2 0-5.7-.6-7.4-1.7-1.4-.9-2.1-2.2-2.1-3.8 0-2.1 1.3-4.6 4-7.3s5.1-4.1 7.3-4.1c.9 0 1.5.4 1.9 1 .3.6.5 1.3.5 2.2 0 1.2-.4 2.6-1.2 4.2-.9 1.8-1.9 2.7-3.1 2.7-.5 0-.8-.3-1.1-.8-.3-.5-.4-1-.4-1.5 0-.4.2-1.3.6-2.7.2-.7.3-1.2.3-1.6-1.2.5-2.3 1.5-3.5 3.2-.9 1.2-1.7 2.6-2.4 4.2H97v.5c0 1.1 1.2 2 3.6 2.5 1.7.4 3.3.6 5 .6.9 0 2.2-.1 4-.2 1.8-.1 3.1-.2 4-.2l-.1.5.1.6zm18-7.6c-.2 1.2-.9 1.9-2.2 2.3-1.3.4-2 1.2-2 2.5 0 .3 0 .7.1 1.2.2 1.1.2 1.7.2 2 0 .4 0 .7-.1 1-.1.3-.4.5-.8.5-1.1 0-1.9-.7-2.3-2.2-.1-.2-.2-1.3-.4-3.6-.9.2-1.7.3-2.6.5-1.1.3-1.7.9-1.9 1.7-.2.8-.3 1.2-.3 1.3-.2.5-.6.8-1.1.8-.5 0-.9-.1-1.2-.3-.3-.2-.5-.6-.5-1 0-.2.1-.6.2-1s.2-.8.2-1c0-.3-.1-.7-.4-1.1-.2-.3-.3-.5-.3-.7-.2-.4.4-.8.9-1.1.5-.4.8-.7.9-1 .4-1.5.8-2.7 1.1-3.6.6-1.7 1.3-2.5 2.1-2.5.4 0 .7.2.8.5.2.3.2.7.2 1.2 0 .7-.1 1.5-.3 2.4-.3 1-.5 1.8-.6 2.3.2 0 .5.1.9.1.4.1.7.1.9.1 1 0 1.7-.5 2.2-1.5 0-.1.4-1.1 1.1-3.2.5-1.4 1.1-2.4 1.8-3h.2c.3 0 .5.3.7.9.2.6.3 1 .3 1.4 0 .5-.1 1.1-.4 1.9-.3.8-.4 1.4-.4 1.8 0 .2.1.5.2.9.2-.1.4-.1.6-.2h1.7c.1-.3.3-.3.5-.3z"/><path class="st7" d="M145.8 62.4c-.2.7-1.4 1.5-3.4 2.2-2 .7-3.4 1-4.2.7-.4-.1-.6-.4-.7-.9-.1-.5.1-1.2.4-2.1.5-1.3.8-2.2 1.1-2.6.6-.9 1.4-1.2 2.3-.9.7.2 1.6.8 2.7 1.5 1.4.9 2 1.6 1.8 2.1zm2.7.6c.4-1.2.3-2.3-.4-3.3-.6-.8-1.5-1.6-2.8-2.2-.9-.5-1.9-.9-3.2-1.4-1.1-.4-1.5-1.4-1.2-3 .3-1.6.2-2.5-.3-2.7-.4-.1-.8 0-1.3.3-.5.4-.8.7-.9 1.2-.4 1.3-.9 2.6-1.3 4-.5 1.4-.8 2.7-1.2 4-.3 1.3-.6 2.6-.8 4-.1.9 0 1.6.4 2.3.4.7 1 1.2 1.9 1.4 1.6.6 3.8.3 6.4-.7 2.6-1 4.2-2.3 4.7-3.9z"/><path class="st8" d="M175.7 49.7c-.5.2-1.3.3-2.5.4-.4 0-.8 0-1.2.1-1.2.1-1.8.2-2 .2-.4 0-.9-.1-1.3-.4-.5-.3-.8-.7-.8-1.1 0 0 0-.1.1-.3.1-.1.1-.3.5-.4.1 0 .9-.2 3-.5 1.5-.2 2.9-.5 4.5-.7 2.3-.3.2 2.5-.3 2.7z"/><path class="st9" d="M177.9 41.8c-.5-.3-1-.9-1.8-1.8-.3-.3-.5-.6-.8-.9-.8-.9-1.3-1.3-1.3-1.4-.3-.4-.4-.8-.5-1.3-.1-.6.1-1 .4-1.3 0 0 .1 0 .3-.1.2 0 .3-.1.6.1.1 0 .6.6 2.2 2.1 1.1 1 2.2 2 3.3 3.1 1.6 1.8-1.9 1.8-2.4 1.5z"/><path class="st10" d="M185.5 38.1c-.1-.6 0-1.3 0-2.5 0-.4.1-.8.1-1.2.1-1.2.1-1.8.1-2 .1-.4.3-.9.6-1.2.4-.5.8-.7 1.2-.6l.2.2c.1.1.3.2.4.6v3c0 1.5 0 3-.1 4.5.1 2.2-2.4-.3-2.5-.8z"/><path class="st11" d="M193.3 40c.4-.3 1.1-.7 2.2-1.2.3-.2.7-.3 1.1-.5 1.1-.5 1.7-.8 1.8-.8.4-.1.9-.2 1.4-.1.6.1 1 .4 1.1.7v.3c0 .2 0 .3-.3.6-.1 0-.8.4-2.7 1.5-1.3.7-2.6 1.5-4 2.2-2.1 1-1.1-2.4-.6-2.7z"/><path class="st12" d="M162.8 53.2c.8-.9 1.6-1.7 2.5-2.1h.2c.1 0 .1 0 .2.1 0 .4 0 .8-.2 1.2-.1.3-.3.8-.6 1.5-.6 1.2-1 2-1.1 2.4-.4 1.4-.2 3 .5 4.8.8 2 1.9 2.9 3.2 2.9 1 0 2.3-1.1 4-3.4 1.1-1.5 2.1-3.1 2.9-4.7.2-.5.5-.8.8-1 .3-.3.7-.5 1.1-.5.4 0 .7.2.9.6.2.4.3.8.2 1.3l-.3 2.5c-.1.7 0 1.6.1 2.7.2.9.3 1.8.5 2.7.1 1 .1 1.9-.1 2.6-.2.7-.6 1.3-1.1 1.8-.5.5-1.1.8-1.7.8-.7 0-1.2-.9-1.5-2.6-.1-.3-.2-1.5-.4-3.6-1.2 1.3-2.2 2.2-2.9 2.7-1.2.9-2.4 1.4-3.4 1.4-2.4 0-4.1-1.2-5.1-3.5-.9-2.1-1-4.4-.3-6.9.2-1.6.8-2.8 1.6-3.7z"/><path class="st13" d="M152.9 54.7c.2-1.1.5-2 .5-2 .5-1.6 1.3-2.3 2.2-2.1.6.1.8 1 .7 2.6-.1.6 0 1.2-.2 1.7-.1.6-.8 3.3-.8 3.3l-.9 5.6c-.1.3-.1 1-.1 1.9 0 .5 0 .9-.1 1.2-.1.4-.2.7-.3.9-.2.2-.4.3-.8.2-1-.2-1.6-1-1.8-2.4-.1-.9-.1-2.2.2-3.9 0-.2.1-.4.1-.7 0-.2.1-.5.1-.8.5-1.4.9-3.8 1.2-5.5z"/><path class="st1" d="M310.8 53.4c-.6.4-1.2.6-1.8.6-.4 0-.7-.1-.9-.2-.3-.2-.5-.4-.5-.8 0-.6.3-1.1.9-1.6.6-.5 1.1-.8 1.7-.8.4 0 .8.1 1.1.3.4.2.5.5.5 1 0 .6-.4 1.1-1 1.5zm1.2-3.1c-.4-.4-.9-.6-1.5-.6-.9 0-1.8.3-2.6.9-.9.6-1.3 1.4-1.3 2.3 0 .8.2 1.3.6 1.6.4.3 1 .5 1.7.5.9 0 1.7-.3 2.4-.9.7-.7 1.1-1.4 1.1-2.3.1-.6 0-1.1-.4-1.5zm12.4 2.7c0-.1 0-.2-.1-.3-.1 0-.2-.1-.3-.1-.5 0-.8-.3-.9-.8-.1-.5-.2-1-.2-1.6-.1-.6-.3-.8-.6-.8-.1 0-.2 0-.3.1l-.3.3c-.2.3-.4.6-.5.9-.2.3-.3.6-.4 1-.3.5-.6 1-.9 1.6-.1.2-.2.4-.2.5v.3c0 .2 0 .4.1.5.1.2.2.3.4.3.1 0 .1-.1.2-.1l.3-.9c.1-.2.4-.2 1.1-.2.1 0 .2 0 .5-.1h.3c.3 0 .5.2.7.7.2.5.4.7.7.7.1 0 .2-.1.2-.2.1-.1.1-.2.1-.3 0-.1-.1-.3-.2-.5-.1-.1-.2-.3-.3-.4.2-.1.3-.1.4-.2.2-.1.2-.2.2-.4zm-2.3-.3c-.2 0-.5 0-.7-.1.1-.4.2-.7.2-.8.2-.4.3-.6.5-.6s.3.2.4.6c.1.3.1.6.2.8-.1.1-.4.1-.6.1zm-9 1.3c-1.2 1.2.9.9.9.9.3 0 .4-.1 1-.1.1 0 .2 0 .5-.1.1 0 .5-.1.9 0 .4 0 1 .4 1.7.2.2-.1.3-.1.4-.2.1-.1.3-.3.3-.4 0-.1-.2-.2-.3-.3-.1 0-.2-.1-.3-.1-.2 0-.4-.1-.6-.2l-.8.1h-2.3c-.7-.1-1.2 0-1.4.2z"/><path class="st1" d="M317 54.2c.2.5.4.7.7.7.1 0 .2-.1.2-.2.1-.1.1-.2.1-.3 0-.1-.1-.3-.2-.5-.1-.1-.2-.3-.3-.4 0 0-.6-1-.7-1.7-.1-.5-.2-1-.2-1.6-.1-.6-.3-.8-.6-.8-.1 0-.2 0-.3.1l-.3.3c-.2.3-.4.6-.5.9-.2.3-.3.6-.4 1-.3.5-.6 1-.9 1.6-.1.2-.2.4-.2.5v.3c0 .2 0 .4.1.5.1.2.2.3.4.3.1 0 .1-.1.2-.1.2-.2.2-.6.3-.9 0 0 .9-2 .9-2.1.2-.4.3-.6.5-.6s.3.2.4.6c.1.3.1.6.2.8.1 0 .4 1.1.6 1.6zm11.3-1.8c-.4.1-.8.2-1 .2-.3 0-.6-.2-.6-.5 0-.2-.1-.5-.1-.9 0-.3 0-.6.1-.7.1-.1.2-.2.3-.2.3 0 .7.2 1.2.7.6.5.8.8.8 1.1 0 0-.2.1-.7.3zm.6-2.2c-.7-.6-1.3-.9-1.9-.9-.3 0-.5.1-.7.3-.2.2-.3.4-.4.7-.1.4-.1.9-.2 1.3 0 .4-.1.9-.1 1.4v1.4c0 .1.1.3.2.5s.2.2.4.2.3-.3.4-.8c.1-.5.3-.8.7-.8.5 0 .8 0 1.2-.1.5-.1.8-.2 1.1-.4.3-.2.5-.6.5-1-.2-.5-.5-1.1-1.2-1.8zm7.4 4.4c0 .1-.1.2-.1.2-.1.1-.3.1-.5.1-.4 0-.7-.1-1.1-.3-.1 0-.4-.3-1-.6-.4-.3-.8-.4-1.1-.5v.3c0 .1 0 .3.1.6v.4c0 .1 0 .2-.1.3 0 .1-.1.1-.2.1-.3 0-.5-.2-.7-.6-.1-.3-.1-.7-.1-1.2V53c0-.1-.1-.3-.3-.5-.2-.2-.3-.4-.3-.5 0-.1 0-.2.1-.2l.2-.2c.2-.1.3-.4.4-.9.1-.5.3-.7.6-.7.2 0 .3.3.3.8v.5c.3 0 .9-.2 1.8-.6.4-.2.7-.2.9-.2.2 0 .3.1.3.3 0 .3-.4.6-1.3.9l-1.8.6c.2.4.6.8 1.3 1.2.2.1.8.4 1.7.8.6 0 .9.1.9.3zm-35.4-2c.1-.5.2-.9.3-1.1.2-.5.4-.8.7-.8.1 0 .2.1.3.2 0 .1.1.2.1.4s0 .5-.1.7c-.1.3-.2.6-.2.7 0 0-.5 1.4-.5 1.6-.1.2-.1.4-.1.4-.1.2-.2.2-.3.2-.1 0-.3 0-.4-.1-.1-.1-.2-.2-.2-.3v-.3c0-.2.4-1.6.4-1.6z"/><path class="st1" d="M302.4 51.1c-.2 0-.4 0-.7.1-.6.1-1 .2-1.2.2-.2 0-.4 0-.5-.1-.2-.1-.3-.3-.3-.5 0-.1.3-.3 1-.4.5-.1.9-.1 1.4-.2.6-.1 1.1-.2 1.6-.2.5-.1 1-.1 1.5-.2.5 0 1-.1 1.5-.1.1.1.2.2.2.3 0 .2-.3.3-.8.5-.5.1-1 .1-1.5.2l-2.2.4z"/><path class="st1" d="M304.6 53.7v.4c0 .3.1.5.1.6v.3c0 .1-.1.2-.2.2-.4 0-.6-.2-.7-.7 0 0-.1-1-.1-1.3 0-.3.3-1.1.3-1.1s.1-.4.4-1c.2-.4.3-.8.6-.9h.1c.1 0 .2.1.2.3.1.2.1.3.1.4 0 .1 0 .3-.1.6s-.1.3-.1.6c-.6.8-.6 1.6-.6 1.6z"/><path class="st14" d="M337.7 50.3c.2-.3.5-.5.8-.7h.1v.4c0 .1-.1.3-.2.5-.2.4-.3.6-.3.7-.1.4-.1.9.2 1.5.2.6.6.9 1 .9.3 0 .7-.4 1.2-1.1l.9-1.5c.1-.1.2-.3.2-.3.1-.1.2-.1.4-.1.1 0 .2.1.3.2.1.1.1.3.1.4l-.1.8v.8c0 .3.1.6.1.8v.8c-.1.2-.2.4-.3.5-.2.2-.3.2-.5.2s-.4-.3-.5-.8c0-.1-.1-.5-.1-1.1-.4.4-.7.7-.9.8-.4.3-.7.4-1.1.4-.7 0-1.3-.4-1.6-1.1-.3-.7-.3-1.4-.1-2.1 0-.3.2-.7.4-.9zm-37.9 13.9c.2-.3.5-.5.8-.7h.1v.4c0 .1-.1.3-.2.5-.2.4-.3.6-.3.7-.1.4-.1.9.2 1.5.2.6.6.9 1 .9.3 0 .7-.4 1.2-1.1l.9-1.5c.1-.1.2-.3.2-.3.1-.1.2-.1.4-.1.1 0 .2.1.3.2.1.1.1.3.1.4l-.1.8v.8c0 .3.1.6.1.8v.8c-.1.2-.2.4-.3.5-.2.2-.3.2-.5.2s-.4-.3-.5-.8c0-.1-.1-.5-.1-1.1-.4.4-.7.7-.9.8-.4.3-.7.4-1.1.4-.7 0-1.3-.4-1.6-1.1-.3-.7-.3-1.4-.1-2.1-.1-.2.1-.6.4-.9z"/><path class="st6" d="M347.1 67.6c1.5-.7 2.3-1.3 2.7-1.6 1-.8 1.5-2.2 1.5-3.6 0-1.1-.2-2.8-1.1-4.8-.9-2-2.8-4.2-2.9-4.3-.2-.2-2.1-2.2-1.9-2.4.2-.2.4-.3.7-.3 1.2 0 2.4.8 3.6 2.3 1 1.3 1.8 3 2.5 4.9.6 1.8.9 3.3.9 4.5 0 1.8-.7 3.4-2.1 4.9-1.4 1.4-3 2.2-4.8 2.2-.4 0-.8 0-1.1-.1-.4-.1-.7-.2-1-.3.1-.7 1.8-.9 3-1.4z"/><path class="st15" d="M212.5 52.9c.5.4.5.8 0 1.1l-12.7 2.9c-.7.2-1.5 0-2-.4L187 48.7c-.5-.4-.5-.9 0-1.2l13-2.5c1.1-.2 1.8.1 2.3.5l10.2 7.4z"/><path class="st16" d="M206.6 59.1c.5.4.5.8 0 1.1L193.8 63c-.7.2-1.5 0-2-.4L181 54.9c-.5-.4-.5-.9 0-1.2l9.8-1.9 3.3-.6c1.1-.2 1.8.1 2.3.5l10.2 7.4z"/><path class="st16" d="M215.9 59c.5.4.5.8 0 1.1L203.1 63c-.7.2-1.5 0-2-.4l-10.8-7.7c-.5-.4-.5-.9 0-1.2l13-2.5c1.1-.2 1.8.1 2.3.5l10.3 7.3z"/><path class="st17" d="M201.3 44.4l-2.5 11.7"/><path class="st15" d="M214.9 52c-.3.6-1 .8-1.4.4l-10.6-7.6c-.5-.3-.6-1.1-.3-1.7l6.3-11.9c.3-.6 1-.8 1.4-.4l10.6 7.6c.5.3.6 1.1.3 1.7L214.9 52zm-20.1 20.4c-.1.6-.6.8-1.1.5l-10.4-7.7c-.5-.4-.8-1.1-.6-1.7l2.8-13.5c.1-.6.6-.8 1.1-.5l10.4 7.7c.5.4.8 1.1.6 1.7l-2.8 13.5zm.9.2c-.1.6.2 1 .8.9l12.6-2.8c.6-.1 1.1-.7 1.3-1.3l2.8-13.5c.1-.6-.2-1-.8-.9l-12.6 2.8c-.6.1-1.1.7-1.3 1.3l-2.8 13.5z"/></svg>