<svg id="Слой_1" xmlns="http://www.w3.org/2000/svg" viewBox="0 0 400 87.6"><style>.st0{fill:#005aab}.st1{fill:#cc2229}</style><path class="st0" d="M148.6 60.5c4.6 0 8.2-1.3 11.1-3.8 2.8-2.3 4.7-5.2 5.6-8.8 1-3.4.8-6.3-.7-8.8s-4.4-3.7-9-3.7-8.2 1.3-11.1 3.7c-2.8 2.4-4.7 5.3-5.6 8.8-1 3.6-.8 6.5.7 8.8 1.5 2.5 4.4 3.8 9 3.8zm1.7-6.1c-1.4 0-2.4-.5-2.8-1.8-.4-1.1-.4-2.7.2-4.7.5-1.9 1.4-3.4 2.5-4.7 1.1-1.1 2.4-1.7 3.8-1.7s2.4.5 2.8 1.7c.4 1.3.4 2.8-.2 4.7-.6 2-1.4 3.6-2.5 4.7-1.1 1.3-2.4 1.8-3.8 1.8zm225.5-1.2c-1.3 0-2-.5-2.4-1.5-.5-1-.5-2.3 0-3.9s1.2-3 2.3-3.9c.9-1 2.1-1.4 3.2-1.5 2.7 0 3.5 1.9 2.6 5.6-.5 1.7-1.2 2.9-2.1 3.9-1.2.9-2.3 1.3-3.6 1.3zm-8-17.1l-8.9 31.6h9.1l2.9-10.4c1 2 2.7 3 5 3 2.8 0 5.6-.9 8.4-2.9 1.4-1.1 2.7-2.4 3.6-3.9 1-1.4 1.8-3.4 2.6-5.7.9-3.3.9-6.2-.2-8.6-1.1-2.4-3.4-3.7-7-3.7-1.4 0-2.8.4-4.3 1-1.6.6-2.9 1.8-4.1 3.2h-.1l1-3.6h-8zM360.3 50c1.2-4.3 1.2-7.9-.5-10.6-1.5-2.7-4.6-4.1-8.9-4.1-3.7 0-7 1.1-10.1 3.4-3.2 2.3-5.3 5.3-6.4 9.4-1.1 3.8-.6 6.9 1.3 8.9 1.8 2.2 4.6 3.2 8.4 3.2 2.8 0 5.5-.5 8.2-1.7 2.7-1.1 5-3.2 6.7-6.1h-8.8c-.4.6-1.1 1.1-1.8 1.5-.6.4-1.4.5-2.2.5-1.3 0-2.2-.4-2.8-1.3-.6-.9-.7-1.9-.3-3.3l17.2.2zm-16-4.7c.8-2.7 2.5-4.1 5.4-4.2 1.1.1 2 .5 2.4 1.3.5.8.8 1.8.4 2.9h-8.2zm-30.9 14.5l4.8-16.9h-7.9l1.9-6.9h24.9l-1.9 6.9h-7.9l-4.8 16.9h-9.1zM309 45c.5-3.4-.2-6-2.2-7.5-2-1.4-4.6-2.2-7.6-2.2-3.9 0-7.3 1-10.3 3.3-3 2.2-5.2 5.3-6.3 9.4-1.1 3.9-.7 7 1.2 9.1 1.8 2 4.6 3.2 8.4 3.2 3.2 0 6.3-.8 9-2.3 1.4-.8 2.7-1.8 3.8-3 1.1-1.3 1.9-2.8 2.7-4.6h-9.1c-.4.9-1 1.7-1.7 2.4-.7.8-1.7 1.1-2.9 1.1-1.4 0-2.3-.5-2.6-1.7-.3-1-.3-2.4.2-4.3.2-.6.5-1.4.9-2.2s.7-1.5 1.1-2.2c.4-.6 1.1-1.1 1.7-1.5.6-.4 1.3-.6 2.2-.6 1 0 1.7.4 2 1 .5.5.5 1.4.3 2.4l9.2.2zm-44.4 10.1c-2 0-2.9-.6-2.5-1.9.2-.8.6-1.4 1.3-1.8.6-.4 1.2-.6 2-.8.7-.3 1.6-.4 2.4-.5 1-.3 1.8-.5 2.8-.8-.3 1.7-1 2.9-1.9 4.1-1.1 1.2-2.4 1.7-4.1 1.7zm13.4 4.5l.1-.4c-.5-.5-.6-1-.6-1.5 0-.4 0-.9.2-1.5l3.1-11c.4-1.4.8-2.7.9-3.9.2-1 0-2.1-.5-3-.5-.9-1.5-1.5-3-2s-3.6-.8-6.4-.8c-4.3 0-7.8.8-10.2 2-2.4 1.4-3.9 3.4-4.6 6h9c.5-1 1.1-1.7 1.8-2 .8-.3 1.4-.4 2-.4.6 0 1.2.1 1.9.4.6.3.8.8.7 1.7-.4 1-1.5 1.7-3.2 1.9-.8.1-1.7.3-2.7.4-1 .1-2.1.3-3.3.5-1 0-2.1.3-3.1.6-1.1.3-2.2.8-3.1 1.3-.9.5-1.8 1.3-2.5 2.2-.8.9-1.3 2-1.7 3.4-.6 2.3-.3 4.1 1.1 5.2 1.2 1.3 2.9 1.8 5.1 1.8 1.8 0 3.3-.1 4.8-.6s3.1-1.4 4.7-2.5l-.2 2.5 9.7-.3zm-78.9.2l4.8-16.9h-8l1.9-6.9h25l-1.9 6.9h-8l-4.8 16.9h-9zm-20-6.6c-1.3 0-2-.5-2.4-1.5-.5-1-.5-2.3 0-3.9.5-1.7 1.2-3 2.3-3.9.9-1 2.1-1.4 3.2-1.5 2.7 0 3.5 1.9 2.6 5.6-.5 1.7-1.2 2.9-2.1 3.9-1.2.9-2.3 1.3-3.6 1.3zm-8-17.1l-8.9 31.6h9.1l2.9-10.4c1 2 2.7 3 5 3 2.8 0 5.6-.9 8.4-2.9 1.4-1.1 2.7-2.4 3.6-3.9 1-1.4 1.8-3.4 2.6-5.7.9-3.3.9-6.2-.2-8.6s-3.4-3.7-7-3.7c-1.4 0-2.8.4-4.3 1-1.6.6-2.9 1.8-4.1 3.2h-.1l1-3.6h-8zm-64 23.7h9l4.8-16.9h7.3l-4.8 16.9h9.1l6.7-23.8h-25.4l-6.7 23.8zm1.4-14.8c.5-3.4-.2-6-2.2-7.5-2-1.4-4.6-2.2-7.6-2.2-3.9 0-7.3 1-10.3 3.3-3 2.2-5.2 5.3-6.3 9.4-1.1 3.9-.7 7 1.2 9.1 1.8 2 4.6 3.2 8.4 3.2 3.2 0 6.3-.8 9-2.3 1.4-.8 2.7-1.8 3.8-3 1.1-1.3 1.9-2.8 2.7-4.6h-9.1c-.4.9-1 1.7-1.7 2.4-.7.8-1.7 1.1-2.9 1.1-1.4 0-2.3-.5-2.6-1.7-.3-1-.3-2.4.2-4.3.2-.6.5-1.4.9-2.2.3-.8.7-1.5 1.1-2.2.4-.6 1.1-1.1 1.7-1.5.6-.4 1.3-.6 2.2-.6 1 0 1.7.4 2 1 .5.5.5 1.4.3 2.4l9.2.2z"/><path class="st1" d="M227.3 28.7l6.2 29.1 22.8-29.3-18.1 12.7-10.9-12.5z"/><path class="st0" d="M225.4 36.1l-6.8 23.7h11.7l-4.9-23.7zm28.7 0L236 59.7h11.3l6.8-23.6z"/><path class="st1" d="M79.9 23.6L57.8 48.7 8.7 23.9l46.4 9.8 24.8-10.1z"/><path class="st0" d="M13.1 73.1L39 43.7l57.6 29.1-54.5-11.5c.1 0-29 11.8-29 11.8zm40.5-58.6c-4.3.3-7.4 4.1-7.1 8.3s4.1 7.4 8.3 7.1c4.3-.3 7.4-4.1 7.1-8.3-.2-4.2-4-7.4-8.3-7.1z"/></svg>