<svg id="Слой_1" xmlns="http://www.w3.org/2000/svg" viewBox="0 0 400 176"><style>.st0{fill-rule:evenodd;clip-rule:evenodd;fill:#092769}</style><path class="st0" d="M103.2 113.7c0 5.1-4.3 9.2-7.5 9.2H59.4L105 50H44v12.1h3.1c0-5.1 3.3-9.2 6.5-9.2H85l-45.9 72.9h66.2v-12.1h-2.1zm53.2 9.7c4.4 0 8.7-1.8 7.8-3.5l-8.5-16.8h-29.9L118 120c-.8 1.9 2.6 3.5 5.8 3.5v2.4h-17.2v-2.4c4.4 0 7.5-1.9 8.1-3.5l32.4-70 35.3 69.9c1.1 1.8 4.4 3.5 9.9 3.5v2.4h-35.9v-2.4zm-29.3-23.1L140 71.9l14.4 28.4h-27.3zm69.3-47.4c5.3 0 9.6 1.4 9.6 3v63.9c0 1.7-4.3 3.7-9.5 3.7v2.3h35.1v-2.1c-5.2 0-9.4-2.1-9.4-3.8V52.3h10.1c9.8 0 17.6 8.1 17.6 17.3 0 9.2-7.9 16.6-17.7 16.6h-7s23.7 35.9 23.8 35.9c.9 1.4 1.4 3.6 1.4 3.6H276v-2.1c-4.9 0-7.5-2-8.9-3.8L244.2 90c11-.7 19.5-9.6 19.5-20.1 0-11-9.4-19.9-21.1-19.9h-46.2v2.9zm131.7 70.6c4.4 0 8.7-1.9 7.8-3.6l-8.5-16.8h-29.9l-7.8 16.9c-.8 1.9 2.6 3.7 5.8 3.7v2.1h-17.2v-2.3c4.4 0 7.5-2 8.1-3.6L318.8 50l35.3 69.9c1.1 1.8 4.4 3.7 9.9 3.7v2.2h-35.9v-2.3zm-29.3-23.2l12.9-28.4 14.4 28.4h-27.3z"/></svg>