<svg xmlns="http://www.w3.org/2000/svg" width="47" height="69" viewBox="0 0 47 69"><defs><style>.cls-1{fill:#323556;fill-rule:evenodd}</style></defs><path id="Фигура_24" data-name="Фигура 24" class="cls-1" d="M849 1266.5c0-6.74-3.447-11.76-8.93-13.48a1.792 1.792 0 0 0-2.037 1.09 1.5 1.5 0 0 0 1.1 1.89c4.23 1.25 6.736 5.17 6.736 10.35 0 7.37-4.543 14.27-9.4 14.27a6.206 6.206 0 0 1-3.761-1.42 1.568 1.568 0 0 0-1.88 2.51c.47.32.94.63 1.411.94a8.492 8.492 0 0 0-2.037 5.81 1.475 1.475 0 0 0 1.566 1.56h3.132a6.864 6.864 0 0 1-3.76 5.65 1.386 1.386 0 0 0-.627 2.04 1.5 1.5 0 0 0 1.41.94.745.745 0 0 0 .627-.16 9.764 9.764 0 0 0 5.483-8.47h3.134a1.474 1.474 0 0 0 1.566-1.56 9.694 9.694 0 0 0-2.036-5.81c5.013-2.5 8.303-9.56 8.303-16.15zm-15.354 20.55a6.6 6.6 0 0 1 1.567-2.67l.47-.47h1.724l.469.47a6.579 6.579 0 0 1 1.567 2.67h-5.8zm2.821-28.23c0-10.98-7.207-18.82-17.234-18.82S802 1247.84 802 1258.82c0 7.21 3.29 14.58 8.46 18.66a1.568 1.568 0 1 0 1.88-2.51c-4.387-3.45-7.207-9.72-7.207-16.15 0-9.1 5.954-15.68 14.1-15.68s14.1 6.58 14.1 15.68c0 9.88-6.736 18.82-14.1 18.82h-1.566a1.4 1.4 0 0 0-1.1.47l-.94.94a8.879 8.879 0 0 0-2.663 6.43 1.482 1.482 0 0 0 1.566 1.57h3.134v1.25a11.877 11.877 0 0 0 4.543 9.41 8.6 8.6 0 0 1 3.29 6.9v2.82a1.567 1.567 0 1 0 3.133 0v-2.82a11.88 11.88 0 0 0-4.543-9.41 8.614 8.614 0 0 1-3.29-6.9v-1.25h3.133a1.483 1.483 0 0 0 1.567-1.57 8.642 8.642 0 0 0-1.88-5.49c7.21-2.67 12.85-11.45 12.85-21.17zm-20.054 25.09a6.712 6.712 0 0 1 1.567-2.67l.47-.47h1.723l.47.47a6.736 6.736 0 0 1 1.567 2.67h-5.8zm2.82-37.64a10.571 10.571 0 0 0-10.183 7.37 1.63 1.63 0 0 0 .94 2.04c.157 0 .313.16.47.16a1.5 1.5 0 0 0 1.41-1.1 7.856 7.856 0 0 1 7.363-5.33 1.57 1.57 0 0 0 0-3.14z" transform="translate(-802 -1240)"/></svg>