<svg xmlns="http://www.w3.org/2000/svg" width="41" height="32" shape-rendering="geometricPrecision" text-rendering="geometricPrecision" image-rendering="optimizeQuality" fill-rule="evenodd" clip-rule="evenodd"><path d="M27.007 17.95c4.677.674 9.363.553 14.053 0-.681 4.683-.549 9.376 0 14.049a54.709 54.709 0 0 0-14.053 0 53.992 53.992 0 0 0 0-14.05zm-7.924 12.612V9.46H17.75v21.102h-4.324v1.436h9.98v-1.436h-4.324zM24.569 8.26l-.902-8.261h-10.5l-.903 8.26h12.305zM3.305 31.999C.767 29.085-.285 26.145.038 23.204h11.225c.32 2.94-.737 5.882-3.27 8.794H3.305zm-3.06-9.994c.318-1.35.92-2.698 1.8-4.046h7.207c.88 1.348 1.488 2.696 1.806 4.046H.246zm2.592-5.246c.643-1.154.784-2.337.486-3.75-.19-.887-.549-1.858-1.072-2.891h6.785c-.512 1.033-.872 2.004-1.07 2.891-.296 1.413-.152 2.596.492 3.75h-5.62z" fill="#c8cacd"/></svg>