<svg xmlns="http://www.w3.org/2000/svg" width="59" height="59"><circle data-name="Ellipse 1 copy" cx="29.5" cy="29.5" r="28.5" fill="none" stroke="#4267b2" stroke-width="2"/><path d="M31.092 42h-4.961V30.585H22v-4.446h4.128v-3.211a7.581 7.581 0 0 1 .2-1.836 4.989 4.989 0 0 1 2.363-3.211 6.387 6.387 0 0 1 3.3-.881c1.119-.007 2.239.056 3.358.1.218.007.434.047.65.071v3.972h-2.484a7.367 7.367 0 0 0-.891.061 1.51 1.51 0 0 0-1.421 1.213 4.5 4.5 0 0 0-.107.909c-.013.894 0 1.787 0 2.68v.142h4.757a6781.64 6781.64 0 0 0-.634 4.448h-4.123V42z" fill="#4267b2" fill-rule="evenodd"/></svg>