<svg xmlns="http://www.w3.org/2000/svg" width="190" height="42"><path fill-rule="evenodd" fill="#181D23" d="M45.125 41.232H14.603a3.407 3.407 0 0 1-3.398-3.416V16.184a3.424 3.424 0 0 1 .775-2.179l-3.561.956a1.939 1.939 0 0 0-1.189.916c-.26.445-.331.977-.197 1.476l.224.997 1.155-.212a.745.745 0 1 1 .279 1.463l-1.033.191 2.317 8.691a.741.741 0 1 1-1.427.382l-2.97-11.123a3.438 3.438 0 0 1 .143-2.2l-3.045 1.763a1.973 1.973 0 0 0-.713 2.678l.536.895 1.088-.594a.737.737 0 0 1 1.029.196.747.747 0 0 1-.35 1.116l-1.053.553 6.083 10.543a.747.747 0 0 1-.349.993.74.74 0 0 1-.929-.249L.692 20.728a3.426 3.426 0 0 1 1.204-4.677l.053-.031L28.359.702a3.42 3.42 0 0 1 4.682 1.257l.897 1.565a.742.742 0 0 1 .102.376.745.745 0 0 1-.387.683l-2.365 1.284a.74.74 0 0 1-.943-.459.75.75 0 0 1 .263-.846l1.706-.929-.523-.915a1.953 1.953 0 0 0-2.671-.684L10.24 12.966l27.246-7.351a3.43 3.43 0 0 1 4.2 2.432l.469 1.735c.01.071.01.142 0 .212a.744.744 0 0 1-.55.724l-4.173.984a.745.745 0 1 1-.333-1.441l3.459-.8-.272-1.025a1.956 1.956 0 0 0-2.392-1.366l-21.238 5.698h28.469a3.407 3.407 0 0 1 3.398 3.416v21.604a3.407 3.407 0 0 1-3.398 3.417M12.653 20.967v16.821a1.962 1.962 0 0 0 1.95 1.961h30.522a1.962 1.962 0 0 0 1.957-1.961V20.967H12.653zm0-1.483h34.429v-3.3a1.963 1.963 0 0 0-1.957-1.961H14.603c-1.077 0-1.95.878-1.95 1.961v3.3zM71.27 37.918l-.564-1.605c-.721 1.366-2.189 2.049-4.078 2.049-3.629 0-5.437-2.548-5.437-5.752V22.258c0-3.081 1.91-5.725 5.817-5.725 3.908 0 5.573 2.357 5.573 5.725v1.23h-2.8v-1.571a2.558 2.558 0 0 0-2.752-2.733 2.675 2.675 0 0 0-2.848 2.801v10.932a2.869 2.869 0 0 0 2.863 2.875 2.87 2.87 0 0 0 2.86-2.875v-3.239h-2.787v-2.514h5.6v10.754H71.27zm12.518 0l-1.094-5.124h-4.506l-1.094 5.131h-2.882l4.758-20.948h3.126l4.757 20.948-3.065-.007zm-3.35-16.268l-1.72 8.589h3.439l-1.719-8.589zm19.525 16.494c-2.345 0-3.16-.683-3.16-2.829v-4.099c0-1.449-.68-2.419-2.161-2.419h-2.943v9.121h-2.97V16.97h6.035c3.398 0 4.88 1.701 4.88 4.687v2.296c0 2.05-.68 3.273-2.719 3.683 1.971.314 2.787 1.981 2.787 3.648v3.806c0 .567.251.82.876.82v2.234h-.625zM96.68 21.602c0-1.195-.502-2.049-1.909-2.049h-3.065v6.982h2.752c1.441 0 2.222-.819 2.222-2.391v-2.542zm19.05 16.316V21.596l-.843 3.997-2.847 12.325h-2.909l-2.786-12.325-.877-3.997v16.322h-2.623V16.97h4.125l2.847 13.091.85 3.99.843-4.024 2.786-13.057h4.125v20.948h-2.691zm6.069-20.948h2.97v20.948h-2.97V16.97zm16.025 20.948l-5.165-10.187-1.753-3.683v13.87h-2.814V16.97h2.406l4.948 10.379 1.658 3.682V16.97h2.814v20.948h-2.094zm16.61-8.397h-3.099v8.397h-2.943V16.97h6.035c3.398 0 4.88 1.824 4.88 4.844v2.89c0 2.959-1.502 4.783-4.88 4.783m1.91-7.803c0-1.366-.503-2.172-1.876-2.172h-3.126v7.461h3.126c1.359 0 1.876-.82 1.876-2.173v-3.116zm12.179 16.234l-1.094-5.131h-4.534l-1.094 5.131h-2.874l4.757-20.948h3.126l4.757 20.948h-3.044zm-3.351-16.268l-1.719 8.589h3.439l-1.72-8.589zm13.11 7.844v8.424h-2.936v-8.424l-5.036-12.524h3.187l3.412 9.661 3.412-9.661h2.97l-5.009 12.524zm7.082-12.162v2.351h-.551v-2.351h-.809v-.464h2.168v.471l-.808-.007zm3.642 2.351v-2.282l-.204.792-.469 1.496h-.496l-.475-1.503-.204-.792v2.282h-.476v-2.808h.754l.476 1.571.184.738.203-.738.422-1.571h.775v2.821l-.49-.006z"/></svg>