<svg xmlns="http://www.w3.org/2000/svg" width="55.88" height="64"><path d="M55.88 22.24a3.87 3.87 0 0 0-1.14-2.83 4.217 4.217 0 0 0-1.33-.86l1.21-1.09a3.879 3.879 0 0 0 .12-5.61 3.9 3.9 0 0 0-3.46-1.07V7.37A7.4 7.4 0 0 0 43.87 0H25.86a7.4 7.4 0 0 0-7.41 7.37v10.66a7.162 7.162 0 0 0-2.34 3.56c-1.16 3.16-2.67 8.28-3.46 11.06a13.885 13.885 0 0 0-.52 3.2l-.26 6.17-2.3 3.5-1.2-1.26a1.009 1.009 0 0 0-.71-.31 1.057 1.057 0 0 0-.72.28L.32 50.66a.987.987 0 0 0-.02 1.41l10.47 10.86a1.004 1.004 0 0 0 1.45-1.39L2.44 51.4l5.17-5.03 16.55 17.32a.97.97 0 0 0 .72.31 1.008 1.008 0 0 0 .7-.28.987.987 0 0 0 .03-1.41l-.93-.98 2.65-2.46c2.14.09 10.83-.08 15.29-7.79h1.25a7.39 7.39 0 0 0 7.41-7.36v-.92a3.036 3.036 0 0 0 1.13-.64l2.21-2.02a3.879 3.879 0 0 0 .12-5.61 3.98 3.98 0 0 0-1.32-.85l1.2-1.1a3.867 3.867 0 0 0 .12-5.6 3.9 3.9 0 0 0-1.33-.86l1.21-1.1a3.83 3.83 0 0 0 1.26-2.78zm-8.96 3.57l1.33 1.22a2.945 2.945 0 0 0 .46.35l-1.69 1.42a3.031 3.031 0 0 0-.1 4.57l1.33 1.23a3.035 3.035 0 0 0 .46.34l-1.69 1.41a3.042 3.042 0 0 0-.1 4.58l.44.4H25.92a18.231 18.231 0 0 0-3.33-7.09c.78-2 3.18-8.85 1.39-13.22a5.719 5.719 0 0 0-3.14-3.24 2.179 2.179 0 0 0-.37-.13v-7.9h28.8v2.04l-2.25 1.88a3.031 3.031 0 0 0-.1 4.57l1.33 1.23a3.726 3.726 0 0 0 .46.35l-1.69 1.41a3.042 3.042 0 0 0-.1 4.58zm6.39-12.54a1.848 1.848 0 0 1 .56 1.37 1.868 1.868 0 0 1-.61 1.34L51.05 18a1.06 1.06 0 0 1-1.43 0l-1.34-1.23a1.066 1.066 0 0 1-.34-.79 1.032 1.032 0 0 1 .38-.78l2.44-2.04a1.868 1.868 0 0 1 2.55.11zM25.86 2h18.01a5.39 5.39 0 0 1 5.4 5.37v.38h-28.8v-.38A5.388 5.388 0 0 1 25.86 2zm1.2 54.85a1.027 1.027 0 0 0-.78.27l-2.99 2.76-12.3-12.87 2.71-4.13a1.031 1.031 0 0 0 .17-.5l.27-6.44a12.053 12.053 0 0 1 .44-2.74c.79-2.75 2.28-7.83 3.42-10.92.68-1.86 1.31-2.49 1.65-2.68a1.545 1.545 0 0 0 .23-.06.754.754 0 0 0 .13.06 3.818 3.818 0 0 1 2.11 2.17c1.75 4.29-1.57 12.16-1.6 12.24a.973.973 0 0 0 .14 1.01c6.51 8.05 2.47 17.8 2.43 17.9a.991.991 0 0 0 .53 1.31.909.909 0 0 0 .39.08 1.03 1.03 0 0 0 .93-.6 18.545 18.545 0 0 0 .83-2.63h14.49c-4.54 6.46-12.83 5.81-13.2 5.77zm16.81-7.77H26.16a21.235 21.235 0 0 0 .11-5.75h23v.39a5.382 5.382 0 0 1-5.4 5.36zm9.39-10.42l-2.21 2.02a1.06 1.06 0 0 1-1.43 0l-1.34-1.22a1.088 1.088 0 0 1-.34-.8 1.048 1.048 0 0 1 .38-.78l2.44-2.04a1.881 1.881 0 0 1 2.55.11 1.862 1.862 0 0 1-.05 2.71zm0-7.55l-2.21 2.02a1.06 1.06 0 0 1-1.43 0l-1.34-1.23a1.066 1.066 0 0 1-.34-.79 1.016 1.016 0 0 1 .38-.78l2.44-2.04a1.885 1.885 0 0 1 2.5 2.82zm0-7.56l-2.21 2.02a1.071 1.071 0 0 1-1.43-.01l-1.34-1.22a1.088 1.088 0 0 1-.34-.8 1.048 1.048 0 0 1 .38-.78l2.44-2.04a1.888 1.888 0 0 1 2.5 2.83zm-9.58-3.17l-5.03-.72-2.25-4.53a1 1 0 0 0-1.8 0l-2.25 4.53-5.02.72a1.027 1.027 0 0 0-.82.68 1.015 1.015 0 0 0 .26 1.03l3.64 3.52-.86 4.98a.983.983 0 0 0 .4.98 1.014 1.014 0 0 0 1.06.08l4.49-2.35 4.5 2.35a1.039 1.039 0 0 0 .46.11 1 1 0 0 0 1-1.17l-.86-4.98 3.63-3.52a1 1 0 0 0 .26-1.03 1.014 1.014 0 0 0-.81-.68zm-4.87 4.17a.993.993 0 0 0-.28.88l.6 3.5-3.16-1.65a1.038 1.038 0 0 0-.94 0l-3.16 1.65.61-3.5a1.028 1.028 0 0 0-.29-.88l-2.56-2.48 3.53-.51a1.01 1.01 0 0 0 .76-.55l1.58-3.18 1.58 3.18a1.01 1.01 0 0 0 .76.55l3.53.51zm-2.53 20.66h-3.53a1 1 0 1 0 0 2h3.53a1 1 0 1 0 0-2z" fill="#10aedf" fill-rule="evenodd"/></svg>