<svg xmlns="http://www.w3.org/2000/svg" width="74" height="81"><path fill-rule="evenodd" fill="#C5D9EA" d="M39.366 59.184H10.948a1.55 1.55 0 0 1-1.551-1.548 1.55 1.55 0 0 1 1.551-1.549h28.418a1.55 1.55 0 0 1 0 3.097zm-28.418-10.84h20.96a1.55 1.55 0 0 1 1.551 1.549 1.55 1.55 0 0 1-1.551 1.548h-20.96a1.55 1.55 0 0 1-1.551-1.548 1.55 1.55 0 0 1 1.551-1.549zm28.418-4.645H10.948a1.55 1.55 0 0 1-1.551-1.549 1.55 1.55 0 0 1 1.551-1.548h28.418a1.55 1.55 0 1 1 0 3.097zm-28.418-10.84h20.96a1.55 1.55 0 0 1 1.551 1.549 1.55 1.55 0 0 1-1.551 1.548h-20.96a1.55 1.55 0 0 1-1.551-1.548 1.55 1.55 0 0 1 1.551-1.549zm0-16.863a1.55 1.55 0 0 1-1.551-1.547 1.55 1.55 0 0 1 1.551-1.549h15.21a1.55 1.55 0 1 1 0 3.096h-15.21zm29.969 10.669a1.55 1.55 0 0 1-1.551 1.549H10.948a1.55 1.55 0 0 1-1.551-1.549 1.55 1.55 0 0 1 1.551-1.548h28.418a1.55 1.55 0 0 1 1.551 1.548zm15.052-4.582V3.552H3.254v73.141l5.403-3.238a1.551 1.551 0 0 1 1.729.089l5.368 4.021 6.858-4.11a1.551 1.551 0 0 1 1.729.089l5.367 4.021 6.858-4.11a1.548 1.548 0 0 1 1.729.089l5.367 4.021 6.859-4.11a1.55 1.55 0 0 1 1.728.089l3.72 2.787V50.424h3.103v29.004a1.55 1.55 0 0 1-2.481 1.238l-5.369-4.02-6.858 4.11a1.548 1.548 0 0 1-1.728-.09l-5.368-4.02-6.858 4.11a1.548 1.548 0 0 1-1.728-.09l-5.368-4.02-6.858 4.11a1.548 1.548 0 0 1-1.728-.09l-5.368-4.02-6.858 4.11a1.557 1.557 0 0 1-1.562.02 1.548 1.548 0 0 1-.787-1.348V2.003c0-.855.694-1.548 1.55-1.548H57.52a1.55 1.55 0 0 1 1.552 1.548v20.08h-3.103z"/><path fill-rule="evenodd" fill="#DB322A" d="M62.614 19.847H52.169c-.932 0-1.706.808-1.706 1.783v19.786h-2.365c-.933 0-1.707.809-1.707 1.784s.774 1.783 1.707 1.783h2.365v3.068h-2.365c-.933 0-1.707.808-1.707 1.783 0 .975.774 1.783 1.707 1.783h2.365v6.718c0 .975.774 1.783 1.706 1.783.933 0 1.707-.808 1.707-1.783v-6.718h10.828c.933 0 1.707-.808 1.707-1.783 0-.975-.774-1.783-1.707-1.783H53.876v-3.068h8.693c6.301 0 11.42-5.588 11.42-12.484 0-6.873-4.982-12.438-11.375-12.652zm-.045 21.569h-8.693V23.414h8.67c4.504.166 8.03 4.162 8.03 9.085 0 4.922-3.594 8.917-8.007 8.917z"/></svg>