<svg xmlns="http://www.w3.org/2000/svg" width="44" height="40"><path fill-rule="evenodd" fill="#DB322A" d="M38.572 31.987h-15.34v5.126h7.647c.685 0 1.234.543 1.234 1.221s-.549 1.22-1.234 1.22H13.118a1.221 1.221 0 0 1-1.233-1.22c0-.678.548-1.221 1.233-1.221h7.647v-5.126H5.426c-2.998 0-5.428-2.414-5.428-5.37V5.812c0-2.964 2.44-5.369 5.428-5.369h33.146c2.997 0 5.427 2.405 5.427 5.369v20.805c0 2.965-2.44 5.37-5.427 5.37zm-36.108-5.37c0 1.618 1.335 2.929 2.962 2.929h33.146c1.636 0 2.96-1.32 2.96-2.929v-.977H2.464v.977zM41.541 5.812c0-1.617-1.333-2.928-2.96-2.928H5.426c-1.637 0-2.962 1.311-2.962 2.928v17.387h39.077V5.812zm-25.148 4.873h8.408v2.232h-8.408v1.528l-4.782-2.723 4.782-2.723v1.686zm9.378 3.255l4.783 2.724-4.783 2.723v-1.686h-8.407v-2.232h8.407V13.94z"/></svg>