<svg xmlns="http://www.w3.org/2000/svg" width="29.28" height="29.56" viewBox="0 0 29.28 29.56"><defs><style>.cls-1{fill:#ffc70b;fill-rule:evenodd}</style></defs><path id="Icon_Plus_Big" class="cls-1" d="M1660.25 3464.23c0-1.85-1.11-2.1-2.64-2.1h-2.03c-1.79 0-2.59.25-2.59 2.09v9.3l-8.81-.01c-2.09 0-2.21.92-2.21 2.28v2.21c0 1.48.12 2.28 2.21 2.28l8.8.01v9.41c0 1.54.8 1.97 2.4 1.97h2.21c1.6 0 2.65-.43 2.65-1.97v-9.41h8.81c.98 0 2.21 0 2.21-2.15v-2.34c0-1.35-.18-2.28-2.21-2.28h-8.8v-9.29z" transform="translate(-1641.97 -3462.13)"/></svg>