<svg xmlns="http://www.w3.org/2000/svg" width="65" height="59"><text font-family="UniCredit CY" fill="#FFF" transform="matrix(.6696 0 0 .67672 .517 57.922)" font-size="130">O</text><path fill-rule="evenodd" opacity=".702" fill="#8CBEE7" d="M46.194 33.126h2.529v2.195h-2.529v2.88h2.529v4.319h3.313v-4.319h11.183v-2.88H52.036v-2.195h2.813c3.562 0 5.699-.864 7.409-2.592 1.389-1.405 2.208-3.42 2.208-5.616 0-2.771-1.14-4.716-2.992-6.011-1.567-1.116-3.526-1.584-6.482-1.584h-6.269v12.923h-2.529v2.88zm14.817-8.1c0 1.584-.428 2.736-1.425 3.744-1.104 1.152-2.599 1.512-5.306 1.512h-2.244v-10.08h2.742c2.101 0 3.384.253 4.452.973 1.211.792 1.781 2.124 1.781 3.851z"/></svg>