<svg xmlns="http://www.w3.org/2000/svg" width="32" height="50"><path fill-rule="evenodd" fill="#DB322A" d="M29.377 45.944v3.076a.98.98 0 0 1-.984.977h-3.935a.981.981 0 0 1-.983-.977v-2.93H8.523v2.93a.981.981 0 0 1-.984.977H3.605a.98.98 0 0 1-.984-.977v-3.076A3.328 3.328 0 0 1 .26 42.771v-25.78c0-1.83 1.5-3.319 3.345-3.319h6.984V.978a.98.98 0 0 1 .984-.977h8.852a.98.98 0 0 1 .984.977v12.694h6.984c1.845 0 3.346 1.489 3.346 3.319v25.78a3.329 3.329 0 0 1-2.362 3.173zm-3.935 2.099h1.968V46.09h-1.968v1.953zm-20.854 0h1.967V46.09H4.588v1.953zM19.441 1.954h-6.885v1.953h6.885V1.954zm0 3.906h-6.885v7.811h6.885V5.86zM29.77 16.991c0-.753-.617-1.366-1.377-1.366H3.605c-.76 0-1.378.613-1.378 1.366v25.78c0 .753.618 1.366 1.378 1.366h24.788c.76 0 1.377-.613 1.377-1.366v-25.78zm-4.918 23.342H7.145a.98.98 0 0 1-.983-.977V28.42a.98.98 0 0 1 .983-.977h17.707a.98.98 0 0 1 .984.977v10.936a.98.98 0 0 1-.984.977zm-.984-10.937H8.129v8.984h15.739v-8.984zm-1.967-3.905H10.096a.981.981 0 0 1-.983-.977v-3.906a.98.98 0 0 1 .983-.976h11.805a.98.98 0 0 1 .984.976v3.906a.981.981 0 0 1-.984.977zm-.983-3.907H11.08v1.954h9.838v-1.954z"/></svg>