<svg xmlns="http://www.w3.org/2000/svg" width="44" height="36"><path fill-rule="evenodd" fill="#f33" d="M40.325 10.936h-4.478V4.483c0-2.067-1.647-3.749-3.672-3.749H3.672C1.647.734 0 2.416 0 4.483v16.828c0 2.067 1.647 3.75 3.672 3.75H8.15v6.452c0 2.068 1.647 3.751 3.674 3.751h28.501c2.026 0 3.673-1.683 3.673-3.751V14.687c0-2.069-1.647-3.751-3.673-3.751zM2.098 4.483c0-.886.707-1.606 1.574-1.606h28.503c.867 0 1.574.72 1.574 1.606V5.98H2.098V4.483zM8.15 14.687v8.23H3.672c-.867 0-1.574-.72-1.574-1.607v-8.225h6.404a3.808 3.808 0 0 0-.352 1.602zm-6.052-3.745v-2.82h31.651v2.814H11.824c-.072 0-.142.003-.213.006H2.098zm38.227 22.179H11.824c-.868 0-1.575-.721-1.575-1.608V14.687c0-.843.638-1.534 1.446-1.602h23.103c.039 0 .077-.002.114-.006h5.413c.867 0 1.574.721 1.574 1.608v16.826c0 .887-.706 1.608-1.574 1.608z"/></svg>