<svg xmlns="http://www.w3.org/2000/svg" width="51" height="51"><path fill-rule="evenodd" fill="#DB322A" d="M25.499 50.492a24.84 24.84 0 0 1-15.378-5.291v3.817H7.813V41.59h7.427v2.309h-3.014a22.545 22.545 0 0 0 13.273 4.283c12.508 0 22.684-10.175 22.684-22.683h2.308c0 13.781-11.211 24.993-24.992 24.993zm-6.54-23.201v-1.93h1.713v-8.659h4.245c2.002 0 3.329.313 4.39 1.06 1.255.869 2.026 2.172 2.026 4.028 0 1.472-.555 2.823-1.495 3.764-1.158 1.158-2.605 1.737-5.018 1.737h-1.904v1.471h7.573v1.93h-7.573v2.893h-2.244v-2.893h-1.713v-1.93h1.713v-1.471h-1.713zm3.957-1.906h1.519c1.833 0 2.846-.242 3.594-1.014.675-.674.965-1.447.965-2.508 0-1.158-.386-2.051-1.206-2.581-.723-.482-1.592-.651-3.015-.651h-1.857v6.754zM36.051 7.33h3.035a22.523 22.523 0 0 0-13.587-4.517c-12.509 0-22.685 10.178-22.685 22.686H.506C.506 11.717 11.718.506 25.499.506c5.77 0 11.243 1.945 15.671 5.521V2.211h2.308v7.427h-7.427V7.33z"/></svg>