<svg xmlns="http://www.w3.org/2000/svg" width="65" height="60"><path fill-rule="evenodd" fill="#FFF" d="M20.712 55.618c-4.875 0-9.402-1.496-11.665-4.487-3.134-4.047-4.004-9.765-4.004-19.795v-2.551c0-10.733.87-15.836 4.004-19.883 2.263-2.991 6.79-4.399 11.665-4.399 4.875 0 9.401 1.408 11.665 4.399 3.133 4.047 4.004 9.15 4.004 19.883v2.551c0 10.03-.871 15.748-4.004 19.795-2.264 2.991-6.79 4.487-11.665 4.487zm0 3.695c6.616 0 11.665-1.671 14.711-5.191 3.831-4.31 5.136-10.205 5.136-21.554v-4.927c0-11.437-1.305-17.331-5.136-21.642C32.377 2.48 27.328.808 20.712.808S9.047 2.48 6 5.999C2.17 10.31.864 16.204.864 27.641v4.927C.864 43.917 2.17 49.812 6 54.122c3.047 3.52 8.096 5.191 14.712 5.191z"/><path fill-rule="evenodd" opacity=".702" fill="#8CBEE7" d="M46.194 34.125h2.529v2.196h-2.529v2.88h2.529v4.319h3.313v-4.319h11.183v-2.88H52.036v-2.196h2.813c3.562 0 5.699-.864 7.409-2.591 1.389-1.405 2.208-3.42 2.208-5.616 0-2.772-1.14-4.716-2.992-6.011-1.567-1.116-3.526-1.584-6.482-1.584h-6.269v12.923h-2.529v2.879zm14.817-8.099c0 1.584-.428 2.736-1.425 3.744-1.104 1.152-2.599 1.512-5.306 1.512h-2.244v-10.08h2.742c2.101 0 3.384.253 4.452.972 1.211.792 1.781 2.125 1.781 3.852z"/></svg>