<svg xmlns="http://www.w3.org/2000/svg" width="99" height="88"><path fill-rule="evenodd" fill="#C5D9EA" d="M50.09 21.252v-9.024H4.04v61.826h46.05V66h3.07v15.266c0 3.712-3.035 6.735-6.762 6.735H7.732c-3.726 0-6.761-3.023-6.761-6.736V6.731c0-3.711 3.035-6.734 6.761-6.734h38.666c3.727 0 6.762 3.023 6.762 6.734v14.521h-3.07zM4.04 81.266c0 2.028 1.657 3.677 3.692 3.677h38.666a3.688 3.688 0 0 0 3.692-3.677v-4.154H4.04v4.154zM50.09 6.731c0-2.027-1.656-3.677-3.692-3.677H7.732c-2.035 0-3.692 1.65-3.692 3.677V9.17h46.05V6.731z"/><path fill-rule="evenodd" fill="#DB322A" d="M91.572 66.373H37.885c-3.893 0-7.063-3.19-7.063-7.107v-31.28c0-3.918 3.17-7.109 7.063-7.109h53.687c3.894 0 7.065 3.191 7.065 7.109v31.28c0 3.917-3.171 7.107-7.065 7.107zm4.239-38.387c0-2.351-1.901-4.265-4.239-4.265H37.885c-2.337 0-4.238 1.914-4.238 4.265v1.423h62.164v-1.423zm0 4.266H33.647v5.687h62.164v-5.687zm0 8.531H33.647v18.482c0 2.351 1.901 4.266 4.238 4.266h53.687c2.338 0 4.239-1.915 4.239-4.266V40.783zm-9.89 17.06h-2.825c-2.338 0-4.239-1.913-4.239-4.265v-2.844c0-2.351 1.901-4.264 4.239-4.264h2.825c2.337 0 4.239 1.913 4.239 4.264v2.844c0 2.352-1.902 4.265-4.239 4.265zm1.413-7.109c0-.784-.633-1.422-1.413-1.422h-2.825c-.78 0-1.413.638-1.413 1.422v2.844c0 .785.633 1.422 1.413 1.422h2.825c.78 0 1.413-.637 1.413-1.422v-2.844zm-29.669 7.109H40.711c-.78 0-1.413-.637-1.413-1.421 0-.785.633-1.422 1.413-1.422h16.954c.78 0 1.412.637 1.412 1.422 0 .784-.632 1.421-1.412 1.421zm0-5.687H40.711c-.78 0-1.413-.637-1.413-1.422 0-.784.633-1.422 1.413-1.422h16.954c.78 0 1.412.638 1.412 1.422 0 .785-.632 1.422-1.412 1.422z"/></svg>