<svg xmlns="http://www.w3.org/2000/svg" width="38" height="44"><path fill-rule="evenodd" fill="#f33" d="M35.163 30.168h-8.24v9.795l-.002.057c-.088 2.284-2.027 4.064-4.329 3.976H4.528c-.09.003-.179.002-.269-.001-2.158-.088-3.833-1.893-3.745-4.032V4.032a3.4 3.4 0 0 1-.002-.267C.572 1.624 2.37-.061 4.528-.002h18.011c2.324 0 4.384 1.729 4.384 4.034v8.328h8.24c1.373 0 2.324 1.309 2.324 2.671v12.414c0 1.361-.951 2.723-2.324 2.723zm-.001-2.095c.212 0 .212-.419.212-.629v-5.132H13.19v5.132a.948.948 0 0 0 .687.629h21.285zm.212-7.856v-1.572H13.19v1.572h22.184zM4.528 41.901h18.064l.061.005a2.054 2.054 0 0 0 2.157-1.943V36.14H2.626v3.823a1.792 1.792 0 0 0 1.902 1.938zM24.81 4.032c0-1.153-1.109-1.938-2.271-1.938H4.528a1.785 1.785 0 0 0-1.902 1.938V5.76H24.81V4.032zm0 3.824H2.626v26.189H24.81v-3.877H13.877a3 3 0 0 1-2.8-2.724V15.031a2.946 2.946 0 0 1 2.8-2.671H24.81V7.856zm10.353 6.599H13.877c-.212 0-.687.314-.687.576v1.519h22.184v-1.519c0-.21.052-.576-.211-.576zm-19.596 9.428h5.229c.583 0 1.056.469 1.056 1.047 0 .579-.473 1.048-1.056 1.048h-5.229a1.051 1.051 0 0 1-1.056-1.048c0-.578.472-1.047 1.056-1.047z"/></svg>