<svg xmlns="http://www.w3.org/2000/svg" width="64" height="58"><path fill-rule="evenodd" fill="#FFF" d="M55.926-.002H8.021C3.685-.002.168 3.479.168 7.773v45.666a3.107 3.107 0 0 0 1.865 2.818 3.263 3.263 0 0 0 3.337-.582l6.578-6.025 8.049 7.094c.544.475 1.238.75 1.963.777a3.168 3.168 0 0 0 2.062-.777l7.952-7.094 7.95 7.094a3.168 3.168 0 0 0 4.025 0l8.05-7.094 6.577 6.025a3.265 3.265 0 0 0 3.338.582 3.109 3.109 0 0 0 1.865-2.818V7.773c0-4.294-3.516-7.775-7.853-7.775zm3.927 51.498L54.06 46.25a3.06 3.06 0 0 0-4.122 0l-7.952 7.093-7.951-7.093a2.854 2.854 0 0 0-2.061-.778 2.853 2.853 0 0 0-2.062.778l-7.951 7.093-7.952-7.093a3.06 3.06 0 0 0-4.122 0l-5.792 5.246V7.773c0-2.147 1.758-3.888 3.927-3.888h47.904c2.169 0 3.927 1.741 3.927 3.888v43.723z"/><path fill-rule="evenodd" opacity=".702" fill="#8CBEE7" d="M23.139 37.112a1.78 1.78 0 0 1-1.375.583 1.977 1.977 0 0 1-1.374-.583 2.026 2.026 0 0 1 0-2.818l21.007-20.698a1.975 1.975 0 0 1 2.748.388 1.926 1.926 0 0 1 0 2.332L23.139 37.112zm1.472-12.245c-3.632 0-6.577-2.914-6.577-6.509 0-3.596 2.945-6.511 6.577-6.511 3.633 0 6.577 2.915 6.577 6.511 0 3.595-2.944 6.509-6.577 6.509zm0-9.133c-1.464 0-2.651 1.174-2.651 2.624 0 1.448 1.187 2.623 2.651 2.623 1.464 0 2.651-1.175 2.651-2.623 0-1.45-1.187-2.624-2.651-2.624zm14.725 10.689c3.632 0 6.577 2.914 6.577 6.51 0 3.596-2.945 6.511-6.577 6.511s-6.577-2.915-6.577-6.511 2.945-6.51 6.577-6.51zm0 9.134c1.464 0 2.65-1.175 2.65-2.624s-1.186-2.624-2.65-2.624c-1.463 0-2.651 1.175-2.651 2.624s1.187 2.624 2.651 2.624z"/></svg>