<svg id="Icon_App" xmlns="http://www.w3.org/2000/svg" width="92.62" height="92.62" viewBox="0 0 92.62 92.62"><defs><style>.cls-1{fill:none;stroke:#fde414;stroke-width:3px}.cls-2{fill:#fff;fill-rule:evenodd}</style></defs><circle id="Circle" class="cls-1" cx="46.31" cy="46.31" r="44.81"/><path class="cls-2" d="M1648.67 3716.9a2.107 2.107 0 0 1 .84 4.04 2.036 2.036 0 0 1-.83.18 2.11 2.11 0 0 1-.01-4.22m0-1.4a3.546 3.546 0 0 0-1.38.28 3.513 3.513 0 0 0 1.39 6.74 3.388 3.388 0 0 0 1.38-.29 3.508 3.508 0 0 0-1.39-6.73zm-9.82-46.39a5.616 5.616 0 0 1 5.17 3.41l17.43 40.64a5.621 5.621 0 0 1-2.96 7.37l-16.13 6.91a5.6 5.6 0 0 1-7.38-2.95l-17.42-40.64a5.613 5.613 0 0 1 2.95-7.37l16.14-6.91a5.427 5.427 0 0 1 2.2-.46m0-2.1a7.75 7.75 0 0 0-3.03.62l-16.14 6.91a7.724 7.724 0 0 0-4.06 10.14l17.43 40.64a7.734 7.734 0 0 0 10.14 4.06l16.13-6.91a7.716 7.716 0 0 0 4.06-10.14l-17.42-40.64a7.732 7.732 0 0 0-7.11-4.68zm-1.24 6.65a3.494 3.494 0 0 1 3.23 2.13l12.72 29.67a3.495 3.495 0 0 1-1.84 4.61l-12.26 5.25a3.493 3.493 0 0 1-4.61-1.84l-12.73-29.68a3.46 3.46 0 0 1-.03-2.68 3.5 3.5 0 0 1 1.88-1.92l12.26-5.26a3.658 3.658 0 0 1 1.38-.28m0-2.11a5.579 5.579 0 0 0-2.21.46l-12.26 5.25a5.613 5.613 0 0 0-2.95 7.37l12.72 29.68a5.636 5.636 0 0 0 7.38 2.95l12.26-5.25a5.628 5.628 0 0 0 2.95-7.38l-12.72-29.67a5.635 5.635 0 0 0-5.17-3.41zm-2.88 19.71a1.665 1.665 0 0 0 1.04.92c-.15.6-.33 1.3-.43 1.72s-.36 1.66-.62 2.9a4.23 4.23 0 0 1-.56-.97 4.538 4.538 0 0 1 .57-4.57m3.62-3.19a5.919 5.919 0 0 0-2.35.48 5.965 5.965 0 0 0-.37 10.8c.26-1.29.92-4.46 1.08-5.12.18-.76.61-2.46.69-2.74v-.02l.04-.18v-.02a.2.2 0 0 0-.12-.26c-.05-.02-1.12-.17-1.12-.17a.229.229 0 0 1-.18-.15.292.292 0 0 1 .13-.37 23.124 23.124 0 0 1 3.02-1.57c.23-.09.62-.26.98-.4l-.03-.01a5.891 5.891 0 0 0-1.77-.27zm3.77 3.38a5.46 5.46 0 0 1 .43.79 4.572 4.572 0 0 1-2.4 5.99 4.778 4.778 0 0 1-1.62.37c.67-1.19 1.61-2.97 2.42-4.64.37-.79.77-1.63 1.17-2.51m-.57-3.26l.01.02a.829.829 0 0 1 .04.97c-.07.14-.9 2.04-1.92 4.17-.9 1.88-1.96 3.85-2.6 4.95-.89 1.54-1.08 1.79-1.08 1.79a.345.345 0 0 1-.12.09.228.228 0 0 1-.11.03.245.245 0 0 1-.12-.04h-.01a.076.076 0 0 0 .02.05 1.488 1.488 0 0 0 .65.28.148.148 0 0 0 .07-.01.538.538 0 0 0 .12-.09s.08-.11.37-.58a6.119 6.119 0 0 0 1.48.18 5.965 5.965 0 0 0 5.49-8.31 6.047 6.047 0 0 0-1.71-2.28.811.811 0 0 0-.1-.94 2.7 2.7 0 0 0-.48-.28z" transform="translate(-1593.69 -3653.69)"/></svg>