<svg xmlns="http://www.w3.org/2000/svg" width="41" height="44"><path fill-rule="evenodd" fill="#DB322A" d="M37.051 27.485h-6.049l-3.697 3.697v9.569a3.251 3.251 0 0 1-3.248 3.247H3.947a3.251 3.251 0 0 1-3.248-3.247V3.246A3.25 3.25 0 0 1 3.947-.001h20.11a3.25 3.25 0 0 1 3.248 3.247v9.079h9.746a3.252 3.252 0 0 1 3.248 3.249v8.662a3.252 3.252 0 0 1-3.248 3.249zM2.864 40.751c0 .596.486 1.082 1.083 1.082h20.11c.597 0 1.083-.486 1.083-1.082v-5.009H2.864v5.009zM25.14 3.246c0-.596-.486-1.082-1.083-1.082H3.947c-.597 0-1.083.486-1.083 1.082v1.963H25.14V3.246zm0 4.13H2.864v26.2H25.14v-6.091h-1.083a3.252 3.252 0 0 1-3.249-3.249v-8.662a3.253 3.253 0 0 1 3.249-3.249h1.083V7.376zm12.993 8.198c0-.597-.486-1.083-1.082-1.083H24.057c-.597 0-1.083.486-1.083 1.083v8.662c0 .597.486 1.084 1.083 1.084h2.165c.598 0 1.083.484 1.083 1.082v1.717l2.483-2.482c.203-.204.478-.317.766-.317h6.497c.596 0 1.082-.487 1.082-1.084v-8.662zm-3.248 3.249h-8.663a1.083 1.083 0 0 1 0-2.166h8.663a1.082 1.082 0 1 1 0 2.166zm-8.663 2.165h4.332a1.083 1.083 0 1 1 0 2.165h-4.332a1.082 1.082 0 1 1 0-2.165z"/></svg>