<svg id="Icon_Card" xmlns="http://www.w3.org/2000/svg" width="92.62" height="92.62" viewBox="0 0 92.62 92.62"><defs><style>.cls-1{fill:none;stroke:#fde414;stroke-width:3px}.cls-2{fill:#fff;fill-rule:evenodd}</style></defs><circle id="Circle" class="cls-1" cx="46.31" cy="46.31" r="44.81"/><path class="cls-2" d="M1304.2 3669.73a3.552 3.552 0 0 1 2.41 1.2l17.9 20.52a3.416 3.416 0 0 1-.37 4.89l-36.79 31.12a3.562 3.562 0 0 1-4.96-.38l-17.9-20.52a3.416 3.416 0 0 1 .37-4.89l36.79-31.12a3.524 3.524 0 0 1 2.55-.82m.16-2.07a5.63 5.63 0 0 0-4.09 1.32l-36.79 31.11a5.483 5.483 0 0 0-.59 7.82l17.9 20.52a5.691 5.691 0 0 0 7.94.6l36.79-31.11a5.483 5.483 0 0 0 .59-7.82l-17.9-20.52a5.684 5.684 0 0 0-3.85-1.92zm4.31 5.64l1.84 2.1-42.12 35.63-1.84-2.1 42.12-35.63m.23-2.93l-45.33 38.33 4.6 5.26 45.32-38.33-4.59-5.26zm8.73 27.46l-.39-2.04a2.518 2.518 0 0 0 2.07-2.28 2.446 2.446 0 0 0-.62-1.82 2.556 2.556 0 0 0-4.34.8l-1.99-.69a4.55 4.55 0 0 1 1.36-1.96 4.712 4.712 0 0 1 6.57.49 4.541 4.541 0 0 1-.49 6.48 4.637 4.637 0 0 1-2.17 1.02zm-4.48 2.83a4.7 4.7 0 0 1-3.19-1.59 4.555 4.555 0 0 1 .49-6.47 4.716 4.716 0 0 1 6.58.5 4.538 4.538 0 0 1-.49 6.47 4.715 4.715 0 0 1-3.39 1.09zm.54-7.08a2.565 2.565 0 0 0-1.86.6 2.5 2.5 0 0 0-.27 3.54 2.588 2.588 0 0 0 3.6.27 2.48 2.48 0 0 0 .27-3.54 2.549 2.549 0 0 0-1.74-.87zm-36.27 21.7l21.33-18.04m-20.64 18.83l-1.38-1.58 21.33-18.04 1.38 1.58zm2.53 2.89l8.53-7.21m-7.84 8l-1.38-1.58 8.53-7.21 1.38 1.57z" transform="translate(-1247.69 -3653.69)"/></svg>