<svg xmlns="http://www.w3.org/2000/svg" width="98" height="88"><path fill-rule="evenodd" fill="#C5D9EA" d="M11.212 57.464h26.483c.864 0 1.564.703 1.564 1.57 0 .865-.7 1.568-1.564 1.568H11.212a1.566 1.566 0 0 1-1.563-1.568c0-.867.7-1.57 1.563-1.57zm0-9.466h38.987c.863 0 1.564.703 1.564 1.57 0 .866-.701 1.568-1.565 1.568H11.212a1.566 1.566 0 0 1-1.563-1.568c0-.867.7-1.57 1.563-1.57zm40.322-15.793H11.212a1.566 1.566 0 0 1-1.563-1.568c0-.867.7-1.57 1.563-1.57h40.322c.863 0 1.564.703 1.564 1.57 0 .866-.701 1.568-1.564 1.568zm0 9.465H11.212a1.566 1.566 0 0 1-1.563-1.568c0-.866.7-1.569 1.563-1.569h40.322c.863 0 1.564.703 1.564 1.569s-.701 1.568-1.564 1.568zm8.074 8.757V15.142H50.93a3.302 3.302 0 0 1-3.293-3.303V3.134H3.303a.165.165 0 0 0-.164.165v81.4c0 .091.074.164.164.164h56.14a.164.164 0 0 0 .165-.164V66.156l3.128-3.53v22.073a3.302 3.302 0 0 1-3.293 3.302H3.303a3.3 3.3 0 0 1-3.292-3.302v-81.4A3.3 3.3 0 0 1 3.303-.003h45.898c.431 0 .822.175 1.104.458l.002.001 11.971 12.008c.294.296.45.69.454 1.092.001.006.004.011.004.017v33.324l-3.128 3.53zM50.765 5.352v6.487c0 .091.074.165.165.165h6.467l-6.632-6.652z"/><path fill-rule="evenodd" fill="#DB322A" d="M97.263 35.045a1.511 1.511 0 0 0-2.146 0l-1.074 1.078-1.072-1.078.631-.636c3.077-3.092 3.077-8.124 0-11.217a7.873 7.873 0 0 0-11.16 0L66.768 38.946a1.528 1.528 0 0 0 0 2.157l.083.083L46 62.16c-2.41 2.423-4.125 4.895-4.957 7.153-.807 2.186-.633 3.729-.196 4.764l-2.358 2.371a1.53 1.53 0 0 0 0 2.157 1.51 1.51 0 0 0 2.145 0l2.36-2.371c1.029.44 2.564.614 4.74-.197 2.245-.838 4.705-2.56 7.115-4.982l20.85-20.975.083.083a1.513 1.513 0 0 0 2.147 0l12.895-12.962 1.073 1.08-15.042 15.117a1.533 1.533 0 0 0 0 2.158 1.514 1.514 0 0 0 2.147 0l18.261-18.354a1.53 1.53 0 0 0 0-2.157zM46.677 73.177c-1.303.486-2.357.499-2.821.036l-.002-.002-.002-.002c-.461-.465-.447-1.525.037-2.836.553-1.499 1.677-3.223 3.213-4.947l4.499 4.521c-1.717 1.545-3.431 2.673-4.924 3.23zm7.1-5.358l-4.557-4.58 19.777-19.896 4.557 4.58-19.777 19.896zm37.679-35.566l-1.696 1.704-.009.009-.009.009-12.887 12.952-.079-.079-.003-.003-.003-.003-6.692-6.727a.05.05 0 0 0-.008-.007l-.008-.009-.075-.074 14.6-14.675a4.846 4.846 0 0 1 6.869 0 4.905 4.905 0 0 1 0 6.903z"/></svg>