<svg xmlns="http://www.w3.org/2000/svg" width="34" height="50"><path fill-rule="evenodd" fill="#DB322A" d="M32.265 49.996H1.733c-.602 0-1.09-.486-1.09-1.087V1.088c0-.6.488-1.087 1.09-1.087h30.532c.602 0 1.09.487 1.09 1.087v47.821c0 .601-.488 1.087-1.09 1.087zm-1.091-2.174V35.181H2.823v12.641h28.351zM2.823 2.174v31.158h28.351V2.174H2.823zm25.701 18.478h-4.402a1.09 1.09 0 0 1-1.09-1.087v-7.609c0-.6.488-1.086 1.09-1.086h4.402c.602 0 1.09.486 1.09 1.086v7.609a1.09 1.09 0 0 1-1.09 1.087zm-1.091-7.608h-2.221v5.433h2.221v-5.433zm1.091-3.261h-4.402a1.088 1.088 0 0 1 0-2.174h4.402a1.088 1.088 0 1 1 0 2.174zm-8.437 13.798H5.899c-.602 0-1.09-.487-1.09-1.087V8.696c0-.601.488-1.087 1.09-1.087h14.188c.602 0 1.091.486 1.091 1.087v13.798c0 .6-.489 1.087-1.091 1.087zm-1.09-13.798H6.99v11.623h12.007V9.783z"/></svg>