<svg id="Icon_Pay" xmlns="http://www.w3.org/2000/svg" width="92.59" height="92.62" viewBox="0 0 92.59 92.62"><defs><style>.cls-1{fill:none;stroke:#fde414;stroke-width:3px}.cls-2{fill:#fff;fill-rule:evenodd}</style></defs><circle id="Circle" class="cls-1" cx="46.295" cy="46.31" r="44.795"/><path class="cls-2" d="M1967.36 3691.23l.69.12a3.914 3.914 0 0 0 .47.03 5.3 5.3 0 0 0 4.04-2.01 5.87 5.87 0 0 0 1.46-4.51l-.15-.85h-.88a6.2 6.2 0 0 0-4.56 2.42 5.127 5.127 0 0 0-1.22 4.14zm2.73-3.58a4.267 4.267 0 0 1 1.79-1.35 4.216 4.216 0 0 1-.92 1.78 3.59 3.59 0 0 1-1.66 1.15 4.359 4.359 0 0 1 .79-1.58zm5.19 11.58a5.668 5.668 0 0 1 2.91-4.96 6.027 6.027 0 0 0-5.26-2.62c-2.2 0-3.88 1.21-4.79 1.21-1.06 0-2.64-1.14-4.67-1.14-3.13 0-6.47 2.73-6.47 7.94 0 5.29 3.94 11.87 7.06 11.87 1.09 0 2.77-1.07 4.45-1.07 1.65 0 2.87 1.03 4.44 1.03 3.42 0 5.95-6.94 5.95-6.94a5.842 5.842 0 0 1-3.62-5.32zm-2.33 10.23a4.787 4.787 0 0 1-1.43-.37 8.542 8.542 0 0 0-3.01-.66 10.09 10.09 0 0 0-3.4.75 7.9 7.9 0 0 1-1.05.32c-1.32 0-4.98-4.89-4.98-9.84 0-3.88 2.21-5.91 4.39-5.91a6.811 6.811 0 0 1 2.32.57 6.753 6.753 0 0 0 2.35.57 6.009 6.009 0 0 0 2.19-.56 7.162 7.162 0 0 1 2.6-.65 4.611 4.611 0 0 1 2.17.49 7.686 7.686 0 0 0 1.19 11.22c-1.01 2.1-2.47 4.07-3.34 4.07zm42.76-11.29l-.19-.78h-12.76v6.42h5.85c-.83 1.51-2.54 2.37-4.81 2.37a5.71 5.71 0 1 1 3.65-10.15l.73.58 4.85-4.73-.84-.71a12.767 12.767 0 0 0-8.39-3.1 12.4 12.4 0 1 0 0 24.8 11.907 11.907 0 0 0 12.2-12.4 10.265 10.265 0 0 0-.29-2.3zm-11.91 12.67a10.373 10.373 0 1 1 0-20.74 10.638 10.638 0 0 1 6.14 1.92l-1.94 1.89a7.807 7.807 0 1 0-4.2 14.3c3.83 0 6.62-1.99 7.29-5.21l.26-1.21h-6.5v-2.38h8.98a6.891 6.891 0 0 1 .09 1.06c0 7.13-5.24 10.37-10.12 10.37zm-18.65 3.16h2.08v-28.41h-2.08V3714z" transform="translate(-1940.5 -3653.69)"/></svg>