<svg id="Слой_1" xmlns="http://www.w3.org/2000/svg" viewBox="0 0 44 33"><style>.st0{fill:none}.st0,.st1{fill-rule:evenodd;clip-rule:evenodd}*{fill:#c5c6d0}</style><path d="M23 13.5c5.4 0 7 4 7.4 7H15.7c.3-3 1.9-7 7.3-7m0-2c-6.4 0-9.5 4.6-9.5 11 0 0 5.6.1 10.8.1 4.3 0 8.2 0 8.2-.1 0-6.4-3.1-11-9.5-11z"/><path class="st0" d="M32.5 22.5c0-6.4-3.1-11-9.5-11s-9.5 4.6-9.5 11c0 .1 19 .1 19 0z"/><path class="st1" d="M23.5 9.5c.6 0 1 .4 1 1v2c0 .6-.4 1-1 1s-1-.4-1-1v-2c0-.6.4-1 1-1zm-12 11h23v2h-23v-2z"/></svg>