<svg xmlns="http://www.w3.org/2000/svg" width="30" height="30" shape-rendering="geometricPrecision" text-rendering="geometricPrecision" image-rendering="optimizeQuality" fill-rule="evenodd" clip-rule="evenodd"><path d="M22.671 12.82v9.745c0 .797-.59 1.45-1.317 1.45H8.647c-.718 0-1.308-.653-1.308-1.45V12.82h15.332zm5.52-6.835h-4.307v13.934c0 .801.601 1.455 1.322 1.455h2.986c.723 0 1.307-.654 1.307-1.455V7.444c0-.803-.584-1.46-1.307-1.46zm-26.373 0h4.295v13.934c0 .801-.587 1.455-1.312 1.455H1.818C1.095 21.374.5 20.72.5 19.92V7.444c0-.798.594-1.46 1.317-1.46zm20.853 0v4.15c0 .807-.59 1.462-1.317 1.462H8.647c-.718 0-1.308-.654-1.308-1.462v-4.15h15.332z" fill="#c8cacd"/></svg>