<svg xmlns="http://www.w3.org/2000/svg" width="24.13" height="155.59" viewBox="0 0 24.13 155.59"><defs><style>.cls-1{fill:#ffdf15;fill-rule:evenodd}</style></defs><path id="Line_2" class="cls-1" d="M2079.6 5853.96h-.08a4.8 4.8 0 0 0-4.75 4.86c.08 5.17 3.11 9.87 6.32 14.85 3.02 4.7 6.15 9.56 6.23 14.2.05 2.94-2.41 7.04-4.78 11.01-3.25 5.44-6.94 11.6-6.83 18.43.09 5.83 3.49 11.12 6.77 16.23 2.81 4.38 5.72 8.9 5.78 12.82.05 3.24-2.38 7.32-4.97 11.64-3.16 5.29-6.74 11.29-6.64 17.79.1 6.02 3.56 11.4 6.9 16.61 2.75 4.29 5.59 8.72 5.65 12.45a4.824 4.824 0 0 0 4.84 4.71h.07a4.818 4.818 0 0 0 4.76-4.86c-.1-6.43-3.69-12.02-7.16-17.43-2.75-4.28-5.34-8.31-5.39-11.63-.06-3.8 2.66-8.36 5.29-12.76 3.15-5.28 6.41-10.73 6.32-16.67-.11-6.62-3.92-12.56-7.29-17.8-2.68-4.18-5.22-8.12-5.27-11.25-.06-4.13 2.76-8.85 5.49-13.41 3.05-5.11 6.21-10.39 6.12-16.03-.11-7.36-4.17-13.65-7.75-19.2-2.34-3.63-4.76-7.39-4.8-9.85a4.809 4.809 0 0 0-4.83-4.71" transform="translate(-2074.75 -5853.97)"/></svg>