<svg xmlns="http://www.w3.org/2000/svg" width="24.09" height="155.59" viewBox="0 0 24.09 155.59"><defs><style>.cls-1{fill:#ffdf15;fill-rule:evenodd}</style></defs><path id="Line_1" class="cls-1" d="M2052.88 5855.36h-.16a4.818 4.818 0 0 0-4.75 4.87c.08 5.17 3.11 9.87 6.32 14.85 3.03 4.7 6.16 9.55 6.23 14.2.05 2.93-2.4 7.04-4.78 11-3.25 5.44-6.94 11.61-6.83 18.44.1 5.83 3.49 11.12 6.78 16.23 2.81 4.38 5.71 8.9 5.78 12.81.05 3.25-2.39 7.33-4.97 11.65-3.16 5.29-6.75 11.29-6.64 17.79.09 6.02 3.55 11.4 6.89 16.61 2.75 4.29 5.6 8.72 5.66 12.45a4.807 4.807 0 0 0 4.83 4.7h.08a4.8 4.8 0 0 0 4.75-4.86c-.1-6.43-3.69-12.02-7.16-17.43-2.74-4.27-5.34-8.31-5.39-11.62-.06-3.8 2.66-8.36 5.3-12.77 3.15-5.27 6.41-10.72 6.31-16.67-.11-6.61-3.92-12.55-7.29-17.79-2.68-4.18-5.21-8.13-5.26-11.26-.07-4.12 2.75-8.84 5.48-13.4 3.06-5.11 6.22-10.4 6.13-16.03-.12-7.36-4.18-13.65-7.75-19.2-2.34-3.64-4.77-7.39-4.81-9.86a4.8 4.8 0 0 0-4.75-4.71" transform="translate(-2047.97 -5855.38)"/></svg>