<svg xmlns="http://www.w3.org/2000/svg" width="145" height="43" viewBox="0 0 145 42.999" shape-rendering="geometricPrecision" text-rendering="geometricPrecision" image-rendering="optimizeQuality" fill-rule="evenodd" clip-rule="evenodd"><path d="M25.41 14.634l-5.077 5.076c-.501.5-1.166.776-1.873.776a2.631 2.631 0 0 1-1.873-.776l-5.076-5.076a2.649 2.649 0 0 1 0-3.743 2.621 2.621 0 0 1 1.871-.778c.71 0 1.374.276 1.874.778l3.204 3.203 3.205-3.205c.5-.5 1.163-.776 1.871-.776.707 0 1.372.276 1.873.776a2.652 2.652 0 0 1 0 3.745zM27.097 1.23a4.163 4.163 0 0 0-5.883-.001l-2.747 2.739-2.765-2.754a4.157 4.157 0 0 0-5.879.003l-8.606 8.61a4.155 4.155 0 0 0 0 5.876l8.604 8.604a4.17 4.17 0 0 0 5.885.006l2.751-2.738 2.758 2.751a4.165 4.165 0 0 0 5.883-.005l8.605-8.608a4.153 4.153 0 0 0 0-5.874L27.098 1.23zm83.735 21.373c-.27 0-.471-.02-.606-.045v2.522c.45.022.989.046 1.418.046 2.745 0 3.15-.587 4.635-5.021L120.4 8.338h-3.333l-2.453 8.819h-.046l-2.566-8.82h-3.509l4.412 12.465c-.292 1.644-.926 1.801-2.073 1.801zM63.326 35.947v-7.569H59.28v2.135h1.28v9.837h2.993l4.253-7.202v7.202h3.058V28.378h-2.998l-4.54 7.569zm32.116-22.39c0-.651-.088-1.418-.088-1.418h.088l3.015 8.17h2.655l3.02-8.17h.09s-.09.767-.09 1.419v6.751h2.924V8.34h-4.3l-2.925 8.146h-.091L96.817 8.34h-4.203v11.97h2.828v-6.751zM53.77 37.853h-4.03c.564-.63.855-1.802.855-3.67V30.9h3.174v6.953zm3.15-9.474h-9.248v5.737c0 3.062-.676 3.737-1.8 3.737v5.512h2.923V40.35h6.617v3.014h2.928v-5.512h-1.42v-9.474zm27.826-10.343c-2.005 0-2.77-1.665-2.77-3.441 0-1.914.517-3.847 2.679-3.847 2.003 0 2.677 1.775 2.677 3.666 0 1.417-.558 3.622-2.586 3.622zm5.828-3.846c0-4.143-2.34-6.167-4.974-6.167-2.118 0-2.991 1.104-3.578 2.048h-.046V8.339h-4.15v2.133h1.133v12.36H77.68v2.135h5.713v-2.135h-1.281V18.78h.043c.384.651 1.172 1.846 3.377 1.846 3.558 0 5.042-3.152 5.042-6.437zM78.946 38.28h-2.182v-3.016h2.182c1.059 0 1.734.452 1.734 1.532 0 .922-.608 1.485-1.734 1.485zm-2.182-7.832h1.957c1.036 0 1.644.406 1.644 1.376 0 .942-.63 1.437-1.644 1.437h-1.957v-2.813zm4.907 3.668c1.011-.54 1.777-1.281 1.777-2.633 0-2.206-1.642-3.104-4.412-3.104h-5.421V40.35h5.536c2.79 0 4.725-.968 4.725-3.377 0-1.686-1.015-2.45-2.205-2.858zm25.008-1.012h-4.194v-4.725h-4.24v2.135h1.28v9.837h2.96v-4.728h4.194v4.728h3.055V28.378h-3.055v4.725zm33.956-17.092c0 1.463-1.417 2.362-2.813 2.362-.606 0-1.463-.338-1.463-1.44 0-1.305.97-1.596 2.14-1.798 1.304-.205 1.821-.405 2.136-.655v1.531zm3.083 2.164v-6.688c0-2.948-3.083-3.465-4.77-3.465-2.35 0-4.773.483-5.293 3.742l2.973.456.001-.01c.091-.7.362-1.667 1.939-1.667.809 0 2.067.067 2.067 1.394 0 .675-.606.878-1.101.946l-2.836.426c-2 .293-3.488 1.487-3.488 3.828 0 2.475 1.845 3.489 3.645 3.489 2.138 0 3.15-.991 3.872-1.733.066.676.112.855.291 1.42H145v-2.138h-1.282zm-73.015-7.498c2.432 0 2.881 2.117 2.881 3.645 0 1.53-.449 3.647-2.88 3.647-2.429 0-2.881-2.117-2.881-3.647 0-1.528.452-3.645 2.88-3.645zm0 9.949c3.219 0 6.122-1.981 6.122-6.304 0-4.318-2.903-6.3-6.122-6.3-3.218 0-6.122 1.982-6.122 6.3 0 4.323 2.904 6.304 6.122 6.304zm22.38 15.424c0 1.464-1.416 2.364-2.812 2.364-.609 0-1.465-.339-1.465-1.44 0-1.305.971-1.597 2.138-1.8 1.307-.203 1.825-.405 2.139-.651v1.527zm3.084-4.524c0-2.947-3.084-3.464-4.77-3.464-2.351 0-4.775.483-5.294 3.744l2.972.454.003-.012c.09-.697.36-1.664 1.936-1.664.809 0 2.069.066 2.069 1.396 0 .672-.606.877-1.103.945l-2.835.426c-2.002.293-3.489 1.485-3.489 3.826 0 2.474 1.846 3.487 3.647 3.487 2.138 0 3.15-.99 3.87-1.731.067.674.113.855.293 1.42h3.982v-2.137h-1.281v-6.69zM122 16.056c0 1.462-.563 2.004-1.507 2.004v2.52c2.384.022 4.432-1.037 4.432-4.524v-5.198h3.173v9.451h3.056V8.34H122v7.717zm-2.979 19.994c0 1.464-1.418 2.364-2.813 2.364-.608 0-1.464-.339-1.464-1.44 0-1.305.97-1.598 2.14-1.8 1.305-.203 1.822-.405 2.138-.651v1.527zm3.084-4.524c0-2.947-3.084-3.464-4.77-3.464-2.353 0-4.777.483-5.294 3.744l2.972.454.002-.012c.091-.697.36-1.664 1.937-1.664.81 0 2.07.066 2.07 1.396 0 .672-.61.877-1.101.944l-2.838.427c-2.002.293-3.487 1.485-3.487 3.825 0 2.475 1.845 3.488 3.645 3.488 2.139 0 3.151-.99 3.871-1.731.067.674.111.855.29 1.42h3.985v-2.137h-1.282v-6.69zM52.626 8.494v7.473c-1.713 0-4.052-.542-4.052-3.737 0-3.195 2.339-3.736 4.051-3.736zm3.375 0c1.71 0 4.051.541 4.051 3.736 0 3.195-2.34 3.737-4.051 3.737V8.494zm-3.376 10.081v1.734h3.376v-1.734c2.878 0 7.293-1.169 7.293-6.345s-4.415-6.345-7.293-6.345V4.15h-3.376v1.735c-2.882 0-7.382 1.169-7.382 6.345s4.5 6.345 7.382 6.345z" fill="#95989c" fill-rule="nonzero"/></svg>