<svg viewBox="0 0 258 34" xmlns="http://www.w3.org/2000/svg"><title>logo</title><g fill="none" fill-rule="evenodd"><path d="M75.486 9.622c-2.144 0-3.978 1.805-3.978 3.949v3.399h-5.502V9.622h-.187c-2.145 0-3.979 1.805-3.979 3.949v13.46h.186c2.146 0 3.98-1.803 3.98-3.947v-3.285h5.502v7.232h4.164V9.622h-.186m165.524 0c-2.147 0-3.979 1.805-3.979 3.949v3.399h-5.503V9.622h-.186c-2.145 0-3.979 1.805-3.979 3.949v13.46h.187c2.143 0 3.978-1.803 3.978-3.947v-3.285h5.503v7.232h4.163V9.622h-.184M51.903 3.251c-4.832 0-7.961 4.166-8.397 10.226h-4.918V3.592h-.031c-2.392 0-4.259 1.896-4.259 4.229v19.21h.035c2.347-.019 4.255-1.938 4.255-4.32v-6.124h4.918c.372 5.686 3.513 10.816 8.397 10.816 5.603 0 8.58-5.42 8.58-12.466 0-6.588-3.17-11.686-8.58-11.686zm0 20.702c-2.547 0-4.232-4.164-4.232-9.046 0-4.881 1.776-8.3 4.232-8.3 2.453 0 4.322 3.419 4.322 8.3 0 5.525-1.606 9.046-4.322 9.046zM90.504 9.622c-1.364 0-2.587.437-3.565 1.99l-5.432 9.45V9.622h-4.165v17.409h1.764c1.345 0 2.568-.434 3.565-1.99l5.738-9.773v7.816c0 2.144 1.833 3.947 3.977 3.947h.189V9.622h-2.071m83.75 0c-1.365 0-2.592.437-3.565 1.99l-5.433 9.45V9.622h-4.166v17.409h1.765c1.344 0 2.568-.434 3.565-1.99l5.736-9.773v7.816c0 2.144 1.834 3.947 3.98 3.947h.184V9.622h-2.066m-66.889 8.919c-.964-2.176-2.406-3.73-4.49-4.537l7.502-10.412h-4.674L98.456 13.91V3.637h-.093c-2.394 0-4.197 1.741-4.197 4.104v19.29h.093c2.394 0 4.197-1.741 4.197-4.103v-7.155c2.145 0 3.762 1.432 4.539 3.296l3.081 7.962h4.717l-3.428-8.49m82.38-8.919h-12.526v3.327h4.213v14.082h.186a3.92 3.92 0 0 0 3.915-3.917V12.949h4.212V9.622m-31.497 14.114l-1.432-14.114h-9.976l-.621 4.229c-.561 3.76-1.442 8.489-4.813 10.506l.279 7.212h.222a2.977 2.977 0 0 0 2.976-2.979l.057-1.559h11.355l.155 4.538h.22a2.978 2.978 0 0 0 2.978-2.979l.148-4.233-1.548-.621zm-11.646.123c1.927-2.043 2.848-5.719 3.285-8.547l.279-2.517h3.232l.995 11.064h-7.791zm108.121-2.393c-.923-1.825-2.019-3.221-3.667-3.906l6.167-7.938h-4.487l-5.969 7.845V9.622H242.6v17.409h.186c2.146 0 3.981-1.803 3.981-3.947v-3.965c1.738 0 2.983 1.291 3.668 2.814l2.502 5.098h4.483l-2.697-5.565m-51.064-9.101c-1.024 0-2.114.175-2.706.331V7.229h5.52c1.974 0 3.575-1.6 3.575-3.574v-.063h-13.259v23.439h6.746c5.051 0 8.818-2.725 8.818-7.384 0-3.993-3.128-7.282-8.694-7.282zm-.186 11.799l-2.52-.003v-8.319c.529-.125 1.463-.302 2.271-.302 3.012 0 4.776 1.794 4.776 4.015 0 2.392-1.697 4.609-4.527 4.609zm-62.443-6.303c0-5.222-2.518-8.239-7.055-8.239-4.602 0-7.4 3.451-7.4 8.769 0 5.468 3.016 8.889 8.083 8.889 2.797 0 4.756-.683 5.813-1.245v-3.449c-1.057.746-2.518 1.678-5.408 1.678-2.61 0-4.042-1.492-4.383-4.321l10.35-1.428v-.654zm-10.599-.746c0-3.078 1.087-4.725 3.418-4.787h.157c1.148 0 3.295.373 3.42 3.823l-6.995.964zm82.45 4.973c0 3.265 2.394 5.192 6.994 5.192h.871c1.615 0 4.29-.249 5.44-.466V15.746c0-4.349-2.921-6.124-6.435-6.124-2.674 0-4.724.778-5.811 1.306v2.768c1.833-.964 3.48-1.586 5.126-1.586 1.991 0 3.358.591 3.358 2.797v1.152c-5.19.497-9.543 1.552-9.543 6.029zm9.543 2.828c-.404.094-1.43.156-2.299.156-2.238 0-3.544-.964-3.544-3.108 0-2.892 2.206-3.637 5.843-3.979v6.931zM117.576 9.622c-2.36 0-4.321.404-5.842 1.214l-.092.061v23.035h.216c2.145 0 3.885-1.772 3.885-3.917V27c.592.155 1.4.28 2.3.28 4.507 0 7.461-3.606 7.461-9.014 0-5.379-2.983-8.644-7.928-8.644zm-.371 14.985c-.591 0-1.058-.062-1.462-.218V12.545c.529-.186 1.057-.279 1.74-.279 2.706 0 3.887 1.959 3.887 6.125 0 2.794-.714 6.216-4.165 6.216z" fill="#FFF"/><path d="M.583 14.977C.583 7.017 7.037.56 14.999.56c7.957 0 14.408 6.457 14.408 14.417 0 7.956-6.451 14.414-14.408 14.414-7.962 0-14.416-6.458-14.416-14.414" fill="#DB322A"/><path d="M16.448 8.851c.221-.325.128-.565-.02-.696-.093-.083-2.34-1.44-2.34-1.44a.61.61 0 0 1-.269-.504c0-.334.203-.583.649-.713 1.444-.392 6.517-.601 8.24-.601.816 0 2.429-.003 3.487.064 1.195.076 2.091.323 2.317.901.44 1.126-.287 1.823-.807 2.29-.272.251-3.945 3.715-8.257 7.481-3.8 3.322-8.047 6.702-10.509 8.549-3.464 2.59-4.138 2.966-4.138 2.966a.81.81 0 0 1-.356.087.623.623 0 0 1-.639-.63c0-.134.042-.265.114-.367 0 0 6.816-9.825 8.054-11.482 1.248-1.662 4.222-5.546 4.222-5.546s.035-.045.252-.359" fill="#DB322A"/><path d="M15.955 8.661c.223-.325.127-.565-.018-.697-.096-.084-2.339-1.443-2.339-1.443a.604.604 0 0 1-.27-.508c0-.331.194-.582.651-.708 1.443-.393 6.517-.603 8.236-.603.817 0 2.429-.005 3.488.064 1.191.079 2.09.322 2.321.899.438 1.134-.289 1.827-.808 2.294-.276.252-3.948 3.718-8.257 7.479-3.805 3.327-8.052 6.708-10.511 8.547-3.464 2.594-4.134 2.973-4.134 2.973a.915.915 0 0 1-.359.091.627.627 0 0 1-.638-.632c0-.142.04-.268.113-.372 0 0 6.813-9.819 8.055-11.48a740.66 740.66 0 0 1 4.224-5.548s.031-.042.246-.356" fill="#FFF"/></g></svg>