<svg width="292" height="38" viewBox="0 0 292 38" xmlns="http://www.w3.org/2000/svg"><title>Фигура 9</title><path d="M85.117 10.08a4.525 4.525 0 0 0-4.52 4.39v3.79h-6.252v-8.18h-.212a4.525 4.525 0 0 0-4.521 4.39v14.98h.211a4.519 4.519 0 0 0 4.522-4.39V21.4h6.252v8.05h4.732V10.08h-.212zm188.082 0a4.524 4.524 0 0 0-4.521 4.39v3.79h-6.253v-8.18h-.212a4.526 4.526 0 0 0-4.521 4.39v14.98h.214a4.519 4.519 0 0 0 4.521-4.39V21.4h6.253v8.05h4.726V10.08h-.209.002zM58.32 2.99c-5.491 0-9.046 4.63-9.542 11.38h-5.587v-11h-.036a4.746 4.746 0 0 0-4.839 4.7v21.38h.039c2.66 0 4.822-2.15 4.836-4.81v-6.81h5.587c.424 6.33 3.992 12.04 9.542 12.04 6.367 0 9.749-6.03 9.749-13.88 0-7.33-3.602-13-9.749-13zm0 23.04c-2.895 0-4.809-4.64-4.809-10.07 0-5.43 2.018-9.24 4.809-9.24 2.791 0 4.911 3.81 4.911 9.24 0 6.15-1.825 10.07-4.911 10.07zm43.862-15.95a4.411 4.411 0 0 0-4.051 2.21l-6.172 10.52V10.08h-4.733v19.37h2a4.454 4.454 0 0 0 4.05-2.21l6.52-10.88v8.7a4.518 4.518 0 0 0 4.519 4.39h.214V10.08h-2.352.005zm95.163 0a4.406 4.406 0 0 0-4.051 2.21l-6.173 10.52V10.08h-4.734v19.37h2.006a4.456 4.456 0 0 0 4.051-2.21l6.518-10.88v8.7a4.518 4.518 0 0 0 4.521 4.39h.21V10.08h-2.348zm-76 9.92a9.061 9.061 0 0 0-5.1-5.05l8.524-11.58h-5.311l-8.234 11.48V3.42h-.106a4.546 4.546 0 0 0-4.768 4.56v21.47h.1a4.546 4.546 0 0 0 4.769-4.56v-7.97a5.645 5.645 0 0 1 5.157 3.67l3.5 8.86h5.361L121.345 20zm93.606-9.92h-14.237v3.7h4.792v15.67h.212a4.408 4.408 0 0 0 4.449-4.36V13.78h4.785v-3.7h-.001zm-35.789 15.71l-1.627-15.71h-11.34l-.706 4.7c-.637 4.19-1.638 9.45-5.468 11.7l.317 8.02h.252a3.344 3.344 0 0 0 3.381-3.31l.065-1.74h12.9l.176 5.05h.25a3.346 3.346 0 0 0 3.384-3.31l.168-4.71-1.752-.69zm-13.234.13c2.191-2.27 3.237-6.36 3.733-9.51l.317-2.8h3.673l1.13 12.31h-8.853zm122.856-2.66a8.465 8.465 0 0 0-4.166-4.35l7.007-8.83h-5.1l-6.783 8.73v-8.73h-4.736v19.37h.212a4.52 4.52 0 0 0 4.523-4.39v-4.41a4.747 4.747 0 0 1 4.168 3.13l2.844 5.67h5.093l-3.062-6.19zm-58.022-10.13a13.915 13.915 0 0 0-3.075.37V7.41h6.272a4.019 4.019 0 0 0 4.062-3.97v-.07h-15.07v26.08h7.666c5.739 0 10.019-3.03 10.019-8.21 0-4.45-3.554-8.11-9.878-8.11h.004zm-.212 13.13h-2.863V17c.846-.203 1.71-.317 2.58-.34 3.423 0 5.427 2 5.427 4.47a5 5 0 0 1-5.148 5.13h.004zm-70.952-7.01c0-5.81-2.862-9.17-8.018-9.17-5.228 0-8.407 3.84-8.407 9.76 0 6.08 3.426 9.89 9.184 9.89a14.45 14.45 0 0 0 6.605-1.39v-3.83a9.7 9.7 0 0 1-6.145 1.86c-2.965 0-4.593-1.66-4.981-4.81l11.762-1.59v-.72zm-12.045-.83c0-3.43 1.236-5.26 3.884-5.33h.179c1.305 0 3.744.41 3.886 4.25l-7.949 1.08zm93.687 5.53c0 3.64 2.721 5.78 7.948 5.78h.989a45.137 45.137 0 0 0 6.182-.52V16.89c0-4.84-3.32-6.81-7.312-6.81a15.5 15.5 0 0 0-6.6 1.45v3.08a12.956 12.956 0 0 1 5.826-1.76c2.261 0 3.815.65 3.815 3.11v1.28c-5.9.55-10.844 1.73-10.844 6.71h-.004zm10.844 3.15a16.69 16.69 0 0 1-2.612.17c-2.544 0-4.027-1.07-4.027-3.46 0-3.21 2.506-4.04 6.639-4.42v7.71zM132.947 10.08a14.377 14.377 0 0 0-6.638 1.35l-.105.07v25.63h.246a4.4 4.4 0 0 0 4.414-4.36v-3.35c.856.208 1.733.312 2.614.31 5.121 0 8.478-4.01 8.478-10.03 0-5.99-3.391-9.62-9.009-9.62zm-.422 16.68a4.5 4.5 0 0 1-1.661-.25V13.33a5.721 5.721 0 0 1 1.978-.31c3.074 0 4.416 2.18 4.416 6.82-.004 3.11-.815 6.92-4.737 6.92h.004zM12.394 15.58c1.409-1.85 4.8-6.18 4.8-6.18s.036-.04.28-.39a.546.546 0 0 0-.021-.78c-.108-.09-2.657-1.6-2.657-1.6a.677.677 0 0 1-.307-.57.819.819 0 0 1 .739-.79 65.1 65.1 0 0 1 9.359-.67c.776 0 2.178 0 3.321.04A16.5 16.5 0 0 0 16.387-.01C7.433-.099.101 7.086.008 16.04a15.8 15.8 0 0 0 4.3 10.81c2.176-3.06 6.998-9.85 8.086-11.27zm18.419-7.13c-.36.33-4.506 4.16-9.371 8.32-4.318 3.69-9.144 7.46-11.941 9.51-1.5 1.1-2.542 1.84-3.255 2.34a16.51 16.51 0 0 0 10.14 3.46c8.949.088 16.277-7.091 16.372-16.04a15.725 15.725 0 0 0-1.945-7.59z" fill="#FFF" fill-rule="evenodd"/></svg>