<svg viewBox="0 0 425 75" xmlns="http://www.w3.org/2000/svg" xmlns:xlink="http://www.w3.org/1999/xlink"><title>Page 1</title><defs><path id="a" d="M0 .597h60.277V75H0z"/><path id="c" d="M.278.597h60.276V75H.278z"/></defs><g fill="none" fill-rule="evenodd"><g transform="translate(0 -.597)"><mask id="b" fill="#fff"><use xlink:href="#a"/></mask><path d="M46.15 37.798c0-11.826 5.525-22.355 14.127-29.169A37.026 37.026 0 0 0 37.202.596C16.656.596 0 17.252 0 37.798S16.656 75 37.202 75c8.72 0 16.733-3.009 23.075-8.033-8.602-6.814-14.126-17.343-14.126-29.169" fill="#E30E17" mask="url(#b)"/></g><path d="M46.15 37.202c0 11.826 5.525 22.355 14.127 29.169 8.602-6.814 14.126-17.343 14.126-29.17 0-11.825-5.524-22.354-14.126-29.168-8.602 6.814-14.126 17.343-14.126 29.169" fill="#EA600A"/><path d="M181.704 27.207a9.133 9.133 0 0 0-3.077-2.02c-1.187-.48-2.486-.72-3.898-.72-.747 0-1.524.063-2.33.192-.804.13-1.593.357-2.365.682a8.955 8.955 0 0 0-2.205 1.351c-.697.576-1.304 1.3-1.818 2.175a8.88 8.88 0 0 0-3.376-3.23c-1.42-.78-3.043-1.17-4.87-1.17-.614 0-1.25.055-1.905.166a8.805 8.805 0 0 0-1.955.58 7.9 7.9 0 0 0-1.856 1.12c-.59.471-1.125 1.067-1.607 1.788V25.11h-5.181v24.658h5.23V36.1c0-1.047.167-1.977.499-2.793.332-.815.777-1.496 1.333-2.046a5.545 5.545 0 0 1 1.955-1.248 6.68 6.68 0 0 1 2.392-.425c1.76 0 3.126.558 4.097 1.673.972 1.115 1.458 2.711 1.458 4.787v13.72h5.23V36.1c0-1.047.166-1.977.499-2.793.332-.815.776-1.496 1.333-2.046a5.545 5.545 0 0 1 1.955-1.248 6.67 6.67 0 0 1 2.39-.425c1.76 0 3.127.558 4.099 1.673.97 1.115 1.457 2.711 1.457 4.787v13.72h5.23V34.271c0-1.44-.235-2.762-.71-3.963a9.03 9.03 0 0 0-2.004-3.102m27.38 13.372a7.504 7.504 0 0 1-1.519 2.497 7.056 7.056 0 0 1-2.342 1.66c-.91.403-1.922.604-3.037.604-1.167 0-2.209-.21-3.127-.63a6.941 6.941 0 0 1-2.329-1.698 7.52 7.52 0 0 1-1.467-2.51 9.02 9.02 0 0 1-.515-3.063 9.02 9.02 0 0 1 .515-3.063 7.506 7.506 0 0 1 1.467-2.509 6.957 6.957 0 0 1 2.33-1.699c.917-.42 1.96-.63 3.126-.63 1.115 0 2.127.201 3.037.604a7.07 7.07 0 0 1 2.342 1.66 7.504 7.504 0 0 1 1.52 2.497c.36.961.54 2.008.54 3.14 0 1.132-.18 2.18-.54 3.14zm.206-12.483a9.66 9.66 0 0 0-3.192-2.638c-1.27-.66-2.788-.99-4.556-.99-1.733 0-3.346.32-4.838.964a12.038 12.038 0 0 0-3.912 2.69c-1.116 1.15-1.99 2.518-2.626 4.105-.635 1.587-.952 3.325-.952 5.212 0 1.888.317 3.625.952 5.212.635 1.587 1.51 2.956 2.626 4.105a12.023 12.023 0 0 0 3.912 2.69c1.492.643 3.105.965 4.838.965 1.768 0 3.286-.326 4.556-.978a9.515 9.515 0 0 0 3.192-2.625v2.96h5.38V25.108h-5.38v2.986zm30.106 9.305c-1.51-1.175-3.613-1.96-6.307-2.355l-2.547-.386a22.901 22.901 0 0 1-1.596-.296 5.204 5.204 0 0 1-1.287-.45 2.468 2.468 0 0 1-.862-.721c-.214-.292-.322-.652-.322-1.081 0-.875.407-1.583 1.223-2.124.814-.54 1.96-.81 3.435-.81.773 0 1.532.069 2.28.205.745.138 1.453.31 2.122.516.67.205 1.278.433 1.828.682.548.248 1.012.485 1.39.707l2.316-4.195c-1.287-.824-2.789-1.463-4.505-1.918-1.716-.454-3.543-.682-5.48-.682-1.58 0-2.997.185-4.249.554-1.252.369-2.32.892-3.204 1.57a6.853 6.853 0 0 0-2.034 2.483c-.472.979-.707 2.077-.707 3.295 0 1.99.707 3.599 2.123 4.826 1.416 1.227 3.496 2.029 6.241 2.407l2.575.334c1.475.206 2.556.537 3.243.99.685.456 1.03 1.035 1.03 1.738 0 .927-.474 1.66-1.417 2.2-.943.54-2.342.81-4.195.81-1.012 0-1.917-.067-2.715-.204a13.726 13.726 0 0 1-2.188-.553 10.663 10.663 0 0 1-1.776-.798 12.963 12.963 0 0 1-1.454-.966l-2.497 4.04c.892.67 1.828 1.21 2.806 1.622a19.21 19.21 0 0 0 2.882.966c.944.232 1.836.386 2.677.463a24.65 24.65 0 0 0 2.214.116c1.767 0 3.35-.197 4.748-.592 1.398-.394 2.574-.948 3.526-1.661.954-.711 1.682-1.561 2.188-2.547.507-.987.76-2.072.76-3.256 0-2.111-.755-3.754-2.265-4.93m35.322-2.071a9.2 9.2 0 0 1 .722-2.458 6.566 6.566 0 0 1 1.325-1.93 5.548 5.548 0 0 1 1.93-1.25c.747-.29 1.6-.436 2.56-.436 1.717 0 3.115.532 4.196 1.595 1.08 1.064 1.767 2.557 2.059 4.479h-12.792zm15.045-7.271a10.559 10.559 0 0 0-3.681-2.651c-1.432-.626-3.008-.94-4.722-.94-1.82 0-3.48.314-4.981.94a11.22 11.22 0 0 0-3.874 2.65c-1.081 1.142-1.922 2.51-2.522 4.106-.601 1.596-.901 3.355-.901 5.276 0 1.956.309 3.732.927 5.328.618 1.596 1.483 2.96 2.599 4.092a11.511 11.511 0 0 0 3.99 2.625c1.544.618 3.243.928 5.096.928 1.87 0 3.65-.258 5.34-.773s3.29-1.415 4.8-2.702l-2.676-3.835a12.045 12.045 0 0 1-3.411 1.917 10.761 10.761 0 0 1-3.718.682c-.876 0-1.716-.12-2.523-.36a6.61 6.61 0 0 1-2.187-1.12c-.653-.505-1.21-1.154-1.674-1.943-.463-.79-.781-1.741-.952-2.857h18.222a19.632 19.632 0 0 0 .104-2.007c0-1.922-.288-3.676-.864-5.264-.574-1.587-1.372-2.951-2.392-4.092zm71.261 12.521a7.506 7.506 0 0 1-1.52 2.497 7.052 7.052 0 0 1-2.34 1.66c-.91.403-1.923.604-3.038.604-1.167 0-2.209-.21-3.127-.63a6.941 6.941 0 0 1-2.329-1.698 7.522 7.522 0 0 1-1.468-2.51 9.044 9.044 0 0 1-.515-3.063c0-1.08.172-2.102.515-3.063a7.508 7.508 0 0 1 1.468-2.509 6.957 6.957 0 0 1 2.33-1.699c.917-.42 1.96-.63 3.126-.63 1.115 0 2.127.201 3.037.604a7.066 7.066 0 0 1 2.341 1.66 7.506 7.506 0 0 1 1.52 2.497c.36.961.54 2.008.54 3.14 0 1.132-.18 2.18-.54 3.14zm.205-12.483a9.656 9.656 0 0 0-3.19-2.638c-1.27-.66-2.789-.99-4.557-.99-1.733 0-3.346.32-4.839.964a12.049 12.049 0 0 0-3.912 2.69c-1.115 1.15-1.99 2.518-2.625 4.105-.635 1.587-.953 3.325-.953 5.212 0 1.888.318 3.625.953 5.212.634 1.587 1.51 2.956 2.625 4.105a12.034 12.034 0 0 0 3.912 2.69c1.493.643 3.106.965 4.84.965 1.767 0 3.285-.326 4.555-.978a9.511 9.511 0 0 0 3.191-2.625v2.96h5.38V25.108h-5.38v2.986zM262.462 44.85a7.24 7.24 0 0 1-2.561.49c-.55 0-1.06-.086-1.532-.258a3.164 3.164 0 0 1-1.234-.81c-.353-.37-.632-.845-.837-1.428-.206-.584-.31-1.287-.31-2.111V30h8.64v-4.89h-8.64v-7.464h-5.404v7.464h-4.916V30h4.916v10.836c0 3.277.775 5.692 2.329 7.245 1.553 1.553 3.728 2.33 6.525 2.33 1.56 0 2.963-.241 4.208-.721a17.78 17.78 0 0 0 2.298-1.081l-1.838-4.504a13.82 13.82 0 0 1-1.644.746m48.565-20.385c-1.51 0-2.874.275-4.093.824-1.218.55-2.238 1.871-3.062 3.055V25.11h-4.884v24.657h4.935V36.203c0-1.047.146-1.982.438-2.806.292-.823.695-1.518 1.21-2.084a5.01 5.01 0 0 1 1.852-1.287 6.251 6.251 0 0 1 2.37-.438c.651 0 1.354.077 2.11.232.384.08.744.176 1.08.29l1.591-5.146a9.839 9.839 0 0 0-1.32-.33 13.534 13.534 0 0 0-2.227-.168m74.779 0c-1.51 0-2.874.275-4.093.824-1.22.55-2.24 1.871-3.062 3.055V25.11h-4.884v24.657h4.935V36.203c0-1.047.146-1.982.438-2.806.29-.823.694-1.518 1.209-2.084a5.013 5.013 0 0 1 1.853-1.287 6.246 6.246 0 0 1 2.368-.438c.652 0 1.355.077 2.11.232.386.08.745.176 1.08.29l1.592-5.146a9.863 9.863 0 0 0-1.32-.33 13.534 13.534 0 0 0-2.226-.168m24.918 16.112a7.504 7.504 0 0 1-1.519 2.497 7.052 7.052 0 0 1-2.34 1.66c-.911.403-1.923.604-3.038.604-1.166 0-2.21-.21-3.127-.63a6.941 6.941 0 0 1-2.33-1.698 7.52 7.52 0 0 1-1.466-2.51 9.02 9.02 0 0 1-.515-3.063 9.02 9.02 0 0 1 .514-3.063 7.506 7.506 0 0 1 1.467-2.509 6.957 6.957 0 0 1 2.33-1.699c.918-.42 1.96-.63 3.127-.63 1.115 0 2.127.201 3.038.604a7.066 7.066 0 0 1 2.34 1.66 7.504 7.504 0 0 1 1.52 2.497c.36.961.54 2.008.54 3.14 0 1.132-.18 2.18-.54 3.14zm.207-25.49v13.007a9.656 9.656 0 0 0-3.191-2.638c-1.272-.66-2.79-.99-4.557-.99-1.733 0-3.346.32-4.839.964a12.038 12.038 0 0 0-3.911 2.69c-1.115 1.15-1.991 2.518-2.625 4.105-.637 1.587-.954 3.325-.954 5.212 0 1.888.317 3.625.954 5.212.634 1.587 1.51 2.956 2.625 4.105a12.023 12.023 0 0 0 3.911 2.69c1.493.643 3.106.965 4.84.965 1.766 0 3.284-.326 4.555-.978a9.511 9.511 0 0 0 3.192-2.625v2.96h5.379v-34.68h-5.38zm-87.03 16.65a7.246 7.246 0 0 1 2.445-1.622 8.015 8.015 0 0 1 3.063-.58c1.208 0 2.331.194 3.37.58a8.064 8.064 0 0 1 2.61 1.556l2.59-4.307a13.138 13.138 0 0 0-3.28-1.907c-1.623-.66-3.386-.991-5.29-.991-1.905 0-3.668.33-5.289.99-1.622.66-3.02 1.57-4.196 2.729a12.62 12.62 0 0 0-2.766 4.105c-.67 1.579-1.005 3.295-1.005 5.148 0 1.853.335 3.569 1.005 5.148a12.615 12.615 0 0 0 2.766 4.104c1.176 1.159 2.574 2.068 4.196 2.729 1.621.66 3.384.99 5.29.99 1.903 0 3.666-.33 5.288-.99a13.141 13.141 0 0 0 3.28-1.908l-2.59-4.307a8.064 8.064 0 0 1-2.61 1.556c-1.038.386-2.16.579-3.369.579a8.015 8.015 0 0 1-3.063-.58 7.231 7.231 0 0 1-2.445-1.621 7.53 7.53 0 0 1-1.622-2.496c-.395-.97-.592-2.037-.592-3.204 0-1.167.197-2.235.592-3.204a7.544 7.544 0 0 1 1.622-2.497" fill="#FFF"/><path d="M120.31 57.554v-1.123l-.364.969h-.402l-.364-.966v1.12h-.38v-1.618h.544l.402 1.036.399-1.036h.544v1.618h-.379zm-2.718 0v-1.269h-.514v-.349h1.406v.349h-.513v1.269h-.379z" fill="#F59F00"/><path d="M422.78 48.861v.308h.354a.335.335 0 0 0 .168-.034c.04-.023.06-.062.06-.118 0-.053-.02-.093-.06-.118a.312.312 0 0 0-.168-.038h-.354zm.362-.409c.231 0 .406.052.525.154.12.103.18.24.18.411a.46.46 0 0 1-.13.335.65.65 0 0 1-.373.175l.523.603h-.565l-.467-.586h-.055v.586h-.473v-1.678h.835zm-.109 2.21c.187 0 .365-.037.53-.109a1.342 1.342 0 0 0 .721-.727c.07-.166.105-.344.105-.535a1.366 1.366 0 0 0-.393-.967 1.386 1.386 0 0 0-.433-.29 1.373 1.373 0 0 0-1.799.725c-.07.166-.105.344-.105.532a1.361 1.361 0 0 0 .396.97 1.38 1.38 0 0 0 .978.4zm0-3.263a1.974 1.974 0 0 1 1.376.556c.175.172.313.372.415.601a1.8 1.8 0 0 1 .151.735c0 .258-.05.503-.15.734-.103.23-.24.431-.416.604a1.965 1.965 0 0 1-1.376.56 1.986 1.986 0 0 1-1.393-.56 1.914 1.914 0 0 1-.413-.604c-.1-.23-.15-.476-.15-.734 0-.26.05-.506.15-.735a1.901 1.901 0 0 1 1.034-1.007c.24-.1.497-.15.772-.15z" fill="#FFF"/><g transform="translate(60 -.597)"><mask id="d" fill="#fff"><use xlink:href="#c"/></mask><path d="M23.352.596A37.028 37.028 0 0 0 .277 8.63C8.88 15.443 14.405 25.972 14.405 37.8c0 11.825-5.525 22.354-14.127 29.168A37.028 37.028 0 0 0 23.352 75c20.546 0 37.203-16.656 37.203-37.202S43.897.596 23.351.596" fill="#F59F00" mask="url(#d)"/></g></g></svg>