<svg xmlns="http://www.w3.org/2000/svg" width="65.031" height="62.96"><path d="M43.954 41.24h-2.848a1.515 1.515 0 0 0 0 3.03h2.848a1.515 1.515 0 0 0 0-3.03zm18.8-10.62V24.3a3.636 3.636 0 0 0-3.61-3.65h-3.361v-5.29a3.758 3.758 0 0 0-3.734-3.78H41.753l-11-11.15a1.5 1.5 0 0 0-1.057-.44 1.5 1.5 0 0 0-1.058.44L17.684 11.58H6.231a6.265 6.265 0 0 0-6.224 6.3v41.44a3.636 3.636 0 0 0 3.61 3.65h55.52a3.636 3.636 0 0 0 3.61-3.65v-9.21a3.907 3.907 0 0 0 .391-.31 6.178 6.178 0 0 0 1.877-4.63V33.69a3.211 3.211 0 0 0-2.264-3.07zm-1.084 3a.193.193 0 0 1 .365.07v11.48a3.179 3.179 0 0 1-.924 2.42c-1.353 1.28-3.971 1.42-4.869 1.36H44.313a6.255 6.255 0 0 1 0-12.51h11.826c3.71 0 5.054-1.54 5.528-2.82zM52.049 14.6a.754.754 0 0 1 .747.76v5.29h-2.095l-5.966-6.05h7.311zM29.705 3.64l10.373 10.52 6.4 6.49h-5.747l-6.718-6.8a1.477 1.477 0 0 0-1.883-.19l-2.3 1.55-2.3-1.55a1.477 1.477 0 0 0-1.883.19l-6.717 6.8h-5.943l6.375-6.49s.006 0 .008-.01zm6.8 17.01h-13.35l3.74-3.79 1.975 1.33a1.518 1.518 0 0 0 .827.25h.265a1.518 1.518 0 0 0 .827-.25l1.975-1.33zM6.237 14.6h8.48l-5.944 6.05H5.739a3 3 0 0 1-.618-.08 2.455 2.455 0 0 1-.376-.12.452.452 0 0 1-.105-.04 2.752 2.752 0 0 1-1.067-.86 4.325 4.325 0 0 1-.569-1.71 3.255 3.255 0 0 1 3.227-3.24zm53.529 44.72a.625.625 0 0 1-.623.63H3.621a.625.625 0 0 1-.622-.63V22.98a5.346 5.346 0 0 0 .948.4c.056.02.113.03.17.05.116.03.232.07.351.09s.244.05.369.07c.081.01.161.03.243.04.216.02.435.04.657.04h53.4a.625.625 0 0 1 .623.63v6.97a3.167 3.167 0 0 0-.9 1.29c-.152.41-.948.85-2.729.85H44.313a9.281 9.281 0 0 0 0 18.56h11.783c.084.01.245.01.468.01a12.783 12.783 0 0 0 3.2-.41v7.75z" fill="#10aedf" fill-rule="evenodd"/></svg>