<svg xmlns="http://www.w3.org/2000/svg" viewBox="0 0 92 98"><path d="M68.5 64.5c-2.6 0-4.7 2.1-4.7 4.8 0 2.7 2.1 4.8 4.7 4.8s4.7-2.1 4.7-4.8c0-2.7-2.1-4.8-4.7-4.8zm0 6.4c-.9 0-1.6-.7-1.6-1.6s.7-1.6 1.6-1.6c.9 0 1.6.7 1.6 1.6s-.8 1.6-1.6 1.6zM43.3 10.1V6.9c-11.3 0-20.4 9.3-20.5 20.8H26c0-9.7 7.7-17.6 17.3-17.6zm-33 6.4h3.1c0-3.5 2.8-6.4 6.3-6.4V6.9c-3.5 0-6.3-2.9-6.3-6.4h-3.1C10.3 4 7.4 6.9 4 6.9v3.2c3.4 0 6.3 2.9 6.3 6.4zm1.5-10.7c.7 1.1 1.6 2 2.7 2.7-1.1.7-2 1.6-2.7 2.7-.7-1.1-1.6-2-2.7-2.7 1.1-.7 2-1.6 2.7-2.7zm72.4 39.7v-21c0-.9-.7-1.6-1.6-1.6h-13C67 8.1 53.1-1.7 38.6.9c-11 2-19.6 10.8-21.6 22h-5.2c-5.2 0-9.4 4.3-9.4 9.6v54.4c0 5.3 4.2 9.6 9.4 9.6h70.8c.9 0 1.6-.7 1.6-1.6V80.3c3.7-.8 6.3-4 6.3-7.8V53.3c0-3.8-2.6-7.1-6.3-7.8zm0 3.3c1.9.7 3.1 2.5 3.2 4.5 0 .3 0 .6-.1.9 0 .1 0 .2-.1.3 0 .2-.1.4-.2.6 0 .1-.1.2-.1.3-.1.2-.2.4-.3.5 0 .1-.1.1-.1.2-.2.2-.3.4-.5.6l-.1.1c-.2.2-.3.3-.5.4-.1.1-.2.1-.2.1-.2.1-.3.2-.5.3-.1 0-.2.1-.3.1h-.2v-8.9zM67.8 38.6l.9-2.4c0-.1.1-.2.1-.3.2-.7.4-1.5.6-2.3 0-.1.1-.3.1-.4.2-.8.3-1.6.4-2.5 0-.2 0-.3.1-.5.1-.9.1-1.7.1-2.6 0-.5 0-1-.1-1.6h11.1v12.8H67.7s0-.1.1-.2zM43.3 3.7c13 .1 23.5 10.8 23.6 24 0 .9-.1 1.8-.2 2.7v.2c-.1.9-.3 1.7-.5 2.6 0 .1-.1.2-.1.4-.2.8-.5 1.6-.8 2.4 0 .1-.1.3-.1.4-.3.8-.6 1.6-1 2.3 0 .1-.1.1-.1.2h-3.6c2.1-3.3 3.2-7.2 3.2-11.2h-3.1c0 4.1-1.4 8.1-4 11.2H22.5c0-.1-.1-.1-.1-.2-.4-.8-.7-1.5-1-2.3-.1-.1-.1-.3-.1-.4-.3-.8-.5-1.6-.8-2.4 0-.1-.1-.2-.1-.4-.2-.8-.4-1.7-.5-2.6v-.2c-.1-.9-.2-1.8-.2-2.7.1-13.2 10.6-23.9 23.6-24zM11.8 26.1h4.8c0 .6-.1 1.1-.1 1.6 0 .9.1 1.7.1 2.6 0 .2 0 .3.1.5.1.8.2 1.7.4 2.5 0 .1.1.3.1.4.2.8.4 1.5.6 2.3 0 .1.1.2.1.3l.9 2.4c0 .1.1.2.1.3h-7.1c-3.5 0-6.3-2.9-6.3-6.4 0-3.6 2.8-6.5 6.3-6.5zm69.3 67.2H11.8c-3.5 0-6.3-2.9-6.3-6.4V39.6c1.7 1.6 4 2.5 6.3 2.5H81v16H68.9c-6-.1-11.1 4.7-11.4 10.9-.2 6.2 4.6 11.3 10.7 11.5h12.9v12.8zm6.3-20.8c0 2.7-2.1 4.8-4.7 4.8H68.5c-4.3 0-7.9-3.6-7.9-8V69c.3-4.4 3.9-7.8 8.3-7.8h13.8c.5 0 1-.1 1.5-.2.2 0 .3-.1.4-.1l.9-.3c.2-.1.3-.1.5-.2.3-.1.6-.3.8-.5.1-.1.3-.2.4-.3.1 0 .1-.1.2-.1v13zM40.1 29.1h-1.7v-8c0-.4-.1-.5-.6-.5H37c-.3 0-.4 0-.8.2L34 21.9c-.2.1-.3.3-.1.6l.4.7c.1.2.3.2.5.1l1.4-.7h.1v6.6h-1.8c-.4 0-.5.1-.5.5v.6c0 .4.1.5.5.5h5.4c.4 0 .5-.1.5-.5v-.6c.2-.4 0-.6-.3-.6zm2.2-5.8v.2c0 .9.1 1.7.7 2.2.4.3.9.5 1.6.5.7 0 1.2-.2 1.6-.5.6-.5.7-1.4.7-2.2v-.2c0-.9-.1-1.7-.7-2.2-.4-.3-.9-.5-1.6-.5-.7 0-1.2.2-1.6.5-.6.5-.7 1.3-.7 2.2zm1.8 0c0-1.1.2-1.3.5-1.3.4 0 .5.3.5 1.3v.1c0 1.1-.2 1.3-.5 1.3-.4 0-.5-.3-.5-1.3v-.1zm6.2 2.3c-.6.5-.7 1.4-.7 2.2v.2c0 .9.1 1.7.7 2.2.4.3.9.5 1.6.5.7 0 1.2-.2 1.6-.5.6-.5.7-1.4.7-2.2v-.2c0-.9-.1-1.7-.7-2.2-.4-.3-.9-.5-1.6-.5-.7 0-1.3.2-1.6.5zm2.1 2.3v.1c0 1.1-.2 1.3-.5 1.3-.4 0-.5-.3-.5-1.3v-.1c0-1.1.2-1.3.5-1.3.3-.1.5.2.5 1.3zm-7.6 2.9h.9c.3 0 .5-.1.7-.4l5.5-9.4c.2-.4.2-.6-.2-.6h-.9c-.3 0-.5.1-.7.4l-5.5 9.4c-.2.4-.2.6.2.6z"/></svg>