<svg xmlns="http://www.w3.org/2000/svg" viewBox="0 0 92 98"><path d="M51.6 28.2c-.6 0-1.2.1-1.7.3l.1-2.1c0-.2.1-.2.2-.2h3.2c.4 0 .4-.1.4-.4V25c0-.3-.1-.4-.4-.4h-4.6c-.3 0-.4.1-.4.4l-.3 4.5c0 .2 0 .3.2.4l.4.3c.2.1.3.1.5 0 .5-.2 1.2-.4 1.8-.4.5 0 .9.1 1.2.4.3.3.4.7.4 1.3v.2c0 .6-.1 1.1-.4 1.3-.3.2-.8.4-1.5.4-.6 0-1.6-.3-2.3-.5-.3-.1-.4-.1-.5.3l-.2.6c-.1.3-.1.5.1.6.8.4 1.9.6 2.9.6 1.3 0 2.2-.2 2.8-.8.5-.5 1-1.3 1-2.4v-.3c0-1.1-.2-1.8-.7-2.3-.4-.7-1.2-1-2.2-1zm7 2c.7 0 1.2-.2 1.6-.5.6-.5.7-1.4.7-2.2v-.2c0-.9-.1-1.7-.7-2.2-.4-.3-.9-.5-1.6-.5-.7 0-1.2.2-1.6.5-.6.5-.7 1.4-.7 2.2v.2c0 .9.1 1.7.7 2.2.4.3.9.5 1.6.5zm-.5-2.9c0-1.1.2-1.3.5-1.3.4 0 .5.3.5 1.3v.1c0 1.1-.2 1.3-.5 1.3-.4 0-.5-.3-.5-1.3v-.1zm6.2 2.3c-.6.5-.7 1.4-.7 2.2v.2c0 .9.1 1.7.7 2.2.4.3.9.5 1.6.5.7 0 1.2-.2 1.6-.5.6-.5.7-1.4.7-2.2v-.2c0-.9-.1-1.7-.7-2.2-.4-.3-.9-.5-1.6-.5-.7 0-1.3.2-1.6.5zm2.1 2.3v.1c0 1.1-.2 1.3-.5 1.3-.4 0-.5-.3-.5-1.3v-.1c0-1.1.2-1.3.5-1.3.3-.1.5.2.5 1.3zm-7.6 2.9h.9c.3 0 .5-.1.7-.4l5.5-9.4c.2-.4.2-.6-.2-.6h-.9c-.3 0-.5.1-.7.4l-5.5 9.4c-.2.4-.2.6.2.6zm9.6 29.7c-2.6 0-4.7 2.1-4.7 4.8 0 2.7 2.1 4.8 4.7 4.8s4.7-2.1 4.7-4.8c.1-2.7-2.1-4.8-4.7-4.8zm0 6.4c-.9 0-1.6-.7-1.6-1.6s.7-1.6 1.6-1.6c.9 0 1.6.7 1.6 1.6s-.7 1.6-1.6 1.6zM43.3 10.1V6.9c-11.3 0-20.4 9.3-20.5 20.8h3.1c.1-9.7 7.8-17.6 17.4-17.6zm-33.1 6.4h3.1c0-3.5 2.8-6.4 6.3-6.4V6.9c-3.5 0-6.3-2.9-6.3-6.4h-3.1c0 3.5-2.8 6.4-6.3 6.4v3.2c3.5 0 6.3 2.9 6.3 6.4zm1.6-10.7c.7 1.1 1.6 2 2.7 2.7-1.1.7-2 1.6-2.7 2.7-.7-1.1-1.6-2-2.7-2.7 1.1-.7 2-1.6 2.7-2.7zm72.3 39.7v-21c0-.9-.7-1.6-1.6-1.6h-6.9c-2.3-3.7-5.5-6.7-9.4-8.7C60.7 4.5 49.6-1.1 38.1.9c-11.1 2-19.8 10.8-21.8 22H11c-5.3 0-9.5 4.3-9.5 9.6v54.4c0 5.3 4.3 9.6 9.5 9.6h71.5c.9 0 1.6-.7 1.6-1.6V80.3c3.7-.8 6.3-4 6.4-7.8V53.3c0-3.8-2.7-7.1-6.4-7.8zm0 3.3c1.9.7 3.2 2.5 3.2 4.5 0 .3 0 .6-.1.9 0 .1 0 .2-.1.3 0 .2-.1.4-.2.6 0 .1-.1.2-.1.3-.1.2-.2.4-.3.5 0 .1-.1.1-.1.2-.2.2-.3.4-.5.6l-.1.1c-.2.2-.3.3-.5.4-.1.1-.2.1-.2.1-.2.1-.3.2-.5.3-.1 0-.2.1-.3.1h-.2v-8.9zm-3.2-22.7v12.8h-2.2c.2-1.3.3-2.6.3-3.9 0-3.2-.6-6.2-1.8-8.9h3.7zM75.3 35c0 1.3-.1 2.6-.4 3.9H37.1c-.3-1.3-.4-2.6-.4-3.9 0-10.7 8.7-19.4 19.3-19.4 10.6 0 19.3 8.7 19.3 19.4zM42.8 3.7c7.3 0 13.9 3.4 18.2 8.7-1.6-.4-3.3-.6-5.1-.6-12.7 0-23.1 10.4-23.1 23.2 0 1.3.1 2.6.3 3.9H21.8c0-.1-.1-.1-.1-.2-.4-.8-.7-1.5-1-2.3-.1-.1-.1-.3-.1-.4-.3-.8-.6-1.6-.8-2.4 0-.1-.1-.2-.1-.4-.2-.8-.4-1.7-.5-2.6v-.2c-.2-.9-.2-1.8-.2-2.7.1-13.2 10.7-23.9 23.8-24zM11 26.1h4.8c0 .6-.1 1.1-.1 1.6 0 .9.1 1.7.1 2.6 0 .2 0 .3.1.5.1.8.2 1.7.4 2.5 0 .1.1.3.1.4.2.8.4 1.5.6 2.3 0 .1.1.2.1.3l.9 2.4c0 .1.1.2.1.3H11c-3.5 0-6.4-2.9-6.4-6.4.1-3.6 2.9-6.5 6.4-6.5zm69.9 67.2H11c-3.5 0-6.4-2.9-6.4-6.4V39.6c1.7 1.6 4 2.5 6.4 2.5h69.9v16H68.6C62.5 58 57.4 62.8 57.1 69c-.2 6.2 4.6 11.3 10.8 11.5h13v12.8zm6.4-20.8c0 2.7-2.1 4.8-4.8 4.8H68.2c-4.4 0-7.9-3.6-7.9-8V69c.3-4.4 4-7.8 8.3-7.8h13.9c.5 0 1-.1 1.5-.2.2 0 .3-.1.4-.1l.9-.3c.2-.1.3-.1.5-.2.3-.1.6-.3.8-.5.1-.1.3-.2.4-.3.1 0 .1-.1.2-.1l.1 13z"/></svg>