<svg xmlns="http://www.w3.org/2000/svg" width="65.031" height="62.96" viewBox="0 0 65.031 62.96">
  <metadata><?xpacket begin="﻿" id="W5M0MpCehiHzreSzNTczkc9d"?>
<x:xmpmeta xmlns:x="adobe:ns:meta/" x:xmptk="Adobe XMP Core 5.6-c138 79.159824, 2016/09/14-01:09:01        ">
   <rdf:RDF xmlns:rdf="http://www.w3.org/1999/02/22-rdf-syntax-ns#">
      <rdf:Description rdf:about=""/>
   </rdf:RDF>
</x:xmpmeta>
                                                                                                    
                                                                                                    
                                                                                                    
                                                                                                    
                                                                                                    
                                                                                                    
                                                                                                    
                                                                                                    
                                                                                                    
                                                                                                    
                                                                                                    
                                                                                                    
                                                                                                    
                                                                                                    
                                                                                                    
                                                                                                    
                                                                                                    
                                                                                                    
                                                                                                    
                                                                                                    
                           
<?xpacket end="w"?></metadata>
<defs>
    <style>
      .cls-1 {
        fill: #10aedf;
        fill-rule: evenodd;
      }
    </style>
  </defs>
  <path class="cls-1" d="M849.923,2333.12h-2.848a1.515,1.515,0,0,0,0,3.03h2.848A1.515,1.515,0,0,0,849.923,2333.12Zm18.8-10.62v-6.32a3.636,3.636,0,0,0-3.61-3.65h-3.361v-5.29a3.758,3.758,0,0,0-3.734-3.78H847.722l-11-11.15a1.5,1.5,0,0,0-1.057-.44h0a1.5,1.5,0,0,0-1.058.44l-10.954,11.15H812.2a6.265,6.265,0,0,0-6.224,6.3v41.44a3.636,3.636,0,0,0,3.61,3.65h55.52a3.636,3.636,0,0,0,3.61-3.65v-9.21a3.907,3.907,0,0,0,.391-0.31,6.178,6.178,0,0,0,1.877-4.63v-11.48A3.211,3.211,0,0,0,868.72,2322.5Zm-1.084,3a0.193,0.193,0,0,1,.365.07v11.48a3.179,3.179,0,0,1-.924,2.42c-1.353,1.28-3.971,1.42-4.869,1.36H850.282a6.255,6.255,0,0,1,0-12.51h11.826C865.818,2328.32,867.162,2326.78,867.636,2325.5Zm-9.621-19.02a0.754,0.754,0,0,1,.747.76v5.29H856.67l-5.966-6.05h7.311Zm-22.344-10.96,10.373,10.52h0l6.4,6.49H846.7l-6.718-6.8a1.477,1.477,0,0,0-1.883-.19l-2.3,1.55-2.3-1.55a1.477,1.477,0,0,0-1.883.19l-6.717,6.8h-5.943l6.375-6.49s0.006,0,.008-0.01Zm6.8,17.01h-13.35l3.74-3.79,1.975,1.33a1.518,1.518,0,0,0,.827.25h0.265a1.518,1.518,0,0,0,.827-0.25l1.975-1.33Zm-30.268-6.05h8.48l-5.944,6.05h-3.034a3,3,0,0,1-.618-0.08,2.455,2.455,0,0,1-.376-0.12,0.452,0.452,0,0,1-.105-0.04,2.752,2.752,0,0,1-1.067-.86,4.325,4.325,0,0,1-.569-1.71A3.255,3.255,0,0,1,812.2,2306.48Zm53.529,44.72a0.625,0.625,0,0,1-.623.63H809.59a0.625,0.625,0,0,1-.622-0.63v-36.34a5.346,5.346,0,0,0,.948.4c0.056,0.02.113,0.03,0.17,0.05,0.116,0.03.232,0.07,0.351,0.09s0.244,0.05.369,0.07c0.081,0.01.161,0.03,0.243,0.04,0.216,0.02.435,0.04,0.657,0.04h53.4a0.625,0.625,0,0,1,.623.63v6.97a3.167,3.167,0,0,0-.9,1.29c-0.152.41-.948,0.85-2.729,0.85H850.282a9.281,9.281,0,0,0,0,18.56h11.783c0.084,0.01.245,0.01,0.468,0.01a12.783,12.783,0,0,0,3.2-.41v7.75Z" transform="translate(-805.969 -2291.88)"/>
</svg>
