<svg xmlns="http://www.w3.org/2000/svg" width="209" height="63" viewBox="0 0 209 63.001" shape-rendering="geometricPrecision" text-rendering="geometricPrecision" image-rendering="optimizeQuality" fill-rule="evenodd" clip-rule="evenodd"><path d="M38.873 8.58l-4.285 3.14 19.109 13.807c.006.006.016.006.021.01l3.131 2.269 2.616 1.89a.86.86 0 0 1 .313.968l-9.831 30.61 6.901-5.041 9.044-28.02L38.872 8.58zm169.944 23.156c-.144-.88-.391-1.63-.746-2.253a3.769 3.769 0 0 0-1.449-1.448c-.613-.346-1.386-.519-2.323-.519-.42 0-.842.058-1.261.173-.422.117-.834.26-1.235.43-.401.173-.78.36-1.131.562-.357.2-.658.386-.905.559l-.086-.058v-.86a.775.775 0 0 0-.1-.417c-.07-.104-.207-.156-.419-.156h-2.035c-.364 0-.544.191-.544.573v18.187c0 .189.03.335.1.43.066.095.215.143.444.143h2.035c.232 0 .377-.057.448-.172a.79.79 0 0 0 .098-.401V41.46l.03-.03c.668.23 1.315.392 1.937.487a11.1 11.1 0 0 0 1.648.146c1.13 0 2.061-.164 2.798-.489a4.063 4.063 0 0 0 1.75-1.434c.43-.632.732-1.406.903-2.324.171-.918.258-1.96.258-3.128 0-1.09-.071-2.074-.215-2.952zm-115.15 3.241l-1.69-3.643-3.89-8.032c-.097-.21-.203-.355-.318-.43-.115-.078-.318-.116-.608-.116h-1.795c-.347 0-.521.172-.521.515V41.26c0 .365.184.544.552.544h2.111c.213 0 .352-.052.42-.157a.685.685 0 0 0 .101-.387V29.755h.058l.944 2.009 3.262 6.684c.097.153.2.271.315.359.115.087.296.128.544.128h1.088c.209 0 .376-.046.5-.143.124-.095.233-.229.329-.402l3.147-6.426 1.002-2.21h.085V41.26c0 .365.191.544.574.544h2.095c.21 0 .348-.052.416-.157a.705.705 0 0 0 .1-.387V23.27a.667.667 0 0 0-.1-.357c-.068-.104-.197-.158-.387-.158h-1.663c-.289 0-.494.049-.618.142-.125.1-.234.242-.33.431l-3.89 7.919-1.747 3.73h-.086zm23.624-9.152a2.69 2.69 0 0 0 .214-.474c.049-.143.073-.317.073-.529l.029-1.578c0-.325-.183-.487-.545-.487H106.16c-.211 0-.35.044-.415.14-.069.098-.102.228-.102.4v1.76c0 .17.038.297.116.384.075.084.218.127.43.127h7.717L105.357 38.7a1.271 1.271 0 0 0-.229.504c-.039.181-.058.35-.058.504v1.58c0 .345.173.515.516.515h11.561c.21 0 .349-.046.417-.142.066-.094.1-.23.1-.402v-1.75c0-.17-.039-.302-.114-.386-.078-.087-.221-.13-.431-.13h-8.348l8.52-13.168zm11.948 11.432c-.22.527-.52.933-.903 1.22a3.05 3.05 0 0 1-1.335.559 9.725 9.725 0 0 1-1.649.13c-.803 0-1.617-.043-2.439-.13a75.604 75.604 0 0 1-2.323-.274c-.268-.036-.455-.012-.559.073a.664.664 0 0 0-.216.387l-.2 1.118c-.04.212-.035.384.014.518.047.133.234.268.56.4.362.157.789.278 1.276.375.488.096.98.17 1.478.228.496.057.965.1 1.405.13.44.027.793.041 1.061.041 1.13 0 2.156-.11 3.084-.33.928-.218 1.722-.597 2.381-1.13.66-.535 1.167-1.265 1.521-2.182.353-.918.53-2.075.53-3.47 0-1.417-.377-2.502-1.132-3.257-.756-.754-1.747-1.227-2.97-1.42l-5.45-.801.603-3.903h7.486c.346 0 .518-.16.518-.488v-1.807c0-.306-.163-.46-.488-.46h-9.438c-.27 0-.465.05-.589.144-.125.098-.206.279-.244.545l-1.147 7.23c-.039.344-.005.612.1.803.104.19.348.326.731.402l6.312 1.062c.747.133 1.323.362 1.735.686.41.326.618.834.618 1.521 0 .861-.11 1.556-.33 2.08zm16.84-9.279c-.813.344-1.46.835-1.938 1.478-.477.64-.812 1.415-1.003 2.323-.19.908-.287 1.925-.287 3.054 0 1.073.082 2.043.244 2.912.162.871.458 1.616.888 2.238.431.621 1.018 1.104 1.765 1.448.745.345 1.702.516 2.869.516.458 0 .98-.047 1.564-.144.584-.094 1.237-.276 1.964-.544v.948c0 .438-.043.82-.129 1.147a1.538 1.538 0 0 1-.472.788c-.23.202-.541.35-.934.445-.39.094-.892.143-1.504.143-.555 0-1.192-.024-1.91-.07a25.73 25.73 0 0 1-2.05-.216c-.268-.041-.464-.041-.589 0-.123.037-.205.173-.244.4l-.23 1.062a.717.717 0 0 0 .029.446c.058.144.24.272.546.386.594.249 1.325.42 2.195.517.87.093 1.677.142 2.424.142 1.376 0 2.463-.142 3.256-.429.794-.287 1.401-.687 1.82-1.206.423-.514.69-1.129.804-1.835a14.26 14.26 0 0 0 .172-2.294V29.498c0-.268-.043-.522-.129-.76-.086-.241-.301-.416-.646-.53-.705-.23-1.558-.413-2.552-.546a21.565 21.565 0 0 0-2.868-.202c-1.224 0-2.242.172-3.055.518zm.285 4.33c.163-.571.389-1.006.675-1.305a2.09 2.09 0 0 1 1.004-.587 5.141 5.141 0 0 1 1.234-.143c.458 0 .942.024 1.45.07.506.048.978.11 1.418.188v8.174a12.592 12.592 0 0 1-3.241.488c-.496 0-.923-.075-1.276-.228a1.898 1.898 0 0 1-.86-.76c-.22-.355-.384-.826-.489-1.42-.105-.592-.158-1.33-.158-2.21 0-.936.083-1.692.243-2.267zm15.018-.287a8.41 8.41 0 0 1 .919-.344c.364-.114.755-.232 1.176-.359a27.396 27.396 0 0 1 2.553-.615c.306-.058.48-.135.517-.23.038-.095.049-.248.028-.46l-.201-1.92c-.038-.25-.115-.404-.23-.46-.114-.059-.267-.068-.458-.028a5.902 5.902 0 0 0-1.12.315c-.4.154-.797.32-1.189.502a9.53 9.53 0 0 0-1.105.603c-.344.22-.623.426-.832.615l-.058-.057v-1.261c0-.382-.192-.573-.579-.573h-2.054c-.367 0-.551.191-.551.573v12.937c0 .365.184.544.551.544h2.083c.368 0 .55-.18.55-.544V32.02zm18.117 0a6.084 6.084 0 0 0-.874-2.28c-.438-.677-1.071-1.228-1.901-1.648-.83-.422-1.943-.633-3.336-.633-1.373 0-2.466.244-3.276.733-.812.488-1.427 1.09-1.846 1.806a6.39 6.39 0 0 0-.815 2.31 15.15 15.15 0 0 0-.187 2.239c0 .822.049 1.672.143 2.552.096.88.348 1.689.758 2.422.41.739 1.025 1.341 1.846 1.81.82.468 1.947.7 3.377.7 1.488 0 2.653-.232 3.493-.7.84-.469 1.47-1.071 1.888-1.81.42-.733.683-1.542.786-2.422.106-.88.157-1.73.157-2.552 0-.844-.07-1.684-.213-2.527zm-3.085 4.734c-.077.575-.229 1.048-.457 1.42-.23.373-.55.65-.964.834-.408.18-.94.271-1.59.271-.611 0-1.11-.094-1.492-.288a2.047 2.047 0 0 1-.89-.844c-.209-.374-.358-.843-.444-1.406a13.572 13.572 0 0 1-.129-1.996c0-.744.044-1.398.13-1.964.085-.562.238-1.037.457-1.419.221-.382.522-.67.904-.862.383-.189.881-.286 1.492-.286.65 0 1.175.097 1.578.286.402.193.718.475.948.847.228.374.38.84.457 1.407.077.564.116 1.227.116 1.991 0 .765-.04 1.436-.116 2.01zm17.73 4.504V28.322c0-.382-.183-.573-.545-.573h-2.038c-.21 0-.353.052-.43.156a.7.7 0 0 0-.115.417v9.58c-.19.097-.44.216-.74.36-.306.143-.638.286-1 .43a9.1 9.1 0 0 1-1.1.36 4.146 4.146 0 0 1-1.014.14c-.438 0-.79-.064-1.057-.2a1.552 1.552 0 0 1-.628-.56 2.271 2.271 0 0 1-.312-.874 7.149 7.149 0 0 1-.085-1.177v-8.06c0-.38-.175-.572-.523-.572h-2.112c-.367 0-.553.191-.553.573v8.433c0 .748.04 1.446.117 2.094.076.651.259 1.216.546 1.694.286.478.71.851 1.278 1.118.56.267 1.332.403 2.306.403.44 0 .885-.055 1.334-.16a8.447 8.447 0 0 0 1.306-.416c.42-.171.819-.358 1.19-.559.374-.2.704-.394.99-.59l.057.031v.889c0 .172.04.308.115.402.077.096.22.142.43.142h2.038c.362 0 .545-.18.545-.544zm11.504-4.347c-.097.604-.254 1.087-.474 1.45-.22.364-.506.616-.86.761-.355.142-.789.215-1.305.215-.5 0-1.01-.034-1.535-.1a11.42 11.42 0 0 1-1.766-.389v-7.172c.211-.114.475-.248.79-.402.316-.15.649-.29 1.003-.415.354-.124.713-.234 1.077-.33a3.96 3.96 0 0 1 .977-.144c.38 0 .709.055.987.159.278.106.512.312.703.616.191.307.33.738.417 1.29.084.555.128 1.293.128 2.21 0 .899-.049 1.649-.142 2.251zM55.856 29.215l-2.19-1.583-7.25 22.55c-.004.061.003.124-.015.18l-1.983 6.03-.232.72a.866.866 0 0 1-.82.6H11.2l6.923 5.002 29.56-.028L57.949 30.73l-2.093-1.515zM42.738 55.987l.043-.13 1.577-4.901H13.514a.862.862 0 0 1-.817-.593L2.693 19.783.032 27.922l9.131 28.066h33.575zM13.342 24.972l25.02-18.16a.857.857 0 0 1 .247-.125.853.853 0 0 1 .776.122l25.913 18.834-2.561-8.134L38.857.129 11.673 19.872l1.668 5.101zm.798 24.259h5.322L12.096 26.71c-.009-.025-.032-.043-.04-.067L9.834 19.81a.867.867 0 0 1 .31-.967L36.183-.076l-8.504.012L3.706 17.33 14.14 49.231z" fill="#131516" fill-rule="nonzero"/></svg>