<svg xmlns="http://www.w3.org/2000/svg" width="124" height="98" viewBox="0 0 124 97.999" shape-rendering="geometricPrecision" text-rendering="geometricPrecision" image-rendering="optimizeQuality" fill-rule="evenodd" clip-rule="evenodd"><path d="M81.376 29.16l-2.18-1.575-7.22 22.45c-.003.06.006.123-.013.18l-1.974 6.002-.23.72a.863.863 0 0 1-.818.595H36.917l6.893 4.98 29.428-.027 10.22-31.815-2.082-1.51zM8.961 85.634l-1.68-3.627-3.875-7.997c-.095-.21-.203-.354-.316-.43-.116-.076-.317-.114-.606-.114H.697c-.346 0-.519.171-.519.514v17.907c0 .364.185.543.548.543h2.105c.21 0 .35-.052.417-.157a.694.694 0 0 0 .102-.386V80.435h.056l.94 1.998 3.249 6.656c.094.153.198.271.313.358.113.086.294.127.54.127h1.084c.209 0 .374-.046.498-.142a1.28 1.28 0 0 0 .327-.401l3.134-6.397.997-2.2h.086v11.453c0 .364.189.543.57.543h2.086c.21 0 .346-.052.413-.157a.703.703 0 0 0 .1-.386V73.98a.66.66 0 0 0-.1-.357c-.067-.104-.194-.157-.385-.157h-1.657c-.284 0-.49.049-.613.142-.125.098-.234.24-.33.429l-3.872 7.884-1.739 3.713h-.086zm23.52-9.112c.095-.17.166-.327.214-.472.048-.141.071-.316.071-.527l.03-1.57c0-.324-.182-.487-.543-.487H21.399c-.21 0-.347.046-.413.14-.069.098-.1.226-.1.398v1.752c0 .17.037.297.114.383.075.084.217.125.429.125h7.682L20.6 89.34c-.114.154-.19.32-.228.501-.04.182-.058.35-.058.5v1.575c0 .344.172.514.515.514h11.51c.209 0 .346-.047.414-.142.067-.094.1-.229.1-.401v-1.741c0-.171-.04-.301-.115-.385-.076-.088-.219-.13-.428-.13H24l8.483-13.11zm11.896 11.382c-.219.523-.519.928-.9 1.214a3.02 3.02 0 0 1-1.328.555 9.64 9.64 0 0 1-1.642.13c-.8 0-1.61-.042-2.428-.13a75.177 75.177 0 0 1-2.313-.27c-.268-.037-.453-.013-.557.072a.655.655 0 0 0-.214.386l-.2 1.113c-.038.21-.034.381.015.515.046.132.231.267.556.398a6.38 6.38 0 0 0 1.27.373c.486.096.976.17 1.473.227.493.058.96.1 1.4.13.436.027.788.041 1.055.041 1.123 0 2.146-.11 3.071-.328.922-.219 1.714-.594 2.37-1.127.657-.532 1.16-1.258 1.515-2.172.35-.914.528-2.066.528-3.454 0-1.41-.377-2.49-1.128-3.242-.754-.752-1.739-1.222-2.957-1.415l-5.427-.798.6-3.885h7.454c.344 0 .515-.16.515-.485v-1.8c0-.304-.163-.457-.485-.457h-9.397c-.268 0-.462.048-.586.143-.124.096-.206.277-.242.543l-1.142 7.198c-.04.34-.006.608.099.8.104.188.346.324.729.398l6.283 1.057c.742.134 1.317.362 1.728.684.409.325.614.83.614 1.514 0 .857-.11 1.549-.33 2.072zm16.764-9.238c-.809.342-1.451.831-1.927 1.47s-.81 1.41-1 2.313c-.19.904-.286 1.918-.286 3.042 0 1.068.082 2.033.243 2.899.162.868.457 1.608.886 2.227.427.619 1.013 1.1 1.756 1.442.743.344 1.695.515 2.856.515a9.65 9.65 0 0 0 1.557-.144 10.595 10.595 0 0 0 1.956-.543v.945c0 .437-.043.817-.13 1.142a1.523 1.523 0 0 1-.47.784c-.228.2-.538.347-.928.443-.39.095-.889.142-1.5.142a29.081 29.081 0 0 1-3.941-.284c-.266-.04-.46-.04-.586 0-.123.036-.203.172-.242.398l-.229 1.059a.71.71 0 0 0 .028.443c.058.142.24.271.544.385.59.246 1.319.418 2.185.513.867.095 1.67.142 2.413.142 1.37 0 2.452-.142 3.242-.427.79-.285 1.395-.686 1.813-1.2.42-.513.686-1.125.8-1.829.114-.705.17-1.467.17-2.283V80.178c0-.265-.042-.52-.127-.757-.086-.238-.3-.413-.642-.528-.704-.228-1.552-.41-2.543-.543-.989-.133-1.942-.2-2.856-.2-1.218 0-2.231.17-3.042.515zm.286 4.31c.162-.57.385-1.002.671-1.3a2.079 2.079 0 0 1 1-.583 5.099 5.099 0 0 1 1.228-.143c.457 0 .939.023 1.442.07.505.048.977.11 1.414.187v8.138c-.609.171-1.195.298-1.757.373-.56.076-1.05.113-1.47.113-.495 0-.918-.074-1.271-.227a1.89 1.89 0 0 1-.858-.757c-.217-.353-.38-.824-.485-1.414-.104-.59-.157-1.324-.157-2.2 0-.931.081-1.685.243-2.256zm14.952-.285c.248-.114.552-.227.914-.342a81.48 81.48 0 0 1 1.17-.357 27.28 27.28 0 0 1 2.542-.613c.305-.057.478-.135.514-.23.038-.094.049-.248.03-.458l-.201-1.912c-.038-.248-.114-.4-.228-.458-.115-.057-.267-.067-.457-.028a5.907 5.907 0 0 0-1.114.315c-.4.153-.795.319-1.186.5a9.46 9.46 0 0 0-1.1.6 6.466 6.466 0 0 0-.827.612l-.057-.058v-1.254c0-.381-.193-.572-.576-.572h-2.047c-.364 0-.547.19-.547.572v12.879c0 .364.183.543.547.543h2.075c.366 0 .548-.18.548-.543V82.69zm18.035 0a6.032 6.032 0 0 0-.869-2.272c-.436-.673-1.068-1.22-1.894-1.64-.826-.42-1.933-.63-3.32-.63-1.368 0-2.455.245-3.262.73-.807.486-1.42 1.086-1.839 1.8a6.4 6.4 0 0 0-.81 2.298c-.124.82-.186 1.561-.186 2.228 0 .82.048 1.666.143 2.542.094.876.346 1.682.754 2.413.409.734 1.02 1.334 1.838 1.8.816.467 1.938.698 3.363.698 1.48 0 2.64-.231 3.476-.698.836-.466 1.463-1.066 1.881-1.8.418-.731.68-1.537.782-2.413.106-.876.157-1.722.157-2.542 0-.838-.07-1.675-.214-2.514zm-3.07 4.712c-.076.573-.228 1.044-.456 1.414a2.094 2.094 0 0 1-.958.83c-.408.18-.937.27-1.584.27-.61 0-1.106-.094-1.486-.286a2.028 2.028 0 0 1-.885-.841c-.209-.37-.357-.839-.443-1.4a13.447 13.447 0 0 1-.128-1.986c0-.74.043-1.393.128-1.956.086-.56.238-1.032.458-1.413.22-.38.518-.666.9-.858.38-.188.875-.284 1.484-.284.647 0 1.17.096 1.571.284.4.192.715.472.943.844.228.37.38.837.457 1.4.077.562.114 1.222.114 1.983 0 .762-.037 1.429-.114 2zm17.651 4.484V79.008c0-.381-.182-.572-.542-.572h-2.03c-.208 0-.351.052-.428.156a.696.696 0 0 0-.114.416v9.538c-.188.096-.436.214-.737.357-.304.143-.636.285-.995.43a9.325 9.325 0 0 1-1.095.357 4.12 4.12 0 0 1-1.01.14c-.435 0-.786-.063-1.05-.2a1.535 1.535 0 0 1-.628-.557 2.3 2.3 0 0 1-.31-.87 7.209 7.209 0 0 1-.084-1.17v-8.025c0-.381-.174-.572-.521-.572h-2.103c-.366 0-.55.19-.55.572v8.395c0 .744.038 1.44.116 2.086.075.649.257 1.21.543 1.686.286.476.709.848 1.272 1.113.56.266 1.326.4 2.297.4.438 0 .881-.052 1.328-.159.446-.102.88-.24 1.3-.413.418-.171.814-.356 1.186-.557.37-.2.7-.394.985-.585l.056.03v.883c0 .172.039.307.114.401.077.095.22.142.429.142h2.03c.36 0 .541-.18.541-.543zm14.61-9.48c-.145-.876-.392-1.624-.744-2.244a3.756 3.756 0 0 0-1.442-1.44c-.612-.345-1.38-.517-2.314-.517-.419 0-.838.058-1.256.172a9.31 9.31 0 0 0-1.227.428c-.4.172-.778.36-1.127.559a10.62 10.62 0 0 0-.901.557l-.087-.058v-.856a.76.76 0 0 0-.1-.416c-.067-.104-.204-.156-.415-.156h-2.026c-.363 0-.542.19-.542.572v18.108c0 .187.03.332.099.428.066.094.215.14.443.14h2.026c.23 0 .376-.056.445-.17a.78.78 0 0 0 .098-.398v-5.027l.03-.03c.664.23 1.31.391 1.928.486.618.094 1.167.144 1.642.144 1.123 0 2.051-.163 2.785-.487a4.036 4.036 0 0 0 1.742-1.427c.429-.63.729-1.4.9-2.313.17-.915.256-1.952.256-3.115 0-1.085-.07-2.066-.214-2.94zm-3.157 5.153c-.095.6-.252 1.082-.47 1.444a1.78 1.78 0 0 1-.858.757c-.352.142-.785.214-1.298.214-.498 0-1.008-.033-1.529-.1a11.348 11.348 0 0 1-1.758-.386v-7.14c.21-.114.472-.248.786-.401.316-.15.647-.29 1-.412.353-.124.71-.234 1.072-.329a3.89 3.89 0 0 1 .972-.144c.38 0 .706.054.983.158.276.106.51.31.699.613.191.306.33.735.416 1.285.083.553.127 1.287.127 2.2 0 .895-.048 1.641-.142 2.241zM68.315 55.815l.044-.13 1.569-4.88H39.22c-.372 0-.7-.24-.814-.59l-9.96-30.444-2.65 8.1 9.092 27.944h33.426zM39.05 24.937L63.958 6.855a.85.85 0 0 1 .247-.124.853.853 0 0 1 .773.122l25.799 18.751-2.55-8.099L64.45.202 37.389 19.857l1.66 5.08zm.795 24.151h5.297L37.81 26.666c-.009-.025-.032-.043-.04-.066l-2.214-6.805a.862.862 0 0 1 .31-.961L61.79-.001l-8.468.01-23.866 17.319 10.389 31.76zM64.467 8.616l-4.266 3.127 19.024 13.745c.007.006.017.006.023.01l3.117 2.26 2.604 1.882a.86.86 0 0 1 .313.963l-9.789 30.476 6.87-5.019 9.004-27.896-26.9-19.548z" fill="#95989c" fill-rule="nonzero"/></svg>