<svg xmlns="http://www.w3.org/2000/svg" width="50" height="50" shape-rendering="geometricPrecision" text-rendering="geometricPrecision" image-rendering="optimizeQuality" fill-rule="evenodd" clip-rule="evenodd"><g fill-rule="nonzero"><path d="M38.594 44.632l-.1-.029a3.995 3.995 0 0 0-4.862 2.575l-.035.098c-.95 2.83-4.554 3.655-6.641 1.522l-.072-.075a3.997 3.997 0 0 0-5.498-.202l-.08.07c-2.237 1.974-5.77.886-6.511-2.005l-.026-.1a3.995 3.995 0 0 0-4.66-2.924l-.102.02c-2.926.591-5.442-2.117-4.639-4.99l.029-.101a3.995 3.995 0 0 0-2.575-4.862l-.098-.034c-2.83-.95-3.655-4.554-1.522-6.641l.075-.074a3.994 3.994 0 0 0 .202-5.497l-.07-.078c-1.974-2.238-.886-5.772 2.004-6.512l.1-.026a3.995 3.995 0 0 0 2.925-4.661l-.02-.102c-.591-2.925 2.117-5.441 4.99-4.638l.101.028a3.997 3.997 0 0 0 4.863-2.575l.033-.098c.95-2.829 4.554-3.654 6.641-1.521l.074.074a3.995 3.995 0 0 0 5.497.202l.078-.07c2.238-1.973 5.772-.885 6.512 2.005l.026.1a3.995 3.995 0 0 0 4.661 2.925l.102-.021c2.925-.59 5.441 2.118 4.638 4.991l-.028.1a3.997 3.997 0 0 0 2.575 4.863l.098.033c2.828.951 3.654 4.555 1.52 6.642l-.073.073a3.995 3.995 0 0 0-.202 5.497l.07.078c1.973 2.238.885 5.772-2.005 6.513l-.1.026a3.995 3.995 0 0 0-2.925 4.66l.021.102c.59 2.926-2.118 5.442-4.991 4.639z" fill="#7bc188"/><path d="M13.229 24.502l.002 6.195h-1.814V20.509h1.395l4.278 6.25.007-6.178h1.814V30.77h-1.396l-4.286-6.267zm7.357-3.92h5.791v1.763h-3.879V24.7h3.53v1.762h-3.53v2.471h3.949v1.764h-5.86V20.58zm9.825 5.65l.21.902.222-.932 1.702-5.62h1.257l1.676 5.65.25.875.21-.905 1.185-5.62h1.94l-2.692 10.187h-1.285l-1.744-5.621-.283-.942-.261.956-1.73 5.607h-1.355L27.034 20.58h2.079l1.298 5.651z" fill="#fff"/></g></svg>