<svg id="Слой_1" xmlns="http://www.w3.org/2000/svg" viewBox="0 0 100 100.3"><style>.st0{fill:#fff}</style><path class="st0" d="M36.9 957.4c-.4.1-.9.3-1.2.6l-15 7c-1.5 1-1.8 3.7-.6 5l14.7 9.5H13c-1.6 0-3 1.4-3 3v16c0 1.6 1.4 3 3 3h4v42.9c0 1.6 1.4 3 3 3h60c1.6 0 3-1.4 3-3v-42.9h4c1.6 0 3-1.4 3-3v-16c0-1.5-1.2-2.8-2.7-3H64.9l14.8-9.6c1.3-1.2 1.2-3.8-.2-4.9l-15-7c-1.1-.8-2.7-.5-3.6.6l-10.8 9.9-10.8-10c-.6-.8-1.5-1.2-2.4-1.1zm-.6 6.6l11.4 10.6c1.1 1.4 3.4 1.4 4.4-.1L63.5 964l8.5 4-17.7 11.5H46l-17.9-11.6 8.2-3.9zM16 985.5h31v10H16v-10zm37 0h31v10H53v-10zm-30 15.9h24v9H23v-9zm30 0h24v9H53v-9zm-30 15h24v25H23v-25zm30 0h24v25H53v-25z" transform="translate(0 -952.362)"/></svg>