<svg id="odn" xmlns="http://www.w3.org/2000/svg" width="59" height="59" viewBox="0 0 59 59">
  <metadata><?xpacket begin="﻿" id="W5M0MpCehiHzreSzNTczkc9d"?>
<x:xmpmeta xmlns:x="adobe:ns:meta/" x:xmptk="Adobe XMP Core 5.6-c138 79.159824, 2016/09/14-01:09:01        ">
   <rdf:RDF xmlns:rdf="http://www.w3.org/1999/02/22-rdf-syntax-ns#">
      <rdf:Description rdf:about=""/>
   </rdf:RDF>
</x:xmpmeta>
                                                                                                    
                                                                                                    
                                                                                                    
                                                                                                    
                                                                                                    
                                                                                                    
                                                                                                    
                                                                                                    
                                                                                                    
                                                                                                    
                                                                                                    
                                                                                                    
                                                                                                    
                                                                                                    
                                                                                                    
                                                                                                    
                                                                                                    
                                                                                                    
                                                                                                    
                                                                                                    
                           
<?xpacket end="w"?></metadata>
<defs>
    <style>
      .cls-1 {
        fill: none;
        stroke: #ee8208;
        stroke-width: 2px;
      }

      .cls-2 {
        fill: #ee8208;
        fill-rule: evenodd;
      }
    </style>
  </defs>
  <circle id="Ellipse_1_copy_2" data-name="Ellipse 1 copy 2" class="cls-1" cx="29.5" cy="29.5" r="28.5"/>
  <path class="cls-2" d="M495.789,479.459c-0.5-.145-0.988-0.271-1.463-0.425a12.124,12.124,0,0,1-2.453-1.113,1.76,1.76,0,0,1-.835-1.879,1.906,1.906,0,0,1,1.536-1.412,2.063,2.063,0,0,1,1.431.25A8.825,8.825,0,0,0,497.349,476a9.059,9.059,0,0,0,4.106-.418,9.614,9.614,0,0,0,1.587-.727,1.983,1.983,0,0,1,2.939,1.3,1.694,1.694,0,0,1-.891,1.783,12.735,12.735,0,0,1-3.747,1.468c-0.038.008-.076,0.018-0.134,0.032,0.042,0.04.075,0.073,0.109,0.1q1.8,1.666,3.6,3.331a1.655,1.655,0,0,1,.52,1.809,1.816,1.816,0,0,1-1.505,1.275,1.931,1.931,0,0,1-1.737-.486q-1.8-1.653-3.592-3.32a0.739,0.739,0,0,1-.08-0.1c-0.056.049-.09,0.077-0.123,0.107q-1.76,1.632-3.52,3.263a2.074,2.074,0,0,1-1.509.574,1.866,1.866,0,0,1-1.866-2.039,1.781,1.781,0,0,1,.581-1.079q1.776-1.64,3.548-3.283C495.68,479.548,495.734,479.506,495.789,479.459Zm2.708-5.072a6.212,6.212,0,1,1,6.691-6.185A6.46,6.46,0,0,1,498.5,474.387Zm0.008-8.757a2.569,2.569,0,1,0,2.764,2.57A2.678,2.678,0,0,0,498.505,465.63Z" transform="translate(-469 -445)"/>
</svg>
