<svg xmlns="http://www.w3.org/2000/svg" width="57" height="57"><circle data-name="Ellipse 1 copy 2" cx="28.5" cy="28.5" r="28.5" fill="#ee8208"/><path d="M25.789 33.459c-.5-.145-.988-.271-1.463-.425a12.124 12.124 0 0 1-2.453-1.113 1.76 1.76 0 0 1-.835-1.879 1.906 1.906 0 0 1 1.536-1.412 2.063 2.063 0 0 1 1.431.25A8.825 8.825 0 0 0 27.349 30a9.059 9.059 0 0 0 4.106-.418 9.614 9.614 0 0 0 1.587-.727 1.983 1.983 0 0 1 2.939 1.3 1.694 1.694 0 0 1-.891 1.783 12.735 12.735 0 0 1-3.747 1.468c-.038.008-.076.018-.134.032.042.04.075.073.109.1l3.6 3.331a1.655 1.655 0 0 1 .52 1.809 1.816 1.816 0 0 1-1.505 1.275 1.931 1.931 0 0 1-1.737-.486q-1.8-1.653-3.592-3.32a.739.739 0 0 1-.08-.1l-.123.107-3.52 3.263a2.074 2.074 0 0 1-1.509.574 1.866 1.866 0 0 1-1.866-2.039 1.781 1.781 0 0 1 .581-1.079q1.776-1.64 3.548-3.283c.045-.042.099-.084.154-.131zm2.708-5.072a6.212 6.212 0 1 1 6.691-6.185 6.46 6.46 0 0 1-6.688 6.185zm.008-8.757a2.569 2.569 0 1 0 2.764 2.57 2.678 2.678 0 0 0-2.764-2.57z" fill="#fff" fill-rule="evenodd"/></svg>