<svg xmlns="http://www.w3.org/2000/svg" width="42" height="55" viewBox="0 0 42 54.999" shape-rendering="geometricPrecision" text-rendering="geometricPrecision" image-rendering="optimizeQuality" fill-rule="evenodd" clip-rule="evenodd"><path d="M23.09-.04c10.5 1.117 18.686 10.007 18.686 20.8a20.82 20.82 0 0 1-4.225 12.598l.005.003-16.699 21.916L4.16 33.36l.004-.003A20.817 20.817 0 0 1-.06 20.76C-.06 9.933 8.173 1.023 18.72-.05a22.077 22.077 0 0 1 4.372.01z" fill="#ff8c00"/><path d="M26.738 22.058l-4.296 4.296a2.232 2.232 0 0 1-1.585.657 2.23 2.23 0 0 1-1.585-.657l-4.296-4.296a2.243 2.243 0 0 1 1.584-3.825c.6 0 1.162.234 1.586.658l2.711 2.711 2.712-2.713a2.225 2.225 0 0 1 1.583-.656c.598 0 1.16.234 1.586.656a2.245 2.245 0 0 1 0 3.17zm1.428-11.34a3.52 3.52 0 0 0-4.977-.002l-2.326 2.318-2.339-2.33a3.519 3.519 0 0 0-4.974.002L6.266 17.99a3.517 3.517 0 0 0 0 4.972l7.281 7.28a3.527 3.527 0 0 0 4.98.006l2.328-2.317 2.334 2.328a3.524 3.524 0 0 0 4.977-.004l7.281-7.283a3.517 3.517 0 0 0 0-4.973l-7.281-7.283z" fill="#fff" fill-rule="nonzero"/></svg>