<svg xmlns="http://www.w3.org/2000/svg" width="42" height="55" viewBox="0 0 42 54.999" shape-rendering="geometricPrecision" text-rendering="geometricPrecision" image-rendering="optimizeQuality" fill-rule="evenodd" clip-rule="evenodd"><path d="M23.216.33c10.418 1.11 18.54 9.931 18.54 20.64 0 4.694-1.563 9.023-4.192 12.5l.004.004L21 55.219 4.431 33.474l.005-.004a20.652 20.652 0 0 1-4.192-12.5C.244 10.228 8.413 1.387 18.878.322a21.911 21.911 0 0 1 4.338.01z" fill="#e67a24"/><path d="M26.835 22.258l-4.263 4.263c-.42.419-.98.65-1.572.65a2.21 2.21 0 0 1-1.572-.65l-4.263-4.263a2.224 2.224 0 0 1 1.571-3.796c.595 0 1.154.233 1.573.653l2.69 2.69 2.691-2.691a2.21 2.21 0 0 1 1.571-.652 2.226 2.226 0 0 1 1.573 3.796zm1.417-11.252a3.494 3.494 0 0 0-4.938-.003l-2.308 2.3-2.321-2.312a3.492 3.492 0 0 0-4.936.003l-7.227 7.228a3.49 3.49 0 0 0 0 4.933l7.225 7.225a3.502 3.502 0 0 0 4.942.005l2.309-2.3 2.316 2.31a3.496 3.496 0 0 0 4.938-.003l7.225-7.227a3.49 3.49 0 0 0 0-4.934l-7.225-7.225z" fill="#fff" fill-rule="nonzero"/></svg>