<svg xmlns="http://www.w3.org/2000/svg" width="61" height="30" shape-rendering="geometricPrecision" text-rendering="geometricPrecision" image-rendering="optimizeQuality" fill-rule="evenodd" clip-rule="evenodd"><path d="M38.04 12.86v9.57c0 .786-.588 1.427-1.293 1.427H24.268c-.705 0-1.293-.641-1.293-1.426V12.86H38.04zm21.68-6.713h-4.222v13.688c0 .786.576 1.435 1.283 1.435h2.939c.702 0 1.29-.649 1.29-1.435V7.585c0-.794-.588-1.438-1.29-1.438zm-58.424 0h4.221v13.688c0 .786-.574 1.435-1.283 1.435H1.296c-.703 0-1.289-.649-1.289-1.435V7.585c0-.794.586-1.438 1.289-1.438zm20.483 0v4.078c0 .795-.577 1.437-1.285 1.437H8.008c-.709 0-1.285-.642-1.285-1.437V6.147h15.056zm32.513 0v4.078c0 .795-.575 1.437-1.285 1.437h-12.48c-.712 0-1.29-.642-1.29-1.437V6.147h15.055zm-16.252 0v4.078c0 .795-.588 1.437-1.293 1.437H24.268c-.704 0-1.293-.642-1.293-1.437V6.147H38.04zm16.252 6.713v9.57c0 .786-.575 1.427-1.285 1.427h-12.48c-.714 0-1.29-.641-1.29-1.426V12.86h15.055zm-32.513 0v9.57c0 .786-.577 1.427-1.285 1.427H8.008c-.709 0-1.285-.641-1.285-1.426V12.86h15.056z" fill="#c8cacd"/></svg>