<svg xmlns="http://www.w3.org/2000/svg" width="50" height="50" shape-rendering="geometricPrecision" text-rendering="geometricPrecision" image-rendering="optimizeQuality" fill-rule="evenodd" clip-rule="evenodd"><g fill-rule="nonzero"><path d="M38.594 44.632l-.1-.029a3.995 3.995 0 0 0-4.862 2.575l-.035.098c-.95 2.83-4.554 3.655-6.641 1.522l-.072-.075a3.997 3.997 0 0 0-5.498-.202l-.08.07c-2.237 1.974-5.77.886-6.511-2.005l-.026-.1a3.995 3.995 0 0 0-4.66-2.924l-.102.02c-2.926.591-5.442-2.117-4.639-4.99l.029-.101a3.995 3.995 0 0 0-2.575-4.862l-.098-.034c-2.83-.95-3.655-4.554-1.522-6.641l.075-.074a3.994 3.994 0 0 0 .202-5.497l-.07-.078c-1.974-2.238-.886-5.772 2.004-6.512l.1-.026a3.995 3.995 0 0 0 2.925-4.661l-.02-.102c-.591-2.925 2.117-5.441 4.99-4.638l.101.028a3.997 3.997 0 0 0 4.863-2.575l.033-.098c.95-2.829 4.554-3.654 6.641-1.521l.074.074a3.995 3.995 0 0 0 5.497.202l.078-.07c2.238-1.973 5.772-.885 6.512 2.005l.026.1a3.995 3.995 0 0 0 4.661 2.925l.102-.021c2.925-.59 5.441 2.118 4.638 4.991l-.028.1a3.997 3.997 0 0 0 2.575 4.863l.098.033c2.828.951 3.654 4.555 1.52 6.642l-.073.073a3.995 3.995 0 0 0-.202 5.497l.07.078c1.973 2.238.885 5.772-2.005 6.513l-.1.026a3.995 3.995 0 0 0-2.925 4.66l.021.102c.59 2.926-2.118 5.442-4.991 4.639z" fill="#e57571"/><path d="M15.848 21.22c0-.696.103-1.299.31-1.807.205-.508.491-.927.856-1.26a3.42 3.42 0 0 1 1.296-.737c.5-.16 1.043-.239 1.629-.239.587 0 1.13.076 1.63.226a3.6 3.6 0 0 1 1.307.702c.374.317.663.733.868 1.25.207.514.31 1.137.31 1.865 0 .73-.103 1.353-.31 1.868-.205.515-.494.932-.868 1.248a3.565 3.565 0 0 1-1.307.702c-.5.151-1.043.225-1.63.225-.586 0-1.13-.074-1.629-.225a3.45 3.45 0 0 1-1.296-.702c-.365-.316-.65-.733-.856-1.248-.207-.515-.31-1.138-.31-1.868zm2.093 0c0 .857.17 1.487.512 1.891.341.404.836.608 1.486.608.634 0 1.13-.184 1.487-.549.357-.363.535-1.014.535-1.95 0-.95-.175-1.605-.523-1.961-.349-.357-.848-.536-1.5-.536-.633 0-1.125.179-1.473.536-.349.356-.524 1.01-.524 1.961zm7.397 8.848c0-.698.104-1.3.31-1.807.206-.508.49-.928.856-1.261a3.439 3.439 0 0 1 1.295-.737 5.372 5.372 0 0 1 1.63-.238c.586 0 1.13.076 1.629.226.5.151.935.385 1.309.701.372.318.661.734.867 1.249.206.515.31 1.137.31 1.867s-.104 1.352-.31 1.868c-.206.515-.495.93-.867 1.248-.374.317-.81.55-1.309.702-.5.15-1.043.225-1.629.225-.587 0-1.13-.075-1.63-.225a3.501 3.501 0 0 1-1.295-.702c-.365-.318-.65-.733-.857-1.248-.205-.516-.31-1.139-.31-1.868zm2.093 0c0 .857.171 1.486.511 1.891.342.404.836.606 1.487.606.635 0 1.13-.182 1.486-.547.357-.365.535-1.014.535-1.95 0-.952-.173-1.605-.523-1.962-.349-.356-.848-.535-1.498-.535-.634 0-1.125.179-1.475.535-.348.357-.523 1.01-.523 1.962zm3.401-12.914l1.38 1.142L18.608 34.42l-1.356-1.166 13.58-16.101z" fill="#fff"/></g></svg>