<svg xmlns="http://www.w3.org/2000/svg" width="14.44" height="15.12" viewBox="0 0 14.44 15.12"><defs><style>.cls-1{fill:#1b55f7;fill-rule:evenodd}</style></defs><path id="Shape_2_copy" data-name="Shape 2 copy" class="cls-1" d="M1365.11 2895.34l.97 4.17a.593.593 0 0 0 .35.42l3.89 1.58a.584.584 0 0 1 .09 1.03l-3.56 2.2a.575.575 0 0 0-.27.46l-.23 4.27a.557.557 0 0 1-.93.4l-3.17-2.81a.536.536 0 0 0-.51-.13l-4.03 1.06a.58.58 0 0 1-.67-.79l1.6-3.94a.558.558 0 0 0-.05-.53l-2.26-3.62a.576.576 0 0 1 .52-.89l4.16.38a.56.56 0 0 0 .48-.2l2.63-3.3a.563.563 0 0 1 .99.24z" transform="translate(-1356.25 -2894.88)"/></svg>