<svg xmlns="http://www.w3.org/2000/svg" width="32.97" height="34.06" viewBox="0 0 32.97 34.06"><defs><style>.cls-1{fill:#1b55f7;fill-rule:evenodd}</style></defs><path class="cls-1" d="M21.82 1.15l1.17 9.55a1.3 1.3 0 0 0 .69 1l8.56 4.49a1.3 1.3 0 0 1-.05 2.34l-8.77 4.02a1.323 1.323 0 0 0-.74.96l-1.61 9.48a1.31 1.31 0 0 1-2.25.67l-6.58-7.07a1.313 1.313 0 0 0-1.15-.41l-9.56 1.37a1.308 1.308 0 0 1-1.34-1.93l4.7-8.39a1.3 1.3 0 0 0 .03-1.21L.62 7.39a1.307 1.307 0 0 1 1.43-1.86l9.48 1.88a1.3 1.3 0 0 0 1.17-.34L19.6.36a1.317 1.317 0 0 1 2.22.79z"/></svg>