<svg xmlns="http://www.w3.org/2000/svg" width="56.91" height="57" viewBox="0 0 56.91 57"><defs><style>.cls-1{fill:#1b55f7;fill-rule:evenodd}</style></defs><path id="Shape_2_copy_2" data-name="Shape 2 copy 2" class="cls-1" d="M1336.97 3201.08l9.98 12.64a2.215 2.215 0 0 0 1.88.82l16.33-1.12a2.165 2.165 0 0 1 1.95 3.4l-9.24 13.47a2.163 2.163 0 0 0-.23 2.03l5.88 14.98a2.235 2.235 0 0 1-2.7 2.93l-15.69-4.31a2.234 2.234 0 0 0-2.02.43l-12.7 10.38a2.193 2.193 0 0 1-3.61-1.59l-.47-16.14a2.12 2.12 0 0 0-1.01-1.76l-13.73-8.57a2.187 2.187 0 0 1 .47-3.91l15.4-5.66a2.242 2.242 0 0 0 1.4-1.52l4.21-15.67a2.238 2.238 0 0 1 3.9-.83z" transform="translate(-1310.59 -3200.25)"/></svg>