<svg xmlns="http://www.w3.org/2000/svg" width="95" height="93" viewBox="0 0 95 93"><defs><style>.cls-1{fill:#1b55f7;fill-rule:evenodd}</style></defs><path class="cls-1" d="M27.98.61l22.38 14.82a3.683 3.683 0 0 0 3.38.35L78.79 5.8a3.622 3.622 0 0 1 4.86 4.34l-7.37 25.81a3.608 3.608 0 0 0 .7 3.3l17.17 20.56a3.639 3.639 0 0 1-2.68 5.96L64.55 66.9a3.678 3.678 0 0 0-2.96 1.7L47.15 91.28a3.663 3.663 0 0 1-6.52-.66l-9.27-25.11a3.592 3.592 0 0 0-2.52-2.25l-26.1-6.54a3.616 3.616 0 0 1-1.34-6.37L22.59 33.7a3.615 3.615 0 0 0 1.39-3.09L22.3 3.89A3.67 3.67 0 0 1 27.98.61z"/></svg>