<svg xmlns="http://www.w3.org/2000/svg" width="61" height="30" shape-rendering="geometricPrecision" text-rendering="geometricPrecision" image-rendering="optimizeQuality" fill-rule="evenodd" clip-rule="evenodd"><path d="M54.286 7.37v20.541c0 .791-.575 1.431-1.285 1.431h-12.48c-.71 0-1.29-.64-1.29-1.431V7.371h15.055zM59.714.658h-4.222v13.687c0 .787.576 1.435 1.283 1.435h2.939c.703 0 1.29-.648 1.29-1.435V2.092c0-.793-.587-1.434-1.29-1.434zM1.29.658h4.22v13.687c0 .787-.574 1.435-1.283 1.435H1.29c-.703 0-1.29-.648-1.29-1.435V2.092C.001 1.299.587.658 1.29.658zm20.483 0v4.077c0 .794-.577 1.435-1.285 1.435H8.002c-.709 0-1.285-.641-1.285-1.435V.658h15.056zm32.513 0v4.077c0 .794-.575 1.435-1.285 1.435h-12.48c-.712 0-1.29-.641-1.29-1.435V.658h15.055zm-16.252 0v4.077c0 .794-.588 1.435-1.293 1.435H24.262c-.704 0-1.293-.641-1.293-1.435V.658h15.065zM21.773 7.37v9.57c0 .786-.577 1.428-1.285 1.428H8.002c-.709 0-1.285-.642-1.285-1.427V7.37h15.056zm16.261 0v9.57c0 .786-.588 1.428-1.293 1.428H24.262c-.705 0-1.293-.642-1.293-1.427V7.37h15.065z" fill="#c8cacd"/></svg>