<svg xmlns="http://www.w3.org/2000/svg" width="35" height="35" shape-rendering="geometricPrecision" text-rendering="geometricPrecision" image-rendering="optimizeQuality" fill-rule="evenodd" clip-rule="evenodd"><path d="M-.001-.001h35v35h-35v-35zM16.842 23.8h1.335s.403-.044.608-.265c.19-.204.184-.586.184-.586s-.027-1.79.805-2.053c.818-.261 1.87 1.73 2.985 2.493.842.58 1.483.453 1.483.453l2.979-.042s1.56-.096.82-1.321c-.06-.1-.43-.907-2.215-2.565-1.87-1.735-1.62-1.454.632-4.453 1.371-1.828 1.92-2.943 1.748-3.421-.164-.455-1.172-.335-1.172-.335l-3.355.022s-.248-.035-.434.075c-.18.109-.295.36-.295.36s-.532 1.414-1.24 2.617c-1.495 2.537-2.092 2.672-2.337 2.513-.567-.367-.425-1.475-.425-2.262 0-2.459.373-3.483-.726-3.749-.365-.087-.633-.146-1.567-.156-1.197-.011-2.21.004-2.783.285-.383.188-.677.604-.498.627.222.03.724.136.991.499.344.467.331 1.518.331 1.518s.198 2.895-.462 3.254c-.451.246-1.071-.257-2.404-2.559a21.533 21.533 0 0 1-1.198-2.483s-.098-.243-.277-.373a1.357 1.357 0 0 0-.515-.209l-3.189.021s-.477.013-.654.222c-.156.186-.012.567-.012.567s2.496 5.841 5.322 8.785c2.593 2.699 5.535 2.521 5.535 2.521z" fill="#457aab"/></svg>