<svg id="vk" xmlns="http://www.w3.org/2000/svg" width="59" height="59" viewBox="0 0 59 59">
  <metadata><?xpacket begin="﻿" id="W5M0MpCehiHzreSzNTczkc9d"?>
<x:xmpmeta xmlns:x="adobe:ns:meta/" x:xmptk="Adobe XMP Core 5.6-c138 79.159824, 2016/09/14-01:09:01        ">
   <rdf:RDF xmlns:rdf="http://www.w3.org/1999/02/22-rdf-syntax-ns#">
      <rdf:Description rdf:about=""/>
   </rdf:RDF>
</x:xmpmeta>
                                                                                                    
                                                                                                    
                                                                                                    
                                                                                                    
                                                                                                    
                                                                                                    
                                                                                                    
                                                                                                    
                                                                                                    
                                                                                                    
                                                                                                    
                                                                                                    
                                                                                                    
                                                                                                    
                                                                                                    
                                                                                                    
                                                                                                    
                                                                                                    
                                                                                                    
                                                                                                    
                           
<?xpacket end="w"?></metadata>
<defs>
    <style>
      .cls-1 {
        fill: none;
        stroke: #4a76a8;
        stroke-width: 2px;
      }

      .cls-2 {
        fill: #4a76a8;
        fill-rule: evenodd;
      }
    </style>
  </defs>
  <circle class="cls-1" cx="29.5" cy="29.5" r="28.5"/>
  <path class="cls-2" d="M336.858,482.451c-0.033-.073-0.064-0.134-0.092-0.183a14.406,14.406,0,0,0-2.685-3.227l-0.028-.029L334.039,479l-0.014-.014h-0.014a16.426,16.426,0,0,1-1.139-1.2,1.158,1.158,0,0,1-.2-1.183,11.054,11.054,0,0,1,1.265-1.912q0.577-.774.914-1.242,2.432-3.358,2.109-4.293l-0.084-.145a0.808,0.808,0,0,0-.436-0.241,2.141,2.141,0,0,0-.9-0.037l-4.048.029a0.5,0.5,0,0,0-.281.008l-0.183.044-0.071.036-0.056.044a0.626,0.626,0,0,0-.154.153,1.045,1.045,0,0,0-.141.256,24.192,24.192,0,0,1-1.5,3.285q-0.521.906-.956,1.57a7.51,7.51,0,0,1-.731.978,5.21,5.21,0,0,1-.534.5,0.507,0.507,0,0,1-.366.161c-0.084-.02-0.164-0.039-0.239-0.059a0.958,0.958,0,0,1-.316-0.358,1.632,1.632,0,0,1-.162-0.569q-0.042-.344-0.049-0.591t0.007-.7c0.01-.3.014-0.507,0.014-0.614q0-.555.021-1.2t0.035-1.03c0.01-.253.014-0.521,0.014-0.8a3.472,3.472,0,0,0-.049-0.664,2.333,2.333,0,0,0-.147-0.468,0.781,0.781,0,0,0-.288-0.35,1.572,1.572,0,0,0-.471-0.2,9.011,9.011,0,0,0-1.9-.19,8.867,8.867,0,0,0-3.36.351,1.9,1.9,0,0,0-.534.437c-0.169.215-.192,0.332-0.071,0.351a1.7,1.7,0,0,1,1.2.628l0.085,0.175a2.938,2.938,0,0,1,.2.672,7.14,7.14,0,0,1,.126,1.065,11.758,11.758,0,0,1,0,1.826q-0.07.759-.133,1.183a2.471,2.471,0,0,1-.19.686,3.085,3.085,0,0,1-.169.321,0.257,0.257,0,0,1-.07.073,1.031,1.031,0,0,1-.38.073,0.876,0.876,0,0,1-.478-0.2,3.433,3.433,0,0,1-.583-0.563,7.436,7.436,0,0,1-.682-1q-0.38-.642-0.787-1.518l-0.225-.424q-0.211-.408-0.577-1.19t-0.646-1.512a0.962,0.962,0,0,0-.338-0.467l-0.07-.044a0.991,0.991,0,0,0-.225-0.124,1.483,1.483,0,0,0-.323-0.1l-3.852.029a0.956,0.956,0,0,0-.8.278l-0.057.088a0.485,0.485,0,0,0-.042.233,1.213,1.213,0,0,0,.084.4q0.844,2.058,1.835,3.971t1.722,3.081q0.73,1.168,1.49,2.205t1.005,1.329q0.246,0.292.387,0.438l0.351,0.35a8.45,8.45,0,0,0,.991.84,16.946,16.946,0,0,0,1.449.964,7.7,7.7,0,0,0,1.848.774,6.178,6.178,0,0,0,2.053.241h1.616a1.108,1.108,0,0,0,.746-0.321l0.056-.074a1.026,1.026,0,0,0,.105-0.269,1.538,1.538,0,0,0,.049-0.4,4.98,4.98,0,0,1,.091-1.132,3.034,3.034,0,0,1,.24-0.759,1.852,1.852,0,0,1,.3-0.43,1.206,1.206,0,0,1,.239-0.212,0.857,0.857,0,0,1,.112-0.051,0.868,0.868,0,0,1,.795.226,4.754,4.754,0,0,1,.857.847q0.4,0.5.963,1.132a6.7,6.7,0,0,0,.984.934l0.281,0.176a3.4,3.4,0,0,0,.732.321,1.529,1.529,0,0,0,.787.073l3.6-.058a1.589,1.589,0,0,0,.83-0.183,0.712,0.712,0,0,0,.351-0.4,1.156,1.156,0,0,0,.007-0.5A1.925,1.925,0,0,0,336.858,482.451Z" transform="translate(-295 -445)"/>
</svg>
