<svg xmlns="http://www.w3.org/2000/svg" width="35" height="35" shape-rendering="geometricPrecision" text-rendering="geometricPrecision" image-rendering="optimizeQuality" fill-rule="evenodd" clip-rule="evenodd"><path d="M-.026-.019h35v35h-35v-35zm16.843 23.803h1.335s.403-.045.608-.266c.19-.203.185-.586.185-.586s-.028-1.79.804-2.053c.818-.26 1.87 1.73 2.985 2.494.842.58 1.483.452 1.483.452l2.98-.041s1.558-.097.82-1.322c-.06-.1-.431-.907-2.216-2.564-1.87-1.735-1.62-1.454.632-4.453 1.371-1.829 1.92-2.944 1.748-3.422-.164-.455-1.172-.334-1.172-.334l-3.355.02s-.248-.033-.434.077c-.18.108-.295.36-.295.36s-.531 1.414-1.239 2.616c-1.495 2.537-2.093 2.672-2.337 2.514-.567-.368-.426-1.476-.426-2.262 0-2.46.374-3.484-.726-3.75-.365-.087-.633-.146-1.566-.155-1.198-.012-2.211.003-2.784.284-.383.188-.677.604-.498.628.222.03.724.135.991.498.344.468.331 1.518.331 1.518s.199 2.895-.462 3.254c-.45.247-1.071-.256-2.403-2.559a21.533 21.533 0 0 1-1.2-2.482s-.097-.244-.276-.374a1.376 1.376 0 0 0-.515-.209l-3.189.022s-.477.013-.654.222c-.156.185-.012.567-.012.567s2.496 5.84 5.322 8.784c2.593 2.699 5.535 2.522 5.535 2.522z" fill="#95989c"/></svg>