<svg xmlns="http://www.w3.org/2000/svg" width="57" height="57"><circle cx="28.5" cy="28.5" r="28.5" fill="#4a76a8"/><path d="M40.858 36.451a2.2 2.2 0 0 0-.092-.183 14.406 14.406 0 0 0-2.685-3.227l-.028-.029-.014-.012-.014-.014h-.014a16.426 16.426 0 0 1-1.139-1.2 1.158 1.158 0 0 1-.2-1.183 11.054 11.054 0 0 1 1.265-1.912q.577-.774.914-1.242 2.432-3.358 2.109-4.293l-.084-.145a.808.808 0 0 0-.436-.241 2.141 2.141 0 0 0-.9-.037l-4.048.029a.5.5 0 0 0-.281.008l-.183.044-.071.036-.056.044a.626.626 0 0 0-.154.153 1.045 1.045 0 0 0-.141.256 24.192 24.192 0 0 1-1.5 3.285q-.521.906-.956 1.57a7.51 7.51 0 0 1-.731.978 5.21 5.21 0 0 1-.534.5.507.507 0 0 1-.366.161c-.084-.02-.164-.039-.239-.059a.958.958 0 0 1-.316-.358 1.632 1.632 0 0 1-.162-.569q-.042-.344-.049-.591t.007-.7c.01-.3.014-.507.014-.614q0-.555.021-1.2t.035-1.03c.01-.253.014-.521.014-.8a3.472 3.472 0 0 0-.049-.664 2.333 2.333 0 0 0-.147-.468.781.781 0 0 0-.288-.35 1.572 1.572 0 0 0-.471-.2 9.011 9.011 0 0 0-1.9-.19 8.867 8.867 0 0 0-3.36.351 1.9 1.9 0 0 0-.534.437c-.169.215-.192.332-.071.351a1.7 1.7 0 0 1 1.2.628l.085.175a2.938 2.938 0 0 1 .2.672 7.14 7.14 0 0 1 .126 1.065 11.758 11.758 0 0 1 0 1.826q-.07.759-.133 1.183a2.471 2.471 0 0 1-.19.686 3.085 3.085 0 0 1-.169.321.257.257 0 0 1-.07.073 1.031 1.031 0 0 1-.38.073.876.876 0 0 1-.478-.2 3.433 3.433 0 0 1-.583-.563 7.436 7.436 0 0 1-.682-1q-.38-.642-.787-1.518l-.225-.424q-.211-.408-.577-1.19t-.646-1.512a.962.962 0 0 0-.338-.467l-.07-.044a.991.991 0 0 0-.225-.124 1.483 1.483 0 0 0-.323-.1l-3.852.029a.956.956 0 0 0-.8.278l-.057.088a.485.485 0 0 0-.042.233 1.213 1.213 0 0 0 .084.4q.844 2.058 1.835 3.971t1.722 3.081q.73 1.168 1.49 2.205t1.005 1.329q.246.292.387.438l.351.35a8.45 8.45 0 0 0 .991.84 16.946 16.946 0 0 0 1.449.964 7.7 7.7 0 0 0 1.848.774 6.178 6.178 0 0 0 2.053.241h1.616a1.108 1.108 0 0 0 .746-.321l.056-.074a1.026 1.026 0 0 0 .105-.269 1.538 1.538 0 0 0 .049-.4 4.98 4.98 0 0 1 .091-1.132 3.034 3.034 0 0 1 .24-.759 1.852 1.852 0 0 1 .3-.43 1.206 1.206 0 0 1 .239-.212.857.857 0 0 1 .112-.051.868.868 0 0 1 .795.226 4.754 4.754 0 0 1 .857.847q.4.5.963 1.132a6.7 6.7 0 0 0 .984.934l.281.176a3.4 3.4 0 0 0 .732.321 1.529 1.529 0 0 0 .787.073l3.6-.058a1.589 1.589 0 0 0 .83-.183.712.712 0 0 0 .351-.4 1.156 1.156 0 0 0 .007-.5 1.925 1.925 0 0 0-.106-.393z" fill="#fff" fill-rule="evenodd"/></svg>