<svg width="43" height="43" viewBox="0 0 43 43" fill="none" xmlns="http://www.w3.org/2000/svg">
<g filter="url(#filter0_d)">
<path d="M21.3274 38.1323C11.1875 38.1323 2.96741 29.9147 2.96741 19.7778C2.96741 9.64092 11.1875 1.42334 21.3274 1.42334C31.4673 1.42334 39.6874 9.64092 39.6874 19.7778C39.6874 29.9147 31.4673 38.1323 21.3274 38.1323ZM23.8516 12.908C24.8709 12.908 26.2234 12.908 26.2234 12.908V9.37695C26.2234 9.37695 24.799 9.37695 22.865 9.37695C20.931 9.37695 18.4155 10.6148 18.4155 14.2109C18.4155 14.882 18.4155 15.8657 18.4155 17.0123H15.2073V20.6671H18.4155C18.4155 25.2209 18.4155 30.1787 18.4155 30.1787H19.8398H20.9702H22.2443C22.2443 30.1787 22.2443 25.045 22.2443 20.6671H25.4327L25.962 17.0123H22.2443C22.2443 15.8136 22.2443 14.9406 22.2443 14.6865C22.2443 13.4878 22.8323 12.908 23.8516 12.908Z" fill="black"/>
</g>
<path d="M21.3274 38.1323C11.1875 38.1323 2.96741 29.9147 2.96741 19.7778C2.96741 9.64092 11.1875 1.42334 21.3274 1.42334C31.4673 1.42334 39.6874 9.64092 39.6874 19.7778C39.6874 29.9147 31.4673 38.1323 21.3274 38.1323ZM23.8516 12.908C24.8709 12.908 26.2234 12.908 26.2234 12.908V9.37695C26.2234 9.37695 24.799 9.37695 22.865 9.37695C20.931 9.37695 18.4155 10.6148 18.4155 14.2109C18.4155 14.882 18.4155 15.8657 18.4155 17.0123H15.2073V20.6671H18.4155C18.4155 25.2209 18.4155 30.1787 18.4155 30.1787H19.8398H20.9702H22.2443C22.2443 30.1787 22.2443 25.045 22.2443 20.6671H25.4327L25.962 17.0123H22.2443C22.2443 15.8136 22.2443 14.9406 22.2443 14.6865C22.2443 13.4878 22.8323 12.908 23.8516 12.908Z" fill="white"/>
<defs>
<filter id="filter0_d" x="-1.03259" y="-0.57666" width="44.72" height="44.7089" filterUnits="userSpaceOnUse" color-interpolation-filters="sRGB">
<feFlood flood-opacity="0" result="BackgroundImageFix"/>
<feColorMatrix in="SourceAlpha" type="matrix" values="0 0 0 0 0 0 0 0 0 0 0 0 0 0 0 0 0 0 127 0"/>
<feOffset dy="2"/>
<feGaussianBlur stdDeviation="2"/>
<feColorMatrix type="matrix" values="0 0 0 0 0 0 0 0 0 0 0 0 0 0 0 0 0 0 0.08 0"/>
<feBlend mode="normal" in2="BackgroundImageFix" result="effect1_dropShadow"/>
<feBlend mode="normal" in="SourceGraphic" in2="effect1_dropShadow" result="shape"/>
</filter>
</defs>
</svg>
