<svg width="43" height="43" viewBox="0 0 43 43" fill="none" xmlns="http://www.w3.org/2000/svg">
<g filter="url(#filter0_d)">
<path d="M3.18518 19.5116C3.4597 9.22346 12.2515 1.1363 22.1484 1.64533C31.3485 2.12569 38.9788 9.91173 39.2252 19.5116V20.4867C38.9788 29.9217 31.6018 37.6074 22.62 38.3315H19.8748C10.9423 37.6146 3.43859 29.9934 3.18518 20.501V19.5116ZM21.5055 10.8923C24.1554 10.8923 24.4671 10.8991 25.5193 10.9542C26.487 10.9955 27.0066 11.1745 27.3573 11.3191C27.8184 11.5119 28.1496 11.746 28.4938 12.1179C28.838 12.4897 29.0589 12.8477 29.2407 13.3435C29.3771 13.7221 29.533 14.2867 29.5849 15.3333C29.6369 16.4625 29.6435 16.7999 29.6435 19.6574C29.6435 22.5148 29.6369 22.8522 29.5849 23.9814C29.546 25.0211 29.3836 25.5925 29.2407 25.9712C29.0589 26.467 28.8445 26.825 28.4938 27.1968C28.1496 27.5686 27.8184 27.8028 27.3573 27.9956C27.0066 28.147 26.4805 28.3191 25.5193 28.3605C24.4736 28.4155 24.1554 28.4224 21.5055 28.4224C18.8557 28.4224 18.5439 28.4155 17.4918 28.3605C16.5241 28.3191 16.0045 28.1401 15.6537 27.9956C15.1926 27.8028 14.8614 27.5686 14.5171 27.1968C14.1729 26.825 13.9521 26.467 13.7702 25.9712C13.6338 25.5925 13.478 25.0279 13.426 23.9814C13.3741 22.8522 13.3676 22.5148 13.3676 19.6574C13.3676 16.7999 13.3741 16.4625 13.426 15.3333C13.465 14.2936 13.6273 13.7221 13.7702 13.3435C13.9521 12.8477 14.1664 12.4897 14.5171 12.1179C14.8614 11.746 15.1926 11.5119 15.6537 11.3191C16.0045 11.1677 16.5306 10.9955 17.4918 10.9542C18.5374 10.906 18.8557 10.8923 21.5055 10.8923ZM21.5055 8.96435C18.8102 8.96435 18.4725 8.9781 17.4203 9.03319C16.3682 9.08827 15.6407 9.2673 15.0107 9.52895C14.3548 9.80436 13.8027 10.1693 13.2572 10.7683C12.7051 11.3673 12.3674 11.9595 12.1141 12.6687C11.8673 13.3434 11.6984 14.1284 11.6529 15.2645C11.601 16.4006 11.5945 16.7655 11.5945 19.6711C11.5945 22.5768 11.6075 22.9417 11.6529 24.0778C11.7049 25.2138 11.8738 25.9919 12.1141 26.6735C12.3674 27.3759 12.7051 27.9749 13.2572 28.5739C13.8092 29.1729 14.3613 29.5379 15.0107 29.8133C15.6407 30.0818 16.3682 30.2608 17.4203 30.309C18.479 30.3641 18.8167 30.3779 21.5055 30.3779C24.1944 30.3779 24.5386 30.3641 25.5907 30.309C26.6429 30.254 27.3702 30.0749 28.0002 29.8133C28.6562 29.5379 29.2083 29.1729 29.7539 28.5739C30.3059 27.9749 30.6436 27.3827 30.8969 26.6735C31.1437 25.9988 31.3126 25.2138 31.3581 24.0778C31.41 22.9417 31.4165 22.5768 31.4165 19.6711C31.4165 16.7655 31.4035 16.4006 31.3581 15.2645C31.3061 14.1284 31.1372 13.3503 30.8969 12.6687C30.6436 11.9664 30.3059 11.3673 29.7539 10.7683C29.2018 10.1693 28.6497 9.80436 28.0002 9.52895C27.3702 9.26042 26.6429 9.08138 25.5907 9.03319C24.5386 8.9781 24.1944 8.96435 21.5055 8.96435ZM21.5055 14.4707C18.6792 14.4707 16.3999 16.9341 16.3999 19.977C16.3999 23.02 18.6857 25.4834 21.5055 25.4834C24.3254 25.4834 26.6112 23.02 26.6112 19.977C26.6112 16.9341 24.3254 14.4707 21.5055 14.4707ZM21.5055 23.5513C19.6756 23.5513 18.1908 21.9574 18.1908 19.977C18.1908 17.9967 19.6756 16.4027 21.5055 16.4027C23.3355 16.4027 24.8203 17.9967 24.8203 19.977C24.8203 21.9574 23.3355 23.5513 21.5055 23.5513ZM26.6112 15.0825C27.2747 15.0825 27.8125 14.5347 27.8125 13.8589C27.8125 13.1831 27.2747 12.6352 26.6112 12.6352C25.9477 12.6352 25.4098 13.1831 25.4098 13.8589C25.4098 14.5347 25.9477 15.0825 26.6112 15.0825Z" fill="black"/>
</g>
<path d="M3.18518 19.5116C3.4597 9.22346 12.2515 1.1363 22.1484 1.64533C31.3485 2.12569 38.9788 9.91173 39.2252 19.5116V20.4867C38.9788 29.9217 31.6018 37.6074 22.62 38.3315H19.8748C10.9423 37.6146 3.43859 29.9934 3.18518 20.501V19.5116ZM21.5055 10.8923C24.1554 10.8923 24.4671 10.8991 25.5193 10.9542C26.487 10.9955 27.0066 11.1745 27.3573 11.3191C27.8184 11.5119 28.1496 11.746 28.4938 12.1179C28.838 12.4897 29.0589 12.8477 29.2407 13.3435C29.3771 13.7221 29.533 14.2867 29.5849 15.3333C29.6369 16.4625 29.6435 16.7999 29.6435 19.6574C29.6435 22.5148 29.6369 22.8522 29.5849 23.9814C29.546 25.0211 29.3836 25.5925 29.2407 25.9712C29.0589 26.467 28.8445 26.825 28.4938 27.1968C28.1496 27.5686 27.8184 27.8028 27.3573 27.9956C27.0066 28.147 26.4805 28.3191 25.5193 28.3605C24.4736 28.4155 24.1554 28.4224 21.5055 28.4224C18.8557 28.4224 18.5439 28.4155 17.4918 28.3605C16.5241 28.3191 16.0045 28.1401 15.6537 27.9956C15.1926 27.8028 14.8614 27.5686 14.5171 27.1968C14.1729 26.825 13.9521 26.467 13.7702 25.9712C13.6338 25.5925 13.478 25.0279 13.426 23.9814C13.3741 22.8522 13.3676 22.5148 13.3676 19.6574C13.3676 16.7999 13.3741 16.4625 13.426 15.3333C13.465 14.2936 13.6273 13.7221 13.7702 13.3435C13.9521 12.8477 14.1664 12.4897 14.5171 12.1179C14.8614 11.746 15.1926 11.5119 15.6537 11.3191C16.0045 11.1677 16.5306 10.9955 17.4918 10.9542C18.5374 10.906 18.8557 10.8923 21.5055 10.8923ZM21.5055 8.96435C18.8102 8.96435 18.4725 8.9781 17.4203 9.03319C16.3682 9.08827 15.6407 9.2673 15.0107 9.52895C14.3548 9.80436 13.8027 10.1693 13.2572 10.7683C12.7051 11.3673 12.3674 11.9595 12.1141 12.6687C11.8673 13.3434 11.6984 14.1284 11.6529 15.2645C11.601 16.4006 11.5945 16.7655 11.5945 19.6711C11.5945 22.5768 11.6075 22.9417 11.6529 24.0778C11.7049 25.2138 11.8738 25.9919 12.1141 26.6735C12.3674 27.3759 12.7051 27.9749 13.2572 28.5739C13.8092 29.1729 14.3613 29.5379 15.0107 29.8133C15.6407 30.0818 16.3682 30.2608 17.4203 30.309C18.479 30.3641 18.8167 30.3779 21.5055 30.3779C24.1944 30.3779 24.5386 30.3641 25.5907 30.309C26.6429 30.254 27.3702 30.0749 28.0002 29.8133C28.6562 29.5379 29.2083 29.1729 29.7539 28.5739C30.3059 27.9749 30.6436 27.3827 30.8969 26.6735C31.1437 25.9988 31.3126 25.2138 31.3581 24.0778C31.41 22.9417 31.4165 22.5768 31.4165 19.6711C31.4165 16.7655 31.4035 16.4006 31.3581 15.2645C31.3061 14.1284 31.1372 13.3503 30.8969 12.6687C30.6436 11.9664 30.3059 11.3673 29.7539 10.7683C29.2018 10.1693 28.6497 9.80436 28.0002 9.52895C27.3702 9.26042 26.6429 9.08138 25.5907 9.03319C24.5386 8.9781 24.1944 8.96435 21.5055 8.96435ZM21.5055 14.4707C18.6792 14.4707 16.3999 16.9341 16.3999 19.977C16.3999 23.02 18.6857 25.4834 21.5055 25.4834C24.3254 25.4834 26.6112 23.02 26.6112 19.977C26.6112 16.9341 24.3254 14.4707 21.5055 14.4707ZM21.5055 23.5513C19.6756 23.5513 18.1908 21.9574 18.1908 19.977C18.1908 17.9967 19.6756 16.4027 21.5055 16.4027C23.3355 16.4027 24.8203 17.9967 24.8203 19.977C24.8203 21.9574 23.3355 23.5513 21.5055 23.5513ZM26.6112 15.0825C27.2747 15.0825 27.8125 14.5347 27.8125 13.8589C27.8125 13.1831 27.2747 12.6352 26.6112 12.6352C25.9477 12.6352 25.4098 13.1831 25.4098 13.8589C25.4098 14.5347 25.9477 15.0825 26.6112 15.0825Z" fill="white"/>
<defs>
<filter id="filter0_d" x="-0.814819" y="-0.377441" width="44.04" height="44.7089" filterUnits="userSpaceOnUse" color-interpolation-filters="sRGB">
<feFlood flood-opacity="0" result="BackgroundImageFix"/>
<feColorMatrix in="SourceAlpha" type="matrix" values="0 0 0 0 0 0 0 0 0 0 0 0 0 0 0 0 0 0 127 0"/>
<feOffset dy="2"/>
<feGaussianBlur stdDeviation="2"/>
<feColorMatrix type="matrix" values="0 0 0 0 0 0 0 0 0 0 0 0 0 0 0 0 0 0 0.08 0"/>
<feBlend mode="normal" in2="BackgroundImageFix" result="effect1_dropShadow"/>
<feBlend mode="normal" in="SourceGraphic" in2="effect1_dropShadow" result="shape"/>
</filter>
</defs>
</svg>
