<svg width="22" height="22" viewBox="0 0 22 22" fill="none" xmlns="http://www.w3.org/2000/svg">
<path d="M10.9365 5.06885C7.97352 5.06885 5.51849 7.48155 5.51849 10.4868C5.51849 13.4921 7.93119 15.9048 10.9365 15.9048C13.9418 15.9048 16.3545 13.4498 16.3545 10.4868C16.3545 7.52387 13.8994 5.06885 10.9365 5.06885ZM10.9365 13.9577C9.03172 13.9577 7.46558 12.3916 7.46558 10.4868C7.46558 8.58208 9.03172 7.01594 10.9365 7.01594C12.8412 7.01594 14.4074 8.58208 14.4074 10.4868C14.4074 12.3916 12.8412 13.9577 10.9365 13.9577Z" fill="black"/>
<path d="M16.5661 6.16938C17.2441 6.16938 17.7936 5.61981 17.7936 4.94187C17.7936 4.26393 17.2441 3.71436 16.5661 3.71436C15.8882 3.71436 15.3386 4.26393 15.3386 4.94187C15.3386 5.61981 15.8882 6.16938 16.5661 6.16938Z" fill="black"/>
<path d="M19.7407 1.76719C18.6402 0.624331 17.0741 0.0317383 15.2963 0.0317383H6.57671C2.89417 0.0317383 0.439148 2.48676 0.439148 6.1693V14.8466C0.439148 16.6667 1.03174 18.2328 2.21693 19.3757C3.35978 20.4762 4.88359 21.0264 6.61904 21.0264H15.254C17.0741 21.0264 18.5979 20.4339 19.6984 19.3757C20.8413 18.2751 21.4339 16.709 21.4339 14.8889V6.1693C21.4339 4.39153 20.8413 2.86772 19.7407 1.76719ZM19.5714 14.8889C19.5714 16.2011 19.1058 17.2593 18.3439 17.9788C17.582 18.6984 16.5238 19.0794 15.254 19.0794H6.61904C5.3492 19.0794 4.291 18.6984 3.5291 17.9788C2.76719 17.2169 2.38624 16.1587 2.38624 14.8466V6.1693C2.38624 4.89946 2.76719 3.84126 3.5291 3.07936C4.24867 2.35978 5.3492 1.97883 6.61904 1.97883H15.3386C16.6085 1.97883 17.6667 2.35978 18.4286 3.12169C19.1481 3.88359 19.5714 4.94179 19.5714 6.1693V14.8889Z" fill="black"/>
</svg>
