<svg width="52" height="30" viewBox="0 0 52 30" fill="none" xmlns="http://www.w3.org/2000/svg">
<path d="M12.407 17.1748C12.407 17.5373 12.5895 17.7185 12.9544 17.7185C13.593 17.7185 13.9579 17.1748 14.0491 16.3591C13.8667 16.3591 13.8667 16.3591 13.6842 16.3591C12.8632 16.3591 12.407 16.631 12.407 17.1748Z" fill="white"/>
<path d="M35.7614 17.1748C35.7614 17.5373 35.9438 17.7185 36.3088 17.7185C36.9474 17.7185 37.3123 17.1748 37.4035 16.3591C37.2211 16.3591 37.221 16.3591 37.0386 16.3591C36.1263 16.3591 35.7614 16.631 35.7614 17.1748Z" fill="white"/>
<path d="M24.6316 14.4561C24.1754 14.4561 23.8105 14.8185 23.7193 15.4529H25.3614C25.3614 15.2717 25.5439 14.4561 24.6316 14.4561Z" fill="white"/>
<path d="M44.4281 14.6372C43.7895 14.6372 43.2421 15.4528 43.2421 16.5403C43.2421 17.2653 43.5158 17.6278 43.9719 17.6278C44.7018 17.6278 45.1579 16.8122 45.1579 15.7247C45.2491 14.9997 44.9755 14.6372 44.4281 14.6372Z" fill="white"/>
<path d="M34.9403 1.76855C31.4737 1.76855 28.2807 3.03729 25.8175 5.21229C23.4456 3.03729 20.2526 1.76855 16.786 1.76855C9.30528 1.76855 3.19298 7.84045 3.19298 15.2717C3.19298 22.703 9.30528 28.7748 16.786 28.7748C20.2526 28.7748 23.4456 27.5061 25.8175 25.3311C28.1895 27.5061 31.3824 28.7748 34.9403 28.7748C42.421 28.7748 48.5333 22.703 48.5333 15.2717C48.5333 7.84045 42.421 1.76855 34.9403 1.76855ZM8.94034 18.8967L9.76141 13.6404L7.84559 18.8967H6.8421L6.7509 13.6404L5.83861 18.8967H4.47019L5.65615 12.0092H7.75438L7.84559 16.2686L9.30527 12.0092H11.586L10.4 18.8967H8.94034ZM13.8667 18.8967V18.3529C13.5018 18.806 12.9544 18.9873 12.3158 18.9873C11.4947 18.9873 10.9474 18.3529 10.9474 17.4467C10.9474 16.0873 11.8596 15.2717 13.5017 15.2717C13.6842 15.2717 13.8667 15.2717 14.1403 15.2717C14.2316 15.0905 14.2316 14.9998 14.2316 14.9092C14.2316 14.5467 13.9579 14.3655 13.3193 14.3655C12.5894 14.3655 12.0421 14.5467 11.7684 14.6373C11.7684 14.5467 11.9509 13.3685 11.9509 13.3685C12.6807 13.1873 13.1368 13.0967 13.6842 13.0967C14.9614 13.0967 15.6 13.6404 15.6 14.7279C15.6 14.9998 15.6 15.3623 15.5088 15.8154C15.4175 16.6311 15.1439 18.3529 15.0526 18.806C14.8702 18.8967 13.8667 18.8967 13.8667 18.8967ZM18.2456 15.5436C18.9754 15.9061 19.2491 16.3592 19.2491 17.0842C19.2491 18.353 18.5193 18.9873 16.9684 18.9873C16.0561 18.9873 15.7825 18.8967 15.4176 18.806C15.4176 18.7154 15.6 17.5373 15.6 17.5373C16.0561 17.7186 16.5123 17.7185 16.9684 17.7185C17.5158 17.7185 17.7895 17.5373 17.7895 17.1748C17.7895 16.9029 17.6983 16.8123 17.0597 16.5404C16.2386 16.1779 15.9649 15.7248 15.9649 14.9998C15.9649 14.0029 16.5123 13.0967 18.1544 13.0967C18.5193 13.0967 19.0667 13.1873 19.4316 13.1873L19.2491 14.4561C18.8842 14.3654 18.5193 14.3655 18.1544 14.3655C17.6983 14.3655 17.4245 14.5467 17.4245 14.8186C17.5158 15.1811 17.607 15.2717 18.2456 15.5436ZM21.4386 17.6279C21.621 17.6279 21.7123 17.628 21.8035 17.5373L21.6211 18.806C21.2561 18.8967 20.8912 18.9873 20.5263 18.9873C19.7965 18.9873 19.3404 18.5342 19.3404 17.7185C19.3404 17.4467 19.4316 16.8123 19.5228 16.2686C19.6141 15.7248 20.1614 12.4623 20.1614 12.4623H21.6211L21.4386 13.2779H22.1684L21.9859 14.6373H21.2561C21.0737 15.7248 20.8 16.9936 20.8 17.1748C20.9824 17.4467 21.1649 17.6279 21.4386 17.6279ZM24.9052 17.7185C25.4526 17.7185 25.9088 17.6279 26.4561 17.3561L26.1825 18.7154C25.6351 18.8967 25.1789 18.8967 24.6316 18.8967C22.9895 18.8967 22.1684 18.0811 22.1684 16.4498C22.1684 14.5467 23.2631 13.0967 24.7228 13.0967C25.9087 13.0967 26.7298 13.9123 26.7298 15.0904C26.7298 15.5436 26.6386 15.9061 26.5473 16.4498H23.6281C23.5369 17.3561 24.0842 17.7185 24.9052 17.7185ZM28.1895 18.8967H26.7298L26.8211 18.5342C27.0948 16.8123 27.3684 15.0904 27.5509 13.3685H28.9193C28.9193 13.6404 28.828 13.9123 28.828 14.1842C29.2842 13.5498 29.6491 13.1873 30.2877 13.2779C30.1053 13.5498 29.8316 14.1842 29.7403 14.9092C28.828 14.8186 28.7369 15.453 28.1895 18.8967ZM33.8456 18.806C33.2982 18.9873 32.9333 18.9873 32.5684 18.9873C31.0176 18.9873 30.0141 17.8092 30.0141 15.9967C30.0141 13.5498 31.3824 11.8279 33.3894 11.8279C34.028 11.8279 34.7579 12.0998 35.0316 12.1904L34.7579 13.6404C34.2105 13.3685 33.8456 13.2779 33.4807 13.2779C32.386 13.2779 31.5649 14.3654 31.5649 15.8154C31.5649 16.8123 32.1123 17.4467 32.9333 17.4467C33.2982 17.4467 33.6632 17.3561 34.2105 17.0842L33.8456 18.806ZM38.407 18.8967C38.2245 18.8967 37.221 18.8967 37.221 18.8967V18.3529C36.8561 18.806 36.3087 18.9873 35.6702 18.9873C34.8491 18.9873 34.3017 18.3529 34.3017 17.4467C34.3017 16.0873 35.2141 15.2717 36.8562 15.2717C37.0386 15.2717 37.221 15.2717 37.4947 15.2717C37.5859 15.0905 37.586 14.9998 37.586 14.9092C37.586 14.5467 37.3123 14.3655 36.6737 14.3655C35.9439 14.3655 35.3965 14.5467 35.1228 14.6373C35.1228 14.5467 35.3053 13.3685 35.3053 13.3685C36.0351 13.1873 36.4912 13.0967 37.0386 13.0967C38.3158 13.0967 38.9544 13.6404 38.9544 14.7279C38.9544 14.9998 38.9544 15.3623 38.8631 15.8154C38.6807 16.7217 38.407 18.4436 38.407 18.8967ZM40.414 18.8967H38.9544L39.0456 18.5342C39.3193 16.8123 39.593 15.0904 39.7754 13.3685H41.1438C41.1438 13.6404 41.0526 13.9123 41.0526 14.1842C41.5088 13.5498 41.8737 13.1873 42.5123 13.2779C42.3298 13.5498 42.0561 14.1842 41.9649 14.9092C41.0526 14.8186 40.8702 15.453 40.414 18.8967ZM44.793 18.8967L44.8842 18.3529C44.5193 18.806 44.0632 18.9873 43.5158 18.9873C42.4211 18.9873 41.6912 18.0811 41.6912 16.6311C41.6912 14.8186 42.7859 13.1873 44.0631 13.1873C44.6105 13.1873 45.0667 13.4592 45.4316 13.9123L45.7965 11.9186H47.2561L46.1614 18.806H44.793V18.8967Z" fill="white"/>
</svg>
