<svg width="40" height="36" viewBox="0 0 40 36" fill="none" xmlns="http://www.w3.org/2000/svg">
<path d="M10.0044 13.9606C10.1106 14.4375 10.605 14.72 11.0644 14.5963L18.13 12.83C18.8894 12.6538 19.0487 11.6288 18.3775 11.2225L17.0525 10.4275C17.6375 9.45188 22.4131 1.49375 23.0056 0.5H15.3569C14.4381 0.5 13.6081 0.959375 13.1131 1.75438L10.2337 6.3475L9.54499 5.92313C8.87374 5.51688 8.04311 6.135 8.23749 6.89438L10.0044 13.9606Z" fill="#417EDA"/>
<path d="M30.2994 7.195L26.89 1.75437C26.3956 0.959375 25.565 0.5 24.6469 0.5H24.0888L23.805 0.97625C23.4794 1.5225 21.8875 4.17687 20.4238 6.61687L23.8375 11.2944L30.2994 7.195Z" fill="#417EDA"/>
<path d="M39.1475 20.9407L36.4562 16.6344L37.2937 15.9407C37.6 15.7569 37.7656 15.4069 37.7131 15.0532C37.6606 14.7007 37.4 14.4132 37.0531 14.3269L30.3056 12.5607C29.8281 12.4413 29.3525 12.7288 29.235 13.2032L27.4687 20.2688C27.3819 20.6144 27.5125 20.9794 27.7994 21.1926C28.0875 21.4038 28.4737 21.4238 28.78 21.2401L29.915 20.5588C33.0419 25.3944 34.4656 27.5957 36.0294 30.0138C37.0894 27.8932 36.4237 29.2251 39.2712 23.5301C39.6806 22.7107 39.6331 21.7188 39.1475 20.9407Z" fill="#417EDA"/>
<path d="M23.5912 24.8987V32.8481C23.5912 33.3362 23.9862 33.7312 24.4743 33.7312H32.5331C33.5431 33.7312 34.4512 33.1699 34.9031 32.2668L35.5462 30.9799L31.6137 24.8993H23.5912V24.8987Z" fill="#417EDA"/>
<path d="M14.3774 23.3968C13.8299 22.8318 12.8762 23.2199 12.8762 24.0149V24.898H1.4137C1.80432 25.6874 5.06245 32.1805 5.10557 32.2643C5.54682 33.1655 6.46557 33.7305 7.47245 33.7305H12.8762V34.6136C12.8762 35.4086 13.8299 35.7968 14.3774 35.2318L19.6768 29.9324C20.0299 29.5968 20.0299 29.0318 19.6768 28.6961L14.3774 23.3968Z" fill="#417EDA"/>
<path d="M10.875 20.0019L4.43435 15.2181L0.848726 20.9419C0.371851 21.7194 0.318726 22.7081 0.724976 23.5381L0.942476 23.9681H8.4956L10.875 20.0019Z" fill="#417EDA"/>
</svg>
