<svg width="56" height="32" viewBox="0 0 56 32" fill="none" xmlns="http://www.w3.org/2000/svg">
<path d="M23.2 8.30005L19.9 23.5001H23.9L27.1 8.30005H23.2Z" fill="white"/>
<path d="M17.4 8.29993L13.3 18.5999L11.6 9.79993C11.4 8.79993 10.6 8.29993 9.79999 8.29993H3.09998L3 8.69995C4.4 8.99995 5.90002 9.49994 6.90002 9.99994C7.50002 10.2999 7.59999 10.5999 7.79999 11.2999L10.9 23.4H15.1L21.5 8.19995H17.4V8.29993Z" fill="white"/>
<path d="M48.5 8.30005H45.1C44.3 8.30005 43.7 8.70009 43.4 9.40009L37.5 23.5001H41.6L42.4 21.2001H47.4L47.9 23.5001H51.5L48.5 8.30005ZM43.7 18.1L45.8 12.4001L47 18.1H43.7Z" fill="white"/>
<path d="M32.3 12.5C32.3 12 32.8 11.4 34 11.2C34.6 11.1 36.1 11.1 37.9 11.9L38.6 8.70001C37.7 8.40001 36.4 8 34.9 8C31 8 28.3 10.1 28.3 13C28.3 15.2 30.3 16.4 31.7 17.1C33.2 17.8 33.7 18.3 33.7 19C33.7 20 32.5 20.5 31.3 20.5C29.3 20.5 28.2 20 27.3 19.5L26.6 22.8C27.5 23.2 29.2 23.6 31 23.6C35.1 23.6 37.8 21.6 37.8 18.4C37.8 14.6 32.2 14.3 32.3 12.5Z" fill="white"/>
</svg>
