<svg width="43" height="43" viewBox="0 0 43 43" fill="none" xmlns="http://www.w3.org/2000/svg">
<g filter="url(#filter0_d)">
<path d="M21.0607 38.1323C10.9207 38.1323 2.70068 29.9147 2.70068 19.7778C2.70068 9.64092 10.9207 1.42334 21.0607 1.42334C31.2006 1.42334 39.4207 9.64092 39.4207 19.7778C39.4207 29.9147 31.2006 38.1323 21.0607 38.1323ZM16.6315 15.6535C16.6568 15.6694 16.682 15.6773 16.6988 15.6773C17.4911 15.9629 17.9041 16.4865 17.9126 17.2719C17.921 18.0335 17.8956 18.7951 17.8872 19.5567C17.8788 19.8264 17.8114 20.0882 17.6597 20.3183C17.5333 20.5166 17.3479 20.5722 17.1372 20.4611C16.9602 20.3659 16.7747 20.2469 16.6567 20.0962C15.8308 19.0887 15.1987 17.97 14.6172 16.8276C14.457 16.5103 14.3054 16.185 14.1368 15.8677C13.9683 15.5504 13.6985 15.3837 13.3024 15.3996C13.0074 15.4075 12.7125 15.3837 12.4175 15.3837C11.7349 15.3917 11.0438 15.3917 10.3611 15.4155C10.1504 15.4234 9.93963 15.5107 9.72893 15.5741C9.65308 15.5979 9.61937 15.6614 9.63623 15.7407C9.66994 15.9073 9.69521 16.0739 9.73735 16.2405C9.93119 16.9783 10.302 17.6368 10.6729 18.3032C11.4398 19.6916 12.3247 21.0085 13.2602 22.3017C13.5468 22.7063 13.8502 23.1109 14.1873 23.4837C14.8447 24.1898 15.5443 24.8641 16.3702 25.4115C16.9686 25.8162 17.6006 26.1494 18.3339 26.2842C19.3284 26.4667 20.3314 26.5143 21.3427 26.3874C21.8568 26.3239 22.1771 26.0224 22.2276 25.5385C22.2614 25.1418 22.2866 24.7531 22.3288 24.3564C22.354 24.1184 22.4721 23.928 22.7249 23.8408C23.0452 23.7218 23.5593 23.8725 23.7447 24.1502C24.0397 24.5865 24.4021 24.9593 24.7898 25.3163C25.1606 25.6654 25.5483 25.9986 26.0034 26.2446C26.2899 26.4032 26.5934 26.5222 26.9305 26.5064C27.3519 26.4905 27.7816 26.4667 28.203 26.4508C28.9362 26.4191 29.6695 26.3953 30.3943 26.3556C30.7736 26.3398 30.959 26.1573 31.0011 25.8003C31.0349 25.483 30.9085 25.1974 30.7146 24.9594C30.4112 24.5786 30.1078 24.1978 29.7623 23.8566C29.1807 23.2775 28.5571 22.7301 27.9587 22.1668C27.6216 21.8495 27.5288 21.4687 27.6721 21.0403C27.8069 20.6436 28.0598 20.3183 28.3463 20.0168C29.1554 19.1521 29.8718 18.2239 30.5123 17.2402C30.7398 16.899 30.9338 16.5341 31.0349 16.1295C31.1276 15.7487 30.8326 15.4155 30.4196 15.4155C29.1301 15.4234 27.8322 15.4234 26.5427 15.4155C26.1972 15.4075 25.9781 15.5345 25.8432 15.8359C25.5651 16.4309 25.2617 17.026 24.9667 17.613C24.6633 18.2001 24.3093 18.7554 23.9048 19.2949C23.6098 19.6916 23.2811 20.0486 22.8429 20.3104C22.6069 20.4532 22.5564 20.4532 22.3878 20.2311C22.3457 20.1755 22.295 20.112 22.2782 20.0486C22.2107 19.8106 22.1012 19.5726 22.1012 19.3346C22.1012 18.5809 22.1349 17.8272 22.1602 17.0736C22.1771 16.7165 22.2276 16.3595 22.2192 16.0105C22.2024 15.5741 21.9748 15.2647 21.5366 15.0981C21.2416 14.9871 20.9381 14.9791 20.6263 14.9633C19.9436 14.9395 19.2525 14.8998 18.5615 14.8839C18.0811 14.876 17.6007 14.9395 17.154 15.1457C16.918 15.2568 16.7326 15.4076 16.6315 15.6535Z" fill="black"/>
</g>
<path d="M21.0607 38.1323C10.9207 38.1323 2.70068 29.9147 2.70068 19.7778C2.70068 9.64092 10.9207 1.42334 21.0607 1.42334C31.2006 1.42334 39.4207 9.64092 39.4207 19.7778C39.4207 29.9147 31.2006 38.1323 21.0607 38.1323ZM16.6315 15.6535C16.6568 15.6694 16.682 15.6773 16.6988 15.6773C17.4911 15.9629 17.9041 16.4865 17.9126 17.2719C17.921 18.0335 17.8956 18.7951 17.8872 19.5567C17.8788 19.8264 17.8114 20.0882 17.6597 20.3183C17.5333 20.5166 17.3479 20.5722 17.1372 20.4611C16.9602 20.3659 16.7747 20.2469 16.6567 20.0962C15.8308 19.0887 15.1987 17.97 14.6172 16.8276C14.457 16.5103 14.3054 16.185 14.1368 15.8677C13.9683 15.5504 13.6985 15.3837 13.3024 15.3996C13.0074 15.4075 12.7125 15.3837 12.4175 15.3837C11.7349 15.3917 11.0438 15.3917 10.3611 15.4155C10.1504 15.4234 9.93963 15.5107 9.72893 15.5741C9.65308 15.5979 9.61937 15.6614 9.63623 15.7407C9.66994 15.9073 9.69521 16.0739 9.73735 16.2405C9.93119 16.9783 10.302 17.6368 10.6729 18.3032C11.4398 19.6916 12.3247 21.0085 13.2602 22.3017C13.5468 22.7063 13.8502 23.1109 14.1873 23.4837C14.8447 24.1898 15.5443 24.8641 16.3702 25.4115C16.9686 25.8162 17.6006 26.1494 18.3339 26.2842C19.3284 26.4667 20.3314 26.5143 21.3427 26.3874C21.8568 26.3239 22.1771 26.0224 22.2276 25.5385C22.2614 25.1418 22.2866 24.7531 22.3288 24.3564C22.354 24.1184 22.4721 23.928 22.7249 23.8408C23.0452 23.7218 23.5593 23.8725 23.7447 24.1502C24.0397 24.5865 24.4021 24.9593 24.7898 25.3163C25.1606 25.6654 25.5483 25.9986 26.0034 26.2446C26.2899 26.4032 26.5934 26.5222 26.9305 26.5064C27.3519 26.4905 27.7816 26.4667 28.203 26.4508C28.9362 26.4191 29.6695 26.3953 30.3943 26.3556C30.7736 26.3398 30.959 26.1573 31.0011 25.8003C31.0349 25.483 30.9085 25.1974 30.7146 24.9594C30.4112 24.5786 30.1078 24.1978 29.7623 23.8566C29.1807 23.2775 28.5571 22.7301 27.9587 22.1668C27.6216 21.8495 27.5288 21.4687 27.6721 21.0403C27.8069 20.6436 28.0598 20.3183 28.3463 20.0168C29.1554 19.1521 29.8718 18.2239 30.5123 17.2402C30.7398 16.899 30.9338 16.5341 31.0349 16.1295C31.1276 15.7487 30.8326 15.4155 30.4196 15.4155C29.1301 15.4234 27.8322 15.4234 26.5427 15.4155C26.1972 15.4075 25.9781 15.5345 25.8432 15.8359C25.5651 16.4309 25.2617 17.026 24.9667 17.613C24.6633 18.2001 24.3093 18.7554 23.9048 19.2949C23.6098 19.6916 23.2811 20.0486 22.8429 20.3104C22.6069 20.4532 22.5564 20.4532 22.3878 20.2311C22.3457 20.1755 22.295 20.112 22.2782 20.0486C22.2107 19.8106 22.1012 19.5726 22.1012 19.3346C22.1012 18.5809 22.1349 17.8272 22.1602 17.0736C22.1771 16.7165 22.2276 16.3595 22.2192 16.0105C22.2024 15.5741 21.9748 15.2647 21.5366 15.0981C21.2416 14.9871 20.9381 14.9791 20.6263 14.9633C19.9436 14.9395 19.2525 14.8998 18.5615 14.8839C18.0811 14.876 17.6007 14.9395 17.154 15.1457C16.918 15.2568 16.7326 15.4076 16.6315 15.6535Z" fill="white"/>
<defs>
<filter id="filter0_d" x="-1.29932" y="-0.57666" width="44.72" height="44.7089" filterUnits="userSpaceOnUse" color-interpolation-filters="sRGB">
<feFlood flood-opacity="0" result="BackgroundImageFix"/>
<feColorMatrix in="SourceAlpha" type="matrix" values="0 0 0 0 0 0 0 0 0 0 0 0 0 0 0 0 0 0 127 0"/>
<feOffset dy="2"/>
<feGaussianBlur stdDeviation="2"/>
<feColorMatrix type="matrix" values="0 0 0 0 0 0 0 0 0 0 0 0 0 0 0 0 0 0 0.08 0"/>
<feBlend mode="normal" in2="BackgroundImageFix" result="effect1_dropShadow"/>
<feBlend mode="normal" in="SourceGraphic" in2="effect1_dropShadow" result="shape"/>
</filter>
</defs>
</svg>
