<svg width="43" height="43" viewBox="0 0 43 43" fill="none" xmlns="http://www.w3.org/2000/svg">
<g filter="url(#filter0_d)">
<path d="M39.7547 19.7778C39.7547 29.9158 31.5357 38.1323 21.3947 38.1323C11.2536 38.1323 3.03467 29.9158 3.03467 19.7778C3.03467 9.63984 11.2536 1.42334 21.3947 1.42334C31.5357 1.42334 39.7547 9.63984 39.7547 19.7778ZM32.2164 15.7068C32.0411 14.2882 31.6754 13.8748 31.4163 13.6823C31.0049 13.3829 30.2582 13.276 29.2601 13.2118C27.66 13.112 24.94 13.0478 22.0066 13.0478C19.0656 13.0478 16.3532 13.1049 14.7532 13.2118C13.7551 13.276 13.0084 13.3829 12.597 13.6823C12.338 13.8748 11.9798 14.2882 11.797 15.7068C11.5379 17.7527 11.5379 22.4148 11.797 24.4607C11.9798 25.8792 12.338 26.2927 12.597 26.4852C13.0084 26.7846 13.7551 26.8915 14.7532 26.9557C16.3532 27.0555 19.0656 27.1196 22.0066 27.1196C24.9476 27.1196 27.66 27.0555 29.2601 26.9557C30.2582 26.8915 31.0049 26.7846 31.4163 26.4852C31.6754 26.2998 32.0335 25.8792 32.2164 24.4607C32.4754 22.4148 32.4754 17.7527 32.2164 15.7068ZM19.0935 22.9809V17.1866L25.7521 20.0803L19.0935 22.9809Z" fill="black"/>
</g>
<path d="M39.7547 19.7778C39.7547 29.9158 31.5357 38.1323 21.3947 38.1323C11.2536 38.1323 3.03467 29.9158 3.03467 19.7778C3.03467 9.63984 11.2536 1.42334 21.3947 1.42334C31.5357 1.42334 39.7547 9.63984 39.7547 19.7778ZM32.2164 15.7068C32.0411 14.2882 31.6754 13.8748 31.4163 13.6823C31.0049 13.3829 30.2582 13.276 29.2601 13.2118C27.66 13.112 24.94 13.0478 22.0066 13.0478C19.0656 13.0478 16.3532 13.1049 14.7532 13.2118C13.7551 13.276 13.0084 13.3829 12.597 13.6823C12.338 13.8748 11.9798 14.2882 11.797 15.7068C11.5379 17.7527 11.5379 22.4148 11.797 24.4607C11.9798 25.8792 12.338 26.2927 12.597 26.4852C13.0084 26.7846 13.7551 26.8915 14.7532 26.9557C16.3532 27.0555 19.0656 27.1196 22.0066 27.1196C24.9476 27.1196 27.66 27.0555 29.2601 26.9557C30.2582 26.8915 31.0049 26.7846 31.4163 26.4852C31.6754 26.2998 32.0335 25.8792 32.2164 24.4607C32.4754 22.4148 32.4754 17.7527 32.2164 15.7068ZM19.0935 22.9809V17.1866L25.7521 20.0803L19.0935 22.9809Z" fill="white"/>
<defs>
<filter id="filter0_d" x="-0.965332" y="-0.57666" width="44.72" height="44.7089" filterUnits="userSpaceOnUse" color-interpolation-filters="sRGB">
<feFlood flood-opacity="0" result="BackgroundImageFix"/>
<feColorMatrix in="SourceAlpha" type="matrix" values="0 0 0 0 0 0 0 0 0 0 0 0 0 0 0 0 0 0 127 0"/>
<feOffset dy="2"/>
<feGaussianBlur stdDeviation="2"/>
<feColorMatrix type="matrix" values="0 0 0 0 0 0 0 0 0 0 0 0 0 0 0 0 0 0 0.08 0"/>
<feBlend mode="normal" in2="BackgroundImageFix" result="effect1_dropShadow"/>
<feBlend mode="normal" in="SourceGraphic" in2="effect1_dropShadow" result="shape"/>
</filter>
</defs>
</svg>
