<svg id="Layer_1" xmlns="http://www.w3.org/2000/svg" xmlns:xlink="http://www.w3.org/1999/xlink" viewBox="0 0 400 162.4"><style>.st0{fill:#0a51a1}.st1{fill:red}.st2{fill:#ffb316}.st3{fill:#008837}.st4{fill:#01a0c6}</style><path class="st0" d="M121 100.2c-3.1-.2-5.9-.6-9.3-.5v26.2c-1.5-.1-2.9-.2-4.3-.2s-2.8.1-4.3.2V99.7c-3.4-.2-6.3.3-9.3.5.2-1.6.1-2.7.1-4.1h27c0 1.3-.1 2.5.1 4.1zm21.9 39.4l-1.5-6.6h-2.7v8.7h1.7v-5.5l-.1-1.8.4 1.7 1.2 5.6h1.9l1.2-5.6.4-1.7-.1 1.8v5.5h1.7V133h-2.7l-1.4 6.6zm-7.3-44.1c-8.7.6-14.4 6.7-14.3 16.1 0 9.6 6.8 15.5 17 14.9 4.3-.6 7-2 7.7-2.8l1.1-3.2-.7-.7s-.6.5-.8.6c0 0-2 1.4-3.6 1.7-3.2.8-7.2.1-9.1-2.2-4-4.9-3.2-16.3 1-20.1 1-.9 2.4-1.5 4-1.5 3.9 0 5.6 2.8 6.4 6.4h1.3c.9-2.1 1.6-4.3 2.4-6.4-3.1-2.2-7.1-3.2-12.4-2.8zm32.7 11.9s5.4-5.4 8-8.2c.8-.8 1.8-2 2.6-3.1-.6.1-1.8.1-2.8.1-.9 0-1.8-.1-2.4-.3-1.6 1.8-8 9.1-10.8 11.9-.5.5-1 1.2-1.7 1.3-.2-4.2 0-8.8-.1-13.2-2.6.4-6 .4-8.6 0v29.9c2.8-.5 5.6-.3 8.5 0 .2-4.6 0-9.5.1-14.2 3.8 4 6 9.5 9 14.2 3.1-.4 6.4-.3 9.6 0l-11.4-18.4zM49.9 137.7H54v-1.5h-4.1v-1.7h4.5V133H48v8.7h6.5V140h-4.7v-2.3zm-21.8-3.5c.5.2.7.7 1 1.3h1.8c-.1-3.2-4.7-3.9-6.5-2-1.4 1.4-1.7 4.8-.4 6.6 1.6 2.3 6.7 1.9 6.9-1.7h-1.8c-.3.9-.5 1.2-1.1 1.4-3.9 1.7-4-7.3.1-5.6zm73.9 6c-.8 1.8-4 1.3-6.8 1.3v-8.7H97v3.2c1.3 0 2.9-.1 3.8.4 1.5.8 2 2.1 1.2 3.8zm-1.6-1.8c-.3-1-2-.7-3.4-.7v2.3c1.8.2 3.9.1 3.4-1.6zM92.9 111H74.6c.2 6.9 2.5 12.1 10.2 11.5 1.6-.1 3.9-1.1 5.3-2 .2-.1.8-.6.8-.6l.7.7-1.1 3.2c-.8.8-2.4 1.4-3.4 1.8-1.5.6-2.8.9-4.2 1-11.6.8-18.9-7.1-17.2-19.1.9-6.5 5.5-11.4 12.4-11.9 11.1-1 14.5 5.2 14.8 15.4zm-8.5-3c-.2-3.7-.5-8.3-3.1-9.5-1.3-.6-3-.1-3.8.6-2.1 1.6-2.7 5.3-2.8 8.9h9.7zm-13.1 26.5h2.6v7.1h1.8v-7.1h2.6V133h-7v1.5zm-7.9-13.3c-.4 2.1-.4 4.8-.1 6.6-1.2.2-1.5-.7-2.4-1.2-2-.9-5.2-.9-8.3-1.1-6.1-.2-12.4-.2-18.7 0-3.1.1-6.4 0-8.5.9-1 .4-1.6 1.4-2.6 1.3-.3-.6 0-1.3.1-2.1.1-1.5-.1-3.2-.3-4.5h2.5c5.5-12.2 10.6-24.8 15.4-37.7 1.8.3 3.4.3 5.2 0 4.7 12.7 9.6 25.3 14.6 37.7 1.1.1 2.1.1 3.1.1zm-13.5 0c-2.9-8.8-6.2-17.3-9.4-25.9-3.3 8.6-6.9 16.9-9.8 25.9 6.2.2 13 .3 19.2 0zM302.7 96c-2.3.4-4.5.4-6.7 0-2.7 6.7-5 13.7-7.7 20.3-2.3-6.9-4.9-13.5-7.3-20.3-2.2.4-4.4.4-6.5 0-2.7 10-5.3 20-8 29.9h4.9c1.1-7.2 2.3-14.3 3.8-21 2.4 7.1 4.9 14 7.4 21 2.5-.3 4.5-.2 7 0 1.9-7.5 4.7-14.2 7.4-20.9 1.3 6.9 2.5 13.9 3.7 20.9 3.2-.2 5.9-.3 9.1 0-2.9-9.4-5.2-19.5-7.1-29.9zm14 37.8c1.8 2.1 1.1 6.3-1.2 7.4-4.2 2.1-7.7-2.6-5.8-6.6.5-1.1 1.4-1.8 3.2-2 1.7-.3 3.1.4 3.8 1.2zm-3.8.4c-2.7.6-2.2 5.9.6 5.9 3.2-.1 3.1-6.7-.6-5.9zm-22.8 2h-3.3v-3.3h-1.7v8.7h1.7c.1-1.3-.1-2.8.1-3.8h3.3v3.8h1.8v-8.7h-1.8c0 1.1.1 2.4-.1 3.3zM342 138c1.3 3.8-3.7 3.8-7.1 3.6v-8.7c3.1 0 7.8-.7 6.9 2.9-.1.5-.5.8-1 1.1.5.4 1 .6 1.2 1.1zm-5.3-1.7c1.6 0 3.6.2 3.4-1.2-.2-1.1-2-.6-3.4-.7v1.9zm3.5 2c-.4-.8-2.3-.3-3.5-.5v2.2c1.8.3 4.3 0 3.5-1.7zM342 126V96.1c-2.1.2-4.2.2-6.3 0-3.9 6.4-8 13.1-12.6 18.6V96.1c-2.7.5-5.7.2-8.5 0-.2 9.8 0 20-.1 29.9 2-.4 4.2-.4 6.3 0 3.8-6.6 8-13.3 12.6-18.8v18.7c2.6-.3 5.7-.3 8.6.1zm35.3-14.7c-.1 8.5-4.5 15.9-13.5 15.2-3.4-.3-4.9-2-6.8-4.2v19.3c-2.6-.4-5.8-.4-8.5 0V96.1c2.7.2 5.5.2 8.2 0v5.2c1.7-3.6 4.2-6.2 9.8-5.8 8.2.6 10.9 8.1 10.8 15.8zm-9.1-2.1c-.2-4.8-1.1-10.1-5.8-9.7-2.9.2-4.1 2.5-4.8 4.8-1.5 4.8-1.5 15.3 2.4 17.5 1.1.7 2.9.6 3.8.3 3.8-1.5 4.6-7.3 4.4-12.9zM262 138.7v-5.8h-1.8v8.7h2c1.2-2 2.3-4.1 3.5-6.1v6.1h1.8v-8.7h-2.1c-1.1 2-2.2 4.3-3.4 5.8zm-16.7-50.8c-.6-.9-1.3-1.7-1.8-2.6-2.9 2.4-6.8 5.1-12 4.6-3.9-.4-6.6-2.5-8.9-4.6h-.3c-.6 1-1.3 1.8-1.9 2.7 2.7 3 7 5.5 12.5 5.4 5.4-.1 9.7-2.6 12.4-5.5zm-3.9 48.8c1.1-.1 1.5-1.8 1.2-2.7-.9-2.6-7.1-1.8-6.5 1.3h1.6c0-1.8 3.3-1.7 3.3-.3 0 .9-1 1.1-2.2 1.1v1.4c1.6-.2 2.8.5 2.4 1.7-.3 1-2.4.9-3.3.4-.1-.3-.3-.5-.3-1h-1.7c-.2 4.1 7.3 3.7 7.2.3-.1-1.2-.8-1.7-1.7-2.2zm-25.1-3.8c1 2.9 2 5.7 3 8.7h-2c-.1-.6-.4-1.1-.5-1.7h-3.1c-.3.5-.4 1.2-.7 1.7h-1.9c.9-3 2.1-5.7 3-8.7h2.2zm0 5.4c-.3-1.1-.7-2.3-1.2-3.3-.2 1.2-.8 2-1 3.3h2.2zm-4-42.2c-2.2.1-4.1.2-6.3 0-4 6.3-8 13.2-12.6 18.6V96.1c-2.6.3-5.8.2-8.5 0-.1 0-.1.2-.1.3v29.5c2.1-.3 4.2-.3 6.3 0 3.9-6.5 8-13.3 12.6-18.7v18.7c2.9-.4 5.6-.1 8.6 0V96.1zm34.3 0c-2 .2-4.3.3-6.3 0-4.1 6.3-8.1 13.2-12.7 18.6V96.1c-2.7.5-5.7.2-8.5 0-.2 9.8 0 20-.1 29.9 2-.4 4.3-.4 6.4 0 3.7-6.7 8-13.3 12.6-18.9V126c2.7-.5 5.6-.3 8.5 0 .3-9.8.1-20 .1-29.9zm-57.3 45.5h1.8v-7.1h4.3V133h-6.2c.1 2.8.1 5.7.1 8.6zm-20-8.7h-2.1l-3.2 8.7h2l.6-1.7h3.2l.6 1.7h2l-3.1-8.7zm-2.2 5.4l1.2-3.7 1.2 3.7h-2.4z"/><path class="st1" d="M138.1 47.7c.9 2.4-.4 5-2.7 5.8l-27.8 10.1c-2.4.9-5-.4-5.8-2.7L91.7 33.2c-.9-2.4.4-5 2.7-5.8l27.8-10.1c2.4-.9 5 .4 5.8 2.7l10.1 27.7z"/><image width="480" height="434" xlink:href="7D546598.png" transform="matrix(.24 0 0 .24 57.364 -17.11)" overflow="visible"/><path class="st2" d="M146.9 47.7c-.9 2.4.4 5 2.7 5.8l27.8 10.1c2.4.9 5-.4 5.8-2.7l10.1-27.8c.9-2.4-.4-5-2.7-5.8l-27.8-10.1c-2.4-.9-5 .4-5.8 2.7l-10.1 27.8z"/><image width="479" height="434" xlink:href="7D546599.png" transform="matrix(.24 0 0 .24 112.564 -17.11)" overflow="visible"/><path class="st3" d="M248.5 47.7c.9 2.4-.4 5-2.7 5.8L218 63.6c-2.4.9-5-.4-5.8-2.7l-10.1-27.8c-.9-2.4.4-5 2.7-5.8l27.8-10.1c2.4-.9 5 .4 5.8 2.7l10.1 27.8z"/><image width="480" height="434" xlink:href="7D54659F.png" transform="matrix(.24 0 0 .24 167.764 -17.11)" overflow="visible"/><path class="st4" d="M257.3 47.7c-.9 2.4.4 5 2.7 5.8l27.8 10.1c2.4.9 5-.4 5.8-2.7l10.1-27.8c.9-2.4-.4-5-2.7-5.8l-27.8-10.1c-2.4-.9-5 .4-5.8 2.7l-10.1 27.8z"/><image width="479" height="434" xlink:href="7D54659A.png" transform="matrix(.24 0 0 .24 222.964 -17.11)" overflow="visible"/></svg>