<svg id="Слой_1" xmlns="http://www.w3.org/2000/svg" viewBox="0 0 400 144"><style>.st0{fill:#0b4da0}.st1{fill:#fff514}.st2{fill:#0c479d}</style><path class="st0" d="M367 136.7V13.9H10.6v122.8H367z"/><path class="st1" d="M188.8 133.5c97 0 175.6-26.1 175.6-58.2 0-32.2-78.6-58.2-175.6-58.2S13.1 43.2 13.1 75.3c0 32.2 78.7 58.2 175.7 58.2z"/><path class="st2" d="M91.9 99.5c.8 0 1.2-.3.7-.8-.3-.4-.9-3.1-.9-5.9V59.7c0-2.8.6-5.5.9-5.9.4-.5.1-.8-.7-.8h-30c-.8 0-1.2.3-.7.8.3.4.9 3.1.9 5.9v33.1c0 2.8-.6 5.5-.9 5.9-.4.5-.1.8.7.8h30zm45-29.9l10.9-14.8c.4-.4.2-1.1.2-1.3 0-.3 0-.5.2-.5h29.5c.4 0 .2.3.1.5l-12.2 17c-.6.7-.4 1.4.1 2.1L182.5 99c.2.2.3.5-.1.5h-36.1c-.2 0-.2-.2-.2-.5s.6-2.7.1-3.1l-9.3-14.3v11.2c0 2.8.6 5.5.9 5.9.4.5.1.8-.7.8h-29c-.8 0-1.2-.3-.7-.8.3-.4.9-3.1.9-5.9V59.7c0-2.8-.6-5.5-.9-5.9-.4-.5-.1-.8.7-.8h29c.8 0 1.2.3.7.8-.3.4-.9 3.1-.9 5.9v9.9zm83.8 12.6c0-.2.1-.8.8-.8H233c1.2 0 5.5-.1 5.8.2.4.4.8.1.8-.6V69.9c0-.7-.5-.9-.8-.6-.4.4-4.6.2-5.8.2h-11.5c-.8 0-.8-.6-.8-.8v-2.3c0-.2.1-.8.8-.8H238c2.8 0 5.4.6 5.8.9.5.4.8.1.8-.7V53h-52c-.8 0-1.2.4-.7.9.3.4.9 3 .9 5.8v32.7c0 2.8-.6 5.4-.9 5.8-.4.5-.1.8.7.8h52V85.4c0-.8-.3-1.2-.8-.7-.4.3-3 .9-5.8.9h-16.5c-.8 0-.8-.6-.8-.8v-2.6zm106.4 16.9S309.8 58 309.6 57.4c-.2-.7-.5-1.9-.1-2.9.4-1.1.1-1.3-.7-1.3h-40.4c-.7 0-1.1.2-.7 1.3.4 1.1.2 2.2-.1 2.9-.2.7-15.5 41.7-15.5 41.7H277c.6 0 .7-.3.5-.7-.2-.4-.2-1.3.1-2l1.3-4.4c.4-1.2 1.1-1.4 2.1-1.4h10.9c1.1 0 1.7.2 2.1 1.4l1.3 4.4c.3.7.3 1.6.1 2-.2.4-.1.7.5.7h31.2zM283 81.5c-.4 0-.4-.4-.3-.7l2.7-6.4c.1-.2.2-.4.4-.4s.3.2.4.4l2.7 6.4c.1.3.1.7-.3.7H283zm97.9-63.3c1.6 0 3.1-.1 3.1-2.1 0-1.6-1.4-1.9-2.8-1.9h-2.6v3.9h2.3v.1zm-2.3 7.1h-1.9V12.7h4.8c3 0 4.5 1.1 4.5 3.6 0 2.3-1.4 3.3-3.3 3.5l3.6 5.6h-2.1l-3.3-5.5h-2.2v5.4h-.1zm2.3 2.8c5 0 8.9-3.9 8.9-9.2 0-5.2-3.9-9.1-8.9-9.1s-8.9 3.9-8.9 9.1c0 5.3 3.9 9.2 8.9 9.2zM369.8 19c0-6.3 5.1-10.9 11.1-10.9S392 12.7 392 19c0 6.4-5.1 11-11.1 11s-11.1-4.7-11.1-11z"/></svg>