<svg id="Слой_1" xmlns="http://www.w3.org/2000/svg" viewBox="0 0 400 106"><style>.st0{fill:#007bc4}.st1{fill:#00ace9}.st2{fill:#95c11f}.st3{fill:#f6a000}.st4{fill:#e63323}.st5{fill:#b04191}</style><path class="st0" d="M193.6 42.4c0 5.1-4.2 9.2-9.2 9.2h-19.9c-5.1 0-9.2-4.2-9.2-9.2v-8.5c0-5.4 3.6-9.2 9.2-9.2h19.9c5.7 0 9.2 3.8 9.2 9.2v8.5zM187 13.9h-25.1c-10.2 0-18.5 8.3-18.5 18.5V44c0 10.2 8.3 18.5 18.5 18.5H187c10.2 0 18.5-8.3 18.5-18.5V32.3c0-10.1-8.3-18.4-18.5-18.4M60.8 42.4c0 5.1-4.2 9.2-9.2 9.2H31.7c-5.1 0-9.2-4.2-9.2-9.2v-8.5c0-5.4 3.6-9.2 9.2-9.2h19.9c5.7 0 9.2 3.8 9.2 9.2v8.5zm-6.7-28.5h-25c-10.2 0-18.5 8.3-18.5 18.5V44c0 10.2 8.3 18.5 18.5 18.5h25.1c10.2 0 18.5-8.3 18.5-18.5V32.3c-.1-10.1-8.4-18.4-18.6-18.4m173.5 47.9V33.9c0-5.4 3.6-9.2 9.2-9.2h18.4c5.7 0 9.2 3.8 9.2 9.2v27.9h11.8V32.3c0-10.2-8.3-18.5-18.5-18.5h-23.6c-10.2 0-18.5 8.3-18.5 18.5v29.4h12z"/><path class="st1" d="M289.1 61h-2c-1.9 0-3.4 1.5-3.4 3.4v2c0 1.9 1.5 3.4 3.4 3.4h2c1.9 0 3.4-1.5 3.4-3.4v-2c0-1.9-1.5-3.4-3.4-3.4m92.1-46.5v27.9c0 5.4-3.6 9.2-9.2 9.2h-15.5c-5.7 0-9.2-3.8-9.2-9.2V14.5h-11.8V44c0 10.2 8.3 18.5 18.5 18.5h20.7c10.2 0 18.5-8.3 18.5-18.5V14.5h-12zM321 25.3h4.2l1.9-10.8h-8.7c-10.2 0-18.5 8.3-18.5 18.5v28.8h11.8V34.6c0-5.4 3.6-9.3 9.3-9.3"/><path class="st0" d="M173.5 88c0 1.8-1.2 3-3.2 3H168c-.3 0-.5-.2-.5-.5V85h2.9c2 0 3.1 1.1 3.1 3m-2.7-5.9h-3.3v-4.2c0-1.5-.8-2.2-2.4-2.2h-3.6V79h1.6c.4 0 .6.2.6.6v12.1c0 1.5.7 2.1 2.1 2.1h5c3.9 0 6.6-2.3 6.6-5.8 0-3.6-2.5-5.9-6.6-5.9m12.9 7.8V75.7h-3.8v15.7c0 1.7.8 2.4 2.4 2.4h3.5v-3.3h-1.6c-.3 0-.5-.2-.5-.6m15 1c-2.9 0-4.8-2.1-4.8-5.3 0-3 2.1-5.1 4.9-5.1 2.3 0 4.7 1.6 4.7 5.2-.1 3.1-2 5.2-4.8 5.2m.8-13.6c-2.6 0-4.5.9-6 2.8.2-2.6 1.6-4.4 4-5.4l4.2-1.8c2.4-1 3.8-1.6 3.8-4v-1.7h-3.7v1c0 .7-.2 1-1.9 1.7l-3.9 1.7c-5.1 2.3-6.1 6.1-6.1 11.6 0 7.1 3.1 11.1 8.7 11.1 5.2 0 8.8-3.4 8.8-8.6 0-5.1-3.2-8.4-7.9-8.4m29.9 12.6V75.7h-3.7L218 86.4c-.4.5-.9 1.3-1.3 1.9 0-.5.1-1.2.1-1.7v-8.4c0-1.7-.8-2.4-2.4-2.4h-3.3V79h1.6c.4 0 .5.2.5.6v14.3h3.7l7.7-10.7c.4-.5.9-1.3 1.3-1.9 0 .5-.1 1.2-.1 1.8v8.4c0 1.7.8 2.4 2.4 2.4h3.3v-3.3H230c-.4-.1-.6-.3-.6-.7m16.2-11.3c2.9 0 4.8 2.5 4.8 6.1 0 3.6-2 6.1-4.9 6.1-3.2 0-4.8-3.1-4.8-6.1 0-4.5 2.5-6.1 4.9-6.1m.7-3.4c-3.3 0-5 1.8-5.7 2.7v-.3c0-1.3-.8-2-2.4-2h-3.4V79h1.6c.4 0 .6.2.6.6v21.3h3.8v-9c.7.8 2.3 2.4 5.3 2.4 4.9 0 8.3-3.9 8.3-9.5-.1-5.7-3.3-9.6-8.1-9.6M265 91.1c-2.1 0-3.1-1.4-3.1-2.7 0-2.2 2.3-3.2 7-3.2h.7v.5c0 2.6-1.9 5.4-4.6 5.4m8.4-1.2v-7.5c0-4.9-2.4-7.1-7.6-7.1-2.3 0-6.3.7-6.3 3.5v2h3.6v-1.2c0-.9 1.8-1.2 2.7-1.2 2.7 0 3.7 1.1 3.7 4h-.5c-7.3 0-10.9 2.2-10.9 6.4 0 3.6 3.1 5.5 6.2 5.5 2.2 0 3.7-1 4.6-1.8.4-.4.8-.8 1-1.2v.3c0 1.5.8 2.2 2.4 2.2h3.4v-3.3h-1.6c-.6 0-.7-.2-.7-.6m23.4 0V75.7h-3.7l-7.7 10.7c-.4.5-.9 1.3-1.3 1.9 0-.5.1-1.2.1-1.7v-8.4c0-1.7-.8-2.4-2.4-2.4h-3.3V79h1.6c.4 0 .5.2.5.6v14.3h3.7l7.7-10.7c.4-.5.9-1.3 1.3-1.9 0 .5-.1 1.2-.1 1.8v8.4c0 1.7.8 2.4 2.4 2.4h3.3v-3.3h-1.6c-.3-.1-.5-.3-.5-.7m20.4-14.2h-12.9c-1.7 0-2.4.7-2.4 2.4V81h3.2v-1.4c0-.4.2-.6.6-.6h3.2v14.8h3.8V79h3.2c.4 0 .6.2.6.6V81h3.2v-3c-.1-1.6-.8-2.3-2.5-2.3m14.9 2.6c2.3 0 3.9 1.7 4.1 4.3h-9c.5-2.6 2.3-4.3 4.9-4.3m0-3.1c-5.4 0-9.1 3.9-9.1 9.5 0 5.5 4.1 9.5 9.6 9.5 2.6 0 5.3-1 7-2.6l.1-.1-1.6-2.8-.2.2c-1.4 1.3-3.3 2-5.1 2-2.7 0-5.6-1.7-5.9-5.6h12.9v-.2c.1-.5.1-.9.1-1.4.1-5.1-3-8.5-7.8-8.5M133.9 51.1h-34l33.6-25c1.6-1.2 2.6-3.1 2.6-5.2 0-3.4-2.7-6.2-6.6-6.4H80.3v.1l1.9 10.6h34.1l-33.7 25C81 51.4 80 53.3 80 55.4c0 3.5 2.5 6.4 6.9 6.4h48.9v-.1l-1.9-10.6zM150.7 91h-2.9c-.3 0-.5-.2-.5-.5v-4.7h3.4c2.2 0 3.4.9 3.4 2.6 0 1.7-1.2 2.6-3.4 2.6m-3.4-12.5h3c1.3 0 2.9.4 2.9 2.3 0 1.5-1 2.4-2.8 2.4h-3.1v-4.7zm7.6 5.8c1.4-.8 2.2-2.1 2.2-3.8 0-3-2.3-4.8-6.1-4.8h-10l.6 3.3h1.9v12.7c0 1.5.7 2.1 2.2 2.1h5.6c4.1 0 6.7-2 6.7-5.2-.1-2.1-1.3-3.7-3.1-4.3M19 76.7c-4.9 0-8.5 3.5-8.5 8.1s3.7 8.1 8.5 8.1c4.9 0 8.5-3.5 8.5-8.1.1-4.6-3.6-8.1-8.5-8.1"/><path class="st2" d="M44.7 76.7c-4.9 0-8.5 3.5-8.5 8.1s3.7 8.1 8.5 8.1c4.9 0 8.5-3.5 8.5-8.1s-3.6-8.1-8.5-8.1"/><path class="st3" d="M70.4 76.7c-4.9 0-8.5 3.5-8.5 8.1s3.7 8.1 8.5 8.1c4.9 0 8.5-3.5 8.5-8.1s-3.7-8.1-8.5-8.1"/><path class="st4" d="M96 76.7c-4.9 0-8.5 3.5-8.5 8.1s3.7 8.1 8.5 8.1c4.9 0 8.5-3.5 8.5-8.1.1-4.6-3.6-8.1-8.5-8.1"/><path class="st5" d="M121.7 76.7c-4.9 0-8.5 3.5-8.5 8.1s3.7 8.1 8.5 8.1c4.9 0 8.5-3.5 8.5-8.1s-3.6-8.1-8.5-8.1"/></svg>