<svg id="Layer_1" xmlns="http://www.w3.org/2000/svg" viewBox="0 0 400 210"><style>.st0{fill:#86983f}.st1{fill-rule:evenodd;clip-rule:evenodd}.st1,.st2{fill:#66513f}</style><path class="st0" d="M77.7 21.9c-22.3 0-40.4 18.1-40.4 40.4 0 22.3 18.1 40.4 40.4 40.4 22.3 0 40.4-18.1 40.4-40.4 0-22.3-18.1-40.4-40.4-40.4zM30.2 62.3c0-26.2 21.2-47.4 47.4-47.4S125 36.1 125 62.3s-21.2 47.5-47.4 47.5c-26.1-.1-47.4-21.3-47.4-47.5zm16.3-13.7c5.2-12 17.3-20.4 31.2-20.4 7.3 0 14 2.3 19.5 6.2 8.7 6.2 14.5 16.3 14.5 27.8 0 6-1.5 11.6-4.3 16.5-9.1.9-18-2.7-22.4-7.6 11.7-8 14.9-22.5 12.6-36.5-13.9 3.7-26.3 12.7-28.5 27.8-5-7.4-13.2-12.6-22.6-13.8zM92 43.3c.7 11.8-6 21.1-16.4 26.1 6 9.7 15.6 15.3 27.2 15.7-6.2 6.9-15.2 11.2-25.1 11.2-1 0-1.9 0-2.8-.1V69c0-11 6-21.5 17.1-25.7zM68.3 95c-14.2-4.1-24.6-17.2-24.6-32.7 0-2.5.3-5 .8-7.4h.1c13.3 1.3 23.7 12 23.7 26.2V95z"/><path class="st0" d="M77.7 21.9c-22.3 0-40.4 18.1-40.4 40.4 0 22.3 18.1 40.4 40.4 40.4 22.3 0 40.4-18.1 40.4-40.4 0-22.3-18.1-40.4-40.4-40.4zM30.2 62.3c0-26.2 21.2-47.4 47.4-47.4S125 36.1 125 62.3s-21.2 47.5-47.4 47.5c-26.1-.1-47.4-21.3-47.4-47.5zm16.3-13.7c5.2-12 17.3-20.4 31.2-20.4 7.3 0 14 2.3 19.5 6.2 8.7 6.2 14.5 16.3 14.5 27.8 0 6-1.5 11.6-4.3 16.5-9.1.9-18-2.7-22.4-7.6 11.7-8 14.9-22.5 12.6-36.5-13.9 3.7-26.3 12.7-28.5 27.8-5-7.4-13.2-12.6-22.6-13.8zM92 43.3c.7 11.8-6 21.1-16.4 26.1 6 9.7 15.6 15.3 27.2 15.7-6.2 6.9-15.2 11.2-25.1 11.2-1 0-1.9 0-2.8-.1V69c0-11 6-21.5 17.1-25.7zM68.3 95c-14.2-4.1-24.6-17.2-24.6-32.7 0-2.5.3-5 .8-7.4h.1c13.3 1.3 23.7 12 23.7 26.2V95z"/><path class="st1" d="M386 167.2h-7.7l-6.6-13.3h-8v13.3h-6.8v-33.5h18.3c5.6 0 10.1 4.5 10.1 10.1 0 4.3-2.7 8-6.5 9.4l7.2 14zm-22.2-27.7v8.9H374c2.5 0 4.5-2 4.5-4.5s-2-4.5-4.4-4.5h-10.3z"/><path class="st1" d="M386 167.2h-7.7l-6.6-13.3h-8v13.3h-6.8v-33.5h18.3c5.6 0 10.1 4.5 10.1 10.1 0 4.3-2.7 8-6.5 9.4l7.2 14zm-22.2-27.7v8.9H374c2.5 0 4.5-2 4.5-4.5s-2-4.5-4.4-4.5h-10.3zm-119.7 11c0-9.9 7.9-17.6 17.9-17.6 7.8 0 14.2 4.6 16.7 11.2l.3.8h-7.5c-2.1-3.6-5.5-5.8-9.5-5.8-6 0-11 5.1-11 11.3 0 6.2 4.9 11.3 11 11.3 4 0 7.5-2.2 9.5-5.8h7.5l-.3.8c-2.5 6.6-9 11.2-16.7 11.2-10 0-17.9-7.5-17.9-17.4z"/><path class="st1" d="M244.1 150.5c0-9.9 7.9-17.6 17.9-17.6 7.8 0 14.2 4.6 16.7 11.2l.3.8h-7.5c-2.1-3.6-5.5-5.8-9.5-5.8-6 0-11 5.1-11 11.3 0 6.2 4.9 11.3 11 11.3 4 0 7.5-2.2 9.5-5.8h7.5l-.3.8c-2.5 6.6-9 11.2-16.7 11.2-10 0-17.9-7.5-17.9-17.4zm-218 16.7v-12.9l-12.6-20.6h7.9l8.3 14.4 8.1-14.4h7.8L33 154.3v12.9z"/><path class="st1" d="M26.1 167.2v-12.9l-12.6-20.6h7.9l8.3 14.4 8.1-14.4h7.8L33 154.3v12.9zm28.7-33.5l8.3 24.8 8.4-24.8h7.3l-12.2 33.5h-7.2l-12-33.5z"/><path class="st1" d="M54.8 133.7l8.3 24.8 8.4-24.8h7.3l-12.2 33.5h-7.2l-12-33.5zm69.2 8.8c0 2.1.4 2.7 7.8 4.4 4.3 1 6.4 1.7 8.1 2.9 2.6 1.8 4 4.3 4 7.5 0 6.7-5.3 10.7-13.5 10.7-8.3 0-13.6-4.1-14.1-11.1h6.8c.6 3.7 3.1 5.5 7.8 5.5 4.2 0 6.4-1.8 6.4-4.5 0-1.5-.6-2.3-2.4-3.3-.7-.3-1.7-.6-2.8-.9l-1.2-.3-.7-.1c-4.4-1.1-7.7-2.2-9.1-3.2-2.3-1.5-3.5-3.9-3.5-6.9 0-6.2 5.1-10.1 12.6-10.1 7.4 0 12 3.5 12.6 9.9h-6.7c-.7-3-2.7-4.3-6.3-4.3-3.9-.1-5.8 1.4-5.8 3.8z"/><path class="st1" d="M124 142.5c0 2.1.4 2.7 7.8 4.4 4.3 1 6.4 1.7 8.1 2.9 2.6 1.8 4 4.3 4 7.5 0 6.7-5.3 10.7-13.5 10.7-8.3 0-13.6-4.1-14.1-11.1h6.8c.6 3.7 3.1 5.5 7.8 5.5 4.2 0 6.4-1.8 6.4-4.5 0-1.5-.6-2.3-2.4-3.3-.7-.3-1.7-.6-2.8-.9l-1.2-.3-.7-.1c-4.4-1.1-7.7-2.2-9.1-3.2-2.3-1.5-3.5-3.9-3.5-6.9 0-6.2 5.1-10.1 12.6-10.1 7.4 0 12 3.5 12.6 9.9h-6.7c-.7-3-2.7-4.3-6.3-4.3-3.9-.1-5.8 1.4-5.8 3.8zm182.4 11.4h-13.6v13.3h-6.9v-33.5h6.9v14.1h13.6v-14.1h6.8v33.5h-6.8z"/><path class="st1" d="M306.4 153.9h-13.6v13.3h-6.9v-33.5h6.9v14.1h13.6v-14.1h6.8v33.5h-6.8zm24.3-5.8h12.6v5.8h-12.6v7.3h17.7v6h-24.5v-33.5h24.5v6h-17.7z"/><path class="st1" d="M330.7 148.1h12.6v5.8h-12.6v7.3h17.7v6h-24.5v-33.5h24.5v6h-17.7zm-92.6 2.3c0 9.9-7.9 17.6-17.9 17.6-10.2 0-17.9-7.6-17.9-17.4 0-9.9 7.9-17.6 17.9-17.6 10-.1 17.9 7.6 17.9 17.4zm-28.9 0c0 6.3 4.9 11.3 11 11.3 6 0 10.9-5.1 10.9-11.3 0-6.2-4.9-11.3-10.9-11.3-6.1 0-11 5.1-11 11.3z"/><path class="st1" d="M238.1 150.4c0 9.9-7.9 17.6-17.9 17.6-10.2 0-17.9-7.6-17.9-17.4 0-9.9 7.9-17.6 17.9-17.6 10-.1 17.9 7.6 17.9 17.4zm-28.9 0c0 6.3 4.9 11.3 11 11.3 6 0 10.9-5.1 10.9-11.3 0-6.2-4.9-11.3-10.9-11.3-6.1 0-11 5.1-11 11.3zm-11.9 16.8h-7.7l-6.6-13.3h-8v13.3h-6.8v-33.5h18.3c5.6 0 10.1 4.5 10.1 10.1 0 4.3-2.7 8-6.5 9.4l7.2 14zM175 139.5v8.9h10.1c2.5 0 4.5-2 4.5-4.5s-2-4.5-4.4-4.5H175z"/><path class="st1" d="M197.3 167.2h-7.7l-6.6-13.3h-8v13.3h-6.8v-33.5h18.3c5.6 0 10.1 4.5 10.1 10.1 0 4.3-2.7 8-6.5 9.4l7.2 14zM175 139.5v8.9h10.1c2.5 0 4.5-2 4.5-4.5s-2-4.5-4.4-4.5H175zm-82.7 8.6h12.6v5.8H92.3v7.3h17.6v6H85.5v-33.5h24.4v6H92.3z"/><path class="st1" d="M92.3 148.1h12.6v5.8H92.3v7.3h17.6v6H85.5v-33.5h24.4v6H92.3z"/><path class="st2" d="M183.5 189.4h3.9l-1.9-5.4-2 5.4zm4.8 2.7h-5.8l-1.2 3.4H178l5.8-15.4h3.4l5.7 15.4h-3.4l-1.2-3.4z"/><path class="st2" d="M183.5 189.4h3.9l-1.9-5.4-2 5.4zm4.8 2.7h-5.8l-1.2 3.4H178l5.8-15.4h3.4l5.7 15.4h-3.4l-1.2-3.4zm20.6 3.4h-3.2V180h3.2l6.3 9.6V180h3.1v15.5h-3.1l-6.3-9.7z"/><path class="st2" d="M208.9 195.5h-3.2V180h3.2l6.3 9.6V180h3.1v15.5h-3.1l-6.3-9.7z"/><path class="st1" d="M131.7 186.6h6.1v2.7h-6.1v6.2h-3.1V180h10.8v2.8h-7.7z"/><path class="st1" d="M131.7 186.6h6.1v2.7h-6.1v6.2h-3.1V180h10.8v2.8h-7.7zm33.5 8.9h-3.5l-3.1-6.2h-3.2v6.2h-3.1V180h8c2.6 0 4.6 2.1 4.6 4.7 0 2-1.3 3.7-3 4.4l3.3 6.4zm-9.8-12.8v4.1h4.2c1.1 0 2.1-.9 2.1-2 0-1.2-.9-2.1-2.1-2.1h-4.2z"/><path class="st1" d="M165.2 195.5h-3.5l-3.1-6.2h-3.2v6.2h-3.1V180h8c2.6 0 4.6 2.1 4.6 4.7 0 2-1.3 3.7-3 4.4l3.3 6.4zm-9.8-12.8v4.1h4.2c1.1 0 2.1-.9 2.1-2 0-1.2-.9-2.1-2.1-2.1h-4.2zm75.8 5.1c0-4.6 3.6-8.1 8.3-8.1 3.6 0 6.5 2.1 7.7 5.2l.1.3h-3.5c-1-1.6-2.6-2.6-4.4-2.6-2.8 0-5.1 2.3-5.1 5.2 0 2.9 2.3 5.2 5.1 5.2 1.8 0 3.4-1 4.4-2.6h3.5l-.1.3c-1.2 3.1-4.1 5.2-7.7 5.2-4.7-.1-8.3-3.6-8.3-8.1z"/><path class="st1" d="M231.2 187.8c0-4.6 3.6-8.1 8.3-8.1 3.6 0 6.5 2.1 7.7 5.2l.1.3h-3.5c-1-1.6-2.6-2.6-4.4-2.6-2.8 0-5.1 2.3-5.1 5.2 0 2.9 2.3 5.2 5.1 5.2 1.8 0 3.4-1 4.4-2.6h3.5l-.1.3c-1.2 3.1-4.1 5.2-7.7 5.2-4.7-.1-8.3-3.6-8.3-8.1zm32.1-1.2h5.8v2.7h-5.8v3.4h7.6v2.8h-10.8V180h10.8v2.8h-7.6z"/><path class="st1" d="M263.3 186.6h5.8v2.7h-5.8v3.4h7.6v2.8h-10.8V180h10.8v2.8h-7.6z"/></svg>