<?xml version="1.0" encoding="UTF-8"?>
<!DOCTYPE svg PUBLIC "-//W3C//DTD SVG 1.1//EN" "http://www.w3.org/Graphics/SVG/1.1/DTD/svg11.dtd">
<!-- Creator: CorelDRAW -->
<svg xmlns="http://www.w3.org/2000/svg" xml:space="preserve" width="30px" height="30px" style="shape-rendering:geometricPrecision; text-rendering:geometricPrecision; image-rendering:optimizeQuality; fill-rule:evenodd; clip-rule:evenodd"
viewBox="0 0 30 30">
 <defs>
  <style type="text/css">
   <![CDATA[
    .fil0 {fill:#fff}
   ]]>
  </style>
 </defs>
 <g id="Layer_x0020_1">
  <metadata id="CorelCorpID_0Corel-Layer"/>
  <path class="fil0" d="M15 0c8.28307,0 15,6.71693 15,15 0,8.28307 -6.71693,15 -15,15 -8.28307,0 -15,-6.71693 -15,-15 0,-8.28307 6.71693,-15 15,-15zm3.28583 7.60394l1.65 0.992126 -8.21929 13.6299 -1.65354 -0.988583 8.22283 -13.6335zm-5.33504 0.475984c0.634252,0.640157 0.990945,1.49173 0.990945,2.39528l0 1.75276c0,0.905906 -0.356693,1.75276 -0.990945,2.38701 -1.3311,1.33346 -3.62008,1.3252 -4.95,0 -0.630709,-0.634252 -0.993307,-1.4811 -0.993307,-2.38701l0 -1.75276c0,-0.903543 0.362598,-1.75512 0.993307,-2.39528 1.32638,-1.32874 3.6189,-1.32874 4.95,0zm-3.58465 1.36417c-0.282283,0.27874 -0.437008,0.633071 -0.437008,1.0311l0 1.74449c0,0.393307 0.154724,0.753543 0.437008,1.03583 0.570472,0.572835 1.65472,0.572835 2.22402,0 0.27874,-0.282283 0.425197,-0.64252 0.425197,-1.03583l0 -1.74449c0,-0.390945 -0.146457,-0.752362 -0.425197,-1.0311 -0.569291,-0.57874 -1.64764,-0.584646 -2.22402,0zm7.67362 5.93976c1.33937,-1.3252 3.63071,-1.33346 4.95945,0 0.643701,0.634252 0.990945,1.49528 0.990945,2.38701l0 1.75157c0,0.904724 -0.347244,1.7563 -0.990945,2.39409 -1.3311,1.3311 -3.61772,1.3311 -4.95118,0 -0.638976,-0.637795 -0.990945,-1.48937 -0.990945,-2.39409l0 -1.75157c0,-0.891732 0.351969,-1.75276 0.982677,-2.38701zm1.36417 1.35945c-0.264567,0.277559 -0.425197,0.64252 -0.425197,1.02756l0 1.75157c0,0.392126 0.16063,0.753543 0.425197,1.03228 0.58937,0.583465 1.65354,0.57874 2.23583,0 0.270472,-0.27874 0.431102,-0.640157 0.431102,-1.03228l0 -1.75157c0,-0.385039 -0.16063,-0.75 -0.431102,-1.02756 -0.582283,-0.572835 -1.64528,-0.574016 -2.23583,0z"/>
 </g>
</svg>
