<?xml version="1.0" encoding="UTF-8"?>
<!DOCTYPE svg PUBLIC "-//W3C//DTD SVG 1.1//EN" "http://www.w3.org/Graphics/SVG/1.1/DTD/svg11.dtd">
<!-- Creator: CorelDRAW -->
<svg xmlns="http://www.w3.org/2000/svg" xml:space="preserve" width="31px" height="31px" style="shape-rendering:geometricPrecision; text-rendering:geometricPrecision; image-rendering:optimizeQuality; fill-rule:evenodd; clip-rule:evenodd"
viewBox="0 0 31 31">
 <defs>
  <style type="text/css">
   <![CDATA[
    .fil0 {fill:#fff}
   ]]>
  </style>
 </defs>
 <g id="Layer_x0020_1">
  <metadata id="CorelCorpID_0Corel-Layer"/>
  <path class="fil0" d="M7.59468 14.7205c-1.20121,-2.10242 1.102,-3.50442 2.0032,-4.30523 1.402,-1.30161 2.00202,-3.30363 0,-6.30725 -2.20281,-3.30481 -3.80443,-4.20601 -7.00884,-0.801989 -8.21123,11.4145 11.9153,33.041 23.9297,25.7321 3.60482,-3.00362 2.80401,-4.70563 -0.300008,-7.10924 -2.80283,-2.20281 -4.80603,-1.80241 -6.20803,-0.400404 -0.901204,0.800808 -2.50282,3.00362 -4.50602,1.70201 -2.90322,-1.90162 -6.20685,-5.50644 -7.91004,-8.51006l0 0zm22.7297 1.402c-0.100396,1.30161 -2.10242,1.30161 -2.0032,-0.100396 0.100396,-7.30885 -5.40604,-13.2169 -12.7161,-13.5169 -1.30161,-0.100396 -1.20121,-2.10242 0.100396,-2.00202 8.51124,0.400404 14.7193,7.10805 14.6189,15.6193l0 0zm-10.2133 -0.400404c0,1.40082 -1.9028,1.40082 -2.00202,0.0992151 -0.100396,-2.00202 -0.901204,-2.90322 -3.0048,-3.20323 -1.30161,-0.100396 -1.10082,-2.10242 0.200793,-2.0032 3.10402,0.400404 4.70563,2.1036 4.80603,5.10722l0 0zm5.10604 0.0992151c0.100396,1.30161 -1.90162,1.402 -2.00202,0.100396 -0.200793,-5.10604 -2.80401,-7.80965 -7.80965,-8.40966 -1.30161,-0.100396 -1.102,-2.1036 0.199611,-2.0032 6.00842,0.701593 9.41244,4.30523 9.61206,10.3125l0 0z"/>
 </g>
</svg>
