<?xml version="1.0" encoding="UTF-8"?>
<!DOCTYPE svg PUBLIC "-//W3C//DTD SVG 1.1//EN" "http://www.w3.org/Graphics/SVG/1.1/DTD/svg11.dtd">
<!-- Creator: CorelDRAW -->
<svg xmlns="http://www.w3.org/2000/svg" xml:space="preserve" width="30px" height="30px" style="shape-rendering:geometricPrecision; text-rendering:geometricPrecision; image-rendering:optimizeQuality; fill-rule:evenodd; clip-rule:evenodd"
viewBox="0 0 30 30">
 <defs>
  <style type="text/css">
   <![CDATA[
    .fil0 {fill:darkorange}
   ]]>
  </style>
 </defs>
 <g id="Layer_x0020_1">
  <metadata id="CorelCorpID_0Corel-Layer"/>
  <path class="fil0" d="M14.6681 30l-10.5992 0c-2.17677,0 -4.0689,-1.79882 -4.0689,-4.07008l0 -10.4102 14.6681 0 0 14.4803 0 0zm-10.5992 -30l10.5992 0 0 14.8571 -14.6681 0 0 -10.7882c0,-2.17677 1.89213,-4.0689 4.0689,-4.0689zm-0.56811 6.24567l2.65039 0 0 -2.65039 2.36575 0 0 2.65039 2.74488 0 0 2.36575 -2.74488 0 0 2.65039 -2.36575 0 0 -2.65039 -2.65039 0 0 -2.36575zm11.8299 -6.24567l10.5992 0c2.27126,0 4.07008,1.89213 4.07008,4.0689l0 10.7882 -14.6693 0 0 -14.8571zm3.50197 6.24567l7.75984 0 0 2.36575 -7.75984 0 0 -2.36575zm11.1673 9.27402l0 10.4102c0,2.27126 -1.79882,4.07008 -4.07008,4.07008l-10.5992 0 0 -14.4803 14.6693 0 0 0zm-11.1673 4.16457l7.75984 0 0 2.36575 -7.75984 0 0 -2.36575zm0 3.78543l7.75984 0 0 2.36575 -7.75984 0 0 -2.36575zm-13.3441 -4.25906l1.89213 1.89331 1.89331 -1.89331 1.60866 1.60866 -1.89213 1.89331 1.89213 1.9878 -1.60866 1.60866 -1.89331 -1.89331 -1.89213 1.89331 -1.70315 -1.60866 1.89213 -1.9878 -1.89213 -1.89331 1.70315 -1.60866z"/>
 </g>
</svg>
