<?xml version="1.0" encoding="utf-8"?>
<!-- Generator: Adobe Illustrator 17.1.0, SVG Export Plug-In . SVG Version: 6.00 Build 0)  -->
<!DOCTYPE svg PUBLIC "-//W3C//DTD SVG 1.1//EN" "http://www.w3.org/Graphics/SVG/1.1/DTD/svg11.dtd">
<svg version="1.1" id="Layer_1" xmlns="http://www.w3.org/2000/svg" xmlns:xlink="http://www.w3.org/1999/xlink" x="0px" y="0px"
	 viewBox="0 0 258 28.4" enable-background="new 0 0 258 28.4" xml:space="preserve">
<g id="BANK_LOGO">
	<g>
		<g>
			<path fill="#FFFFFF" d="M104.9,9.4c0.1-0.2,0.1-0.4,0-0.4c-0.1-0.1-1.4-0.9-1.4-0.9c-0.1-0.1-0.2-0.2-0.2-0.3
				c0-0.2,0.1-0.4,0.4-0.4c0.9-0.2,4-0.4,5-0.4c0.5,0,1.5,0,2.1,0.1c0.7,0.1,1.3,0.2,1.4,0.6c0.2,0.7-0.2,1.1-0.5,1.4
				c-0.2,0.1-2.4,2.2-5,4.5c-2.3,2-4.9,4.1-6.4,5.2c-2.1,1.5-2.5,1.8-2.5,1.8c-0.1,0-0.1,0.1-0.2,0.1c-0.2,0-0.4-0.2-0.4-0.4
				c0-0.1,0-0.2,0.1-0.2c0,0,4.1-5.9,4.9-7c0.7-1,2.5-3.3,2.5-3.3S104.8,9.7,104.9,9.4z"/>
			<g>
				<path fill="#EC2227" d="M104.7,9.7c0,0,0,0,0.1-0.2s0.1-0.4,0-0.4c-0.1-0.1-1.4-0.9-1.4-0.9c-0.1-0.1-0.2-0.2-0.2-0.3
					c0-0.2,0.1-0.4,0.4-0.4c0.9-0.2,4-0.4,5-0.4c0.4,0,0.9,0,1.4,0c0.1,0,0.1,0,0.1,0c-1.5-1.3-3.5-2.1-5.7-2.1
					c-4.8,0-8.8,3.9-8.8,8.8c0,2.1,0.7,4.1,2,5.6c1.1-1.6,3.8-5.4,4.4-6.3C102.9,12,104.7,9.7,104.7,9.7z"/>
				<path fill="#EC2227" d="M112.6,10.3L112.6,10.3c0.4-0.4,0.7-0.8,0.7-1.2c-0.1-0.9-1.1-1.6-1.1-1.6s0,0-0.1,0
					c0.1,0.1,0.1,0.1,0.1,0.2c0.2,0.7-0.2,1.1-0.5,1.4c-0.2,0.1-2.4,2.2-5,4.5c-2.3,2-4.9,4.1-6.4,5.2c-2.1,1.5-2.5,1.8-2.5,1.8
					c-0.1,0-0.1,0.1-0.2,0.1c-0.1,0-0.2-0.1-0.3-0.2c0,0.1,0,0.2,0.2,0.4l0.1,0.1c0.1,0.1,0.4,0.4,0.6,0.6c0.4,0.4,0.6,0.2,1.5-0.5
					l0,0c1.4,0.9,3,1.5,4.9,1.5c4.8,0,8.8-3.9,8.8-8.8C113.3,12.5,113.1,11.3,112.6,10.3z"/>
			</g>
		</g>
		<g>
			<g>
				<g>
					<path fill="#010101" d="M142.6,10.5c-1.4,0-2.5,1.1-2.5,2.5v2.2h-3.5v-4.6h-0.1c-1.4,0-2.5,1.1-2.5,2.5v8.5h0.1
						c1.4,0,2.5-1.1,2.5-2.5V17h3.5v4.6h2.7V10.5H142.6L142.6,10.5z"/>
					<path fill="#010101" d="M127.5,6.5c-3.1,0-5.1,2.7-5.3,6.5h-3.1V6.7l0,0c-1.5,0-2.7,1.2-2.7,2.7v12.2l0,0l0,0l0,0
						c1.5,0,2.7-1.2,2.7-2.7V15h3.1c0.2,3.6,2.2,6.9,5.3,6.9c3.5,0,5.4-3.5,5.4-7.9C133,9.7,131,6.5,127.5,6.5z M127.5,19.6
						c-1.6,0-2.7-2.7-2.7-5.8s1.1-5.3,2.7-5.3c1.5,0,2.7,2.2,2.7,5.3C130.2,17.4,129.2,19.6,127.5,19.6z"/>
					<path fill="#010101" d="M152.1,10.5c-0.9,0-1.7,0.2-2.3,1.2l-3.5,6v-7.2h-2.7v11.1h1.1c0.9,0,1.6-0.2,2.3-1.2l3.7-6.2v5
						c0,1.4,1.2,2.5,2.5,2.5h0.1V10.5H152.1z"/>
					<path fill="#010101" d="M205.3,10.5c-0.9,0-1.7,0.2-2.3,1.2l-3.5,6v-7.2h-2.7v11.1h1.1c0.9,0,1.6-0.2,2.3-1.2l3.7-6.2v5
						c0,1.4,1.2,2.5,2.5,2.5h0.1V10.5H205.3z"/>
					<path fill="#010101" d="M162.8,16.2c-0.6-1.4-1.5-2.4-2.8-2.9l4.8-6.6h-3l-4.6,6.6V6.7h-0.1c-1.5,0-2.7,1.1-2.7,2.6v12.3h0.1
						c1.5,0,2.7-1.1,2.7-2.6v-4.5c1.4,0,2.4,0.9,2.9,2.1l2,5.1h3L162.8,16.2z"/>
					<path fill="#010101" d="M215.1,10.5h-7.9v2.1h2.7v8.9h0.1c1.4,0,2.5-1.1,2.5-2.5v-6.4h2.7L215.1,10.5
						C215.2,10.5,215.1,10.5,215.1,10.5z"/>
					<path fill="#010101" d="M195.1,19.5l-0.9-9h-6.3l-0.4,2.7c-0.4,2.4-0.9,5.4-3,6.7l0.2,4.6h0.1c1.1,0,1.9-0.9,1.9-1.9l0.1-1h7.2
						l0.1,2.9h0.1c1.1,0,1.9-0.9,1.9-1.9l0.1-2.7L195.1,19.5z M187.7,19.6c1.2-1.3,1.8-3.7,2.1-5.4l0.2-1.6h2l0.6,7.1
						C192.6,19.6,187.7,19.6,187.7,19.6z"/>
					<path fill="#010101" d="M184.2,15.8c0-3.3-1.6-5.3-4.5-5.3s-4.7,2.2-4.7,5.6c0,3.5,1.9,5.6,5.1,5.6c1.8,0,3-0.4,3.7-0.8v-2.2
						c-0.7,0.5-1.6,1.1-3.4,1.1c-1.7,0-2.5-0.9-2.8-2.7l6.6-0.9L184.2,15.8L184.2,15.8z M177.4,15.3c0-2,0.7-3,2.2-3h0.1
						c0.7,0,2.1,0.2,2.2,2.4L177.4,15.3z"/>
					<path fill="#010101" d="M169.2,10.5c-1.5,0-2.7,0.2-3.7,0.7l-0.1,0.1v14.6h0.1c1.4,0,2.5-1.1,2.5-2.5v-1.9
						c0.4,0.1,0.9,0.2,1.5,0.2c2.8,0,4.8-2.3,4.8-5.7S172.4,10.5,169.2,10.5L169.2,10.5z M169,20.1c-0.4,0-0.7-0.1-0.9-0.1v-7.5
						c0.3-0.1,0.7-0.2,1.1-0.2c1.7,0,2.5,1.2,2.5,3.9C171.6,17.9,171.2,20.1,169,20.1z"/>
				</g>
			</g>
			<g>
				<path fill="#010101" d="M247.6,10.5c-1.4,0-2.5,1.1-2.5,2.5v2.2h-3.5v-4.6h-0.1c-1.4,0-2.5,1.1-2.5,2.5v8.5h0.1
					c1.4,0,2.5-1.1,2.5-2.5V17h3.5v4.6h2.7V10.4L247.6,10.5L247.6,10.5L247.6,10.5z"/>
				<path fill="#010101" d="M256.4,18.1c-0.6-1.2-1.3-2-2.4-2.5l3.9-5h-2.8l-3.8,5v-5h-2.7v11.1h0.1c1.4,0,2.5-1.1,2.5-2.5v-2.5
					c1.1,0,1.9,0.8,2.4,1.8l1.6,3.2h2.8L256.4,18.1z"/>
				<path fill="#010101" d="M223.9,12.3c-0.7,0-1.4,0.1-1.7,0.2V9h3.5c1.2,0,2.3-1,2.3-2.3V6.6h-8.4v14.9h4.3c3.2,0,5.6-1.7,5.6-4.7
					C229.4,14.4,227.4,12.3,223.9,12.3z M223.8,19.8h-1.6v-5.3c0.3-0.1,0.9-0.2,1.4-0.2c1.9,0,3,1.1,3,2.5
					C226.6,18.4,225.6,19.8,223.8,19.8z"/>
				<path fill="#010101" d="M229.7,18.4c0,2,1.5,3.3,4.5,3.3h0.6c1.1,0,2.7-0.2,3.5-0.3v-7.1c0-2.8-1.9-3.9-4.1-3.9
					c-1.7,0-3,0.5-3.7,0.8v1.7c1.2-0.6,2.2-1,3.3-1c1.2,0,2.1,0.4,2.1,1.8v0.7C232.5,14.9,229.7,15.6,229.7,18.4L229.7,18.4z
					 M235.8,20.2c-0.2,0.1-0.9,0.1-1.5,0.1c-1.4,0-2.2-0.6-2.2-2c0-1.9,1.4-2.3,3.7-2.5V20.2z"/>
			</g>
		</g>
	</g>
</g>
<g id="Brand_Line">
	<g>
		<path fill="#010101" d="M1,6.4c0.6-0.1,1.1-0.1,1.5-0.1c2,0,3,0.7,3,2.4v0.1c0,1.9-1.2,2.5-3.4,2.5c-0.8,0-1.3,0-1.7-0.1
			C0,11.1,0,11.1,0,10.8V2.7c0-0.1,0.1-0.2,0.2-0.2h4.3c0.1,0,0.2,0.1,0.2,0.2v0.4c0.1,0.1,0.1,0.1,0,0.1H1V6.4z M1,7.2v3.1
			c0,0.1,0,0.2,0.2,0.2s0.5,0,0.9,0c1.7,0,2.4-0.6,2.4-1.7V8.7c0-1.1-0.7-1.6-2-1.6C2.1,7.1,1.6,7.1,1,7.2z"/>
		<path fill="#010101" d="M10.5,10.7L10.5,10.7c-0.3,0.5-0.8,0.7-1.5,0.7H8.4c-0.6,0-1.1-0.2-1.5-0.5c-0.3-0.3-0.5-0.7-0.5-1.3V9.2
			c0-0.8,0.4-1.4,1.1-1.7c0.3-0.1,0.8-0.2,1.6-0.2h0.4c0.3,0,0.6,0,0.9,0.1V6.6c0-1.1-0.5-1.4-1.7-1.4c-0.4,0-0.9,0.1-1.4,0.2
			c-0.2,0-0.3,0-0.4-0.1V5C6.8,4.8,6.9,4.7,7,4.6c0.4-0.1,1.1-0.2,1.7-0.2c1.7,0,2.5,0.6,2.5,2V11c0,0.1,0,0.1-0.1,0.1h-0.4
			c-0.1,0-0.2-0.1-0.2-0.1V10.7z M10.4,8.2c-0.2,0-0.5-0.1-0.8-0.1H8.9C8.3,8.1,8,8.2,7.7,8.3C7.5,8.5,7.3,8.8,7.3,9.2v0.3
			c0,0.4,0.1,0.7,0.3,0.9c0.2,0.2,0.4,0.2,0.8,0.2H9c0.9,0,1.4-0.5,1.4-1.4C10.4,9.3,10.4,8.2,10.4,8.2z"/>
		<path fill="#010101" d="M18.2,11.2C18.2,11.3,18.1,11.3,18.2,11.2l-0.8,0.1c-0.1,0-0.1,0-0.1-0.1V8.3h-3.4v2.9
			c0,0.1-0.1,0.1-0.1,0.1h-0.7c-0.1,0-0.1,0-0.1-0.1V4.8c0-0.1,0.1-0.1,0.2-0.1h0.6c0.1,0,0.2,0.1,0.2,0.1v2.7h3.4V4.8
			c0-0.1,0.1-0.1,0.2-0.1H18c0.1,0,0.2,0.1,0.2,0.1V11.2z"/>
		<path fill="#010101" d="M24.7,5.4c-0.5,0-0.6,0.1-0.7,0.9L23.8,7c-0.1,0.6-0.4,0.8-0.8,0.9V8c0.3,0.1,0.4,0.2,0.9,1.1l1.3,2.1
			c0.1,0.1,0,0.2-0.1,0.2h-0.6c-0.1,0-0.2,0-0.2-0.1L23,9.1c-0.4-0.7-0.6-0.8-1.1-0.8H21v3c0,0.1-0.1,0.1-0.1,0.1h-0.7
			c-0.1,0-0.1,0-0.1-0.1V4.8c0-0.1,0.1-0.1,0.2-0.1h0.6c0.1,0,0.2,0.1,0.2,0.1v2.7h1c0.7,0,0.9-0.2,1.1-0.8L23.4,6
			c0.2-1.1,0.6-1.3,1.5-1.3H25c0.1,0,0.1,0,0.1,0.1v0.5c0,0.1-0.1,0.1-0.1,0.1L24.7,5.4L24.7,5.4z"/>
		<path fill="#010101" d="M29.4,10.6c0.6-0.8,0.9-1.8,1-3.4l0.1-2.4c0-0.1,0.1-0.1,0.2-0.1h3.8c0.1,0,0.2,0.1,0.2,0.1v5.8h0.8
			c0.1,0,0.1,0,0.1,0.1v2.5c0,0.1-0.1,0.1-0.1,0.1h-0.6c-0.1,0-0.1,0-0.1-0.1v-1.9h-5.2v1.9c0,0.1,0,0.1-0.1,0.1h-0.6
			c-0.1,0-0.1-0.1-0.1-0.1v-2.5c0-0.1,0.1-0.1,0.1-0.1H29.4z M33.7,10.6V5.4h-2.4l-0.1,1.9c-0.1,1.4-0.3,2.4-0.9,3.3
			C30.3,10.6,33.7,10.6,33.7,10.6z"/>
		<path fill="#010101" d="M36.4,11.3L36.1,11c-0.1-0.1-0.1-0.1,0-0.2c0.9-1,1.2-1.7,1.3-4.1l0.1-1.8c0-0.1,0.1-0.1,0.2-0.1h4
			c0.1,0,0.2,0.1,0.2,0.1v6.4c0,0.1-0.1,0.1-0.1,0.1H41c-0.1,0-0.1,0-0.1-0.1V5.4h-2.6l-0.1,1.5c-0.1,2.3-0.6,3.4-1.5,4.3
			C36.6,11.4,36.5,11.4,36.4,11.3z"/>
		<path fill="#010101" d="M47.9,11.2C47.9,11.3,47.8,11.3,47.9,11.2l-0.8,0.1c-0.1,0-0.1,0-0.1-0.1V8.4h-0.9c-0.6,0-0.9,0.2-1.2,0.9
			l-1,1.9c-0.1,0.1-0.2,0.1-0.4,0.1H43c-0.1,0-0.2-0.1-0.1-0.2l0.9-1.6c0.5-0.9,0.7-1.1,0.9-1.2v0.1c-1.2-0.2-1.6-0.8-1.6-1.7V6.4
			c0-1.4,0.9-1.9,2.7-1.9c0.6,0,1.2,0,1.7,0.1c0.3,0.1,0.4,0.2,0.4,0.4C47.9,5,47.9,11.2,47.9,11.2z M47.1,5.4
			C47.1,5.3,47.1,5.3,47.1,5.4c-0.7-0.2-1-0.2-1.2-0.2c-1.3,0-1.8,0.4-1.8,1.1v0.1c0,0.7,0.4,1.2,1.7,1.2h1.4L47.1,5.4L47.1,5.4z"/>
		<path fill="#010101" d="M53.1,11.3c-0.2-0.1-0.3-0.2-0.3-0.3V5c0-0.1,0.1-0.2,0.3-0.3c0.3-0.1,1.1-0.1,1.9-0.1
			c1.1,0,1.7,0.2,2.1,0.6c0.2,0.2,0.4,0.6,0.4,1.1v0.1c0,0.7-0.3,1.2-0.9,1.4v0.1c0.8,0.1,1.3,0.6,1.3,1.5v0.1
			c0,0.6-0.1,1.1-0.4,1.4c-0.4,0.4-1,0.6-2.4,0.6C54.2,11.3,53.4,11.3,53.1,11.3z M53.6,5.5v1.9h1.1c1,0,1.4-0.1,1.6-0.3
			c0.2-0.2,0.2-0.4,0.2-0.7V6.3c0-0.7-0.4-1.1-1.6-1.1c-0.6,0-1.1,0-1.2,0.1C53.7,5.4,53.6,5.4,53.6,5.5z M56.7,10.2
			C56.9,10,57,9.8,57,9.4V9.3c0-0.3-0.1-0.6-0.2-0.7c-0.2-0.2-0.7-0.4-2-0.4h-1.1v2.2c0,0.1,0.1,0.2,0.2,0.2c0.2,0,0.7,0,1.3,0
			C56,10.6,56.4,10.5,56.7,10.2z"/>
		<path fill="#010101" d="M63.3,10.8c0.1,0.2,0.1,0.2-0.2,0.3c-0.4,0.1-1.1,0.2-1.5,0.2c-0.9,0-1.5-0.2-1.9-0.6
			c-0.6-0.6-0.8-1.5-0.8-2.7V7.6c0-1.2,0.2-2,0.8-2.6c0.4-0.4,1.1-0.6,1.9-0.6c0.7,0,1.5,0.3,1.9,0.6c0.1,0.1,0.1,0.1,0,0.2
			l-0.2,0.4c-0.1,0.1-0.1,0.1-0.2,0c-0.5-0.3-1-0.4-1.5-0.4s-0.9,0.1-1.2,0.4c-0.5,0.5-0.6,1.4-0.6,2.1v0.2c0,1.1,0.1,1.7,0.4,2.1
			s0.8,0.5,1.4,0.5c0.4,0,0.9-0.1,1.3-0.2c0.2-0.1,0.3-0.1,0.3,0.1L63.3,10.8z"/>
		<path fill="#010101" d="M69.2,8c0,0.4-0.1,0.5-0.5,0.5h-3.5c0.1,1.6,0.5,2.2,1.8,2.2c0.5,0,1.1-0.1,1.5-0.2
			c0.2-0.1,0.3-0.1,0.3,0.1l0.1,0.3c0.1,0.1,0.1,0.2-0.3,0.4c-0.5,0.2-1,0.2-1.6,0.2c-2,0-2.7-1-2.7-3.2V7.7c0-2.2,0.7-3.2,2.5-3.2
			c0.8,0,1.4,0.2,1.7,0.6c0.4,0.4,0.6,0.9,0.6,1.8C69.2,6.9,69.2,8,69.2,8z M65.2,7.7h2.9c0.1,0,0.2,0,0.2-0.2V7.1
			c0-0.7-0.1-1-0.3-1.2c-0.2-0.3-0.6-0.4-1.1-0.4C65.8,5.3,65.2,5.8,65.2,7.7z"/>
		<path fill="#010101" d="M74.7,4.6C74.8,4.6,74.8,4.6,74.7,4.6l0.1,0.6c0,0.1-0.1,0.1-0.1,0.1h-3.2v5.9c0,0.1-0.1,0.1-0.1,0.1h-0.7
			c-0.1,0-0.1,0-0.1-0.1V4.8c0-0.1,0.1-0.1,0.1-0.1L74.7,4.6C74.7,4.7,74.7,4.6,74.7,4.6z"/>
		<path fill="#010101" d="M80.8,8.3c0,1.2-0.2,2-0.7,2.5c-0.4,0.4-1.1,0.6-1.9,0.6c-0.8,0-1.5-0.2-1.9-0.6c-0.5-0.5-0.7-1.4-0.7-2.5
			V7.7c0-1.2,0.2-2,0.7-2.5c0.4-0.4,1.1-0.6,1.9-0.6c0.8,0,1.5,0.2,1.9,0.6c0.5,0.5,0.7,1.4,0.7,2.5V8.3z M76.5,8.1
			c0,0.6,0.1,1.2,0.1,1.5c0.2,0.8,0.8,1.1,1.6,1.1c0.8,0,1.4-0.2,1.6-1.1c0.1-0.3,0.1-0.9,0.1-1.5V7.9c0-0.6-0.1-1.2-0.1-1.5
			c-0.2-0.8-0.8-1.1-1.6-1.1s-1.4,0.2-1.6,1.1c-0.1,0.3-0.1,0.9-0.1,1.5V8.1z"/>
		<path fill="#010101" d="M82.8,10.1c0.4,0,0.6,0.2,0.6,0.7V11c0,0.3-0.1,0.7-0.2,1c-0.1,0.4-0.3,0.7-0.6,1.1
			c-0.1,0.1-0.2,0.1-0.3,0.1l-0.2-0.1C82,13,82,13,82.1,12.9c0.1-0.1,0.2-0.3,0.2-0.4c0.1-0.2,0.1-0.3,0.2-0.4
			c0.1-0.1,0-0.2-0.1-0.2l-0.2-0.1C82,11.4,82,11.3,82,11v-0.2c0-0.3,0.2-0.5,0.6-0.5h0.2C82.8,10.3,82.8,10.1,82.8,10.1z"/>
		<path fill="#010101" d="M4.2,18.4c0-0.1,0.1-0.1,0.2-0.1H5c0.1,0,0.2,0.1,0.2,0.1v6.4c0,0.1-0.1,0.1-0.1,0.1H4.3
			c-0.1,0-0.1,0-0.1-0.1v-2.5c-0.6,0.2-1.2,0.3-1.8,0.3c-1.9,0-2.4-0.8-2.4-2.7v-1.5c0-0.1,0.1-0.1,0.2-0.1h0.6
			c0.1,0,0.2,0.1,0.2,0.1v1.5c0,1.5,0.4,2,1.6,2c0.5,0,1.1-0.1,1.7-0.3C4.2,21.7,4.2,18.4,4.2,18.4z"/>
		<path fill="#010101" d="M11.6,18.3C11.7,18.3,11.7,18.3,11.6,18.3l0.1,0.6c0,0.1-0.1,0.1-0.1,0.1H9.4v5.8c0,0.1-0.1,0.1-0.1,0.1
			H8.6c-0.1,0-0.1,0-0.1-0.1V19H6.2c-0.1,0-0.1,0-0.1-0.1v-0.5c0-0.1,0.1-0.1,0.1-0.1L11.6,18.3z"/>
		<path fill="#010101" d="M17.7,21.9c0,1.2-0.2,2-0.7,2.5c-0.4,0.4-1.1,0.6-1.9,0.6c-0.8,0-1.5-0.2-1.9-0.6
			c-0.5-0.5-0.7-1.4-0.7-2.5v-0.6c0-1.2,0.2-2,0.7-2.5c0.4-0.4,1.1-0.6,1.9-0.6c0.8,0,1.5,0.2,1.9,0.6c0.5,0.5,0.7,1.4,0.7,2.5V21.9
			z M13.3,21.7c0,0.6,0.1,1.2,0.1,1.5c0.2,0.8,0.8,1.1,1.6,1.1s1.4-0.2,1.6-1.1c0.1-0.3,0.1-0.9,0.1-1.5v-0.2c0-0.6-0.1-1.2-0.1-1.5
			c-0.2-0.8-0.8-1.1-1.6-1.1s-1.4,0.2-1.6,1.1c-0.1,0.3-0.1,0.9-0.1,1.5C13.3,21.5,13.3,21.7,13.3,21.7z"/>
		<path fill="#010101" d="M22.5,24.9c-0.2-0.1-0.3-0.2-0.3-0.3v-6c0-0.1,0.1-0.2,0.3-0.3c0.3-0.1,1.1-0.1,1.9-0.1
			c1.1,0,1.7,0.2,2.1,0.6c0.2,0.2,0.4,0.6,0.4,1.1V20c0,0.7-0.3,1.2-0.9,1.4v0.1c0.8,0.1,1.3,0.6,1.3,1.5v0.1c0,0.6-0.1,1.1-0.4,1.4
			c-0.4,0.4-1,0.6-2.4,0.6C23.5,24.9,22.7,24.9,22.5,24.9z M23,19.1V21h1.1c1,0,1.4-0.1,1.6-0.3c0.2-0.2,0.2-0.4,0.2-0.7v-0.1
			c0-0.7-0.4-1.1-1.6-1.1c-0.6,0-1.1,0-1.2,0.1C23,19,23,19.1,23,19.1z M26,23.8c0.2-0.2,0.3-0.4,0.3-0.8v-0.1
			c0-0.3-0.1-0.6-0.2-0.7c-0.2-0.2-0.7-0.4-2-0.4H23V24c0,0.1,0.1,0.2,0.2,0.2c0.2,0,0.7,0,1.3,0C25.4,24.2,25.8,24.1,26,23.8z"/>
		<path fill="#010101" d="M28.5,18.4c0-0.1,0.1-0.1,0.2-0.1h0.6c0.1,0,0.2,0.1,0.2,0.1v2.7c0.5-0.1,1-0.1,1.4-0.1
			c1,0,1.7,0.2,2.2,0.6c0.3,0.3,0.4,0.7,0.4,1.2v0.1c0,0.6-0.2,1.1-0.6,1.4c-0.4,0.4-1.2,0.6-2.2,0.6c-0.6,0-1.2,0-1.8-0.1
			c-0.3-0.1-0.4-0.1-0.4-0.4L28.5,18.4L28.5,18.4z M29.5,24c0,0.1,0.1,0.1,0.2,0.2c0.2,0.1,0.7,0.1,1.2,0.1c1.3,0,1.8-0.4,1.8-1.2
			V23c0-0.9-0.5-1.2-1.8-1.2c-0.4,0-0.8,0-1.3,0.1L29.5,24L29.5,24z M35.5,24.8C35.5,24.9,35.4,24.9,35.5,24.8l-0.8,0.1
			c-0.1,0-0.1,0-0.1-0.1v-6.4c0-0.1,0.1-0.1,0.2-0.1h0.6c0.1,0,0.2,0.1,0.2,0.1L35.5,24.8L35.5,24.8z"/>
		<path fill="#010101" d="M45.2,24.9h-4.8c-0.1,0-0.1,0-0.1-0.1v-6.4c0-0.1,0.1-0.1,0.2-0.1H41c0.1,0,0.2,0.1,0.2,0.1v5.8h3.2v-5.8
			c0-0.1,0.1-0.1,0.2-0.1h0.6c0.1,0,0.2,0.1,0.2,0.1v5.8h0.7c0.1,0,0.1,0,0.1,0.1v2.5c0,0.1-0.1,0.1-0.1,0.1h-0.6
			c-0.1,0-0.1,0-0.1-0.1L45.2,24.9L45.2,24.9z"/>
		<path fill="#010101" d="M51.8,21.6c0,0.4-0.1,0.5-0.5,0.5h-3.5c0.1,1.6,0.5,2.2,1.8,2.2c0.5,0,1.1-0.1,1.5-0.2
			c0.2-0.1,0.3-0.1,0.3,0.1l0.1,0.3c0.1,0.1,0.1,0.2-0.3,0.4c-0.5,0.2-1,0.2-1.6,0.2c-2,0-2.7-1-2.7-3.2v-0.6c0-2.2,0.7-3.2,2.5-3.2
			c0.8,0,1.4,0.2,1.7,0.6c0.4,0.4,0.6,0.9,0.6,1.8C51.8,20.6,51.8,21.6,51.8,21.6z M47.8,21.4h2.9c0.1,0,0.2,0,0.2-0.2v-0.5
			c0-0.7-0.1-1-0.3-1.2c-0.2-0.3-0.6-0.4-1.1-0.4C48.4,18.9,47.9,19.4,47.8,21.4z"/>
		<path fill="#010101" d="M58.5,24.8C58.5,24.9,58.4,24.9,58.5,24.8l-0.8,0.1c-0.1,0-0.1,0-0.1-0.1v-2.9h-3.4v2.9
			c0,0.1-0.1,0.1-0.1,0.1h-0.7c-0.1,0-0.1,0-0.1-0.1v-6.4c0-0.1,0.1-0.1,0.2-0.1H54c0.1,0,0.2,0.1,0.2,0.1v2.7h3.4v-2.7
			c0-0.1,0.1-0.1,0.2-0.1h0.6c0.1,0,0.2,0.1,0.2,0.1L58.5,24.8L58.5,24.8z"/>
		<path fill="#010101" d="M64.6,19.2v-0.8c0-0.1,0.1-0.1,0.2-0.1h0.6c0.1,0,0.2,0.1,0.2,0.1v6.4c0,0.1-0.1,0.1-0.1,0.1h-0.7
			c-0.1,0-0.1,0-0.1-0.1v-4.5l-3.5,3.6v0.9c0,0.1-0.1,0.1-0.1,0.1h-0.7c-0.1,0-0.1,0-0.1-0.1v-6.4c0-0.1,0.1-0.1,0.2-0.1h0.6
			c0.1,0,0.2,0.1,0.2,0.1v4.4L64.6,19.2z"/>
		<path fill="#010101" d="M71.9,18.3C72,18.3,72,18.3,71.9,18.3l0.1,0.6c0,0.1-0.1,0.1-0.1,0.1h-2.2v5.8c0,0.1-0.1,0.1-0.1,0.1h-0.7
			c-0.1,0-0.1,0-0.1-0.1V19h-2.1c-0.1,0-0.1,0-0.1-0.1v-0.5c0-0.1,0.1-0.1,0.1-0.1L71.9,18.3z"/>
		<path fill="#010101" d="M77.7,21.6c0,0.4-0.1,0.5-0.5,0.5h-3.5c0.1,1.6,0.5,2.2,1.8,2.2c0.5,0,1.1-0.1,1.5-0.2
			c0.2-0.1,0.3-0.1,0.3,0.1l0.1,0.3c0.1,0.1,0.1,0.2-0.3,0.4c-0.5,0.2-1,0.2-1.6,0.2c-2,0-2.7-1-2.7-3.2v-0.6c0-2.2,0.7-3.2,2.5-3.2
			c0.8,0,1.4,0.2,1.7,0.6c0.4,0.4,0.6,0.9,0.6,1.8C77.7,20.6,77.7,21.6,77.7,21.6z M73.7,21.4h2.9c0.1,0,0.2,0,0.2-0.2v-0.5
			c0-0.7-0.1-1-0.3-1.2c-0.2-0.3-0.6-0.4-1.1-0.4C74.2,18.9,73.7,19.4,73.7,21.4z"/>
		<path fill="#010101" d="M79.6,23.7c0.4,0,0.6,0.2,0.6,0.6v0.3c0,0.4-0.2,0.6-0.6,0.6h-0.1c-0.4,0-0.6-0.2-0.6-0.6v-0.3
			C78.9,24,79.1,23.7,79.6,23.7L79.6,23.7z"/>
	</g>
</g>
<g id="line">
	<line fill="none" stroke="#010101" stroke-width="0.9" x1="89.6" y1="1.5" x2="89.6" y2="26"/>
</g>
</svg>
