<?xml version="1.0" encoding="utf-8"?>
<!-- Generator: Adobe Illustrator 16.0.0, SVG Export Plug-In . SVG Version: 6.00 Build 0)  -->
<!DOCTYPE svg PUBLIC "-//W3C//DTD SVG 1.1//EN" "http://www.w3.org/Graphics/SVG/1.1/DTD/svg11.dtd">
<svg version="1.1" id="Layer_1" xmlns="http://www.w3.org/2000/svg" xmlns:xlink="http://www.w3.org/1999/xlink" x="0px" y="0px"
	 width="595.276px" height="87.225px" viewBox="0 0 595.276 87.225" enable-background="new 0 0 595.276 87.225"
	 xml:space="preserve">
<g>
	<path fill-rule="evenodd" clip-rule="evenodd" fill="#FFFFFF" d="M36.105,26.812c0.498-0.724,0.289-1.259-0.045-1.549
		c-0.203-0.183-5.188-3.198-5.188-3.198c-0.36-0.238-0.599-0.652-0.599-1.118c0-0.741,0.443-1.296,1.446-1.575
		c3.201-0.879,14.459-1.339,18.283-1.339c1.809,0,5.387-0.013,7.739,0.146c2.642,0.171,4.646,0.716,5.141,1.991
		c0.978,2.501-0.64,4.048-1.784,5.088c-0.61,0.554-8.767,8.236-18.332,16.588c-8.43,7.366-17.86,14.862-23.321,18.949
		c-7.685,5.749-9.179,6.582-9.179,6.582c-0.204,0.111-0.542,0.204-0.79,0.204c-0.796,0-1.423-0.61-1.423-1.407
		c0-0.301,0.09-0.583,0.252-0.813c0,0,15.132-21.781,17.884-25.465c2.753-3.681,9.365-12.296,9.365-12.296
		S35.63,27.506,36.105,26.812"/>
	<path fill="#ED1C24" d="M35.609,27.654c0,0,0.075-0.097,0.549-0.791c0.497-0.719,0.287-1.257-0.041-1.544
		c-0.213-0.186-5.192-3.198-5.192-3.198c-0.36-0.242-0.599-0.651-0.599-1.119c0-0.739,0.442-1.299,1.447-1.577
		c3.201-0.875,14.457-1.336,18.285-1.336c1.248,0,3.336-0.004,5.287,0.042c0.134-0.042,0.222-0.074,0.222-0.074
		c-5.582-4.726-12.803-7.577-20.69-7.577c-17.685,0-32.02,14.326-32.02,32c0,7.725,2.741,14.811,7.305,20.343
		C14.256,56.94,24.077,42.85,26.244,39.95C28.996,36.273,35.609,27.654,35.609,27.654"/>
	<path fill="#ED1C24" d="M64.264,29.765l0.009,0.009c1.56-1.626,2.53-3.045,2.437-4.249c-0.26-3.341-4.182-5.905-4.182-5.905
		s-0.052-0.041-0.174-0.106c0.222,0.203,0.4,0.423,0.502,0.688c0.981,2.5-0.638,4.044-1.788,5.084
		c-0.606,0.553-8.763,8.235-18.324,16.587c-8.434,7.368-17.863,14.863-23.324,18.951c-7.686,5.747-9.179,6.582-9.179,6.582
		c-0.205,0.11-0.543,0.203-0.793,0.203c-0.518,0-0.945-0.273-1.191-0.679c-0.038,0.19-0.057,0.727,0.691,1.52l0.33,0.364
		c0.453,0.477,1.3,1.351,2.2,2.154c1.624,1.447,2.242,0.649,5.668-1.788l0.014,0.018c5.079,3.386,11.181,5.36,17.746,5.36
		c17.684,0,32.021-14.328,32.021-32C66.927,38.01,65.977,33.682,64.264,29.765"/>
	<path d="M173.544,30.866c-4.973,0-9.223,4.182-9.223,9.149v7.881h-12.755v-17.03h-0.434c-4.974,0-9.222,4.182-9.222,9.149v31.209
		h0.427c4.975,0,9.229-4.177,9.229-9.148v-7.619h12.755v16.768h9.656V30.866H173.544z"/>
	<path d="M118.693,16.089c-11.207,0-18.46,9.662-19.468,23.709H87.822V16.883h-0.07c-5.549,0-9.873,4.397-9.873,9.806v44.536h0.073
		h0.005c5.443-0.041,9.866-4.488,9.866-10.018V47.011h11.404c0.865,13.186,8.144,25.083,19.468,25.083
		c12.992,0,19.892-12.571,19.892-28.908C138.585,27.91,131.235,16.089,118.693,16.089 M118.693,64.09
		c-5.908,0-9.814-9.655-9.814-20.972c0-11.312,4.118-19.243,9.814-19.243c5.687,0,10.022,7.931,10.022,19.243
		C128.715,55.923,124.991,64.09,118.693,64.09"/>
	<path d="M208.362,30.866c-3.16,0-6,1.01-8.265,4.613l-12.595,21.913V30.866h-9.656v40.358h4.091c3.115,0,5.953-1.008,8.263-4.609
		l13.302-22.662v18.123c0,4.972,4.249,9.148,9.224,9.148h0.434V30.866H208.362z"/>
	<path d="M402.517,30.866c-3.159,0-6.002,1.01-8.261,4.613l-12.592,21.913V30.866h-9.659v40.358h4.09
		c3.114,0,5.953-1.008,8.269-4.609l13.297-22.662v18.123c0,4.972,4.249,9.148,9.223,9.148h0.431V30.866H402.517z"/>
	<path d="M247.451,51.547c-2.238-5.047-5.579-8.648-10.409-10.523l17.389-24.141h-10.836l-16.797,23.922V16.984h-0.216
		c-5.55,0-9.733,4.042-9.733,9.514v44.726h0.219c5.55,0,9.73-4.035,9.73-9.512V45.132c4.973,0,8.719,3.311,10.521,7.635
		l7.142,18.457h10.938L247.451,51.547z"/>
	<path d="M438.436,30.866h-29.039v7.715h9.766v32.644h0.432c5.047,0,9.077-4.105,9.077-9.08V38.581h9.765V30.866z"/>
	<path d="M365.412,63.582l-3.312-32.716h-23.135l-1.439,9.805c-1.302,8.723-3.347,19.677-11.153,24.359l0.646,16.713h0.513
		c3.81,0,6.897-3.086,6.897-6.903l0.13-3.615h26.324l0.364,10.519h0.51c3.814,0,6.907-3.086,6.907-6.903l0.338-9.81L365.412,63.582z
		 M338.416,63.871c4.465-4.737,6.602-13.259,7.61-19.818l0.651-5.839h7.496l2.305,25.657H338.416z"/>
	<path d="M325.499,49.967c0-12.111-5.836-19.102-16.359-19.102c-10.661,0-17.149,8.001-17.149,20.325
		c0,12.679,6.989,20.611,18.737,20.611c6.482,0,11.023-1.585,13.474-2.88v-8c-2.45,1.727-5.836,3.886-12.54,3.886
		c-6.051,0-9.368-3.457-10.158-10.016l23.996-3.309V49.967z M300.925,48.235c0-7.129,2.522-10.954,7.924-11.096h0.36
		c2.668,0,7.642,0.861,7.931,8.862L300.925,48.235z"/>
	<path d="M271.124,30.865c-5.474,0-10.015,0.94-13.542,2.814l-0.218,0.142v53.403h0.504c4.97,0,9.005-4.112,9.005-9.079v-6.987
		c1.372,0.356,3.244,0.644,5.334,0.644c10.447,0,17.299-8.361,17.299-20.898C289.505,38.433,282.584,30.865,271.124,30.865
		 M270.26,65.604c-1.367,0-2.448-0.148-3.388-0.503V37.642c1.228-0.431,2.451-0.649,4.035-0.649c6.272,0,9.007,4.544,9.007,14.198
		C279.914,57.676,278.262,65.604,270.26,65.604"/>
	<path d="M557.152,30.867c-4.976,0-9.227,4.181-9.227,9.154V47.9h-12.754V30.867h-0.434c-4.973,0-9.227,4.181-9.227,9.154v31.205
		h0.434c4.969,0,9.227-4.176,9.227-9.153v-7.615h12.754v16.769h9.658V30.867H557.152z"/>
	<path d="M588.95,58.328c-2.138-4.235-4.687-7.469-8.504-9.055l14.299-18.405H584.34l-13.838,18.186V30.869h-9.663v40.36h0.43
		c4.975,0,9.233-4.181,9.233-9.156v-9.191c4.033,0,6.914,2.998,8.505,6.529l5.803,11.818h10.388L588.95,58.328z"/>
	<path d="M470.553,37.221c-2.38,0-4.905,0.407-6.273,0.771V25.318h12.797c4.578,0,8.285-3.71,8.285-8.287v-0.146h-30.739v54.34
		h15.639c11.713,0,20.447-6.317,20.447-17.117C490.708,44.85,483.452,37.221,470.553,37.221 M470.12,64.58l-5.841-0.007v-19.29
		c1.228-0.287,3.39-0.701,5.265-0.701c6.985,0,11.072,4.164,11.072,9.316C480.616,59.441,476.68,64.58,470.12,64.58"/>
	<path d="M491.935,59.772c0,7.569,5.549,12.031,16.218,12.031h2.018c3.747,0,9.947-0.575,12.611-1.079v-25.66
		c0-10.087-6.771-14.196-14.919-14.196c-6.198,0-10.953,1.799-13.476,3.026v6.412c4.254-2.233,8.07-3.671,11.89-3.671
		c4.614,0,7.786,1.365,7.786,6.485v2.668C502.026,46.934,491.935,49.389,491.935,59.772 M514.063,66.333
		c-0.938,0.209-3.315,0.353-5.334,0.353c-5.189,0-8.216-2.232-8.216-7.202c0-6.706,5.118-8.434,13.55-9.228V66.333z"/>
</g>
</svg>
