<?xml version="1.0" encoding="utf-8"?>
<!-- Generator: Adobe Illustrator 16.0.0, SVG Export Plug-In . SVG Version: 6.00 Build 0)  -->
<!DOCTYPE svg PUBLIC "-//W3C//DTD SVG 1.1//EN" "http://www.w3.org/Graphics/SVG/1.1/DTD/svg11.dtd">
<svg version="1.1" id="Layer_1" xmlns="http://www.w3.org/2000/svg" xmlns:xlink="http://www.w3.org/1999/xlink" x="0px" y="0px"
	 width="575.856px" height="89.593px" viewBox="0 0 575.856 89.593" enable-background="new 0 0 575.856 89.593"
	 xml:space="preserve">
<g>
	<path fill="#FFFFFF" d="M167.94,35.088c-4.808,0-8.92,4.046-8.92,8.855v7.62h-12.335V35.088h-0.418
		c-4.81,0-8.921,4.046-8.921,8.855v30.178h0.417c4.811,0,8.922-4.041,8.922-8.849v-7.366h12.335v16.215h9.338V35.088H167.94
		L167.94,35.088z"/>
	<path fill="#FFFFFF" d="M539.062,35.088c-4.812,0-8.919,4.046-8.919,8.855v7.62h-12.339V35.088h-0.418
		c-4.809,0-8.92,4.046-8.92,8.855v30.178h0.418c4.806,0,8.92-4.041,8.92-8.849v-7.366h12.339v16.215h9.333V35.088H539.062
		L539.062,35.088z"/>
	<path fill="#FFFFFF" d="M115.065,20.804c-10.835,0-17.85,9.339-18.828,22.927H85.211V21.569h-0.07
		c-5.364,0-9.548,4.251-9.548,9.481v43.071h0.073c0,0,0,0,0.003,0l0,0c5.263-0.042,9.543-4.345,9.543-9.686V50.705h11.026
		c0.834,12.75,7.875,24.252,18.828,24.252c12.562,0,19.237-12.153,19.237-27.951C134.302,32.233,127.194,20.804,115.065,20.804
		L115.065,20.804z M115.065,67.221c-5.713,0-9.489-9.337-9.489-20.282c0-10.943,3.981-18.609,9.489-18.609
		c5.499,0,9.688,7.666,9.688,18.609C124.753,59.324,121.154,67.221,115.065,67.221L115.065,67.221z"/>
	<path fill="#FFFFFF" d="M201.613,35.088c-3.059,0-5.802,0.979-7.994,4.462L181.44,60.739V35.088h-9.338v39.033h3.955
		c3.014,0,5.758-0.974,7.992-4.462l12.864-21.913v17.526c0,4.808,4.11,8.849,8.919,8.849h0.422V35.088H201.613L201.613,35.088z"/>
	<path fill="#FFFFFF" d="M389.388,35.088c-3.061,0-5.812,0.979-7.993,4.462l-12.181,21.188V35.088h-9.341v39.033h3.958
		c3.013,0,5.757-0.974,7.992-4.462l12.861-21.913v17.526c0,4.808,4.112,8.849,8.922,8.849h0.414V35.088H389.388L389.388,35.088z"/>
	<path fill="#FFFFFF" d="M239.417,55.086c-2.161-4.878-5.395-8.362-10.067-10.173l16.819-23.344h-10.48L219.44,44.703V21.67h-0.208
		c-5.367,0-9.41,3.903-9.41,9.2v43.251h0.208c5.369,0,9.41-3.903,9.41-9.199V48.88c4.809,0,8.437,3.21,10.177,7.39l6.908,17.851
		h10.576L239.417,55.086L239.417,55.086z"/>
	<path fill="#FFFFFF" d="M424.122,35.088h-28.085v7.46h9.445v31.573h0.418c4.877,0,8.778-3.977,8.778-8.78V42.548h9.443V35.088
		L424.122,35.088z"/>
	<path fill="#FFFFFF" d="M353.502,66.734l-3.21-31.646h-22.37l-1.392,9.481c-1.258,8.432-3.231,19.033-10.789,23.557l0.625,16.171
		h0.497c3.685,0,6.672-2.989,6.672-6.68l0.126-3.496h25.461l0.348,10.176h0.493c3.688,0,6.679-2.989,6.679-6.68l0.33-9.491
		L353.502,66.734L353.502,66.734z M327.389,67.01c4.322-4.579,6.387-12.823,7.365-19.163l0.627-5.645h7.247l2.229,24.807H327.389
		L327.389,67.01z"/>
	<path fill="#FFFFFF" d="M569.809,61.644c-2.069-4.092-4.526-7.222-8.222-8.757l13.827-17.798h-10.06L551.97,52.678V35.088h-9.343
		v39.033h0.418c4.811,0,8.925-4.041,8.925-8.849v-8.89c3.897,0,6.689,2.894,8.225,6.307l5.611,11.432h10.05L569.809,61.644
		L569.809,61.644z"/>
	<path fill="#FFFFFF" d="M455.318,41.239c-2.296,0-4.74,0.392-6.067,0.742V29.723h12.377c4.427,0,8.016-3.586,8.016-8.014v-0.141
		h-29.728v52.552h15.125c11.324,0,19.769-6.11,19.769-16.555C474.809,48.614,467.797,41.239,455.318,41.239L455.318,41.239z
		 M454.901,67.692l-5.65-0.006V49.034c1.188-0.28,3.281-0.676,5.092-0.676c6.755,0,10.709,4.021,10.709,9.002
		C465.051,62.723,461.246,67.692,454.901,67.692L454.901,67.692z"/>
	<path fill="#FFFFFF" d="M314.898,53.562c0-11.709-5.647-18.473-15.819-18.473c-10.318,0-16.591,7.738-16.591,19.661
		c0,12.261,6.762,19.931,18.123,19.931c6.271,0,10.663-1.532,13.032-2.791v-7.734c-2.369,1.673-5.646,3.763-12.126,3.763
		c-5.851,0-9.063-3.344-9.827-9.688l23.208-3.203V53.562L314.898,53.562z M291.132,51.889c0-6.901,2.437-10.595,7.663-10.733h0.353
		c2.574,0,7.388,0.836,7.668,8.572L291.132,51.889L291.132,51.889z"/>
	<path fill="#FFFFFF" d="M475.995,63.038c0,7.322,5.368,11.642,15.682,11.642h1.953c3.622,0,9.619-0.559,12.197-1.047V48.819
		c0-9.752-6.55-13.731-14.429-13.731c-5.995,0-10.591,1.745-13.03,2.927v6.208c4.111-2.161,7.805-3.555,11.495-3.555
		c4.463,0,7.527,1.324,7.527,6.271v2.581C485.755,50.634,475.995,53.001,475.995,63.038L475.995,63.038L475.995,63.038z
		 M497.39,69.379c-0.906,0.211-3.205,0.351-5.153,0.351c-5.019,0-7.946-2.161-7.946-6.969c0-6.483,4.946-8.154,13.1-8.922V69.379
		L497.39,69.379z"/>
	<path fill="#FFFFFF" d="M262.311,35.088c-5.292,0-9.688,0.907-13.098,2.722l-0.208,0.135v51.647h0.486
		c4.808,0,8.71-3.971,8.71-8.782v-6.759c1.326,0.349,3.137,0.628,5.158,0.628c10.104,0,16.728-8.087,16.728-20.211
		C280.086,42.408,273.397,35.088,262.311,35.088L262.311,35.088L262.311,35.088z M261.478,68.688c-1.324,0-2.373-0.14-3.276-0.49
		V41.642c1.184-0.416,2.369-0.626,3.902-0.626c6.065,0,8.713,4.393,8.713,13.733C270.816,61.016,269.215,68.688,261.478,68.688
		L261.478,68.688z"/>
	<path fill="#EE3224" d="M0,47.094c0-17.847,14.469-32.324,32.32-32.324c17.843,0,32.306,14.477,32.306,32.324
		c0,17.838-14.463,32.318-32.306,32.318C14.469,79.412,0,64.933,0,47.094L0,47.094z"/>
	<path fill="#EE3224" d="M35.569,33.36c0.496-0.728,0.288-1.267-0.045-1.56c-0.208-0.186-5.246-3.229-5.246-3.229
		c-0.363-0.247-0.603-0.663-0.603-1.131c0-0.749,0.455-1.306,1.455-1.6c3.237-0.877,14.613-1.346,18.475-1.346
		c1.831,0,5.446-0.008,7.819,0.143c2.679,0.171,4.688,0.724,5.193,2.02c0.988,2.525-0.642,4.087-1.808,5.136
		c-0.61,0.563-8.846,8.329-18.513,16.771c-8.521,7.449-18.043,15.027-23.563,19.168c-7.768,5.806-9.277,6.651-9.277,6.651
		c-0.195,0.114-0.544,0.194-0.798,0.194c-0.8,0-1.433-0.602-1.433-1.412c0-0.302,0.093-0.596,0.255-0.823
		c0,0,15.284-22.029,18.058-25.745c2.798-3.727,9.466-12.434,9.466-12.434S35.083,34.063,35.569,33.36L35.569,33.36z"/>
	<path fill="#FFFFFF" d="M34.465,32.933c0.499-0.728,0.284-1.266-0.041-1.561c-0.214-0.188-5.244-3.236-5.244-3.236
		c-0.365-0.24-0.605-0.658-0.605-1.139c0-0.742,0.435-1.306,1.458-1.587c3.237-0.881,14.613-1.353,18.467-1.353
		c1.833,0,5.446-0.011,7.82,0.145c2.671,0.177,4.687,0.723,5.206,2.017c0.982,2.542-0.648,4.094-1.812,5.141
		c-0.62,0.567-8.854,8.337-18.514,16.771c-8.531,7.457-18.053,15.038-23.566,19.163c-7.766,5.816-9.27,6.665-9.27,6.665
		C8.149,74.065,7.812,74.16,7.56,74.16c-0.807,0-1.431-0.621-1.431-1.414c0-0.319,0.091-0.601,0.254-0.836
		c0,0,15.275-22.016,18.059-25.74c2.781-3.727,9.471-12.438,9.471-12.438S33.983,33.637,34.465,32.933L34.465,32.933z"/>
</g>
</svg>
