<?xml version="1.0" encoding="UTF-8"?>
<svg width="258px" height="34px" viewBox="0 0 258 34" version="1.1" xmlns="http://www.w3.org/2000/svg" xmlns:xlink="http://www.w3.org/1999/xlink">
    <!-- Generator: Sketch 41.2 (35397) - http://www.bohemiancoding.com/sketch -->
    <title>logo</title>
    <desc>Created with Sketch.</desc>
    <defs></defs>
    <g id="Page-1" stroke="none" stroke-width="1" fill="none" fill-rule="evenodd">
        <g id="logo">
            <g id="Page-1">
                <g id="Imported-Layers">
                    <g id="Group" transform="translate(34.000000, 3.000000)" fill="#121112">
                        <path d="M41.486,6.622 C39.342,6.622 37.508,8.427 37.508,10.571 L37.508,13.97 L32.006,13.97 L32.006,6.622 L31.819,6.622 C29.674,6.622 27.84,8.427 27.84,10.571 L27.84,24.031 L28.026,24.031 C30.172,24.031 32.006,22.228 32.006,20.084 L32.006,16.799 L37.508,16.799 L37.508,24.031 L41.672,24.031 L41.672,6.622 L41.486,6.622" id="Fill-1"></path>
                        <path d="M207.01,6.622 C204.863,6.622 203.031,8.427 203.031,10.571 L203.031,13.97 L197.528,13.97 L197.528,6.622 L197.342,6.622 C195.197,6.622 193.363,8.427 193.363,10.571 L193.363,24.031 L193.55,24.031 C195.693,24.031 197.528,22.228 197.528,20.084 L197.528,16.799 L203.031,16.799 L203.031,24.031 L207.194,24.031 L207.194,6.622 L207.01,6.622" id="Fill-2"></path>
                        <path d="M17.903,0.251 C13.071,0.251 9.942,4.417 9.506,10.477 L4.588,10.477 L4.588,0.592 L4.557,0.592 C2.165,0.592 0.298,2.488 0.298,4.821 L0.298,24.031 L0.331,24.031 L0.333,24.031 C2.68,24.012 4.588,22.093 4.588,19.711 L4.588,13.587 L9.506,13.587 C9.878,19.273 13.019,24.403 17.903,24.403 C23.506,24.403 26.483,18.983 26.483,11.937 C26.483,5.349 23.313,0.251 17.903,0.251 L17.903,0.251 Z M17.903,20.953 C15.356,20.953 13.671,16.789 13.671,11.907 C13.671,7.026 15.447,3.607 17.903,3.607 C20.356,3.607 22.225,7.026 22.225,11.907 C22.225,17.432 20.619,20.953 17.903,20.953 L17.903,20.953 Z" id="Fill-3"></path>
                        <path d="M56.504,6.622 C55.14,6.622 53.917,7.059 52.939,8.612 L47.507,18.062 L47.507,6.622 L43.342,6.622 L43.342,24.031 L45.106,24.031 C46.451,24.031 47.674,23.597 48.671,22.041 L54.409,12.268 L54.409,20.084 C54.409,22.228 56.242,24.031 58.386,24.031 L58.575,24.031 L58.575,6.622 L56.504,6.622" id="Fill-4"></path>
                        <path d="M140.254,6.622 C138.889,6.622 137.662,7.059 136.689,8.612 L131.256,18.062 L131.256,6.622 L127.09,6.622 L127.09,24.031 L128.855,24.031 C130.199,24.031 131.423,23.597 132.42,22.041 L138.156,12.268 L138.156,20.084 C138.156,22.228 139.99,24.031 142.136,24.031 L142.32,24.031 L142.32,6.622 L140.254,6.622" id="Fill-5"></path>
                        <path d="M73.365,15.541 C72.401,13.365 70.959,11.811 68.875,11.004 L76.377,0.592 L71.703,0.592 L64.456,10.91 L64.456,0.637 L64.363,0.637 C61.969,0.637 60.166,2.378 60.166,4.741 L60.166,24.031 L60.259,24.031 C62.653,24.031 64.456,22.29 64.456,19.928 L64.456,12.773 C66.601,12.773 68.218,14.205 68.995,16.069 L72.076,24.031 L76.793,24.031 L73.365,15.541" id="Fill-6"></path>
                        <path d="M155.745,6.622 L143.219,6.622 L143.219,9.949 L147.432,9.949 L147.432,24.031 L147.618,24.031 C149.793,24.031 151.533,22.258 151.533,20.114 L151.533,9.949 L155.745,9.949 L155.745,6.622" id="Fill-7"></path>
                        <path d="M124.248,20.736 L122.816,6.622 L112.84,6.622 L112.219,10.851 C111.658,14.611 110.777,19.34 107.406,21.357 L107.685,28.569 L107.907,28.569 C109.551,28.569 110.883,27.236 110.883,25.59 L110.94,24.031 L122.295,24.031 L122.45,28.569 L122.67,28.569 C124.315,28.569 125.648,27.236 125.648,25.59 L125.796,21.357 L124.248,20.736 L124.248,20.736 Z M112.602,20.859 C114.529,18.816 115.45,15.14 115.887,12.312 L116.166,9.795 L119.398,9.795 L120.393,20.859 L112.602,20.859 L112.602,20.859 Z" id="Fill-8"></path>
                        <path d="M220.723,18.466 C219.8,16.641 218.704,15.245 217.056,14.56 L223.223,6.622 L218.736,6.622 L212.767,14.467 L212.767,6.622 L208.6,6.622 L208.6,24.031 L208.786,24.031 C210.932,24.031 212.767,22.228 212.767,20.084 L212.767,16.119 C214.505,16.119 215.75,17.41 216.435,18.933 L218.937,24.031 L223.42,24.031 L220.723,18.466" id="Fill-9"></path>
                        <path d="M169.659,9.365 C168.635,9.365 167.545,9.54 166.953,9.696 L166.953,4.229 L172.473,4.229 C174.447,4.229 176.048,2.629 176.048,0.655 L176.048,0.592 L162.789,0.592 L162.789,24.031 L169.535,24.031 C174.586,24.031 178.353,21.306 178.353,16.647 C178.353,12.654 175.225,9.365 169.659,9.365 L169.659,9.365 Z M169.473,21.164 L166.953,21.161 L166.953,12.842 C167.482,12.717 168.416,12.54 169.224,12.54 C172.236,12.54 174,14.334 174,16.555 C174,18.947 172.303,21.164 169.473,21.164 L169.473,21.164 Z" id="Fill-10"></path>
                        <path d="M107.03,14.861 C107.03,9.639 104.512,6.622 99.975,6.622 C95.373,6.622 92.575,10.073 92.575,15.391 C92.575,20.859 95.591,24.28 100.658,24.28 C103.455,24.28 105.414,23.597 106.471,23.035 L106.471,19.586 C105.414,20.332 103.953,21.264 101.063,21.264 C98.453,21.264 97.021,19.772 96.68,16.943 L107.03,15.515 L107.03,14.861 L107.03,14.861 Z M96.431,14.115 C96.431,11.037 97.518,9.39 99.849,9.328 L100.006,9.328 C101.154,9.328 103.301,9.701 103.426,13.151 L96.431,14.115 L96.431,14.115 Z" id="Fill-11"></path>
                        <path d="M178.881,19.088 C178.881,22.353 181.275,24.28 185.875,24.28 L186.746,24.28 C188.361,24.28 191.036,24.031 192.186,23.814 L192.186,12.746 C192.186,8.397 189.265,6.622 185.751,6.622 C183.077,6.622 181.027,7.4 179.94,7.928 L179.94,10.696 C181.773,9.732 183.42,9.11 185.066,9.11 C187.057,9.11 188.424,9.701 188.424,11.907 L188.424,13.059 C183.234,13.556 178.881,14.611 178.881,19.088 L178.881,19.088 Z M188.424,21.916 C188.02,22.01 186.994,22.072 186.125,22.072 C183.887,22.072 182.581,21.108 182.581,18.964 C182.581,16.072 184.787,15.327 188.424,14.985 L188.424,21.916 L188.424,21.916 Z" id="Fill-12"></path>
                        <path d="M83.576,6.622 C81.216,6.622 79.255,7.026 77.734,7.836 L77.642,7.897 L77.642,30.932 L77.858,30.932 C80.003,30.932 81.743,29.16 81.743,27.015 L81.743,24 C82.335,24.155 83.143,24.28 84.043,24.28 C88.55,24.28 91.504,20.674 91.504,15.266 C91.504,9.887 88.521,6.622 83.576,6.622 L83.576,6.622 Z M83.205,21.607 C82.614,21.607 82.147,21.545 81.743,21.389 L81.743,9.545 C82.272,9.359 82.8,9.266 83.483,9.266 C86.189,9.266 87.37,11.225 87.37,15.391 C87.37,18.185 86.656,21.607 83.205,21.607 L83.205,21.607 Z" id="Fill-13"></path>
                    </g>
                    <path d="M0.583,14.977 C0.583,7.017 7.037,0.56 14.999,0.56 C22.956,0.56 29.407,7.017 29.407,14.977 C29.407,22.933 22.956,29.391 14.999,29.391 C7.037,29.391 0.583,22.933 0.583,14.977" id="Fill-14" fill="#DB322A"></path>
                    <path d="M16.448,8.851 C16.669,8.526 16.576,8.286 16.428,8.155 C16.335,8.072 14.088,6.715 14.088,6.715 C13.926,6.605 13.819,6.42 13.819,6.211 C13.819,5.877 14.022,5.628 14.468,5.498 C15.912,5.106 20.985,4.897 22.708,4.897 C23.524,4.897 25.137,4.894 26.195,4.961 C27.39,5.037 28.286,5.284 28.512,5.862 C28.952,6.988 28.225,7.685 27.705,8.152 C27.433,8.403 23.76,11.867 19.448,15.633 C15.648,18.955 11.401,22.335 8.939,24.182 C5.475,26.772 4.801,27.148 4.801,27.148 C4.714,27.199 4.559,27.235 4.445,27.235 C4.088,27.235 3.806,26.967 3.806,26.605 C3.806,26.471 3.848,26.34 3.92,26.238 C3.92,26.238 10.736,16.413 11.974,14.756 C13.222,13.094 16.196,9.21 16.196,9.21 C16.196,9.21 16.231,9.165 16.448,8.851" id="Fill-16" fill="#DB322A"></path>
                    <path d="M15.955,8.661 C16.178,8.336 16.082,8.096 15.937,7.964 C15.841,7.88 13.598,6.521 13.598,6.521 C13.435,6.414 13.328,6.227 13.328,6.013 C13.328,5.682 13.522,5.431 13.979,5.305 C15.422,4.912 20.496,4.702 22.215,4.702 C23.032,4.702 24.644,4.697 25.703,4.766 C26.894,4.845 27.793,5.088 28.024,5.665 C28.462,6.799 27.735,7.492 27.216,7.959 C26.94,8.211 23.268,11.677 18.959,15.438 C15.154,18.765 10.907,22.146 8.448,23.985 C4.984,26.579 4.314,26.958 4.314,26.958 C4.218,27.006 4.067,27.049 3.955,27.049 C3.595,27.049 3.317,26.772 3.317,26.417 C3.317,26.275 3.357,26.149 3.43,26.045 C3.43,26.045 10.243,16.226 11.485,14.565 C12.725,12.902 15.709,9.017 15.709,9.017 C15.709,9.017 15.74,8.975 15.955,8.661" id="Fill-17" fill="#FFFFFF"></path>
                </g>
            </g>
        </g>
    </g>
</svg>