<?xml version="1.0" encoding="utf-8"?>
<!-- Generator: Adobe Illustrator 22.1.0, SVG Export Plug-In . SVG Version: 6.00 Build 0)  -->
<svg version="1.1" baseProfile="tiny" id="Слой_1"
	 xmlns="http://www.w3.org/2000/svg" xmlns:xlink="http://www.w3.org/1999/xlink" x="0px" y="0px" viewBox="0 0 50 50"
	 xml:space="preserve">
<g>
	<path fill="#FF0600" d="M25.1665039,43.6669922c-10.3847656,0-18.8330078-8.4482422-18.8330078-18.8334961
		C6.3334961,14.4487305,14.7817383,6,25.1665039,6S44,14.4487305,44,24.8334961
		C44,35.21875,35.5512695,43.6669922,25.1665039,43.6669922z M25.1665039,7C15.3334961,7,7.3334961,15,7.3334961,24.8334961
		s8,17.8334961,17.8330078,17.8334961C35,42.6669922,43,34.6669922,43,24.8334961S35,7,25.1665039,7z"/>
</g>
<g>
	<polygon fill="#FF0600" points="28.4097652,25.202261 25.8352795,26.9448814 23.2607937,28.6875 23.2607937,25.202261 
		23.2607937,21.7170219 25.8352795,23.4596424 	"/>
</g>
</svg>
