<svg xmlns="http://www.w3.org/2000/svg" viewBox="0 0 64.902596 64" id="Слой_1"><style>*{fill:#434876;fill-rule:evenodd}</style><g transform="translate(-.5 -.5)" id="g6"><g id="g4"><path id="path2" d="M17.2 29.9c.1-.4.1-.8-.1-1.2-.2-.4-.5-.7-.9-.8-.4-.1-.8-.1-1.2.1-2.8 1.3-5.2 3.4-6.8 6-1.7 2.7-2.6 5.8-2.6 9 0 2.7.7 5.4 1.9 7.8.3.5.8.9 1.4.9.3 0 .5-.1.8-.2.4-.2.7-.5.8-.9.1-.4.1-.8-.1-1.2-1-1.9-1.6-4.1-1.6-6.3 0-5.1 3-9.9 7.6-12.1.4-.4.7-.7.8-1.1zm3-.4c1 0 1.7-.7 1.7-1.6 0-.9-.7-1.6-1.6-1.6h-.1c-.9 0-1.6.7-1.6 1.6 0 .9.8 1.6 1.6 1.6zm16.7 5.6c-.2-.4-.5-.7-1-.8-.4-.1-.8-.1-1.2.1-.8.4-1.1 1.4-.7 2.2 1 1.9 1.6 4.1 1.6 6.3 0 5.1-3 9.9-7.6 12.1-.8.4-1.1 1.3-.8 2.1.3.6.8.9 1.5.9.2 0 .5-.1.7-.2 2.8-1.3 5.2-3.4 6.8-6 1.7-2.7 2.6-5.8 2.6-9 .1-2.6-.6-5.3-1.9-7.7zM24.2 56.3c-1 0-1.7.7-1.7 1.6 0 .9.7 1.6 1.6 1.6h.1c.9 0 1.6-.7 1.6-1.6 0-.9-.8-1.6-1.6-1.6zM59.4.5H28.6c-3.4 0-6.1 2.7-6.1 6.1 0 1 .3 2 .7 2.9h-9.4c-3.4 0-6.1 2.7-6.1 6.1 0 3.4 2.8 6.1 6.1 6.1h2.6c-.1.1-.1.2-.2.4C7 24.7.5 33.3.5 42.9c0 11.9 9.7 21.6 21.7 21.6 5.9 0 11.7-2.5 15.7-6.8h14.6c3.4 0 6.1-2.7 6.1-6.1 0-1.7-.7-3.3-2-4.5 1.3-1.2 2-2.8 2-4.5 0-1.7-.7-3.3-2-4.5 1.3-1.2 2-2.8 2-4.5 0-1.7-.7-3.3-2-4.5 1.3-1.2 2-2.8 2-4.5 0-3.4-2.8-6.1-6.1-6.1h-2.6c.5-.9.7-1.9.7-2.9s-.3-2-.7-2.9h9.4c3.4 0 6.1-2.7 6.1-6.1.1-3.4-2.7-6.1-6-6.1zm-45.6 18c-1.6 0-2.9-1.3-2.9-2.9 0-1.6 1.3-2.9 2.9-2.9h30.8c1.6 0 2.9 1.3 2.9 2.9 0 1.6-1.3 2.9-2.9 2.9zm8.4 42.8C12 61.3 3.7 53 3.7 42.9c0-10.1 8.3-18.4 18.5-18.4s18.5 8.3 18.5 18.4c0 10.1-8.3 18.4-18.5 18.4zm30.4-6.8H40.5c1.2-1.8 2-3.7 2.6-5.8h9.5c1.6 0 2.9 1.3 2.9 2.9 0 1.6-1.3 2.9-2.9 2.9zm0-9h-8.8c.1-.9.2-1.8.2-2.6 0-1-.1-2.1-.2-3.1h8.9c1.6 0 2.9 1.3 2.9 2.9-.1 1.5-1.4 2.8-3 2.8zm0-9H43c-.6-2.1-1.6-4-2.8-5.8h12.4c1.6 0 2.9 1.3 2.9 2.9 0 1.6-1.3 2.9-2.9 2.9zm0-14.8c1.6 0 2.9 1.3 2.9 2.9 0 1.6-1.3 2.9-2.9 2.9H37.5c-3-3-6.7-4.9-10.8-5.8zm6.8-12.2H28.6c-1.6 0-2.9-1.3-2.9-2.9 0-1.6 1.3-2.9 2.9-2.9h30.8c1.6 0 2.9 1.3 2.9 2.9 0 1.6-1.3 2.9-2.9 2.9zM22 41.5c-1.3 0-2.3-.9-2.3-2s1.1-2 2.3-2c1.3 0 2.3.9 2.3 2 0 .9.7 1.6 1.6 1.6.9 0 1.6-.7 1.6-1.6 0-2.3-1.6-4.3-3.9-5v-.4c0-.9-.7-1.6-1.6-1.6-.9 0-1.6.7-1.6 1.6v.4c-2.3.7-3.9 2.7-3.9 5 0 2.9 2.5 5.2 5.5 5.2 1.3 0 2.3.9 2.3 2s-1.1 2-2.3 2c-1.3 0-2.3-.9-2.3-2 0-.9-.7-1.6-1.6-1.6-.9 0-1.6.7-1.6 1.6 0 2.3 1.6 4.3 3.9 5v.3c0 .9.7 1.6 1.6 1.6.9 0 1.6-.7 1.6-1.6v-.3c2.3-.7 3.9-2.7 3.9-5 0-2.9-2.5-5.2-5.5-5.2z"/></g></g></svg>