<svg xmlns="http://www.w3.org/2000/svg" width="86" height="58"><path fill-rule="evenodd" fill="#FFF" d="M76.779 57.52H8.927c-4.921 0-8.928-4.033-8.928-8.988V8.986c0-4.954 4.007-8.988 8.928-8.988h67.852c4.922 0 8.928 4.034 8.928 8.988v39.546c0 4.955-4.006 8.988-8.928 8.988zM8.927 53.925h67.852c2.954 0 5.357-2.42 5.357-5.393V25.164H3.571v23.368c0 2.973 2.402 5.393 5.356 5.393zm73.209-39.546H3.571v7.191h78.565v-7.191zM76.779 3.594H8.927c-2.954 0-5.356 2.419-5.356 5.392v1.798h78.565V8.986c0-2.973-2.403-5.392-5.357-5.392z"/><path fill-rule="evenodd" opacity=".702" fill="#8CBEE7" d="M69.637 46.734h-3.571c-2.954 0-5.357-2.419-5.357-5.392v-3.596c0-2.972 2.403-5.391 5.357-5.391h3.571c2.953 0 5.357 2.419 5.357 5.391v3.596c0 2.973-2.404 5.392-5.357 5.392zm1.786-8.987c0-.992-.801-1.798-1.786-1.798h-3.571c-.986 0-1.786.806-1.786 1.798v3.595c0 .992.8 1.797 1.786 1.797h3.571c.985 0 1.786-.805 1.786-1.797v-3.595zm-37.498 8.987H12.498a1.79 1.79 0 0 1-1.785-1.797c0-.992.799-1.798 1.785-1.798h21.427c.986 0 1.786.806 1.786 1.798 0 .993-.8 1.797-1.786 1.797zm0-7.19H12.498a1.791 1.791 0 0 1-1.785-1.797c0-.992.799-1.798 1.785-1.798h21.427c.986 0 1.786.806 1.786 1.797 0 .993-.8 1.798-1.786 1.798z"/></svg>