<svg id="Слой_1" xmlns="http://www.w3.org/2000/svg" viewBox="0 0 65 59"><style>.st0{fill:#fff}.st1{font-family:&apos;UniCreditCY&apos;}.st2{font-size:87.9737px}.st3,.st4{enable-background:new}.st4{opacity:.702;fill:#8cbee7}</style><text transform="matrix(.9895 0 0 1 -3.483 57.922)" class="st0 st1 st2">O</text><g class="st3"><path class="st0" d="M42.5 31.8c0 9.7-1.4 16.8-5.3 21.3-3.2 3.7-8.1 5.6-15.3 5.6-6.8 0-11.5-1.8-14.7-5-4.4-4.5-5.9-11.8-5.9-21.9v-4.6c0-9.8 1.5-17.1 5.5-21.6C10 2 14.9.1 21.9.1s11.9 2 15.1 5.6c4 4.5 5.5 11.7 5.5 21.6v4.5zM7.6 30.7c0 8.2.6 15.1 3.9 19.1 2.2 2.6 5.4 4 10.4 4 5.4 0 8.8-1.7 10.9-4.6 2.9-4 3.4-10.8 3.4-18.6v-2.4c0-7.4-.3-14.4-3.4-18.6-2.1-2.8-5.5-4.5-10.9-4.5-5.2 0-8.6 1.7-10.7 4.5-3 4-3.6 10.7-3.6 18.6v2.5z"/></g><path class="st4" d="M46.2 33.1h2.5v2.2h-2.5v2.9h2.5v4.3H52v-4.3h11.2v-2.9H52v-2.2h2.8c3.6 0 5.7-.9 7.4-2.6 1.4-1.4 2.2-3.4 2.2-5.6 0-2.8-1.1-4.7-3-6-1.6-1.1-3.5-1.6-6.5-1.6h-6.3v12.9h-2.5l.1 2.9zM61 25c0 1.6-.4 2.7-1.4 3.7-1.1 1.2-2.6 1.5-5.3 1.5H52v-10h2.7c2.1 0 3.4.3 4.5 1 1.2.8 1.8 2.1 1.8 3.8z"/></svg>