<svg xmlns="http://www.w3.org/2000/svg" width="44" height="40"><path fill-rule="evenodd" fill="#DB322A" d="M38.572 31.987h-15.34v5.126h7.647c.685 0 1.234.543 1.234 1.221 0 .679-.549 1.22-1.234 1.22H13.118a1.22 1.22 0 1 1 0-2.441h7.647v-5.126H5.426c-2.998 0-5.428-2.414-5.428-5.37V5.813c0-2.966 2.44-5.371 5.428-5.371h33.146c2.997 0 5.427 2.405 5.427 5.371v20.804c0 2.965-2.44 5.37-5.427 5.37zm-36.108-5.37c0 1.618 1.335 2.929 2.962 2.929h33.146c1.636 0 2.96-1.321 2.96-2.929v-.977H2.464v.977zM41.541 5.813c0-1.618-1.333-2.93-2.96-2.93H5.426c-1.637 0-2.962 1.312-2.962 2.93v17.386h39.077V5.813zM19.692 12.56c.671-.91 2.286-3.034 2.286-3.034l.133-.195h.001c.121-.177.069-.308-.009-.38-.052-.047-1.267-.79-1.267-.79a.332.332 0 0 1-.146-.277c0-.18.106-.318.353-.387.781-.215 3.528-.33 4.459-.33.442 0 1.315-.003 1.888.035.645.043 1.132.176 1.257.492.237.62-.157.999-.438 1.254-.149.137-2.138 2.032-4.47 4.089a107.44 107.44 0 0 1-5.692 4.674c-1.875 1.419-2.238 1.626-2.238 1.626a.497.497 0 0 1-.195.049.34.34 0 0 1-.345-.345.35.35 0 0 1 .062-.204s3.688-5.37 4.361-6.277z"/></svg>