<svg width="300" height="38" viewBox="0 0 258 34" xmlns="http://www.w3.org/2000/svg"><title>Imported Layers</title><g fill="none" fill-rule="evenodd"><path d="M75.486 9.622c-2.144 0-3.978 1.805-3.978 3.95v3.398h-5.502V9.622h-.187c-2.146 0-3.98 1.805-3.98 3.95v13.46h.186c2.146 0 3.98-1.804 3.98-3.948V19.8h5.502v7.23h4.164V9.623h-.186m165.525-.001c-2.147 0-3.98 1.805-3.98 3.95v3.398h-5.502V9.622h-.186c-2.145 0-3.98 1.805-3.98 3.95v13.46h.188c2.143 0 3.978-1.804 3.978-3.948V19.8h5.503v7.23h4.164V9.623h-.184M51.903 3.25c-4.832 0-7.96 4.167-8.397 10.227h-4.918V3.592h-.03c-2.393 0-4.26 1.896-4.26 4.23v19.21h.036c2.347-.02 4.255-1.94 4.255-4.32v-6.125h4.918c.372 5.686 3.513 10.816 8.397 10.816 5.603 0 8.58-5.42 8.58-12.466 0-6.588-3.17-11.686-8.58-11.686zm0 20.703c-2.547 0-4.232-4.164-4.232-9.046 0-4.88 1.777-8.3 4.233-8.3 2.453 0 4.322 3.42 4.322 8.3 0 5.525-1.606 9.046-4.322 9.046zM90.504 9.622c-1.364 0-2.587.437-3.565 1.99l-5.433 9.45V9.622h-4.165v17.41h1.764c1.345 0 2.568-.435 3.565-1.99l5.74-9.774v7.816c0 2.144 1.832 3.947 3.976 3.947h.19V9.623h-2.072m83.75-.001c-1.365 0-2.592.437-3.565 1.99l-5.434 9.45V9.622h-4.166v17.41h1.765c1.344 0 2.568-.435 3.565-1.99l5.736-9.774v7.816c0 2.144 1.834 3.947 3.98 3.947h.184V9.623h-2.066m-66.888 8.917c-.964-2.175-2.406-3.73-4.49-4.536l7.502-10.412h-4.674L98.456 13.91V3.637h-.093c-2.394 0-4.197 1.74-4.197 4.104v19.29h.093c2.393 0 4.196-1.74 4.196-4.102v-7.155c2.145 0 3.762 1.432 4.54 3.296l3.08 7.96h4.717l-3.428-8.49m82.381-8.918H177.22v3.327h4.212v14.08h.186a3.92 3.92 0 0 0 3.915-3.916V12.95h4.212V9.62m-31.497 14.116l-1.432-14.114h-9.976l-.62 4.23c-.562 3.76-1.443 8.488-4.814 10.505l.28 7.212h.22a2.978 2.978 0 0 0 2.977-2.98l.057-1.56h11.355l.155 4.54h.22a2.979 2.979 0 0 0 2.978-2.98l.148-4.233-1.548-.62zm-11.646.123c1.927-2.044 2.848-5.72 3.285-8.548l.28-2.517h3.23l.996 11.064h-7.79zm108.121-2.393c-.923-1.825-2.02-3.22-3.667-3.906l6.167-7.938h-4.487l-5.97 7.845V9.622H242.6v17.41h.186c2.146 0 3.98-1.804 3.98-3.948V19.12c1.74 0 2.984 1.29 3.67 2.813l2.5 5.098h4.484l-2.697-5.564m-51.063-9.102c-1.025 0-2.115.175-2.707.33V7.23h5.52c1.974 0 3.575-1.6 3.575-3.575v-.063h-13.26v23.44h6.747c5.05 0 8.818-2.726 8.818-7.385 0-3.993-3.128-7.282-8.694-7.282zm-.187 11.8l-2.52-.004v-8.318c.53-.125 1.463-.302 2.27-.302 3.013 0 4.777 1.794 4.777 4.015 0 2.392-1.697 4.61-4.527 4.61zM141.03 17.86c0-5.22-2.518-8.238-7.055-8.238-4.602 0-7.4 3.45-7.4 8.77 0 5.467 3.016 8.888 8.083 8.888 2.797 0 4.756-.683 5.813-1.245v-3.45c-1.056.747-2.517 1.68-5.407 1.68-2.61 0-4.042-1.493-4.383-4.322l10.35-1.428v-.654zm-10.6-.745c0-3.078 1.088-4.725 3.42-4.787h.156c1.148 0 3.295.373 3.42 3.823l-6.995.965zm82.45 4.973c0 3.265 2.395 5.192 6.995 5.192h.87c1.616 0 4.29-.25 5.44-.466V15.746c0-4.35-2.92-6.124-6.434-6.124-2.673 0-4.723.778-5.81 1.306v2.768c1.833-.964 3.48-1.586 5.126-1.586 1.99 0 3.358.59 3.358 2.797v1.152c-5.19.496-9.543 1.55-9.543 6.028zm9.544 2.828c-.404.094-1.43.156-2.3.156-2.237 0-3.543-.964-3.543-3.108 0-2.892 2.207-3.637 5.844-3.98v6.932zM117.576 9.622c-2.36 0-4.32.404-5.842 1.214l-.092.06v23.036h.216c2.145 0 3.885-1.772 3.885-3.917V27c.592.155 1.4.28 2.3.28 4.507 0 7.46-3.606 7.46-9.014 0-5.38-2.982-8.644-7.927-8.644zm-.37 14.985c-.592 0-1.06-.062-1.463-.218V12.544a5.005 5.005 0 0 1 1.74-.28c2.706 0 3.887 1.96 3.887 6.126 0 2.795-.714 6.217-4.165 6.217z" fill="#FFF"/><path d="M.583 14.977C.583 7.017 7.037.56 15 .56c7.956 0 14.407 6.457 14.407 14.417 0 7.956-6.45 14.414-14.408 14.414C7.036 29.39.582 22.934.582 14.978" fill="#DB322A"/><path d="M16.448 8.85c.22-.324.128-.564-.02-.695-.093-.083-2.34-1.44-2.34-1.44a.61.61 0 0 1-.27-.504c0-.333.204-.582.65-.712 1.444-.392 6.517-.6 8.24-.6.816 0 2.43-.004 3.487.063 1.195.077 2.09.324 2.317.902.44 1.126-.287 1.823-.807 2.29-.272.25-3.945 3.715-8.257 7.48-3.8 3.323-8.047 6.703-10.51 8.55-3.463 2.59-4.137 2.966-4.137 2.966a.812.812 0 0 1-.355.087.624.624 0 0 1-.64-.63c0-.134.043-.265.115-.367 0 0 6.816-9.825 8.054-11.482 1.248-1.662 4.222-5.546 4.222-5.546s.035-.045.252-.36" fill="#DB322A"/><path d="M15.955 8.66c.223-.324.127-.564-.018-.696-.096-.084-2.34-1.443-2.34-1.443a.604.604 0 0 1-.27-.507c0-.33.195-.582.652-.708 1.442-.393 6.516-.603 8.235-.603.817 0 2.43-.005 3.488.064 1.19.08 2.09.322 2.32.9.44 1.133-.288 1.826-.807 2.293-.276.25-3.948 3.717-8.257 7.478-3.806 3.327-8.053 6.708-10.512 8.547-3.464 2.594-4.134 2.973-4.134 2.973a.915.915 0 0 1-.36.09.625.625 0 0 1-.637-.63c0-.143.04-.27.113-.373 0 0 6.813-9.82 8.055-11.48a740.66 740.66 0 0 1 4.224-5.548l.245-.356" fill="#FFF"/></g></svg>