<svg width="357" height="279" viewBox="0 0 357 279" fill="none" xmlns="http://www.w3.org/2000/svg">
<path d="M141.633 156.36V162H112.136V155.54L113.605 154.412C127.779 143.611 134.865 134.782 134.865 127.923C134.865 125.599 134.136 123.719 132.678 122.283C131.219 120.825 129.328 120.096 127.004 120.096C122.948 120.096 120.316 121.896 119.108 125.496H112.717L112.99 124.505C114.654 118.079 119.439 114.866 127.346 114.866C131.721 114.866 135.173 115.983 137.702 118.216C140.231 120.449 141.496 123.491 141.496 127.342C141.496 131.717 139.696 136.513 136.096 141.731C132.518 146.95 128.098 151.188 122.834 154.446L119.792 156.36H141.633ZM177.029 138.895C177.029 155.141 171.72 163.265 161.102 163.265C150.757 163.265 145.584 155.21 145.584 139.1C145.584 122.944 150.813 114.866 161.272 114.866C171.777 114.866 177.029 122.876 177.029 138.895ZM170.398 138.553C170.398 131.74 169.726 126.966 168.382 124.231C167.06 121.474 164.736 120.096 161.409 120.096C158.014 120.096 155.633 121.622 154.266 124.676C152.898 127.729 152.215 133.027 152.215 140.569C152.215 146.79 152.91 151.256 154.3 153.968C155.713 156.679 158.025 158.035 161.238 158.035C164.542 158.035 166.889 156.543 168.279 153.558C169.692 150.55 170.398 145.548 170.398 138.553ZM210.375 156.36V162H180.878V155.54L182.348 154.412C196.521 143.611 203.607 134.782 203.607 127.923C203.607 125.599 202.878 123.719 201.42 122.283C199.962 120.825 198.07 120.096 195.746 120.096C191.69 120.096 189.058 121.896 187.851 125.496H181.459L181.732 124.505C183.396 118.079 188.181 114.866 196.088 114.866C200.463 114.866 203.915 115.983 206.444 118.216C208.974 120.449 210.238 123.491 210.238 127.342C210.238 131.717 208.438 136.513 204.838 141.731C201.26 146.95 196.84 151.188 191.576 154.446L188.534 156.36H210.375ZM245.771 138.895C245.771 155.141 240.462 163.265 229.844 163.265C219.499 163.265 214.326 155.21 214.326 139.1C214.326 122.944 219.556 114.866 230.015 114.866C240.519 114.866 245.771 122.876 245.771 138.895ZM239.141 138.553C239.141 131.74 238.468 126.966 237.124 124.231C235.802 121.474 233.478 120.096 230.151 120.096C226.756 120.096 224.375 121.622 223.008 124.676C221.641 127.729 220.957 133.027 220.957 140.569C220.957 146.79 221.652 151.256 223.042 153.968C224.455 156.679 226.768 158.035 229.98 158.035C233.285 158.035 235.632 156.543 237.021 153.558C238.434 150.55 239.141 145.548 239.141 138.553Z" fill="#FC3F27"/>
<path d="M322.417 212.482C313.503 230.027 289.566 238.216 257.446 236.794C225.427 235.377 185.694 224.403 145.869 204.168C106.044 183.933 73.7542 158.31 53.7303 133.284C33.644 108.179 26.1458 84.0173 35.0603 66.4729C43.9748 48.9285 67.9114 40.7388 100.031 42.1608C132.051 43.5783 171.784 54.5517 211.609 74.7871C251.433 95.0225 283.723 120.645 303.747 145.671C323.833 170.776 331.332 194.938 322.417 212.482Z" stroke="#06D1EE" stroke-width="2"/>
</svg>
