<svg width="82" height="52" viewBox="0 0 82 52" fill="none" xmlns="http://www.w3.org/2000/svg">
<path d="M73.113 23.5763C73.113 23.5763 59.3413 9.8523 52.6918 3.17918C53.8263 2.07748 54.9608 1.00726 55.9693 9.00751e-07C64.6672 8.65618 73.3966 17.3438 82 25.9056C73.3651 34.5303 64.6357 43.2179 55.8747 52C54.9923 51.0557 53.9208 49.954 52.8809 48.8838C59.4673 42.2736 73.1445 28.5811 73.1445 28.5811L72.5772 28.5811C72.5772 28.5811 27.4174 28.5811 -4.59975e-07 28.5811C-4.3262e-07 26.8814 -4.07797e-07 25.339 -3.79429e-07 23.5763C27.2913 23.5763 72.4512 23.5763 72.4512 23.5763L73.113 23.5763V23.5763Z" fill="white"/>
</svg>
