<svg width="316" height="316" viewBox="0 0 316 316" fill="none" xmlns="http://www.w3.org/2000/svg">
<path d="M273.392 101.881L252.179 113.782L248.301 106.819C247.263 104.923 246.907 102.993 247.323 101.055C247.708 99.1089 248.829 97.6255 250.693 96.5752C252.596 95.5035 254.464 95.3532 256.327 96.1327C256.7 94.1184 257.77 92.5885 259.588 91.5895C261.444 90.569 263.29 90.3806 265.149 91.0624C267.008 91.7443 268.476 93.0226 269.514 94.9188L273.392 101.881ZM255.196 100.053C254.419 99.7388 253.623 99.8366 252.748 100.33C251.911 100.801 251.405 101.462 251.277 102.261C251.141 103.089 251.297 103.903 251.767 104.741L253.603 108.017L258.892 105.038L257.055 101.762C256.615 100.933 255.973 100.367 255.196 100.053ZM264.082 95.097C263.335 94.7912 262.509 94.8806 261.672 95.3521C260.835 95.8237 260.329 96.4845 260.163 97.3047C259.997 98.1249 260.145 98.9689 260.645 99.8153L262.481 103.091L267.799 100.12L265.963 96.8443C265.434 95.9896 264.829 95.4028 264.082 95.097Z" fill="white"/>
<path d="M231.139 83.4835L249.823 67.9204L252.549 71.221L233.865 86.7842L231.139 83.4835ZM241.461 95.9125L244.187 99.2132L262.871 83.65L258.322 78.1688C256.933 76.4952 255.255 75.511 253.296 75.1863C251.336 74.8616 249.555 75.3892 247.929 76.7311C246.303 78.073 245.476 79.7671 245.425 81.7754C245.375 83.7837 246.048 85.6097 247.415 87.2452L249.209 89.4175L241.461 95.9125ZM252.376 86.8063L250.51 84.5495C249.917 83.8056 249.588 83.039 249.605 82.1771C249.614 81.345 249.98 80.6128 250.702 79.9806C251.453 79.3567 252.224 79.1232 253.042 79.2886C253.861 79.4539 254.566 79.9086 255.188 80.6608L257.024 82.9093L252.376 86.8063Z" fill="white"/>
<path d="M228.182 80.8888L214.967 70.6661L217.441 67.4432L227.288 75.0522L231.013 70.222L226.796 66.9846C225.112 65.6778 224.066 64.0363 223.651 62.09C223.244 60.114 223.686 58.3116 224.992 56.6233C226.298 54.9351 227.926 54.0432 229.913 53.9262C231.9 53.8092 233.746 54.4232 235.459 55.7384L243.075 61.5978L228.182 80.8888ZM228.368 59.2072C227.769 59.9704 227.582 60.7526 227.768 61.5751C227.954 62.3977 228.427 63.1083 229.167 63.6689L233.457 66.9908L237.144 62.182L232.854 58.8601C232.093 58.2615 231.278 57.9687 230.469 57.9986C229.66 58.0285 228.966 58.4441 228.368 59.2072Z" fill="white"/>
<path d="M207.639 50.7617L213.316 53.4774L217.713 44.3091L221.582 46.1644L211.066 68.1273L201.52 63.5563C199.571 62.6245 198.196 61.2438 197.396 59.4142C196.595 57.5846 196.664 55.7418 197.587 53.8179C198.511 51.894 199.939 50.6891 201.847 50.165C203.786 49.6492 205.719 49.8382 207.639 50.7617ZM201.456 55.6732C201.049 56.5542 201.01 57.378 201.348 58.1148C201.686 58.8517 202.32 59.4468 203.199 59.8538L208.957 62.6242L211.578 57.1633L205.82 54.3928C204.97 53.9941 204.135 53.8883 203.314 54.0754C202.484 54.2921 201.855 54.822 201.456 55.6732Z" fill="white"/>
<path d="M184.267 57.3379L180.991 31.0903L185.319 32.3361L186.369 40.8166L201.035 36.8395L205.185 38.0352L188.565 58.5753L184.267 57.3379ZM187.883 52.8946L196.908 41.8459L186.883 45.0378L187.883 52.8946Z" fill="white"/>
<path d="M178.156 51.4831L177.733 55.5057L160.689 53.6798L161.113 49.6573L167.485 50.3527L169.686 30.1672L173.946 30.6237L171.784 50.7877L178.156 51.4831Z" fill="white"/>
<path d="M154.777 43.8035L148.491 44.2878C146.36 44.4607 144.489 43.9361 142.869 42.7435C141.249 41.5509 140.369 39.8916 140.22 37.7952C140.071 35.6989 140.699 33.9167 142.087 32.5082C143.475 31.0997 145.264 30.3173 147.425 30.1527L157.995 29.3606L159.808 53.6251L155.525 53.9329L154.777 43.8035ZM144.512 37.4577C144.596 38.4124 144.972 39.1278 145.64 39.6039C146.337 40.0883 147.139 40.3131 148.092 40.2273L154.476 39.7382L154.03 33.6742L147.646 34.1632C146.663 34.2408 145.897 34.5718 145.298 35.11C144.682 35.7077 144.427 36.5029 144.512 37.4577Z" fill="white"/>
<path d="M125.02 59.2149L109.298 66.0421L99.6365 43.7181L103.579 41.9985L111.626 60.5955L119.502 57.186L111.454 38.589L115.396 36.8694L125.02 59.2149Z" fill="white"/>
<path d="M93.2306 50.9104C96.6655 51.4563 99.4148 53.1903 101.487 56.0828C103.559 58.9752 104.306 62.1381 103.727 65.5714C103.149 69.0048 101.423 71.7312 98.5339 73.8101C95.6527 75.8593 92.5244 76.6193 89.0895 76.0734C85.6546 75.5275 82.9053 73.7935 80.8333 70.901C78.7612 68.0086 78.0143 64.8457 78.5927 61.4123C79.171 57.979 80.8966 55.2526 83.7862 53.1737C86.6674 51.1245 89.7957 50.3645 93.2306 50.9104ZM99.7412 64.9352C100.138 62.6066 99.6242 60.4401 98.2002 58.4356C96.7677 56.4609 94.8937 55.2612 92.5614 54.8961C90.2291 54.531 88.1039 55.0265 86.1395 56.4339C84.1751 57.8414 82.9756 59.7201 82.5789 62.0486C82.1822 64.3772 82.6958 66.5437 84.1283 68.5184C85.5607 70.4932 87.4347 71.6928 89.7671 72.0579C92.1291 72.4314 94.2626 71.9061 96.2186 70.5284C98.1747 69.1508 99.3362 67.2935 99.7412 64.9352Z" fill="white"/>
<path d="M56.9665 79.5855L67.4278 67.5271L64.0759 64.6289L66.8798 61.3702L73.2689 66.9179C72.316 68.0311 71.842 69.1502 71.9063 70.2918C71.9706 71.4335 72.5685 72.5 73.7 73.4915L79.9062 78.8915C81.4545 80.2246 82.2883 81.9351 82.4623 83.9422C82.5982 85.9707 82.0084 87.7314 80.676 89.284L75.2788 95.5073L60.0037 82.235L57.1998 85.4937L50.8107 79.946L53.6146 76.6873L56.9665 79.5855ZM77.1534 82.1966L70.9769 76.8049C69.3051 75.3409 68.5567 73.7827 68.7531 72.1685L62.7909 79.0359L74.897 89.5575L77.4987 86.5631C78.0637 85.919 78.3104 85.1535 78.2601 84.3047C78.1718 83.4774 77.7957 82.762 77.1534 82.1966Z" fill="white"/>
<path d="M66.0285 111.244L39.7202 109.099L41.8344 105.101L50.3254 105.781L49.4626 90.5792L51.4674 86.7433L68.1427 107.246L66.0285 111.244ZM62.4368 106.802L53.5064 95.6939L54.5435 106.161L62.4368 106.802Z" fill="white"/>
<path d="M45.1894 126.267L46.9514 120.212L37.2051 117.383L38.3949 113.254L61.7103 120.017L58.7585 130.2C58.1446 132.275 57.0285 133.856 55.3721 134.965C53.7241 136.044 51.8606 136.292 49.8113 135.717C47.7704 135.113 46.3456 133.91 45.5071 132.102C44.7067 130.273 44.5838 128.312 45.1894 126.267ZM51.0392 131.567C51.9599 131.825 52.7858 131.736 53.4577 131.282C54.1378 130.799 54.6221 130.1 54.8808 129.177L56.6679 123.033L50.8337 121.333L49.0467 127.477C48.7879 128.4 48.8085 129.24 49.1679 130.015C49.4975 130.781 50.1185 131.309 51.0392 131.567Z" fill="white"/>
<path d="M34.9899 139.105C37.6158 136.824 40.7135 135.831 44.2615 136.087C47.8096 136.344 50.6934 137.827 52.9677 140.455C55.204 143.104 56.2005 146.177 55.9108 149.723C55.6294 153.24 54.2055 156.147 51.5796 158.428C48.9537 160.71 45.856 161.703 42.308 161.446C38.7599 161.19 35.8464 159.698 33.6101 157.049C31.3738 154.399 30.3773 151.327 30.667 147.781C30.9187 144.256 32.3723 141.357 34.9899 139.105ZM49.9113 143.129C48.3694 141.316 46.3692 140.338 43.9571 140.143C41.5153 139.94 39.4292 140.639 37.6179 142.186C35.8364 143.741 34.8364 145.707 34.6773 148.103C34.4801 150.519 35.1674 152.638 36.6796 154.443C38.1918 156.247 40.192 157.225 42.6338 157.428C45.0755 157.632 47.1914 156.941 48.9813 155.356C50.7628 153.801 51.7712 151.805 51.96 149.418C52.1191 147.022 51.4615 144.912 49.9113 143.129Z" fill="white"/>
<path d="M46.5675 168.419L57.7938 183.22L53.072 183.951L43.6595 171.135L38.449 186.175L33.7271 186.905L40.0713 169.422L31.3051 170.752L30.6721 166.498L54.7007 162.835L55.3337 167.089L46.5675 168.419Z" fill="white"/>
<path d="M43.8054 214.483L64.9116 202.392L68.8657 209.311C69.9418 211.186 70.2976 213.115 69.912 215.062C69.5263 217.008 68.4269 218.53 66.6007 219.559C64.6984 220.63 62.8219 220.81 60.9879 220.039C60.645 222.062 59.5752 223.592 57.7787 224.629C55.9442 225.687 54.0974 225.876 52.2003 225.215C50.3329 224.563 48.8653 223.285 47.7893 221.41L43.8054 214.483ZM53.1998 221.194C53.9767 221.508 54.773 221.41 55.6183 220.909C56.4553 220.438 56.961 219.777 57.0972 218.948C57.2632 218.128 57.0857 217.276 56.6159 216.438L54.7498 213.154L49.4447 216.192L51.3109 219.476C51.8103 220.323 52.423 220.88 53.1998 221.194ZM62.0218 216.124C62.807 216.408 63.6033 216.31 64.4403 215.839C65.2773 215.367 65.783 214.707 65.9109 213.908C66.0387 213.109 65.8613 212.257 65.3915 211.419L63.5254 208.134L58.2584 211.152L60.1245 214.436C60.5943 215.274 61.2366 215.839 62.0218 216.124Z" fill="white"/>
<path d="M68.0475 226.738L69.879 228.889C71.2761 230.533 71.9493 232.359 71.9368 234.345C71.9159 236.362 71.0968 238.026 69.4924 239.406C67.8881 240.786 66.0767 241.306 64.1388 241.019C62.1712 240.724 60.4931 239.74 59.1043 238.066L54.5083 232.636L73.0559 216.874L75.8204 220.154L68.0475 226.738ZM60.3506 233.279L62.2248 235.506C62.8468 236.259 63.5606 236.684 64.3792 236.849C65.1978 237.014 65.9764 236.751 66.6983 236.119C67.4201 235.487 67.7773 234.784 67.765 233.914C67.7444 233.073 67.4528 232.285 66.8225 231.563L64.9483 229.336L60.3506 233.279ZM83.4622 229.231L64.9146 244.993L67.6791 248.272L86.2267 232.51L83.4622 229.231Z" fill="white"/>
<path d="M88.6511 234.602L101.913 244.774L99.4391 247.997L89.5833 240.418L85.8878 245.256L90.1057 248.493C91.7895 249.8 92.8729 251.42 93.2501 253.388C93.657 255.364 93.2157 257.166 91.939 258.863C90.6624 260.56 89.0051 261.443 87.0181 261.56C85.0311 261.677 83.1851 261.063 81.4716 259.748L73.8778 253.927L88.6511 234.602ZM88.5631 256.279C89.1318 255.508 89.3488 254.734 89.163 253.911C88.9772 253.089 88.5038 252.378 87.7343 251.809L83.4357 248.517L79.7486 253.326L84.0472 256.618C84.8084 257.217 85.6233 257.509 86.4325 257.479C87.2418 257.45 87.9647 257.042 88.5631 256.279Z" fill="white"/>
<path d="M108.541 264.321L102.871 261.576L98.4531 270.706L94.5929 268.821L105.189 246.913L114.719 251.543C116.668 252.475 118.034 253.885 118.805 255.707C119.605 257.536 119.529 259.409 118.613 261.303C117.689 263.227 116.262 264.432 114.324 264.948C112.415 265.472 110.49 265.253 108.541 264.321ZM114.774 259.456C115.211 258.583 115.25 257.759 114.882 257.014C114.544 256.278 113.91 255.682 113.04 255.246L107.29 252.445L104.64 257.898L110.389 260.698C111.239 261.097 112.074 261.203 112.895 261.016C113.746 260.837 114.346 260.299 114.774 259.456Z" fill="white"/>
<path d="M131.976 257.859L135.116 284.133L130.788 282.887L129.769 274.415L115.089 278.324L110.94 277.129L127.67 256.652L131.976 257.859ZM128.309 262.256L119.225 273.288L129.263 270.164L128.309 262.256Z" fill="white"/>
<path d="M138.049 263.736L138.51 259.692L155.529 261.607L155.067 265.651L148.665 264.947L146.405 285.116L142.153 284.63L144.413 264.461L138.049 263.736Z" fill="white"/>
<path d="M161.403 271.504L167.681 271.05C169.803 270.907 171.675 271.431 173.294 272.624C174.884 273.808 175.764 275.467 175.905 277.594C176.046 279.72 175.426 281.472 174.008 282.872C172.591 284.272 170.801 285.055 168.649 285.19L158.118 285.96L156.432 261.699L160.715 261.392L161.403 271.504ZM171.652 277.91C171.597 276.963 171.221 276.248 170.532 275.734C169.835 275.249 169.033 275.024 168.08 275.11L161.704 275.57L162.12 281.625L168.496 281.166C169.479 281.088 170.236 280.787 170.844 280.219C171.452 279.651 171.698 278.886 171.652 277.91Z" fill="white"/>
<path d="M191.208 256.267L206.972 249.516L216.528 271.875L212.594 273.564L204.623 254.924L196.726 258.296L204.668 276.927L200.734 278.617L191.208 256.267Z" fill="white"/>
<path d="M222.955 264.72C219.529 264.144 216.779 262.41 214.737 259.526C212.673 256.604 211.956 253.45 212.564 250.025C213.172 246.6 214.898 243.873 217.779 241.824C220.66 239.775 223.81 239.053 227.245 239.599C230.671 240.174 233.421 241.908 235.463 244.793C237.527 247.715 238.244 250.869 237.636 254.294C237.028 257.719 235.302 260.446 232.421 262.495C229.54 264.544 226.39 265.266 222.955 264.72ZM216.521 250.653C216.124 252.981 216.638 255.148 218.032 257.144C219.426 259.14 221.309 260.31 223.633 260.705C225.957 261.1 228.12 260.583 230.076 259.205C232.04 257.798 233.24 255.919 233.666 253.599C234.063 251.27 233.579 249.112 232.155 247.107C230.761 245.111 228.849 243.933 226.525 243.538C224.171 243.135 222.037 243.66 220.081 245.038C218.117 246.445 216.926 248.294 216.521 250.653Z" fill="white"/>
<path d="M259.343 236.176L248.831 248.188L252.174 251.116L249.349 254.336L242.998 248.767C243.98 247.662 244.425 246.535 244.36 245.393C244.296 244.252 243.698 243.185 242.575 242.164L236.377 236.734C234.837 235.371 233.995 233.691 233.859 231.662C233.723 229.634 234.321 227.843 235.675 226.329L241.094 220.143L256.335 233.535L259.161 230.314L265.512 235.883L262.686 239.104L259.343 236.176ZM239.181 233.476L245.349 238.897C247.021 240.361 247.769 241.919 247.565 243.563L253.557 236.704L241.497 226.131L238.895 229.126C238.33 229.77 238.083 230.535 238.134 231.384C238.192 232.203 238.539 232.91 239.181 233.476Z" fill="white"/>
<path d="M250.493 204.448L276.806 206.691L274.691 210.689L266.209 209.979L267.012 225.164L264.978 228.992L248.387 208.416L250.493 204.448ZM254.046 208.912L262.939 220.041L261.939 209.552L254.046 208.912Z" fill="white"/>
<path d="M271.391 189.442L269.629 195.497L279.367 198.356L278.147 202.477L254.849 195.654L257.83 185.479C258.444 183.404 259.59 181.831 261.246 180.723C262.924 179.652 264.758 179.396 266.799 180C268.84 180.605 270.264 181.807 271.095 183.645C271.874 185.436 271.997 187.397 271.391 189.442ZM265.55 184.112C264.629 183.854 263.803 183.944 263.131 184.397C262.451 184.881 261.967 185.58 261.708 186.502L259.921 192.646L265.725 194.338L267.512 188.194C267.771 187.271 267.75 186.431 267.421 185.664C267.091 184.898 266.47 184.371 265.55 184.112Z" fill="white"/>
<path d="M281.628 176.582C279.002 178.864 275.905 179.857 272.365 179.571C268.825 179.284 265.903 177.823 263.667 175.173C261.431 172.524 260.443 169.422 260.724 165.905C261.005 162.388 262.459 159.49 265.085 157.208C267.711 154.927 270.809 153.934 274.348 154.22C277.888 154.506 280.81 155.968 283.046 158.617C285.282 161.267 286.271 164.369 285.989 167.886C285.738 171.411 284.254 174.301 281.628 176.582ZM266.753 172.508C268.295 174.32 270.257 175.32 272.708 175.493C275.149 175.697 277.265 175.006 279.038 173.481C280.82 171.926 281.82 169.959 282.009 167.572C282.206 165.155 281.548 163.045 280.006 161.232C278.494 159.428 276.502 158.42 274.09 158.225C271.648 158.021 269.533 158.712 267.751 160.267C265.94 161.814 264.94 163.781 264.743 166.197C264.546 168.614 265.211 170.695 266.753 172.508Z" fill="white"/>
<path d="M270.135 147.196L258.947 132.373L263.66 131.672L273.035 144.51L278.275 129.478L282.988 128.778L276.615 146.252L285.411 144.931L286.044 149.185L262.002 152.78L261.369 148.526L270.135 147.196Z" fill="white"/>
</svg>
