<svg width="64" height="157" viewBox="0 0 64 157" fill="none" xmlns="http://www.w3.org/2000/svg">
<path d="M5.922 133.82L0.867997 133.82L0.867998 153.846L28 153.846L28 148.184L17.094 148.184L17.094 136.86L12.154 136.86L12.154 148.184L5.922 148.184L5.922 133.82ZM28 115.315L28 109.577L0.867997 118.241L0.867997 127.019L28 135.645L28 130.059L20.666 127.855L20.666 117.519L28 115.315ZM6.302 123.561L6.302 121.889L15.726 119.039L15.726 126.411L6.302 123.561ZM28 107.271L28 101.989L7.784 101.989L7.784 101.001L18.728 96.4788L18.728 90.8168L7.784 86.2568L7.784 85.2688L28 85.2688L28 79.9868L0.867995 79.9868L0.867995 88.7268L11.812 93.1348L11.812 94.1228L0.867996 98.5688L0.867996 107.271L28 107.271ZM0.867995 75.0539L28 75.0539L28 69.3919L0.867994 69.3919L0.867995 75.0539ZM22.832 58.7816L0.867994 58.7816L0.867994 64.4436L28 64.4436L28 44.4176L22.832 44.4176L22.832 58.7816ZM11.698 36.0977L0.867993 41.9117L0.867993 47.8777L18.348 38.4157L28 38.4157L28 32.7157L18.348 32.7157L0.867992 23.2157L0.867993 29.2197L11.698 35.0337L11.698 36.0977ZM63 135.986L63 130.248L35.868 138.912L35.868 147.69L63 156.316L63 150.73L55.666 148.526L55.666 138.19L63 135.986ZM41.302 144.232L41.302 142.56L50.726 139.71L50.726 147.082L41.302 144.232ZM47.914 116.797L52.55 116.797L52.55 110.375C56.008 110.489 58.478 112.389 58.478 116.569C58.478 121.471 54.602 123.903 49.434 123.903C44.266 123.903 40.428 121.471 40.428 116.607C40.428 113.681 41.606 111.933 43.62 111.325L43.62 105.435C38.642 106.461 35.374 110.375 35.374 116.569C35.374 125.081 41.264 129.717 49.434 129.717C57.642 129.717 63.494 125.119 63.494 116.607C63.494 108.095 57.414 104.713 51.106 104.713L47.914 104.713L47.914 116.797ZM57.946 95.3744L51.562 95.3744L51.562 84.1644L46.622 84.1644L46.622 95.3744L40.922 95.3744L40.922 80.9724L35.868 80.9724L35.868 101.036L63 101.036L63 80.5544L57.946 80.5544L57.946 95.3744ZM35.868 58.9698L54.26 58.9698L54.26 59.9578L35.868 69.9138L35.868 77.2478L63 77.2478L63 72.0798L44.608 72.0798L44.608 71.0918L63 61.1358L63 53.8018L35.868 53.8018L35.868 58.9698ZM54.336 31.9052C56.92 32.4752 58.44 34.4132 58.44 37.3392C58.44 42.2032 54.45 44.5212 49.434 44.5212C44.418 44.5212 40.428 42.2032 40.428 37.3392C40.428 34.5652 41.53 32.8552 43.772 32.2092L43.772 26.2812C38.794 27.1932 35.374 31.3352 35.374 37.3392C35.374 45.5852 41.112 50.3352 49.434 50.3352C57.756 50.3352 63.494 45.6232 63.494 37.3392C63.494 30.9932 59.732 26.8132 54.336 26.0152L54.336 31.9052ZM46.698 13.3496L35.868 19.1636L35.868 25.1296L53.348 15.6676L63 15.6676L63 9.96761L53.348 9.96761L35.868 0.467612L35.868 6.47161L46.698 12.2856L46.698 13.3496Z" fill="white"/>
</svg>
