<svg width="13" height="29" viewBox="0 0 13 29" fill="none" xmlns="http://www.w3.org/2000/svg">
<path d="M2.81762 14.3903C2.81762 19.2512 2.81762 24.0296 2.81762 28.8136C4.69931 28.8136 6.5394 28.8136 8.44188 28.8136C8.44188 23.9911 8.44188 19.2017 8.44188 14.3903C9.59064 14.3903 11.176 14.3793 12.2624 14.3958C12.2624 14.137 12.6627 10.4321 12.7458 9.51827C11.2748 9.51827 9.87653 9.51827 8.45747 9.51827C8.45747 8.80261 8.45227 8.18054 8.45227 7.49241C8.45227 5.40048 8.9045 5.02613 10.7758 5.02613C11.4203 5.02613 12.0649 5.02613 12.7302 5.02613C12.7302 3.33607 12.7302 1.64051 12.7302 0C12.6627 0 9.08643 0 7.29831 0C4.53297 0 2.81762 1.90476 2.81762 5.27937C2.80203 6.52351 2.81242 7.77317 2.81242 9.01731C2.81242 9.18246 2.81242 9.34762 2.81242 9.57333C1.86638 9.57333 0.977524 9.57333 0.0678711 9.57333C0.0678711 11.2028 0.0678711 12.7663 0.0678711 14.3848C0.972326 14.3903 1.86119 14.3903 2.81762 14.3903Z" fill="white"/>
</svg>
