<svg width="119" height="119" viewBox="0 0 119 119" fill="none" xmlns="http://www.w3.org/2000/svg">
<circle cx="59.0881" cy="59.0881" r="42.1736" transform="rotate(37.1817 59.0881 59.0881)" fill="#06CFED"/>
<path d="M61.1662 53.3553C60.0732 52.8347 59.0173 52.2394 58.0056 51.5736C56.1964 50.3336 54.2646 49.2846 52.2403 48.443C50.2772 47.6123 48.3063 46.8769 46.3393 46.2091C45.5718 45.9501 42.357 44.9104 42.0264 44.8857C41.6958 44.8609 41.5915 45.0306 41.4143 45.4492C41.1841 45.9933 41.0424 46.3282 41.001 46.4258C40.8092 46.8793 40.8023 47.1643 40.9774 47.3453C41.2055 47.5497 41.4036 47.7858 41.5659 48.0466C41.803 48.5418 41.2146 49.6829 40.9184 50.306C40.5385 51.1076 40.262 51.7227 40.1361 52.1547C39.4692 53.6292 39.3101 55.2823 39.6844 56.8493C40.0501 57.7793 40.6458 58.5976 41.4153 59.2267C42.3651 60.0185 43.4144 60.6809 44.5365 61.1974C45.6867 61.8055 46.9124 62.2578 48.1822 62.5427C49.303 62.7766 50.4625 62.7653 51.583 62.5095C52.522 62.197 53.3908 61.6975 54.1374 61.0407C54.8543 60.381 55.5092 59.6558 56.0936 58.8745C56.5843 58.1355 57.2035 57.4917 57.921 56.9746C58.1826 56.8496 58.4668 56.7814 58.7552 56.7743C59.0437 56.7673 59.3298 56.8217 59.5949 56.9339C59.8601 57.0461 60.0983 57.2136 60.2941 57.4256C60.4899 57.6375 60.6388 57.889 60.7312 58.1639C60.8596 59.0389 60.8286 59.9316 60.6397 60.7983C60.4858 61.7617 60.4212 62.7368 60.4469 63.7107C60.4953 64.7039 60.7416 65.6753 61.1711 66.5669C61.7676 67.5492 62.5668 68.3895 63.515 69.0311C64.6036 69.7442 65.7817 70.3091 67.019 70.7113C68.171 71.1572 69.377 71.4491 70.6067 71.5797C71.594 71.694 72.5962 71.5519 73.5183 71.1668C74.9037 70.3445 75.9796 69.0794 76.5737 67.574C76.7478 67.1625 77.0106 66.5416 77.3559 65.7254C77.6246 65.0906 78.0064 63.862 78.5269 63.6875C78.8271 63.6224 79.1345 63.6002 79.44 63.6216C79.6919 63.6213 79.8917 63.4179 80.0836 62.9645C80.1249 62.8668 80.2637 62.5389 80.4969 61.9878C80.6711 61.5762 80.7193 61.3664 80.4753 61.1562C80.2312 60.946 77.1877 59.329 76.5225 58.9818C74.6805 58.0377 72.7793 57.1181 70.8104 56.3014C68.7969 55.4343 66.6989 54.778 64.5492 54.3427C63.3991 54.0946 62.2686 53.7646 61.1662 53.3553Z" fill="white"/>
</svg>
