<svg width="30" height="29" viewBox="0 0 30 29" fill="none" xmlns="http://www.w3.org/2000/svg">
<path d="M0.593262 21.2373C0.593262 16.6794 0.593262 12.1215 0.593262 7.55803C0.598768 7.51399 0.609779 7.46995 0.615285 7.43142C0.64832 7.13966 0.670343 6.84791 0.725401 6.56166C1.07227 4.71757 1.95319 3.17074 3.37369 1.94318C4.57395 0.897275 5.97793 0.275238 7.5636 0.066057C7.76181 0.0385333 7.96002 0.022019 8.15823 0C12.717 0 17.2758 0 21.8346 0C21.8677 0.00550475 21.9062 0.0165143 21.9392 0.022019C23.123 0.0990855 24.2462 0.407352 25.2647 1.00737C27.902 2.55421 29.339 4.8607 29.3776 7.92134C29.4326 12.2536 29.3941 16.5913 29.3886 20.9291C29.3886 21.2649 29.3611 21.6006 29.3115 21.9309C29.0803 23.5218 28.4416 24.9255 27.368 26.12C25.8098 27.8485 23.8553 28.7788 21.5263 28.7954C17.1822 28.8284 12.8382 28.8064 8.49408 28.8064C7.77282 28.8064 7.06257 28.6963 6.36334 28.4926C5.17959 28.1513 4.12798 27.5678 3.21953 26.7366C1.78251 25.4154 0.92361 23.7915 0.653825 21.8539C0.637308 21.6447 0.615285 21.441 0.593262 21.2373ZM14.9964 22.3988C19.4176 22.3988 22.9908 18.8318 22.9964 14.4114C23.0074 10.0131 19.4451 6.45707 15.0955 6.40753C10.6303 6.35799 6.9965 9.97461 6.9965 14.4004C6.9965 18.8152 10.5698 22.3988 14.9964 22.3988ZM26.2007 4.80014C26.2007 3.91938 25.4795 3.19826 24.5985 3.19826C23.7231 3.19826 23.0019 3.91388 22.9964 4.78913C22.9908 5.66989 23.7121 6.39652 24.593 6.40203C25.4685 6.40753 26.1952 5.6809 26.2007 4.80014Z" fill="white"/>
</svg>
