<svg xmlns="http://www.w3.org/2000/svg" width="29" height="36"><defs><linearGradient id="a" x1="367.5" y1="1623" x2="367.5" y2="1587" gradientUnits="userSpaceOnUse"><stop offset="0" stop-color="#d37802"/><stop offset="1" stop-color="#fed817"/></linearGradient></defs><path d="M373.674 1596.19a8.939 8.939 0 0 0-15.083 6.29 8.648 8.648 0 0 0 2.063 5.62 12.559 12.559 0 0 1 2.989 8.1s-.2 1.35.778 1.35h6.158c1 0 .778-1.35.778-1.35a13.063 13.063 0 0 1 3.116-8.25 8.643 8.643 0 0 0-.8-11.76zm-.419 10.81a14.585 14.585 0 0 0-3.453 9.02h-4.6a14.1 14.1 0 0 0-3.349-8.9 7.157 7.157 0 0 1-1.7-4.64 7.377 7.377 0 0 1 12.444-5.19 7.134 7.134 0 0 1 .658 9.71zm4.5-15.83a.783.783 0 0 0-1.1 0l-1.9 1.87a.75.75 0 0 0 0 1.08.793.793 0 0 0 1.1 0l1.9-1.87a.75.75 0 0 0 0-1.08zm-7.146 27.42h-6.218a.765.765 0 1 0 0 1.53h6.218a.765.765 0 1 0 0-1.53zm-1.173 2.88h-3.864a.765.765 0 1 0 0 1.53h3.864a.765.765 0 1 0 0-1.53zm-1.936-30.3a.774.774 0 0 0 .777-.77v-2.64a.777.777 0 0 0-1.554 0v2.64a.767.767 0 0 0 .777.77zm-7.257 2.96a.75.75 0 0 0 0-1.08l-1.9-1.87a.783.783 0 0 0-1.1 0 .756.756 0 0 0 0 1.08l1.9 1.87a.8.8 0 0 0 1.1 0zm20.98 6.36h-2.684a.765.765 0 1 0 0 1.53h2.684a.765.765 0 1 0 0-1.53zm-24.763 0h-2.683a.765.765 0 1 0 0 1.53h2.683a.765.765 0 1 0 0-1.53z" transform="translate(-353 -1587)" fill-rule="evenodd" fill="url(#a)"/></svg>