<svg xmlns="http://www.w3.org/2000/svg" xmlns:xlink="http://www.w3.org/1999/xlink" width="29" height="36" viewBox="0 0 29 36">
  <metadata><?xpacket begin="﻿" id="W5M0MpCehiHzreSzNTczkc9d"?>
<x:xmpmeta xmlns:x="adobe:ns:meta/" x:xmptk="Adobe XMP Core 5.6-c138 79.159824, 2016/09/14-01:09:01        ">
   <rdf:RDF xmlns:rdf="http://www.w3.org/1999/02/22-rdf-syntax-ns#">
      <rdf:Description rdf:about=""/>
   </rdf:RDF>
</x:xmpmeta>
                                                                                                    
                                                                                                    
                                                                                                    
                                                                                                    
                                                                                                    
                                                                                                    
                                                                                                    
                                                                                                    
                                                                                                    
                                                                                                    
                                                                                                    
                                                                                                    
                                                                                                    
                                                                                                    
                                                                                                    
                                                                                                    
                                                                                                    
                                                                                                    
                                                                                                    
                                                                                                    
                           
<?xpacket end="w"?></metadata>
<defs>
    <style>
      .cls-1 {
        fill-rule: evenodd;
        fill: url(#linear-gradient);
      }
    </style>
    <linearGradient id="linear-gradient" x1="367.5" y1="1623" x2="367.5" y2="1587" gradientUnits="userSpaceOnUse">
      <stop offset="0" stop-color="#d37802"/>
      <stop offset="1" stop-color="#fed817"/>
    </linearGradient>
  </defs>
  <path class="cls-1" d="M373.674,1596.19a8.939,8.939,0,0,0-15.083,6.29,8.648,8.648,0,0,0,2.063,5.62,12.559,12.559,0,0,1,2.989,8.1s-0.2,1.35.778,1.35h6.158c1,0,.778-1.35.778-1.35a13.063,13.063,0,0,1,3.116-8.25,8.643,8.643,0,0,0-.8-11.76h0ZM373.255,1607a14.585,14.585,0,0,0-3.453,9.02h-4.6a14.1,14.1,0,0,0-3.349-8.9,7.157,7.157,0,0,1-1.7-4.64,7.377,7.377,0,0,1,12.444-5.19A7.134,7.134,0,0,1,373.255,1607Zm4.5-15.83a0.783,0.783,0,0,0-1.1,0l-1.9,1.87a0.75,0.75,0,0,0,0,1.08,0.793,0.793,0,0,0,1.1,0l1.9-1.87A0.75,0.75,0,0,0,377.755,1591.17Zm-7.146,27.42h-6.218a0.765,0.765,0,1,0,0,1.53h6.218A0.765,0.765,0,1,0,370.609,1618.59Zm-1.173,2.88h-3.864a0.765,0.765,0,1,0,0,1.53h3.864A0.765,0.765,0,1,0,369.436,1621.47Zm-1.936-30.3a0.774,0.774,0,0,0,.777-0.77v-2.64a0.777,0.777,0,0,0-1.554,0v2.64A0.767,0.767,0,0,0,367.5,1591.17Zm-7.257,2.96a0.75,0.75,0,0,0,0-1.08l-1.9-1.87a0.783,0.783,0,0,0-1.1,0,0.756,0.756,0,0,0,0,1.08l1.9,1.87A0.8,0.8,0,0,0,360.243,1594.13Zm20.98,6.36h-2.684a0.765,0.765,0,1,0,0,1.53h2.684A0.765,0.765,0,1,0,381.223,1600.49Zm-24.763,0h-2.683a0.765,0.765,0,1,0,0,1.53h2.683A0.765,0.765,0,1,0,356.46,1600.49Z" transform="translate(-353 -1587)"/>
</svg>
