<svg xmlns="http://www.w3.org/2000/svg" viewBox="0 0 144.33333 175.2597"><defs><style>.cls-1{fill:none;stroke:#fff;stroke-linecap:round;stroke-linejoin:round;stroke-width:2px}.cls-2{fill:#fff}</style></defs><title>Ресурс 1</title><g id="Слой_2" data-name="Слой 2"><g id="Слой_1-2" data-name="Слой 1"><path class="cls-1" d="M1 73.006S23.108 94.23 45.658 91.135m15.033 42.889v40.236m26.971-49.08l4.422 49.08H31.509l13.264-14.591s-5.306-49.964 2.653-73.398M6.748 54.436s38.467 32.72 50.848 11.938l-1.769-19.897s-6.632 0-6.632-1.769 17.244-27.413 33.604-11.496c6.64 6.64 2.9 18.923.442 27.414a33.501 33.501 0 0 0-1.327 8.843s25.42 14.917 51.753-5.35M77.935 38.518s-.948 18.737-21.255 17.548"/><circle class="cls-2" cx="64.007" cy="40.508" r="1.99"/><path class="cls-1" d="M5.066 64.119a62.734 62.734 0 0 0 7.343 5.836m75.405 56.914s-4.147-29.35-3.147-38.35m-.156 5.667s34.156 7 58.822-12.667M8.738 40.508S30.667-2.148 74 1.186s53.333 54.935 53.333 54.935"/><path class="cls-1" d="M12.738 44.506S31.668 2.842 75 6.184c38.922 3.002 48.333 52.335 48.333 52.335"/></g></g></svg>