<svg xmlns="http://www.w3.org/2000/svg" viewBox="0 0 237.01541 397.77979"><defs><style>.cls-1{fill:none;stroke:#fff;stroke-linecap:round;stroke-linejoin:round;stroke-width:6px}.cls-2{fill:#fff}</style></defs><title>Ресурс 1</title><g id="Слой_2" data-name="Слой 2"><g id="Слой_1-2" data-name="Слой 1"><path class="cls-1" d="M155.814 286.981V394.78m48.568-229.813c1.185 99.507-5.923 190.721-5.923 190.721l35.538 39.092H71.707l11.846-131.49c-10.662 9.476-26.061 0-26.061 0 11.846-3.555 9.476-20.14 9.476-20.14S4.185 214.72 3 182.737c0-42.645 95.953-68.707 95.953-68.707a89.755 89.755 0 0 0-3.554-23.692C88.81 67.59 78.792 34.683 96.583 16.892c43.83-42.645 90.03 26.061 90.03 30.8s-17.769 4.738-17.769 4.738l-4.738 53.307c113.721 59.23 54.491 122.014 54.491 122.014s2.37 10.661 15.4 5.923c0 0 1.185 22.507-27.246 16.584M110.557 37.53c2.814 13.433 13.817 43.06 56.003 40.592M98.953 114.03s45.243 1.998 65.153-8.293"/><path class="cls-2" d="M194.515 21.53h-78.5l-39.25 6.5-2.867 6.028a1.665 1.665 0 0 0 2.865 1.673l2.252-3.201 38.57-3.546c2.104 4.327 6.975 8.546 18.18 8.546 18.5 0 17.5-13 17.5-13h3.25s1.25 13 20 13 18-16 18-16z"/></g></g></svg>