<svg xmlns="http://www.w3.org/2000/svg" viewBox="0 0 118.72889 148.23268"><defs><style>.cls-1{fill:none;stroke:#fff;stroke-linecap:round;stroke-linejoin:round;stroke-width:2px}.cls-2{fill:#fff}</style></defs><title>Ресурс 1</title><g id="Слой_2" data-name="Слой 2"><g id="Слой_1-2" data-name="Слой 1"><path class="cls-1" d="M1 45.98s22.108 21.223 44.658 18.128m15.033 42.889v40.236"/><path class="cls-1" d="M6.748 27.409s38.467 32.72 50.848 11.938L55.827 19.45s-6.632 0-6.632-1.769S66.439-9.732 82.799 6.185c6.64 6.64 2.9 18.923.442 27.414a33.501 33.501 0 0 0-1.327 8.843s35.815 9.727 35.815 25.645c-.442 11.938-23.876 22.55-23.876 22.55s-.885 6.19 3.537 7.517c0 0-5.748 3.537-9.728 0l4.422 49.079H31.509l13.264-14.591s-5.306-49.964 2.653-73.398m30.509-47.753S76.987 30.228 56.68 29.04"/><circle class="cls-2" cx="64.007" cy="13.481" r="1.99"/><path class="cls-1" d="M5.066 37.092a62.734 62.734 0 0 0 7.343 5.836"/></g></g></svg>