<svg width="86" height="50" viewBox="0 0 86 50" fill="none" xmlns="http://www.w3.org/2000/svg">
<path d="M18.4069 27.2328L26.0229 13.9283L27.876 20.8443L22.0129 30.4905L31.9861 36.1832L33.7875 42.9061L20.5395 35.1921L23.3555 45.7013L18.1781 47.0886L15.3622 36.5793L8.13249 49.7803L6.3311 43.0575L11.7354 33.2444L2.22106 27.7186L0.367913 20.8025L13.2295 28.6201L10.4135 18.1108L15.5909 16.7236L18.4069 27.2328ZM37.7725 10.78L46.1356 27.464L45.0362 8.8337L53.3046 6.61821L61.0691 35.596L56.085 36.9315L50.3702 15.6038L51.3326 38.2049L47.0053 39.3644L36.5382 19.3101L42.2529 40.6378L37.2687 41.9733L29.5042 12.9955L37.7725 10.78ZM61.8144 4.33801L67.0529 23.8884L72.4396 1.491L77.9647 0.0105573L85.7292 28.9883L80.7064 30.3342L75.4783 10.8225L70.0426 33.1916L64.5561 34.6616L56.7916 5.68387L61.8144 4.33801Z" fill="white"/>
</svg>
