<svg width="85" height="87" viewBox="0 0 85 87" fill="none" xmlns="http://www.w3.org/2000/svg">
<path d="M69.7527 76.7691L62.4725 74.947L61.1264 82.3733L54.478 78.8396L51.3736 85.7414L45.7692 80.6893L41.1264 86.6525L36.8956 80.4132L30.9615 85.0789L28.3242 78.0114L21.4835 81.1034L20.6044 73.5943L13.1868 74.947L14.1209 67.4655L6.62088 66.9961L9.31319 59.9563L2.14286 57.6925L6.42857 51.5085L0 47.5883L5.65934 42.619L0.32967 37.2632L7.00549 33.7847L3.1044 27.297L10.4121 25.5301L8.18681 18.3247L15.6868 18.3523L15.2473 10.7879L22.5275 12.6376L23.9011 5.21124L30.522 8.74496L33.6264 1.84317L39.2308 6.86768L43.8736 0.932129L48.1044 7.17135L54.0385 2.50574L56.6758 9.57318L63.5165 6.48117L64.3956 13.9903L71.8132 12.61L70.8791 20.1191L78.3791 20.5608L75.6868 27.6283L82.8571 29.8645L78.5714 36.0761L85 39.9963L79.3681 44.9656L84.6703 50.3214L77.9945 53.7999L81.8956 60.26L74.5879 62.0545L76.8132 69.2599L69.3132 69.2323L69.7527 76.7691Z" fill="#FC3F27"/>
</svg>
