<svg width="44" height="38" viewBox="0 0 44 38" fill="none" xmlns="http://www.w3.org/2000/svg">
<path d="M44.0001 6.30243L33.6406 4.54834V14.9021H35.6297V8.53772C39.433 13.6758 40.3719 18.8139 38.4941 24.2003C35.948 31.4961 30.3784 35.5165 21.9603 36.1529L21.6738 36.1684V37.9691L22.008 37.9536C29.0735 37.7518 34.4681 34.9111 38.0485 29.4936C42.8384 22.2599 42.552 14.7158 37.2051 7.09409L43.7932 8.13413L44.0001 6.30243Z" fill="white"/>
<path d="M8.37034 29.6487C4.51935 25.0694 3.38951 19.9935 5.01266 14.5449C7.30416 6.86111 12.9533 2.59232 21.8011 1.86274L22.0239 1.84722L21.8966 0C21.8966 0 21.0373 0.0465686 20.5758 0.10866C20.5121 0.10866 20.4644 0.124183 20.4007 0.124183C12.5873 0.962418 7.09729 4.75 4.08969 11.3938C1.0821 18.0065 1.9255 24.5106 6.57215 30.7198C6.65172 30.8284 6.73128 30.9371 6.82676 31.0613L0.175045 29.9436L0 31.884L10.3913 33.7157V23.2688L8.37034 23.3619V29.6487V29.6487Z" fill="white"/>
</svg>
